<svg width="1em" height="1em" viewBox="0 0 16 16" fill="none">
<path d="M7.81152 4.34863C8.90476 4.34863 9.79101 3.46238 9.79101 2.36914C9.79101 1.2759 8.90476 0.389648 7.81152 0.389648C6.71828 0.389648 5.83203 1.2759 5.83203 2.36914C5.83203 3.46238 6.71828 4.34863 7.81152 4.34863Z" fill="#00284B"/>
<path d="M7.81152 15.9993C8.90476 15.9993 9.79101 15.113 9.79101 14.0198C9.79101 12.9265 8.90476 12.0403 7.81152 12.0403C6.71828 12.0403 5.83203 12.9265 5.83203 14.0198C5.83203 15.113 6.71828 15.9993 7.81152 15.9993Z" fill="#00284B"/>
<path d="M13.6357 10.1738C14.729 10.1738 15.6152 9.28757 15.6152 8.19433C15.6152 7.10109 14.729 6.21484 13.6357 6.21484C12.5425 6.21484 11.6562 7.10109 11.6562 8.19433C11.6562 9.28757 12.5425 10.1738 13.6357 10.1738Z" fill="#00284B"/>
<path d="M1.98535 10.1738C3.07859 10.1738 3.96483 9.28757 3.96483 8.19433C3.96483 7.10109 3.07859 6.21484 1.98535 6.21484C0.892106 6.21484 0.00585938 7.10109 0.00585938 8.19433C0.00585938 9.28757 0.892106 10.1738 1.98535 10.1738Z" fill="#00284B"/>
<path d="M7.80583 5.04768L4.64648 8.20703L7.80583 11.3664L10.9652 8.20703L7.80583 5.04768Z" fill="#00284B"/>
<path d="M11.375 4.63188V1.25732L14.7684 4.63188H11.375Z" fill="#00284B"/>
<path d="M4.2476 4.63188H0.873047L4.2476 1.25732V4.63188Z" fill="#00284B"/>
<path d="M4.2476 11.7576V15.151L0.873047 11.7576H4.2476Z" fill="#00284B"/>
<path d="M11.375 11.7576H14.7684L11.375 15.151V11.7576Z" fill="#00284B"/>
</svg>
