<?xml version="1.0" encoding="utf-8"?>
<!-- Generator: Adobe Illustrator 21.0.0, SVG Export Plug-In . SVG Version: 6.00 Build 0)  -->
<svg version="1.1" id="Warstwa_1" xmlns="http://www.w3.org/2000/svg" xmlns:xlink="http://www.w3.org/1999/xlink" x="0px" y="0px"
	 viewBox="0 0 30 30" style="enable-background:new 0 0 30 30;" xml:space="preserve">
<path d="M15,2.5c6.9,0,12.5,5.6,12.5,12.5S21.9,27.5,15,27.5S2.5,21.9,2.5,15S8.1,2.5,15,2.5 M15,2C7.8,2,2,7.8,2,15s5.8,13,13,13
	c7.2,0,13-5.8,13-13S22.2,2,15,2L15,2z M20.8,17.2l-2.2-2.2C18.6,15,18.5,15,18.5,15h-7c-0.1,0-0.1,0-0.2,0.1l-2.2,2.2
	c-0.1,0.1-0.1,0.3,0,0.4c0,0,0.1,0.1,0.2,0.1s0.1,0,0.2-0.1l2-2V22h7v-6.4l2,2c0,0,0.1,0.1,0.2,0.1s0.1,0,0.2-0.1
	C20.9,17.5,20.9,17.3,20.8,17.2z M18,21.5h-6v-6h6V21.5z M17.3,10.7c-0.1-0.1-0.3-0.1-0.4,0l-1.7,1.7V6.7c0-0.1-0.1-0.3-0.3-0.3
	s-0.3,0.1-0.3,0.3v5.8L13,10.7c-0.1-0.1-0.3-0.1-0.4,0s-0.1,0.3,0,0.4l2.2,2.2c0,0,0.1,0.1,0.2,0.1s0.1,0,0.2-0.1l2.2-2.2
	C17.4,11,17.4,10.8,17.3,10.7z"/>
</svg>
