<?xml version="1.0" encoding="UTF-8" standalone="no"?>
<svg
   version="1.1"
   viewBox="0 0 30 30">
  <path d="m 16.708714,1.4145934 c -0.729288,-0.01612 -1.462677,0.02633 -2.191983,0.128939 -2.917222,0.410447 -5.6222323,1.7595161 -7.7071011,3.8408521 L 1.7653373,10.12391 V 3.6925335 A 0.88246148,0.88246148 0 0 0 0.87057111,2.7977685 0.88246148,0.88246148 0 0 0 0.0012023,3.6925335 v 8.4260405 a 0.88246148,0.88246148 0 0 0 0.94751432,0.926024 H 9.3532664 a 0.88246148,0.88246148 0 1 0 0,-1.764134 H 3.1113937 L 8.0384682,6.6522956 a 0.88246148,0.88246148 0 0 0 0.019536,-0.019537 C 9.8722809,4.8215565 12.224291,3.6492135 14.76289,3.2920375 c 2.538602,-0.357156 5.125453,0.119446 7.369122,1.359732 2.243484,1.2403017 4.021842,3.1773394 5.06969,5.5170735 1.047647,2.339745 1.307232,4.95537 0.738475,7.455082 -0.568963,2.499729 -1.934571,4.746312 -3.891647,6.402071 -1.956925,1.655996 -4.399514,2.630861 -6.958857,2.778073 -2.559322,0.147408 -5.09633,-0.540936 -7.2304144,-1.961452 C 7.725189,23.422111 6.1103081,21.34684 5.2584416,18.928955 a 0.88246148,0.88246148 0 1 0 -1.6644994,0.586092 c 0.9789247,2.778518 2.8341905,5.164339 5.2865439,6.796705 2.4523399,1.632357 5.3696359,2.423899 8.3107749,2.254498 2.941121,-0.169171 5.74742,-1.289239 7.99624,-3.192244 2.249095,-1.902818 3.820035,-4.484956 4.47383,-7.3574 0.653579,-2.872503 0.35601,-5.879971 -0.847878,-8.5686552 a 0.88246148,0.88246148 0 0 0 0,-0.0019 C 27.609342,6.7573493 25.563839,4.5336865 22.985751,3.1084005 21.052041,2.0394564 18.896574,1.4629534 16.708714,1.4145974 Z" />
</svg>
