<svg version="1.1" viewBox="0 0 30 30">
  <g transform="translate(0,-1022.3622)">
    <path d="m 15,1023.3622 c -7.72902,0 -14,6.271 -14,14 0,7.729 6.27098,14 14,14 7.72903,0 14,-6.271 14,-14 0,-7.729 -6.27097,-14 -14,-14 z m 0,0.5 c 7.45881,0 13.5,6.0412 13.5,13.5 0,7.4588 -6.04119,13.5 -13.5,13.5 -7.4588,0 -13.5,-6.0412 -13.5,-13.5 0,-7.4588 6.0412,-13.5 13.5,-13.5 z" />
    <path transform="translate(0,1022.3622)" d="M 15.230469 9.5917969 C 12.235313 9.5917969 9.8339844 11.993181 9.8339844 14.988281 C 9.8339844 17.983481 12.239219 20.429688 15.234375 20.429688 C 17.179093 20.429688 18.881325 19.399119 19.839844 17.859375 L 19.236328 17.859375 C 18.343023 19.108097 16.889033 19.929688 15.234375 19.929688 C 12.509439 19.929688 10.306641 17.725 10.306641 15 C 10.306641 12.2751 12.509439 10.072266 15.234375 10.072266 C 16.334629 10.072266 17.338834 10.443164 18.158203 11.050781 L 18.160156 11.046875 C 19.072875 11.73288 19.674482 12.839524 19.675781 14.105469 C 19.675781 15.552807 18.890591 16.787202 17.75 17.425781 C 16.551947 17.976753 16.742899 17.144023 16.910156 16.433594 L 18.181641 12.146484 L 17.660156 12.148438 L 17.15625 13.855469 C 17.107398 13.44469 16.99246 13.069758 16.828125 12.769531 C 16.51205 12.192231 16.012898 11.884766 15.298828 11.884766 C 14.584758 11.884766 13.807667 12.215669 13.232422 12.792969 C 12.657166 13.370369 12.24526 14.189175 12.052734 15.046875 C 11.860208 15.904675 11.951512 16.701984 12.291016 17.271484 C 12.607091 17.848784 13.161131 18.209662 13.875 18.226562 C 14.862508 18.249562 15.264599 17.856597 15.886719 17.216797 C 16.040053 17.059102 16.183055 16.890352 16.316406 16.712891 C 16.264986 16.868318 16.161235 17.224746 16.240234 17.630859 C 16.265244 17.759359 16.313134 17.891506 16.410156 18.003906 C 16.507176 18.116406 16.741103 18.205569 16.90625 18.230469 C 18.878607 18.000424 20.165155 15.857884 20.175781 14.109375 C 20.160433 12.40568 19.393893 11.373717 18.4375 10.615234 C 17.278889 9.815035 16.241772 9.6046712 15.230469 9.5917969 z M 15.1875 12.376953 C 15.71995 12.376953 16.094149 12.585506 16.357422 13.066406 C 16.620695 13.547306 16.759791 14.297587 16.589844 15.054688 C 16.419875 15.811987 16.029948 16.439022 15.550781 16.919922 C 15.071614 17.400822 14.516825 17.732422 13.984375 17.732422 C 13.451925 17.732422 13.026945 17.455509 12.763672 16.974609 C 12.500399 16.493709 12.388625 15.804175 12.558594 15.046875 C 12.728541 14.289775 13.091145 13.570744 13.570312 13.089844 C 14.04948 12.608944 14.65505 12.376953 15.1875 12.376953 z " />
  </g>
</svg>
