<?xml version="1.0" encoding="utf-8"?>
<!-- Generator: Adobe Illustrator 21.0.0, SVG Export Plug-In . SVG Version: 6.00 Build 0)  -->
<svg version="1.1" id="Warstwa_3" xmlns="http://www.w3.org/2000/svg" xmlns:xlink="http://www.w3.org/1999/xlink" x="0px" y="0px"
	 viewBox="0 0 30 30" style="enable-background:new 0 0 30 30;" xml:space="preserve">
<path d="M15,2.5c6.9,0,12.5,5.6,12.5,12.5S21.9,27.5,15,27.5S2.5,21.9,2.5,15S8.1,2.5,15,2.5 M15,2C7.8,2,2,7.8,2,15s5.8,13,13,13
	c7.2,0,13-5.8,13-13S22.2,2,15,2L15,2z"/>
<path d="M19.3,10.9c0-2.1-1.7-3.7-3.7-3.7c-2.1,0-3.7,1.7-3.7,3.7c0,0,0,0,0,0v9c0,1.5,1.2,2.8,2.8,2.8c1.5,0,2.7-1.2,2.7-2.7
	c0,0,0,0,0,0v-5.2v-0.5v-0.6V13v-1.3c0-1-0.8-1.8-1.8-1.8c-1,0-1.7,0.8-1.8,1.7c0,0,0,0,0,0v0v1.3c0,0,0,0,0,0c0,0,0,0,0,0
	c0,1,0.8,1.8,1.8,1.8c0.5,0,0.9-0.2,1.3-0.5v0.3v3.9v1.6c0,0,0,0,0,0v0c0,1.2-1,2.2-2.3,2.2s-2.2-1-2.3-2.2v-0.1v-1.6v-5.6V11
	c0-1.8,1.5-3.3,3.3-3.3c1.7,0,3.1,1.3,3.3,3l0,0v2.1v1.9v2c0,0.1,0.1,0.3,0.3,0.3s0.3-0.1,0.3-0.3L19.3,10.9
	C19.3,11,19.3,11,19.3,10.9z M15.5,14.2c-0.7,0-1.3-0.6-1.3-1.3c0,0,0,0,0,0c0,0,0,0,0-0.1c0,0,0,0,0,0v-1.1v-0.1
	c0-0.7,0.6-1.3,1.3-1.3s1.3,0.6,1.3,1.3v0.1v1.1V13C16.8,13.7,16.2,14.2,15.5,14.2z"/>
</svg>
