<svg version="1.1" xmlns="http://www.w3.org/2000/svg" xmlns:xlink="http://www.w3.org/1999/xlink" x="0px" y="0px" viewBox="0 0 1000 1000" enable-background="new 0 0 1000 1000" xml:space="preserve">
<g><g><g><path d="M500,990C229.8,990,10,770.2,10,500C10,229.8,229.8,10,500,10c270.2,0,490,219.8,490,490C990,770.2,770.2,990,500,990z M500,69.3C262.5,69.3,69.3,262.5,69.3,500c0,237.5,193.2,430.7,430.7,430.7c237.5,0,430.8-193.2,430.8-430.7C930.7,262.5,737.5,69.3,500,69.3z"/><polygon points="538.4,685.3 385.5,500 538.4,314.7 584.1,352.4 462.3,500 584.1,647.6 "/></g></g><g></g><g></g><g></g><g></g><g></g><g></g><g></g><g></g><g></g><g></g><g></g><g></g><g></g><g></g><g></g></g>
</svg>