<?xml version="1.0" encoding="UTF-8" standalone="no"?>
<svg
   xmlns:dc="http://purl.org/dc/elements/1.1/"
   xmlns:cc="http://creativecommons.org/ns#"
   xmlns:rdf="http://www.w3.org/1999/02/22-rdf-syntax-ns#"
   xmlns:svg="http://www.w3.org/2000/svg"
   xmlns="http://www.w3.org/2000/svg"
   version="1.1"
   x="0px"
   y="0px"
   width="30"
   height="30"
   viewBox="0 0 30 30"
   enable-background="new 0 0 27 27"
   xml:space="preserve"
   id="svg535"><metadata
     id="metadata541"><rdf:RDF><cc:Work
         rdf:about=""><dc:format>image/svg+xml</dc:format><dc:type
           rdf:resource="http://purl.org/dc/dcmitype/StillImage" /><dc:title></dc:title></cc:Work></rdf:RDF></metadata><defs
     id="defs539" /><g
     id="Layer_19"
     display="none"
     style="display:none"
     transform="translate(0,3)"><g
       display="inline"
       id="g370"
       style="display:inline"><path
         d="m 13.5,0.996 c 6.895,0 12.503,5.608 12.503,12.502 C 26.003,20.392 20.395,26 13.5,26 6.606,26 0.997,20.392 0.997,13.498 0.997,6.604 6.606,0.996 13.5,0.996 m 0,-1 C 6.042,-0.004 -0.003,6.041 -0.003,13.498 -0.003,20.955 6.042,27 13.5,27 20.956,27 27.003,20.955 27.003,13.498 27.003,6.041 20.956,-0.004 13.5,-0.004 Z"
         id="path368" /></g></g><g
     id="Layer_1"
     display="none"
     style="display:none"
     transform="translate(0,3)"><g
       display="inline"
       id="g375"
       style="display:inline"><path
         d="M 13.5,1 C 20.393,1 26,6.607 26,13.5 26,20.393 20.393,26 13.5,26 6.607,26 1,20.393 1,13.5 1,6.607 6.607,1 13.5,1 m 0,-1 C 6.044,0 0,6.044 0,13.5 0,20.956 6.044,27 13.5,27 20.956,27 27,20.956 27,13.5 27,6.044 20.956,0 13.5,0 Z"
         id="path373" /></g><path
       display="inline"
       d="m 12.786,17.732 v -7.199 h -0.759 c -0.793,0 -1.33,0.114 -1.61,0.342 -0.28,0.228 -0.486,0.715 -0.619,1.463 H 9.47 L 9.504,11.142 9.545,9.946 h 3.951 3.958 l 0.033,1.196 0.041,1.196 H 17.2 c -0.132,-0.748 -0.338,-1.235 -0.618,-1.463 -0.28,-0.228 -0.817,-0.342 -1.61,-0.342 h -0.758 v 7.199 c 0,0.496 0.084,0.82 0.253,0.974 0.168,0.153 0.526,0.233 1.073,0.243 v 0.266 h -2.03 -2.038 v -0.266 c 0.542,-0.01 0.898,-0.092 1.066,-0.246 0.166,-0.15 0.248,-0.474 0.248,-0.971 z"
       id="path377"
       style="display:inline" /></g><g
     id="Layer_2"
     display="none"
     style="display:none"
     transform="translate(0,3)"><g
       display="inline"
       id="g382"
       style="display:inline"><path
         d="m 15.392,14.717 c -0.07,0.225 -0.127,0.49 -0.127,0.701 0,0.195 0.098,0.279 0.336,0.279 0.896,0 1.961,-1.499 1.961,-3.054 0,-2.199 -1.861,-3.6 -3.81,-3.6 -2.424,0 -4.314,2.045 -4.314,4.454 0,2.508 2.003,4.455 4.314,4.455 1.388,0 2.774,-0.673 3.53,-1.695 h 0.883 c -0.896,1.527 -2.592,2.451 -4.413,2.451 -2.941,0 -5.239,-2.311 -5.239,-5.211 0,-2.913 2.354,-5.211 5.239,-5.211 2.563,0 4.735,1.779 4.735,4.286 0,2.424 -1.961,4.049 -3.277,4.049 -0.477,0 -0.869,-0.294 -0.896,-0.925 h -0.029 c -0.435,0.504 -0.925,0.925 -1.751,0.925 -1.19,0 -1.975,-0.952 -1.975,-2.172 0,-1.946 1.288,-3.964 3.264,-3.964 0.644,0 1.247,0.309 1.556,1.148 h 0.027 l 0.252,-0.882 h 0.91 z m -2.607,0.98 c 1.219,0 2.171,-1.821 2.171,-2.97 0,-0.714 -0.545,-1.316 -1.134,-1.316 -1.317,0 -2.256,1.723 -2.256,2.941 0,0.771 0.519,1.345 1.219,1.345 z"
         id="path380" /></g></g><g
     id="Layer_3"
     display="none"
     style="display:none"
     transform="translate(0,3)"><g
       display="inline"
       id="g387"
       style="display:inline"><path
         d="m 11.978,9.009 v 3 h -3 v -3 h 3 m 1,-1 h -5 v 5 h 5 z"
         id="path385" /></g><g
       display="inline"
       id="g391"
       style="display:inline"><path
         d="m 11.978,15 v 3 h -3 v -3 h 3 m 1,-1 h -5 v 5 h 5 z"
         id="path389" /></g><g
       display="inline"
       id="g395"
       style="display:inline"><path
         d="m 17.986,9.009 v 3 h -3 v -3 h 3 m 1,-1 h -5 v 5 h 5 z"
         id="path393" /></g><g
       display="inline"
       id="g399"
       style="display:inline"><path
         d="m 17.986,15 v 3 h -3 v -3 h 3 m 1,-1 h -5 v 5 h 5 z"
         id="path397" /></g></g><g
     id="Layer_4"
     display="none"
     style="display:none"
     transform="translate(0,3)"><g
       id="g404"><path
         display="inline"
         d="m 12.97,2.037 c 6.617,0 12,5.383 12,12 0,6.617 -5.383,12 -12,12 -6.617,0 -12,-5.383 -12,-12 0,-6.617 5.383,-12 12,-12 m 0,-1 c -7.18,0 -13,5.82 -13,13 0,7.18 5.82,13 13,13 7.18,0 13,-5.82 13,-13 0,-7.18 -5.821,-13 -13,-13 z"
         id="path402"
         style="display:inline" /></g><g
       display="inline"
       id="g408"
       style="display:inline"><path
         d="m 16.497,14.016 c 0.275,0 0.5,0.225 0.5,0.501 0,0.275 -0.225,0.499 -0.5,0.499 -0.275,0 -0.5,-0.224 -0.5,-0.499 0,-0.276 0.225,-0.501 0.5,-0.501 m 0,-1 c -0.828,0 -1.5,0.671 -1.5,1.501 0,0.829 0.672,1.499 1.5,1.499 0.828,0 1.5,-0.67 1.5,-1.499 0,-0.83 -0.672,-1.501 -1.5,-1.501 z"
         id="path406" /></g><g
       display="inline"
       id="g414"
       style="display:inline"><polygon
         points="19.005,10.978 10.607,10.978 6.935,10.978 6.935,11.609 6.935,18.037 19.005,18.037 "
         id="polygon410"
         style="fill:none" /><path
         d="M 19.757,9.978 H 10.928 9.918 6.955 C 6.952,9.946 6.937,9.919 6.937,9.886 c 0,-0.551 0.449,-0.999 1,-0.999 h 2.723 8.85 v -1 H 7.937 c -0.738,0 -1.376,0.405 -1.723,1 -0.172,0.295 -0.277,0.634 -0.277,0.999 0,0.078 -0.009,0.152 0,0.228 -0.006,0.014 0,0.023 0,0.039 v 8.708 c 0,0.098 0.112,0.176 0.25,0.176 h 13.57 c 0.137,0 0.25,-0.078 0.25,-0.176 v -8.708 c 0,-0.097 -0.113,-0.175 -0.25,-0.175 z m -0.752,8.059 H 6.935 v -6.428 -0.631 h 3.673 8.397 z"
         id="path412" /></g></g><g
     id="Layer_5"
     display="none"
     style="display:none"
     transform="translate(0,3)"><path
       display="inline"
       d="M 21.97,13.037 H 7.826 l 3.008,-2.998 -0.707,-0.7 -4.067,4.071 c -0.097,0.097 -0.096,0.255 0.002,0.354 l 4.182,4.184 0.707,-0.726 -3.165,-3.185 H 21.97 Z"
       id="path417"
       style="display:inline" /><g
       id="g421"><path
         display="inline"
         d="m 12.97,2.037 c 6.617,0 12,5.383 12,12 0,6.617 -5.383,12 -12,12 -6.617,0 -12,-5.383 -12,-12 0,-6.617 5.383,-12 12,-12 m 0,-1 c -7.18,0 -13,5.82 -13,13 0,7.18 5.82,13 13,13 7.18,0 13,-5.82 13,-13 0,-7.18 -5.821,-13 -13,-13 z"
         id="path419"
         style="display:inline" /></g></g><g
     id="Layer_5_copy"
     display="none"
     style="display:none"
     transform="translate(0,3)"><path
       display="inline"
       d="m 4.97,14.037 h 14.183 l -3.008,2.998 0.707,0.699 4.067,-4.07 c 0.096,-0.097 0.096,-0.255 -0.003,-0.354 l -4.182,-4.184 -0.707,0.726 3.165,3.185 H 4.97 Z"
       id="path424"
       style="display:inline" /><g
       id="g428"><path
         display="inline"
         d="m 12.97,2.037 c 6.617,0 12,5.383 12,12 0,6.617 -5.383,12 -12,12 -6.617,0 -12,-5.383 -12,-12 0,-6.617 5.383,-12 12,-12 m 0,-1 c -7.18,0 -13,5.82 -13,13 0,7.18 5.82,13 13,13 7.18,0 13,-5.82 13,-13 0,-7.18 -5.821,-13 -13,-13 z"
         id="path426"
         style="display:inline" /></g></g><g
     id="Layer_7"
     display="none"
     style="display:none"
     transform="translate(0,3)"><g
       id="g433"><path
         display="inline"
         d="m 12.97,2.037 c 6.617,0 12,5.383 12,12 0,6.617 -5.383,12 -12,12 -6.617,0 -12,-5.383 -12,-12 0,-6.617 5.383,-12 12,-12 m 0,-1 c -7.18,0 -13,5.82 -13,13 0,7.18 5.82,13 13,13 7.18,0 13,-5.82 13,-13 0,-7.18 -5.821,-13 -13,-13 z"
         id="path431"
         style="display:inline" /></g><g
       display="inline"
       id="g439"
       style="display:inline"><g
         id="g437"><path
           d="m 13.97,13.037 c -0.552,0 -1,0.447 -1,1 0,0.553 0.448,1 1,1 0.553,0 1,-0.447 1,-1 0,-0.553 -0.448,-1 -1,-1 z m 6.716,0 H 19.36 c -0.144,-1 -0.443,-1.481 -0.867,-2.098 l 0.953,-0.96 C 19.544,9.881 19.57,9.747 19.505,9.681 L 18.327,8.502 C 18.263,8.438 18.13,8.462 18.032,8.56 L 17.084,9.513 C 16.459,9.081 15.97,8.778 14.97,8.635 V 7.287 c 0,-0.139 -0.084,-0.25 -0.177,-0.25 h -1.665 c -0.093,0 -0.158,0.111 -0.158,0.25 v 1.347 c -1,0.141 -1.479,0.436 -2.098,0.858 L 9.938,8.561 C 9.841,8.463 9.707,8.436 9.642,8.502 L 8.464,9.678 C 8.399,9.744 8.424,9.877 8.522,9.975 l 0.925,0.938 C 9.013,11.536 8.705,12.037 8.559,13.037 H 7.236 c -0.138,0 -0.266,0.051 -0.266,0.143 v 1.664 c 0,0.094 0.128,0.193 0.266,0.193 h 1.316 c 0.14,1 0.445,1.502 0.881,2.134 L 8.474,18.123 C 8.376,18.221 8.35,18.351 8.416,18.415 l 1.177,1.177 c 0.066,0.066 0.198,0.038 0.295,-0.06 l 0.964,-0.961 c 0.623,0.429 1.117,0.73 2.117,0.872 v 1.361 c 0,0.139 0.065,0.232 0.158,0.232 h 1.665 c 0.093,0 0.177,-0.094 0.177,-0.232 v -1.361 c 1,-0.144 1.505,-0.453 2.135,-0.892 l 0.93,0.933 c 0.098,0.098 0.229,0.123 0.294,0.059 l 1.178,-1.178 c 0.064,-0.064 0.038,-0.197 -0.06,-0.295 l -0.938,-0.926 c 0.426,-0.626 0.723,-1.107 0.861,-2.107 h 1.316 c 0.138,0 0.284,-0.1 0.284,-0.193 V 13.18 c 10e-4,-0.092 -0.146,-0.143 -0.283,-0.143 z m -6.726,4.502 c -1.93,0 -3.5,-1.57 -3.5,-3.5 0,-1.93 1.57,-3.5 3.5,-3.5 1.929,0 3.5,1.57 3.5,3.5 0,1.93 -1.57,3.5 -3.5,3.5 z"
           id="path435" /></g></g></g><g
     id="Layer_9"
     display="none"
     style="display:none"
     transform="translate(0,3)"><g
       display="inline"
       id="g465"
       style="display:inline"><g
         display="none"
         id="g455"
         style="display:none"><path
           display="inline"
           d="m 12.97,2.397 c 6.617,0 12,5.383 12,12 0,6.617 -5.383,12 -12,12 -6.617,0 -12,-5.383 -12,-12 0,-6.616 5.383,-12 12,-12 m 0,-1 c -7.18,0 -13,5.82 -13,13 0,7.18 5.82,13 13,13 7.18,0 13,-5.82 13,-13 0,-7.18 -5.821,-13 -13,-13 z"
           id="path453"
           style="display:inline" /></g><path
         d="m 12.937,7.648 c 0.013,0 0.023,0.004 0.036,0.004 0.01,0 0.02,-0.002 0.029,-0.002 0.173,-0.018 0.309,-0.158 0.309,-0.334 0,-0.188 -0.152,-0.342 -0.34,-0.342 -0.188,0 -0.34,0.154 -0.34,0.342 -10e-4,0.176 0.134,0.315 0.306,0.332 z"
         id="path457"
         style="fill:none" /><path
         d="M 15.554,12.531 C 15.556,11.476 15.557,10.033 14.788,9.263 14.382,8.857 13.785,8.658 12.972,8.65 c -0.813,0.008 -1.409,0.207 -1.816,0.613 -0.769,0.77 -0.767,2.213 -0.766,3.268 v 0.127 c 0,2.971 -0.762,4.557 -1.567,5.414 h 1.69 1.042 2.804 1.042 1.72 c -0.806,-0.857 -1.567,-2.443 -1.567,-5.414 z"
         id="path459"
         style="fill:none" /><path
         d="m 19.176,18.111 c -10e-4,0 -0.002,0 -0.002,0 -0.044,-0.018 -0.087,-0.035 -0.135,-0.039 -0.102,-0.008 -2.485,-0.254 -2.485,-5.414 v -0.125 c 0.002,-1.23 0.004,-2.914 -1.059,-3.977 -0.414,-0.414 -0.957,-0.678 -1.609,-0.807 0.063,-0.133 0.105,-0.277 0.105,-0.434 0,-0.564 -0.457,-1.021 -1.021,-1.021 -0.564,0 -1.021,0.457 -1.021,1.021 0,0.156 0.042,0.301 0.106,0.436 -0.65,0.129 -1.193,0.393 -1.606,0.805 -1.062,1.063 -1.06,2.746 -1.058,3.977 v 0.125 c 0,5.143 -2.368,5.404 -2.484,5.414 -0.273,0.018 -0.482,0.25 -0.469,0.523 0.013,0.268 0.234,0.477 0.499,0.477 0.008,0 0.017,0 0.024,-0.002 0.01,0 0.042,-0.004 0.084,-0.008 0.017,0.002 0.031,0.01 0.048,0.01 h 3.413 0.013 c 0,0.002 0.002,0.006 0.002,0.008 h 4.897 c 0.001,-0.002 0.002,-0.006 0.003,-0.008 h 3.559 c 0.001,0 0.003,-0.002 0.005,-0.002 0.008,0.002 0.016,0.002 0.023,0.002 0.262,0 0.478,-0.205 0.494,-0.469 0.015,-0.224 -0.126,-0.415 -0.326,-0.492 z M 12.97,6.975 c 0.188,0 0.34,0.154 0.34,0.342 0,0.176 -0.136,0.316 -0.309,0.334 -0.01,0 -0.019,0.002 -0.029,0.002 -0.013,0 -0.023,-0.004 -0.036,-0.004 C 12.765,7.631 12.629,7.493 12.629,7.317 12.63,7.129 12.782,6.975 12.97,6.975 Z m 2.431,11.097 h -1.042 -2.804 -1.042 -1.69 c 0.806,-0.857 1.567,-2.443 1.567,-5.414 v -0.127 c -0.001,-1.055 -0.003,-2.498 0.766,-3.268 0.407,-0.406 1.003,-0.605 1.816,-0.613 0.813,0.008 1.41,0.207 1.816,0.613 0.769,0.77 0.768,2.213 0.766,3.268 v 0.127 c 0,2.971 0.762,4.557 1.567,5.414 z"
         id="path461" /><path
         d="m 14.072,20.072 c -0.02,0.533 -0.454,0.965 -0.993,0.965 -0.539,0 -0.973,-0.432 -0.993,-0.965 h -1.004 c 0.02,1.088 0.904,1.965 1.997,1.965 1.092,0 1.977,-0.877 1.996,-1.965 z"
         id="path463" /></g></g><g
     id="Layer_10"
     display="none"
     style="display:none"
     transform="translate(0,3)"><path
       display="inline"
       d="M 9.835,8.037 C 9.868,8.037 9.97,7.881 9.97,7.748 V 7.225 C 9.97,7.094 9.868,7.037 9.835,7.037 H 8.748 8.224 8.047 C 8.014,7.037 7.97,7.094 7.97,7.225 v 0.209 0.314 12.527 0.268 0.256 c 0,0.133 0.044,0.238 0.077,0.238 h 1.788 c 0.033,0 0.135,-0.105 0.135,-0.238 v -0.523 c 0,-0.131 -0.102,-0.238 -0.135,-0.238 H 8.97 v -12 h 0.865 z"
       id="path468"
       style="display:inline" /><path
       display="inline"
       d="m 18.97,13.037 h -6.064 l 1.551,-1.559 -0.707,-0.711 -2.653,2.65 C 11,13.515 11.001,13.672 11.099,13.77 l 2.769,2.767 0.707,-0.707 -1.793,-1.793 h 6.189 v -1 z"
       id="path470"
       style="display:inline" /></g><g
     id="Layer_11"
     display="none"
     style="display:none"
     transform="translate(0,3)"><g
       display="inline"
       id="g477"
       style="display:inline"><path
         display="none"
         d="m 12.97,2.037 c 6.617,0 12,5.383 12,12 0,6.617 -5.383,12 -12,12 -6.617,0 -12,-5.383 -12,-12 0,-6.617 5.383,-12 12,-12 m 0,-1 c -7.18,0 -13,5.82 -13,13 0,7.18 5.82,13 13,13 7.18,0 13,-5.82 13,-13 0,-7.18 -5.821,-13 -13,-13 z"
         id="path473"
         style="display:none" /><path
         d="M 6.734,20.93 C 6.68,20.93 6.626,20.921 6.572,20.904 6.311,20.814 6.171,20.53 6.26,20.269 L 8.557,13.538 C 8.646,13.277 8.93,13.137 9.192,13.226 l 5.853,1.997 2.669,-7.827 c 0.09,-0.261 0.378,-0.401 0.635,-0.312 0.262,0.089 0.401,0.373 0.313,0.635 l -2.831,8.299 c -0.043,0.126 -0.134,0.229 -0.253,0.288 -0.118,0.058 -0.258,0.066 -0.382,0.024 L 9.342,14.333 7.206,20.59 c -0.07,0.209 -0.264,0.34 -0.472,0.34 z"
         id="path475" /></g></g><g
     id="Layer_12"
     display="none"
     style="display:none"
     transform="translate(0,3)"><g
       display="inline"
       id="g492"
       style="display:inline"><g
         display="none"
         id="g482"
         style="display:none"><path
           display="inline"
           d="m 12.97,1.037 c 6.617,0 12,5.383 12,12 0,6.617 -5.383,12 -12,12 -6.617,0 -12,-5.383 -12,-12 0,-6.617 5.383,-12 12,-12 m 0,-1 c -7.18,0 -13,5.82 -13,13 0,7.18 5.82,13 13,13 7.18,0 13,-5.82 13,-13 0,-7.18 -5.821,-13 -13,-13 z"
           id="path480"
           style="display:inline" /></g><g
         id="g486"><path
           d="m 14.966,12.537 v 5 h -5 v -5 h 5 m 1,-1 h -7 v 7 h 7 z"
           id="path484" /></g><g
         id="g490"><polygon
           points="16.958,16.545 17.974,16.545 17.974,9.545 10.973,9.545 10.973,10.544 16.958,10.544 "
           id="polygon488" /></g></g></g><g
     id="Layer_13"
     display="none"
     style="display:none"
     transform="translate(0,3)"><g
       display="inline"
       id="g509"
       style="display:inline"><g
         display="none"
         id="g497"
         style="display:none"><path
           display="inline"
           d="m 12.97,2.037 c 6.617,0 12,5.383 12,12 0,6.617 -5.383,12 -12,12 -6.617,0 -12,-5.383 -12,-12 0,-6.617 5.383,-12 12,-12 m 0,-1 c -7.18,0 -13,5.82 -13,13 0,7.18 5.82,13 13,13 7.18,0 13,-5.82 13,-13 0,-7.18 -5.821,-13 -13,-13 z"
           id="path495"
           style="display:inline" /></g><g
         id="g501"><path
           d="m 13.128,7.751 c 3.584,0 6.5,2.916 6.5,6.5 0,3.584 -2.916,6.5 -6.5,6.5 -3.584,0 -6.5,-2.916 -6.5,-6.5 0,-3.584 2.916,-6.5 6.5,-6.5 m 0,-1 c -4.143,0 -7.5,3.357 -7.5,7.5 0,4.143 3.357,7.5 7.5,7.5 4.143,0 7.5,-3.357 7.5,-7.5 0,-4.143 -3.357,-7.5 -7.5,-7.5 z"
           id="path499" /></g><circle
         cx="10.687"
         cy="12.875"
         r="1"
         id="circle503" /><circle
         cx="15.606"
         cy="12.875"
         r="1"
         id="circle505" /><path
         d="m 15.437,16.174 c -0.376,0.905 -1.269,1.545 -2.309,1.545 -1.04,0 -1.932,-0.64 -2.309,-1.545 H 9.777 c 0.417,1.465 1.751,2.545 3.351,2.545 1.599,0 2.934,-1.08 3.352,-2.545 z"
         id="path507" /></g></g><g
     id="Layer_14"
     display="none"
     style="display:none"
     transform="translate(0,3)"><g
       display="inline"
       id="g528"
       style="display:inline"><g
         id="g514"><path
           d="m 13.5,1.037 c 6.893,0 12.5,5.607 12.5,12.5 0,6.893 -5.607,12.5 -12.5,12.5 C 6.607,26.037 1,20.43 1,13.537 1,6.644 6.607,1.037 13.5,1.037 m 0,-1 C 6.044,0.037 0,6.081 0,13.537 c 0,7.456 6.044,13.5 13.5,13.5 7.456,0 13.5,-6.044 13.5,-13.5 0,-7.456 -6.044,-13.5 -13.5,-13.5 z"
           id="path512" /></g><g
         id="g526"><path
           d="m 20.944,7.775 c 0,0.138 -0.111,0.25 -0.25,0.25 h -13.5 c -0.138,0 -0.25,-0.112 -0.25,-0.25 v -0.5 c 0,-0.138 0.112,-0.25 0.25,-0.25 h 13.5 c 0.139,0 0.25,0.112 0.25,0.25 z"
           id="path516" /><path
           d="m 14.944,19.787 c 0,0.139 -0.111,0.25 -0.25,0.25 h -7.5 c -0.138,0 -0.25,-0.111 -0.25,-0.25 v -0.5 c 0,-0.139 0.112,-0.25 0.25,-0.25 h 7.5 c 0.139,0 0.25,0.111 0.25,0.25 z"
           id="path518" /><path
           d="m 12.944,15.764 c 0,0.139 -0.112,0.25 -0.25,0.25 h -5.5 c -0.138,0 -0.25,-0.111 -0.25,-0.25 v -0.5 c 0,-0.139 0.112,-0.25 0.25,-0.25 h 5.5 c 0.138,0 0.25,0.111 0.25,0.25 z"
           id="path520" /><path
           d="m 14.944,11.813 c 0,0.138 -0.111,0.25 -0.25,0.25 h -7.5 c -0.138,0 -0.25,-0.112 -0.25,-0.25 v -0.5 c 0,-0.138 0.112,-0.25 0.25,-0.25 h 7.5 c 0.139,0 0.25,0.112 0.25,0.25 z"
           id="path522" /><path
           d="M 20.767,15.037 H 18.97 v -1.75 c 0,-0.138 -0.111,-0.25 -0.25,-0.25 h -0.5 c -0.139,0 -0.25,0.112 -0.25,0.25 v 1.75 h -1.703 c -0.139,0 -0.297,0.139 -0.297,0.276 v 0.5 c 0,0.138 0.158,0.224 0.297,0.224 h 1.703 v 1.75 c 0,0.139 0.111,0.25 0.25,0.25 h 0.5 c 0.139,0 0.25,-0.111 0.25,-0.25 v -1.75 h 1.797 c 0.139,0 0.203,-0.086 0.203,-0.224 v -0.5 c 0,-0.137 -0.065,-0.276 -0.203,-0.276 z"
           id="path524" /></g></g></g><g
     id="Layer_15"
     transform="translate(0,3)" /><g
     id="Layer_16"
     transform="translate(0,3)" /><g
     id="Layer_17"
     transform="translate(0,3)" /><g
     id="Layer_18"
     transform="translate(0,3)" /><g
     style="stroke-width:1.00467908;fill:#000000"
     transform="matrix(0.99070702,0,0,1,2.5584897,-0.35682294)"
     id="g4775"><path
       style="fill:#000000;stroke-width:1.00467908"
       d="m 23.460944,23.899568 c 0,0 -4.781439,-3.135082 -4.781439,-13.76634 v 0.122601 A 6.1300494,6.1300494 0 0 0 14.73876,4.5461263 v 0 a 2.1893035,2.1893035 0 0 0 -4.378607,0 6.1300494,6.1300494 0 0 0 -3.9407459,5.7097027 c 0,10.631258 -4.7113809,13.60871 -4.7639241,13.643739 a 0.43786067,0.43786067 0 0 0 0.2276875,0.805664 h 6.5854246 a 4.1158903,4.1158903 0 0 0 8.1792369,0 h 6.585425 a 0.43786067,0.43786067 0 0 0 0.227687,-0.805664 z M 12.549457,3.1274577 a 1.2960676,1.2960676 0 0 1 1.243524,0.9983223 6.0775062,6.0775062 0 0 0 -2.504563,0 1.2960676,1.2960676 0 0 1 1.261039,-0.9983223 z m 0,24.2749963 A 3.2576834,3.2576834 0 0 1 9.3443164,24.582631 h 6.4277946 a 3.2576834,3.2576834 0 0 1 -3.222654,2.819823 z m 4.080861,-3.502886 H 3.091666 c 1.313582,-1.313582 3.5028854,-4.43115 4.0808615,-10.6838 0,-0.893236 0.122601,-1.85653 0.122601,-2.889881 a 5.2543281,5.2543281 0 0 1 10.5086555,0 v 0 c 0,0.998323 0,2.031674 0.122601,2.889881 0.542947,6.25265 2.76728,9.370218 4.098376,10.6838 z"
       id="path4764" /></g></svg>