<?xml version="1.0" encoding="UTF-8" standalone="no"?>
<svg
   version="1.1"
   viewBox="0 0 30 30"
   xmlns="http://www.w3.org/2000/svg"
   xmlns:svg="http://www.w3.org/2000/svg">
<g
   id="Layer_19"
   display="none"
   transform="translate(-0.17903032,-5.7825403)">
	<g
   display="inline"
   id="g1361">
		<path
   d="m 13.5,0.996 c 6.895,0 12.503,5.608 12.503,12.502 C 26.003,20.392 20.395,26 13.5,26 6.606,26 0.997,20.392 0.997,13.498 0.997,6.604 6.606,0.996 13.5,0.996 m 0,-1 C 6.042,-0.004 -0.003,6.041 -0.003,13.498 -0.003,20.955 6.042,27 13.5,27 20.956,27 27.003,20.955 27.003,13.498 27.003,6.041 20.956,-0.004 13.5,-0.004 Z"
   id="path1359" />
	</g>
</g>
<g
   id="Layer_1"
   display="none"
   transform="translate(-0.17903032,-5.7825403)">
	<g
   display="inline"
   id="g1366">
		<path
   d="M 13.5,1 C 20.393,1 26,6.607 26,13.5 26,20.393 20.393,26 13.5,26 6.607,26 1,20.393 1,13.5 1,6.607 6.607,1 13.5,1 m 0,-1 C 6.044,0 0,6.044 0,13.5 0,20.956 6.044,27 13.5,27 20.956,27 27,20.956 27,13.5 27,6.044 20.956,0 13.5,0 Z"
   id="path1364" />
	</g>
	<path
   display="inline"
   d="m 12.786,17.732 v -7.199 h -0.759 c -0.793,0 -1.33,0.114 -1.61,0.342 -0.28,0.228 -0.486,0.715 -0.619,1.463 H 9.47 L 9.504,11.142 9.545,9.946 h 3.951 3.958 l 0.033,1.196 0.041,1.196 H 17.2 c -0.132,-0.748 -0.338,-1.235 -0.618,-1.463 -0.28,-0.228 -0.817,-0.342 -1.61,-0.342 h -0.758 v 7.199 c 0,0.496 0.084,0.82 0.253,0.974 0.168,0.153 0.526,0.233 1.073,0.243 v 0.266 h -2.03 -2.038 v -0.266 c 0.542,-0.01 0.898,-0.092 1.066,-0.246 0.166,-0.15 0.248,-0.474 0.248,-0.971 z"
   id="path1368" />
</g>
<g
   id="Layer_2"
   display="none"
   transform="translate(-0.17903032,-5.7825403)">
	<g
   display="inline"
   id="g1373">
		<path
   d="m 15.392,14.717 c -0.07,0.225 -0.127,0.49 -0.127,0.701 0,0.195 0.098,0.279 0.336,0.279 0.896,0 1.961,-1.499 1.961,-3.054 0,-2.199 -1.861,-3.6 -3.81,-3.6 -2.424,0 -4.314,2.045 -4.314,4.454 0,2.508 2.003,4.455 4.314,4.455 1.388,0 2.774,-0.673 3.53,-1.695 h 0.883 c -0.896,1.527 -2.592,2.451 -4.413,2.451 -2.941,0 -5.239,-2.311 -5.239,-5.211 0,-2.913 2.354,-5.211 5.239,-5.211 2.563,0 4.735,1.779 4.735,4.286 0,2.424 -1.961,4.049 -3.277,4.049 -0.477,0 -0.869,-0.294 -0.896,-0.925 h -0.029 c -0.435,0.504 -0.925,0.925 -1.751,0.925 -1.19,0 -1.975,-0.952 -1.975,-2.172 0,-1.946 1.288,-3.964 3.264,-3.964 0.644,0 1.247,0.309 1.556,1.148 h 0.027 l 0.252,-0.882 h 0.91 z m -2.607,0.98 c 1.219,0 2.171,-1.821 2.171,-2.97 0,-0.714 -0.545,-1.316 -1.134,-1.316 -1.317,0 -2.256,1.723 -2.256,2.941 0,0.771 0.519,1.345 1.219,1.345 z"
   id="path1371" />
	</g>
</g>
<g
   id="Layer_3"
   display="none"
   transform="translate(-0.17903032,-5.7825403)">
	<g
   display="inline"
   id="g1378">
		<path
   d="m 11.978,9.009 v 3 h -3 v -3 h 3 m 1,-1 h -5 v 5 h 5 z"
   id="path1376" />
	</g>
	<g
   display="inline"
   id="g1382">
		<path
   d="m 11.978,16 v 3 h -3 v -3 h 3 m 1,-1 h -5 v 5 h 5 z"
   id="path1380" />
	</g>
	<g
   display="inline"
   id="g1386">
		<path
   d="m 18.986,9.009 v 3 h -3 v -3 h 3 m 1,-1 h -5 v 5 h 5 z"
   id="path1384" />
	</g>
	<g
   display="inline"
   id="g1390">
		<path
   d="m 18.986,16 v 3 h -3 v -3 h 3 m 1,-1 h -5 v 5 h 5 z"
   id="path1388" />
	</g>
</g>
<g
   id="Layer_4"
   display="none"
   transform="translate(-0.17903032,-5.7825403)">
	<g
   id="g1395">
		<path
   display="inline"
   d="m 12.97,2.037 c 6.617,0 12,5.383 12,12 0,6.617 -5.383,12 -12,12 -6.617,0 -12,-5.383 -12,-12 0,-6.617 5.383,-12 12,-12 m 0,-1 c -7.18,0 -13,5.82 -13,13 0,7.18 5.82,13 13,13 7.18,0 13,-5.82 13,-13 0,-7.18 -5.821,-13 -13,-13 z"
   id="path1393" />
	</g>
	<g
   display="inline"
   id="g1399">
		<path
   d="m 17.497,14.016 c 0.275,0 0.5,0.225 0.5,0.501 0,0.275 -0.225,0.499 -0.5,0.499 -0.275,0 -0.5,-0.224 -0.5,-0.499 0,-0.276 0.225,-0.501 0.5,-0.501 m 0,-1 c -0.828,0 -1.5,0.671 -1.5,1.501 0,0.829 0.672,1.499 1.5,1.499 0.828,0 1.5,-0.67 1.5,-1.499 0,-0.83 -0.672,-1.501 -1.5,-1.501 z"
   id="path1397" />
	</g>
	<g
   display="inline"
   id="g1405">
		<polygon
   fill="none"
   points="7.935,10.978 7.935,11.609 7.935,18.037 20.005,18.037 20.005,10.978 11.607,10.978 "
   id="polygon1401" />
		<path
   d="M 20.757,9.978 H 11.928 10.918 7.955 C 7.952,9.946 7.937,9.919 7.937,9.886 c 0,-0.551 0.449,-0.999 1,-0.999 h 2.723 8.85 v -1 H 8.937 c -0.738,0 -1.376,0.405 -1.723,1 -0.172,0.295 -0.277,0.634 -0.277,0.999 0,0.078 -0.009,0.152 0,0.228 -0.006,0.014 0,0.023 0,0.039 v 8.708 c 0,0.098 0.112,0.176 0.25,0.176 h 13.57 c 0.137,0 0.25,-0.078 0.25,-0.176 v -8.708 c 0,-0.097 -0.113,-0.175 -0.25,-0.175 z m -0.752,8.059 H 7.935 v -6.428 -0.631 h 3.673 8.397 z"
   id="path1403" />
	</g>
</g>
<g
   id="Layer_5"
   display="none"
   transform="translate(-0.17903032,-5.7825403)">
	<path
   display="inline"
   d="M 21.97,13.037 H 7.826 l 3.008,-2.998 -0.707,-0.7 -4.067,4.071 c -0.097,0.097 -0.096,0.255 0.002,0.354 l 4.182,4.184 0.707,-0.726 -3.165,-3.185 H 21.97 Z"
   id="path1408" />
	<g
   id="g1412">
		<path
   display="inline"
   d="m 12.97,2.037 c 6.617,0 12,5.383 12,12 0,6.617 -5.383,12 -12,12 -6.617,0 -12,-5.383 -12,-12 0,-6.617 5.383,-12 12,-12 m 0,-1 c -7.18,0 -13,5.82 -13,13 0,7.18 5.82,13 13,13 7.18,0 13,-5.82 13,-13 0,-7.18 -5.821,-13 -13,-13 z"
   id="path1410" />
	</g>
</g>
<g
   id="Layer_5_copy"
   display="none"
   transform="translate(-0.17903032,-5.7825403)">
	<path
   display="inline"
   d="m 4.97,14.037 h 14.183 l -3.008,2.998 0.707,0.699 4.067,-4.07 c 0.096,-0.097 0.096,-0.255 -0.003,-0.354 l -4.182,-4.184 -0.707,0.726 3.165,3.185 H 4.97 Z"
   id="path1415" />
	<g
   id="g1419">
		<path
   display="inline"
   d="m 12.97,2.037 c 6.617,0 12,5.383 12,12 0,6.617 -5.383,12 -12,12 -6.617,0 -12,-5.383 -12,-12 0,-6.617 5.383,-12 12,-12 m 0,-1 c -7.18,0 -13,5.82 -13,13 0,7.18 5.82,13 13,13 7.18,0 13,-5.82 13,-13 0,-7.18 -5.821,-13 -13,-13 z"
   id="path1417" />
	</g>
</g>
<g
   id="Layer_7"
   display="none"
   transform="translate(-0.17903032,-5.7825403)">
	<g
   id="g1424">
		<path
   display="inline"
   d="m 12.97,2.037 c 6.617,0 12,5.383 12,12 0,6.617 -5.383,12 -12,12 -6.617,0 -12,-5.383 -12,-12 0,-6.617 5.383,-12 12,-12 m 0,-1 c -7.18,0 -13,5.82 -13,13 0,7.18 5.82,13 13,13 7.18,0 13,-5.82 13,-13 0,-7.18 -5.821,-13 -13,-13 z"
   id="path1422" />
	</g>
	<g
   display="inline"
   id="g1430">
		<g
   id="g1428">
			<path
   d="m 13.97,13.037 c -0.552,0 -1,0.447 -1,1 0,0.553 0.448,1 1,1 0.553,0 1,-0.447 1,-1 0,-0.553 -0.448,-1 -1,-1 z m 6.716,0 H 19.36 c -0.144,-1 -0.443,-1.481 -0.867,-2.098 l 0.953,-0.96 C 19.544,9.881 19.57,9.747 19.505,9.681 L 18.327,8.502 C 18.263,8.438 18.13,8.462 18.032,8.56 L 17.084,9.513 C 16.459,9.081 15.97,8.778 14.97,8.635 V 7.287 c 0,-0.139 -0.084,-0.25 -0.177,-0.25 h -1.665 c -0.093,0 -0.158,0.111 -0.158,0.25 v 1.347 c -1,0.141 -1.479,0.436 -2.098,0.858 L 9.938,8.561 C 9.841,8.463 9.707,8.436 9.642,8.502 L 8.464,9.678 C 8.399,9.744 8.424,9.877 8.522,9.975 l 0.925,0.938 C 9.013,11.536 8.705,12.037 8.559,13.037 H 7.236 c -0.138,0 -0.266,0.051 -0.266,0.143 v 1.664 c 0,0.094 0.128,0.193 0.266,0.193 h 1.316 c 0.14,1 0.445,1.502 0.881,2.134 L 8.474,18.123 C 8.376,18.221 8.35,18.351 8.416,18.415 l 1.177,1.177 c 0.066,0.066 0.198,0.038 0.295,-0.06 l 0.964,-0.961 c 0.623,0.429 1.117,0.73 2.117,0.872 v 1.361 c 0,0.139 0.065,0.232 0.158,0.232 h 1.665 c 0.093,0 0.177,-0.094 0.177,-0.232 v -1.361 c 1,-0.144 1.505,-0.453 2.135,-0.892 l 0.93,0.933 c 0.098,0.098 0.229,0.123 0.294,0.059 l 1.178,-1.178 c 0.064,-0.064 0.038,-0.197 -0.06,-0.295 l -0.938,-0.926 c 0.426,-0.626 0.723,-1.107 0.861,-2.107 h 1.316 c 0.138,0 0.284,-0.1 0.284,-0.193 V 13.18 c 10e-4,-0.092 -0.146,-0.143 -0.283,-0.143 z m -6.726,4.502 c -1.93,0 -3.5,-1.57 -3.5,-3.5 0,-1.93 1.57,-3.5 3.5,-3.5 1.929,0 3.5,1.57 3.5,3.5 0,1.93 -1.57,3.5 -3.5,3.5 z"
   id="path1426" />
		</g>
	</g>
</g>
<g
   id="Layer_8"
   display="none"
   transform="translate(-0.17903032,-5.7825403)">
	<g
   display="inline"
   id="g1441">
		<path
   fill="none"
   d="m 12.966,7.596 v 0 c 0.013,0 0.023,0.004 0.036,0.004 0.01,0 0.02,-0.002 0.029,-0.002 C 13.204,7.58 13.34,7.44 13.34,7.264 13.34,7.076 13.188,6.922 13,6.922 c -0.188,0 -0.34,0.154 -0.34,0.342 0,0.175 0.135,0.314 0.306,0.332 z"
   id="path1433" />
		<path
   fill="none"
   d="m 11.587,19.02 c 0.202,0.59 0.756,1.018 1.414,1.018 0.657,0 1.212,-0.428 1.414,-1.018 h -0.013 z"
   id="path1435" />
		<path
   fill="none"
   d="M 15.584,12.479 C 15.586,11.424 15.587,9.981 14.818,9.211 14.412,8.805 13.815,8.606 13.002,8.598 c -0.813,0.008 -1.409,0.207 -1.816,0.613 -0.769,0.77 -0.767,2.213 -0.766,3.268 v 0.127 c 0,2.971 -0.762,4.557 -1.567,5.414 h 1.69 1.042 2.804 1.042 1.72 c -0.806,-0.857 -1.567,-2.443 -1.567,-5.414 z"
   id="path1437" />
		<path
   d="m 19.206,18.059 c -0.001,0 -0.002,0 -0.002,0 C 19.16,18.041 19.117,18.024 19.069,18.02 18.967,18.012 16.584,17.766 16.584,12.606 V 12.48 C 16.586,11.25 16.588,9.566 15.525,8.503 15.111,8.089 14.568,7.825 13.915,7.696 13.979,7.563 14.021,7.419 14.021,7.262 14.021,6.698 13.564,6.241 13,6.241 c -0.564,0 -1.021,0.457 -1.021,1.021 0,0.156 0.042,0.301 0.106,0.436 -0.65,0.129 -1.193,0.393 -1.606,0.805 C 9.417,9.566 9.419,11.25 9.42,12.48 v 0.125 c 0,5.143 -2.368,5.404 -2.484,5.414 -0.273,0.018 -0.482,0.25 -0.469,0.523 0.013,0.268 0.234,0.477 0.499,0.477 0.008,0 0.017,0 0.024,-0.002 0.01,0 0.042,-0.004 0.084,-0.008 0.017,0.002 0.031,0.01 0.048,0.01 h 3.413 0.013 c 0.225,1.15 1.236,2.018 2.452,2.018 1.216,0 2.226,-0.867 2.452,-2.018 h 3.559 c 0.001,0 0.003,-0.002 0.005,-0.002 0.008,0.002 0.016,0.002 0.023,0.002 0.262,0 0.478,-0.205 0.494,-0.469 0.014,-0.224 -0.127,-0.415 -0.327,-0.491 z M 13,6.922 c 0.188,0 0.34,0.154 0.34,0.342 0,0.176 -0.136,0.316 -0.309,0.334 -0.01,0 -0.019,0.002 -0.029,0.002 -0.013,0 -0.023,-0.004 -0.036,-0.004 v 0 C 12.795,7.578 12.659,7.44 12.659,7.264 12.66,7.076 12.812,6.922 13,6.922 Z m 0,13.115 c -0.658,0 -1.212,-0.428 -1.414,-1.018 h 2.814 0.013 c -0.2,0.59 -0.755,1.018 -1.413,1.018 z M 15.432,18.02 H 14.39 11.586 10.544 8.854 c 0.806,-0.857 1.567,-2.443 1.567,-5.414 V 12.479 C 10.42,11.424 10.418,9.981 11.187,9.211 11.594,8.805 12.19,8.606 13.003,8.598 c 0.813,0.008 1.41,0.207 1.816,0.613 0.769,0.77 0.768,2.213 0.766,3.268 v 0.127 c 0,2.971 0.762,4.557 1.567,5.414 z"
   id="path1439" />
	</g>
</g>
<g
   id="Layer_9"
   display="none"
   transform="translate(-0.17903032,-5.7825403)">
	<g
   display="inline"
   id="g1456">
		<g
   display="none"
   id="g1446">
			<path
   display="inline"
   d="m 12.97,2.397 c 6.617,0 12,5.383 12,12 0,6.617 -5.383,12 -12,12 -6.617,0 -12,-5.383 -12,-12 0,-6.616 5.383,-12 12,-12 m 0,-1 c -7.18,0 -13,5.82 -13,13 0,7.18 5.82,13 13,13 7.18,0 13,-5.82 13,-13 0,-7.18 -5.821,-13 -13,-13 z"
   id="path1444" />
		</g>
		<path
   fill="none"
   d="m 12.937,7.648 c 0.013,0 0.023,0.004 0.036,0.004 0.01,0 0.02,-0.002 0.029,-0.002 0.173,-0.018 0.309,-0.158 0.309,-0.334 0,-0.188 -0.152,-0.342 -0.34,-0.342 -0.188,0 -0.34,0.154 -0.34,0.342 -10e-4,0.176 0.134,0.315 0.306,0.332 z"
   id="path1448" />
		<path
   fill="none"
   d="M 15.554,12.531 C 15.556,11.476 15.557,10.033 14.788,9.263 14.382,8.857 13.785,8.658 12.972,8.65 c -0.813,0.008 -1.409,0.207 -1.816,0.613 -0.769,0.77 -0.767,2.213 -0.766,3.268 v 0.127 c 0,2.971 -0.762,4.557 -1.567,5.414 h 1.69 1.042 2.804 1.042 1.72 c -0.806,-0.857 -1.567,-2.443 -1.567,-5.414 z"
   id="path1450" />
		<path
   d="m 19.176,18.111 c -10e-4,0 -0.002,0 -0.002,0 -0.044,-0.018 -0.087,-0.035 -0.135,-0.039 -0.102,-0.008 -2.485,-0.254 -2.485,-5.414 v -0.125 c 0.002,-1.23 0.004,-2.914 -1.059,-3.977 -0.414,-0.414 -0.957,-0.678 -1.609,-0.807 0.063,-0.133 0.105,-0.277 0.105,-0.434 0,-0.564 -0.457,-1.021 -1.021,-1.021 -0.564,0 -1.021,0.457 -1.021,1.021 0,0.156 0.042,0.301 0.106,0.436 -0.65,0.129 -1.193,0.393 -1.606,0.805 -1.062,1.063 -1.06,2.746 -1.058,3.977 v 0.125 c 0,5.143 -2.368,5.404 -2.484,5.414 -0.273,0.018 -0.482,0.25 -0.469,0.523 0.013,0.268 0.234,0.477 0.499,0.477 0.008,0 0.017,0 0.024,-0.002 0.01,0 0.042,-0.004 0.084,-0.008 0.017,0.002 0.031,0.01 0.048,0.01 h 3.413 0.013 c 0,0.002 0.002,0.006 0.002,0.008 h 4.897 c 0.001,-0.002 0.002,-0.006 0.003,-0.008 h 3.559 c 0.001,0 0.003,-0.002 0.005,-0.002 0.008,0.002 0.016,0.002 0.023,0.002 0.262,0 0.478,-0.205 0.494,-0.469 0.015,-0.224 -0.126,-0.415 -0.326,-0.492 z M 12.97,6.975 c 0.188,0 0.34,0.154 0.34,0.342 0,0.176 -0.136,0.316 -0.309,0.334 -0.01,0 -0.019,0.002 -0.029,0.002 -0.013,0 -0.023,-0.004 -0.036,-0.004 C 12.765,7.631 12.629,7.493 12.629,7.317 12.63,7.129 12.782,6.975 12.97,6.975 Z m 2.431,11.097 h -1.042 -2.804 -1.042 -1.69 c 0.806,-0.857 1.567,-2.443 1.567,-5.414 v -0.127 c -0.001,-1.055 -0.003,-2.498 0.766,-3.268 0.407,-0.406 1.003,-0.605 1.816,-0.613 0.813,0.008 1.41,0.207 1.816,0.613 0.769,0.77 0.768,2.213 0.766,3.268 v 0.127 c 0,2.971 0.762,4.557 1.567,5.414 z"
   id="path1452" />
		<path
   d="m 14.072,20.072 c -0.02,0.533 -0.454,0.965 -0.993,0.965 -0.539,0 -0.973,-0.432 -0.993,-0.965 h -1.004 c 0.02,1.088 0.904,1.965 1.997,1.965 1.092,0 1.977,-0.877 1.996,-1.965 z"
   id="path1454" />
	</g>
</g>
<g
   id="Layer_10"
   display="none"
   transform="translate(-0.17903032,-5.7825403)">
	<path
   display="inline"
   d="M 9.835,8.037 C 9.868,8.037 9.97,7.881 9.97,7.748 V 7.225 C 9.97,7.094 9.868,7.037 9.835,7.037 H 8.748 8.224 8.047 C 8.014,7.037 7.97,7.094 7.97,7.225 v 0.209 0.314 12.527 0.268 0.256 c 0,0.133 0.044,0.238 0.077,0.238 h 1.788 c 0.033,0 0.135,-0.105 0.135,-0.238 v -0.523 c 0,-0.131 -0.102,-0.238 -0.135,-0.238 H 8.97 v -12 h 0.865 z"
   id="path1459" />
	<path
   display="inline"
   d="m 18.97,13.037 h -6.064 l 1.551,-1.559 -0.707,-0.711 -2.653,2.65 C 11,13.515 11.001,13.672 11.099,13.77 l 2.769,2.767 0.707,-0.707 -1.793,-1.793 h 6.189 v -1 z"
   id="path1461" />
</g>
<g
   id="Layer_11"
   display="none"
   transform="translate(-0.17903032,-5.7825403)">
	<g
   display="inline"
   id="g1468">
		<path
   display="none"
   d="m 12.97,2.037 c 6.617,0 12,5.383 12,12 0,6.617 -5.383,12 -12,12 -6.617,0 -12,-5.383 -12,-12 0,-6.617 5.383,-12 12,-12 m 0,-1 c -7.18,0 -13,5.82 -13,13 0,7.18 5.82,13 13,13 7.18,0 13,-5.82 13,-13 0,-7.18 -5.821,-13 -13,-13 z"
   id="path1464" />
		<path
   d="M 6.734,20.93 C 6.68,20.93 6.626,20.921 6.572,20.904 6.311,20.814 6.171,20.53 6.26,20.269 L 8.557,13.538 C 8.646,13.277 8.93,13.137 9.192,13.226 l 5.853,1.997 2.669,-7.827 c 0.09,-0.261 0.378,-0.401 0.635,-0.312 0.262,0.089 0.401,0.373 0.313,0.635 l -2.831,8.299 c -0.043,0.126 -0.134,0.229 -0.253,0.288 -0.118,0.058 -0.258,0.066 -0.382,0.024 L 9.342,14.333 7.206,20.59 c -0.07,0.209 -0.264,0.34 -0.472,0.34 z"
   id="path1466" />
	</g>
</g>
<g
   id="Layer_12"
   display="none"
   transform="translate(-0.17903032,-5.7825403)">
	<g
   display="inline"
   id="g1483">
		<g
   display="none"
   id="g1473">
			<path
   display="inline"
   d="m 12.97,1.037 c 6.617,0 12,5.383 12,12 0,6.617 -5.383,12 -12,12 -6.617,0 -12,-5.383 -12,-12 0,-6.617 5.383,-12 12,-12 m 0,-1 c -7.18,0 -13,5.82 -13,13 0,7.18 5.82,13 13,13 7.18,0 13,-5.82 13,-13 0,-7.18 -5.821,-13 -13,-13 z"
   id="path1471" />
		</g>
		<g
   id="g1477">
			<path
   d="m 14.966,12.537 v 5 h -5 v -5 h 5 m 1,-1 h -7 v 7 h 7 z"
   id="path1475" />
		</g>
		<g
   id="g1481">
			<polygon
   points="17.974,9.545 10.973,9.545 10.973,10.544 16.958,10.544 16.958,16.545 17.974,16.545 "
   id="polygon1479" />
		</g>
	</g>
</g>
<g
   id="Layer_13"
   display="none"
   transform="translate(-0.17903032,-5.7825403)">
	<g
   display="inline"
   id="g1496">
		<g
   id="g1488">
			<path
   d="m 13.5,7.5 c 3.584,0 6.5,2.916 6.5,6.5 0,3.584 -2.916,6.5 -6.5,6.5 C 9.916,20.5 7,17.584 7,14 7,10.416 9.916,7.5 13.5,7.5 m 0,-1 C 9.357,6.5 6,9.857 6,14 c 0,4.143 3.357,7.5 7.5,7.5 4.143,0 7.5,-3.357 7.5,-7.5 0,-4.143 -3.357,-7.5 -7.5,-7.5 z"
   id="path1486" />
		</g>
		<circle
   cx="11.059"
   cy="12.624"
   r="1"
   id="circle1490" />
		<circle
   cx="15.979"
   cy="12.624"
   r="1"
   id="circle1492" />
		<path
   d="m 15.809,15.923 c -0.376,0.905 -1.269,1.545 -2.309,1.545 -1.04,0 -1.932,-0.64 -2.309,-1.545 h -1.042 c 0.417,1.465 1.751,2.545 3.351,2.545 1.599,0 2.934,-1.08 3.352,-2.545 z"
   id="path1494" />
	</g>
</g>
<g
   id="Layer_14"
   display="none"
   transform="translate(-0.17903032,-5.7825403)">
	<g
   display="inline"
   id="g1515">
		<g
   id="g1501">
			<path
   d="m 13.5,1.037 c 6.893,0 12.5,5.607 12.5,12.5 0,6.893 -5.607,12.5 -12.5,12.5 C 6.607,26.037 1,20.43 1,13.537 1,6.644 6.607,1.037 13.5,1.037 m 0,-1 C 6.044,0.037 0,6.081 0,13.537 c 0,7.456 6.044,13.5 13.5,13.5 7.456,0 13.5,-6.044 13.5,-13.5 0,-7.456 -6.044,-13.5 -13.5,-13.5 z"
   id="path1499" />
		</g>
		<g
   id="g1513">
			<path
   d="m 20.944,7.775 c 0,0.138 -0.111,0.25 -0.25,0.25 h -13.5 c -0.138,0 -0.25,-0.112 -0.25,-0.25 v -0.5 c 0,-0.138 0.112,-0.25 0.25,-0.25 h 13.5 c 0.139,0 0.25,0.112 0.25,0.25 z"
   id="path1503" />
			<path
   d="m 14.944,19.787 c 0,0.139 -0.111,0.25 -0.25,0.25 h -7.5 c -0.138,0 -0.25,-0.111 -0.25,-0.25 v -0.5 c 0,-0.139 0.112,-0.25 0.25,-0.25 h 7.5 c 0.139,0 0.25,0.111 0.25,0.25 z"
   id="path1505" />
			<path
   d="m 12.944,15.764 c 0,0.139 -0.112,0.25 -0.25,0.25 h -5.5 c -0.138,0 -0.25,-0.111 -0.25,-0.25 v -0.5 c 0,-0.139 0.112,-0.25 0.25,-0.25 h 5.5 c 0.138,0 0.25,0.111 0.25,0.25 z"
   id="path1507" />
			<path
   d="m 14.944,11.813 c 0,0.138 -0.111,0.25 -0.25,0.25 h -7.5 c -0.138,0 -0.25,-0.112 -0.25,-0.25 v -0.5 c 0,-0.138 0.112,-0.25 0.25,-0.25 h 7.5 c 0.139,0 0.25,0.112 0.25,0.25 z"
   id="path1509" />
			<path
   d="M 20.767,15.037 H 18.97 v -1.75 c 0,-0.138 -0.111,-0.25 -0.25,-0.25 h -0.5 c -0.139,0 -0.25,0.112 -0.25,0.25 v 1.75 h -1.703 c -0.139,0 -0.297,0.139 -0.297,0.276 v 0.5 c 0,0.138 0.158,0.224 0.297,0.224 h 1.703 v 1.75 c 0,0.139 0.111,0.25 0.25,0.25 h 0.5 c 0.139,0 0.25,-0.111 0.25,-0.25 v -1.75 h 1.797 c 0.139,0 0.203,-0.086 0.203,-0.224 v -0.5 c 0,-0.137 -0.065,-0.276 -0.203,-0.276 z"
   id="path1511" />
		</g>
	</g>
</g>
<g
   id="Layer_15"
   display="none"
   transform="translate(-0.17903032,-5.7825403)">
	<g
   display="inline"
   id="g1526">
		<g
   display="none"
   id="g1520">
			<path
   display="inline"
   d="M 13,1 C 19.617,1 25,6.383 25,13 25,19.617 19.617,25 13,25 6.383,25 1,19.617 1,13 1,6.383 6.383,1 13,1 M 13,0 C 5.82,0 0,5.82 0,13 0,20.18 5.82,26 13,26 20.18,26 26,20.18 26,13 26,5.82 20.18,0 13,0 Z"
   id="path1518" />
		</g>
		<path
   d="m 19.975,10.711 c 0,0.138 -0.112,0.25 -0.25,0.25 h -13.5 c -0.138,0 -0.25,-0.112 -0.25,-0.25 v -0.5 c 0,-0.138 0.112,-0.25 0.25,-0.25 h 13.5 c 0.138,0 0.25,0.112 0.25,0.25 z"
   id="path1522" />
		<path
   d="m 13.975,15.75 c 0,0.139 -0.112,0.25 -0.25,0.25 h -7.5 c -0.138,0 -0.25,-0.111 -0.25,-0.25 v -0.5 C 5.975,15.111 6.087,15 6.225,15 h 7.5 c 0.138,0 0.25,0.111 0.25,0.25 z"
   id="path1524" />
	</g>
</g>
<g
   id="Layer_16"
   display="none"
   transform="translate(-0.17903032,-5.7825403)">
	<g
   display="inline"
   id="g1541">
		<g
   display="none"
   id="g1531">
			<path
   display="inline"
   d="M 13,2 C 19.617,2 25,7.383 25,14 25,20.617 19.617,26 13,26 6.383,26 1,20.617 1,14 1,7.383 6.383,2 13,2 M 13,1 C 5.82,1 0,6.82 0,14 0,21.18 5.82,27 13,27 20.18,27 26,21.18 26,14 26,6.82 20.18,1 13,1 Z"
   id="path1529" />
		</g>
		<g
   id="g1539">
			<polygon
   fill="none"
   points="15.761,8.419 15.761,10.008 17.35,10.008 "
   id="polygon1533" />
			<polygon
   fill="none"
   points="8.97,20.037 17.97,20.037 17.97,11.037 14.97,11.037 14.97,11 14.97,10.008 14.97,8.037 8.97,8.037 "
   id="polygon1535" />
			<path
   d="M 18.746,10.037 18.755,10.014 18.739,9.991 18.844,9.98 15.97,7.003 V 7.037 H 8.01 c -0.138,0 -0.041,0.062 -0.041,0.2 v 13.5 c 0,0.138 -0.098,0.3 0.041,0.3 h 10.5 c 0.138,0 0.459,-0.162 0.459,-0.3 v -9.729 -0.93 -0.041 z m -2.985,-1.618 1.589,1.589 h -1.589 z m 2.209,11.618 h -9 v -12 h 6 V 10.008 11 11.037 h 3 z"
   id="path1537" />
		</g>
	</g>
</g>
<g
   id="Layer_17"
   display="none"
   transform="translate(-0.17903032,-5.7825403)">
	<g
   display="inline"
   id="g1556">
		<g
   display="none"
   id="g1546">
			<path
   display="inline"
   d="M 14,2 C 20.617,2 26,7.383 26,14 26,20.617 20.617,26 14,26 7.383,26 2,20.617 2,14 2,7.383 7.383,2 14,2 M 14,1 C 6.82,1 1,6.82 1,14 1,21.18 6.82,27 14,27 21.18,27 27,21.18 27,14 27,6.82 21.18,1 14,1 Z"
   id="path1544" />
		</g>
		<g
   id="g1554">
			<polygon
   fill="none"
   points="14.5,8.431 14.5,10.021 16.09,10.021 "
   id="polygon1548" />
			<polygon
   fill="none"
   points="11.5,20 16.5,20 16.5,11.021 13.5,11.021 13.5,11.013 13.5,10.021 13.5,8 11.5,8 "
   id="polygon1550" />
			<path
   d="M 17.486,10.021 17.494,10.012 17.478,9.996 17.486,9.988 14.513,7.014 V 7 H 10.75 C 10.611,7 10.5,7.111 10.5,7.25 v 13.5 c 0,0.138 0.112,0.25 0.25,0.25 h 6.5 c 0.138,0 0.25,-0.112 0.25,-0.25 v -9.729 -0.93 -0.07 z m -2.986,-1.59 1.59,1.59 H 14.5 Z M 16.5,20 h -5 V 8 h 2 v 2.021 0.992 0.008 h 3 z"
   id="path1552" />
		</g>
	</g>
</g>
<g
   id="Layer_18"
   display="none"
   transform="translate(-0.17903032,-5.7825403)">
	<path
   display="inline"
   d="m 19.747,12.008 0.008,-0.009 -0.016,-0.016 0.008,-0.008 -2.973,-2.974 V 8.987 H 9.01 c -0.138,0 -0.25,0.111 -0.25,0.25 v 8.5 c 0,0.138 0.112,0.25 0.25,0.25 h 10.5 c 0.138,0 0.25,-0.112 0.25,-0.25 v -4.729 -0.93 -0.07 z m -2.986,-1.59 1.59,1.59 h -1.59 z m 2,6.569 h -9 v -7 h 6 V 12.008 13 13.008 h 3 z"
   id="path1559" />
</g>
<g
   id="Layer_20"
   display="none"
   transform="translate(-0.17903032,-5.7825403)">
	<path
   display="inline"
   d="m 17,13.5 h -7 c -0.15,0 -0.293,-0.068 -0.389,-0.185 l -2.03,-2.5 C 7.407,10.601 7.439,10.286 7.653,10.111 7.868,9.937 8.182,9.97 8.357,10.184 l 1.88,2.315 h 6.522 l 1.85,-2.313 c 0.173,-0.215 0.487,-0.249 0.703,-0.078 0.216,0.173 0.25,0.487 0.078,0.703 l -2,2.5 C 17.296,13.431 17.152,13.5 17,13.5 Z m 2,-3 H 8 v 7 h 11 v -7 m 0.751,-1 C 19.889,9.5 20,9.611 20,9.75 v 8.498 C 20,18.387 19.889,18.5 19.751,18.5 H 7.248 C 7.11,18.5 7,18.387 7,18.248 V 9.75 C 7,9.611 7.11,9.5 7.248,9.5 Z"
   id="path1562" />
</g>
<g
   id="Layer_21"
   display="none"
   transform="translate(-0.17903032,-5.7825403)">
	<g
   id="g1567">
		<path
   display="inline"
   d="M 14,2 C 20.617,2 26,7.383 26,14 26,20.617 20.617,26 14,26 7.383,26 2,20.617 2,14 2,7.383 7.383,2 14,2 M 14,1 C 6.82,1 1,6.82 1,14 1,21.18 6.82,27 14,27 21.18,27 27,21.18 27,14 27,6.82 21.18,1 14,1 Z"
   id="path1565" />
	</g>
	<path
   display="inline"
   d="m 13.569,23.5 c -4.136,0 -7.5,-3.345 -7.5,-7.457 0,-0.276 0.224,-0.5 0.5,-0.5 0.276,0 0.5,0.224 0.5,0.5 0,3.561 2.916,6.457 6.5,6.457 3.584,0 6.5,-2.896 6.5,-6.457 0,-0.276 0.224,-0.5 0.5,-0.5 0.276,0 0.5,0.224 0.5,0.5 0,4.112 -3.364,7.457 -7.5,7.457 z"
   id="path1569" />
	<path
   display="inline"
   d="m 20.569,16.543 h -14 c -0.276,0 -0.5,-0.224 -0.5,-0.5 0,-0.276 0.224,-0.5 0.5,-0.5 h 14 c 0.276,0 0.5,0.224 0.5,0.5 0,0.276 -0.223,0.5 -0.5,0.5 z"
   id="path1571" />
	<path
   display="inline"
   d="m 11.063,12.172 c -0.276,0 -0.5,-0.224 -0.5,-0.5 0,-1.103 -0.897,-2 -2,-2 -1.103,0 -2,0.897 -2,2 0,0.276 -0.224,0.5 -0.5,0.5 -0.276,0 -0.5,-0.224 -0.5,-0.5 0,-1.654 1.346,-3 3,-3 1.654,0 3,1.346 3,3 0,0.276 -0.224,0.5 -0.5,0.5 z"
   id="path1573" />
	<path
   display="inline"
   d="m 20.938,12.172 c -0.276,0 -0.5,-0.224 -0.5,-0.5 0,-1.103 -0.897,-2 -2,-2 -1.103,0 -2,0.897 -2,2 0,0.276 -0.224,0.5 -0.5,0.5 -0.276,0 -0.5,-0.224 -0.5,-0.5 0,-1.654 1.346,-3 3,-3 1.654,0 3,1.346 3,3 0,0.276 -0.224,0.5 -0.5,0.5 z"
   id="path1575" />
</g>
<g
   id="Layer_22"
   display="none"
   transform="translate(-0.17903032,-5.7825403)">
	<g
   display="inline"
   id="g1586">
		<polygon
   fill="none"
   points="8.818,16.907 8.817,18.259 10.169,18.259 "
   id="polygon1578" />
		
			<rect
   x="9.0439997"
   y="12.584"
   transform="matrix(0.7071,-0.7071,0.7071,0.7071,-6.1535,13.3113)"
   fill="none"
   width="7.8969998"
   height="3"
   id="rect1580" />
		
			<rect
   x="15.735"
   y="8.8929996"
   transform="matrix(-0.707,-0.7072,0.7072,-0.707,22.4609,28.9872)"
   fill="none"
   width="3"
   height="1.896"
   id="rect1582" />
		<path
   d="M 20.255,10.106 16.97,6.821 c -0.048,-0.05 -0.105,-0.077 -0.146,-0.077 -0.018,0 -0.032,0.005 -0.042,0.015 L 14.08,9.46 V 9.461 L 7.885,15.655 C 7.86,15.68 7.854,15.713 7.841,15.743 L 7.82,15.722 v 0.063 c -0.004,0.02 -0.001,0.035 0,0.054 l -0.002,3.245 c 0,0.063 0.021,0.119 0.052,0.15 0.018,0.018 0.038,0.027 0.06,0.027 l 3.288,-0.004 c 0.011,0.002 0.019,0.012 0.03,0.012 0.009,0 0.017,-0.011 0.026,-0.012 h 0.081 l -0.024,-0.024 c 0.031,-0.013 0.063,-0.014 0.09,-0.04 l 6.753,-6.754 2.145,-2.145 c 0.033,-0.033 0.006,-0.119 -0.064,-0.188 z m -11.437,6.801 1.351,1.352 H 8.817 Z m 2.443,1.03 -2.122,-2.121 5.584,-5.584 2.121,2.121 z m 6.364,-6.365 -2.121,-2.122 1.34,-1.341 2.122,2.122 z"
   id="path1584" />
	</g>
</g>
<g
   id="Layer_23"
   display="none"
   transform="translate(-0.17903032,-5.7825403)">
	<g
   display="inline"
   id="g1597">
		
			<rect
   x="11.815"
   y="9.1529999"
   transform="matrix(-0.7071,-0.7071,0.7071,-0.7071,13.0906,32.6855)"
   fill="none"
   width="3"
   height="8.9580002"
   id="rect1589" />
		
			<rect
   x="16.417999"
   y="8.0270004"
   transform="matrix(-0.7071,-0.7071,0.7071,-0.7071,24.2049,28.0797)"
   fill="none"
   width="3"
   height="2"
   id="rect1591" />
		<path
   d="M 20.976,9.256 17.69,5.971 c -0.049,-0.05 -0.105,-0.077 -0.146,-0.077 -0.018,0 -0.032,0.005 -0.042,0.015 l -2.702,2.7 c 0,0 0,0.002 0,0.002 l -6.953,6.953 c -0.096,0.094 -0.118,0.229 -0.049,0.299 l 3.285,3.285 c 0.027,0.027 0.065,0.04 0.106,0.04 0.063,0 0.135,-0.031 0.193,-0.089 l 7.4,-7.4 c 0.001,-10e-4 0.001,-0.003 0.002,-0.004 L 21.037,9.443 C 21.071,9.41 21.045,9.324 20.976,9.256 Z m -9.768,8.603 -2.121,-2.121 6.333,-6.334 2.121,2.121 z M 18.271,10.794 16.15,8.673 17.564,7.259 19.685,9.38 Z"
   id="path1593" />
		<path
   d="m 7.948,18.998 10e-4,-1.537 -0.998,-1 -0.003,3.361 c 0,0.063 0.021,0.119 0.053,0.15 C 7.018,19.99 7.039,20 7.06,20 l 3.426,-0.004 -0.999,-0.998 z"
   id="path1595" />
	</g>
</g>
<g
   id="Layer_24"
   display="none"
   transform="translate(-0.17903032,-5.7825403)">
	<g
   display="inline"
   id="g1612">
		<g
   display="none"
   id="g1602">
			<path
   display="inline"
   d="M 13,2 C 19.617,2 25,7.383 25,14 25,20.617 19.617,26 13,26 6.383,26 1,20.617 1,14 1,7.383 6.383,2 13,2 M 13,1 C 5.82,1 0,6.82 0,14 0,21.18 5.82,27 13,27 20.18,27 26,21.18 26,14 26,6.82 20.18,1 13,1 Z"
   id="path1600" />
		</g>
		<path
   d="m 13.5,7 c 3.859,0 7,3.14 7,7 0,3.859 -3.141,7 -7,7 -3.86,0 -7,-3.141 -7,-7 0,-3.86 3.14,-7 7,-7 m 0,-1 c -4.419,0 -8,3.581 -8,8 0,4.419 3.581,8 8,8 4.419,0 8,-3.581 8,-8 0,-4.419 -3.581,-8 -8,-8 z"
   id="path1604" />
		<path
   d="m 9.628,15.974 h 0.949 l 2.923,10e-4 2.924,-10e-4 h 0.948 C 16.934,17.63 15.415,18.785 13.5,18.785 11.585,18.784 10.066,17.63 9.628,15.974 m 8.189,-1.001 c -0.868,0 -2.477,10e-4 -4.317,10e-4 -1.84,0 -3.449,-10e-4 -4.317,-10e-4 -0.434,0 -0.683,0 -0.683,10e-4 0,2.761 2.239,4.81 5,4.81 2.762,0 5,-2.049 5,-4.81 0,0 -0.249,-10e-4 -0.683,-10e-4 z"
   id="path1606" />
		<path
   d="m 18.005,13.44 c -0.276,0 -0.5,-0.224 -0.5,-0.5 0,-0.551 -0.448,-1 -1,-1 -0.552,0 -1,0.449 -1,1 0,0.276 -0.224,0.5 -0.5,0.5 -0.276,0 -0.5,-0.224 -0.5,-0.5 0,-1.103 0.897,-2 2,-2 1.103,0 2,0.897 2,2 0,0.277 -0.224,0.5 -0.5,0.5 z"
   id="path1608" />
		<path
   d="m 11.972,13.44 c -0.276,0 -0.5,-0.224 -0.5,-0.5 0,-0.551 -0.449,-1 -1,-1 -0.551,0 -1,0.449 -1,1 0,0.276 -0.224,0.5 -0.5,0.5 -0.276,0 -0.5,-0.224 -0.5,-0.5 0,-1.103 0.897,-2 2,-2 1.103,0 2,0.897 2,2 0,0.277 -0.224,0.5 -0.5,0.5 z"
   id="path1610" />
	</g>
</g>
<g
   id="Layer_25"
   display="none"
   transform="translate(-0.17903032,-5.7825403)">
	<g
   display="inline"
   id="g1627">
		<g
   display="none"
   id="g1617">
			<path
   display="inline"
   d="M 16,0 C 22.617,0 28,5.383 28,12 28,18.617 22.617,24 16,24 9.383,24 4,18.617 4,12 4,5.383 9.383,0 16,0 m 0,-1 C 8.82,-1 3,4.82 3,12 3,19.18 8.82,25 16,25 23.18,25 29,19.18 29,12 29,4.82 23.18,-1 16,-1 Z"
   id="path1615" />
		</g>
		<g
   id="g1621">
			<path
   d="M 19,8 V 19 H 8 V 8 H 19 M 19.752,7 H 7.248 C 7.112,7 7,7.111 7,7.252 V 19.746 C 7,19.887 7.112,20 7.248,20 H 19.752 C 19.889,20 20,19.887 20,19.746 V 7.252 C 20,7.111 19.889,7 19.752,7 Z"
   id="path1619" />
		</g>
		<g
   id="g1625">
			<path
   d="m 15,12 v 7 H 8 v -7 h 7 m 0.828,-1 H 7.172 C 7.077,11 7,11.077 7,11.173 v 8.652 C 7,19.921 7.077,20 7.172,20 h 8.656 C 15.923,20 16,19.921 16,19.825 V 11.173 C 16,11.077 15.923,11 15.828,11 Z"
   id="path1623" />
		</g>
	</g>
</g>
<g
   id="Layer_26"
   display="none"
   transform="translate(-0.17903032,-5.7825403)">
	<g
   display="inline"
   id="g1638">
		<g
   display="none"
   id="g1632">
			<path
   display="inline"
   d="M 13,2 C 19.617,2 25,7.383 25,14 25,20.617 19.617,26 13,26 6.383,26 1,20.617 1,14 1,7.383 6.383,2 13,2 M 13,1 C 5.82,1 0,6.82 0,14 0,21.18 5.82,27 13,27 20.18,27 26,21.18 26,14 26,6.82 20.18,1 13,1 Z"
   id="path1630" />
		</g>
		<path
   d="M 16.011,12.093 16.02,12.084 16.004,12.068 16.012,12.06 13.037,9.086 V 9.073 H 7.273 c -0.139,0 -0.25,0.111 -0.25,0.25 v 11.5 c 0,0.139 0.111,0.25 0.25,0.25 h 8.501 c 0.138,0 0.25,-0.111 0.25,-0.25 v -7.729 -0.93 -0.07 h -0.013 z m -2.988,-1.59 1.591,1.59 h -1.591 z m 2.001,9.569 H 8.023 v -10 h 4 v 2.021 0.992 0.008 h 3.001 z"
   id="path1634" />
		<path
   d="M 19.963,9.053 19.972,9.044 19.956,9.028 19.964,9.02 16.99,6.047 V 6.033 h -5.765 c -0.139,0 -0.25,0.111 -0.25,0.25 v 1.721 h 1 V 7.033 h 4.001 v 2.021 0.992 0.008 h 3 v 6.98 h -2.045 v 1 h 2.795 c 0.138,0 0.25,-0.113 0.25,-0.25 v -7.73 -0.93 -0.07 h -0.013 z m -2.986,0 v -1.59 l 1.59,1.59 z"
   id="path1636" />
	</g>
</g>
<g
   id="Layer_27"
   display="none"
   transform="translate(-0.17903032,-5.7825403)">
	<g
   display="inline"
   id="g1661">
		<g
   display="none"
   id="g1643">
			<path
   display="inline"
   d="M 14,1 C 20.617,1 26,6.383 26,13 26,19.617 20.617,25 14,25 7.383,25 2,19.617 2,13 2,6.383 7.383,1 14,1 M 14,0 C 6.82,0 1,5.82 1,13 1,20.18 6.82,26 14,26 21.18,26 27,20.18 27,13 27,5.82 21.18,0 14,0 Z"
   id="path1641" />
		</g>
		<g
   id="g1647">
			<path
   d="m 15,12 v 3 h -3 v -3 h 3 m 0.904,-1 H 11.095 C 11.043,11 11,11.042 11,11.096 v 4.806 C 11,15.956 11.043,16 11.096,16 h 4.809 C 15.957,16 16,15.956 16,15.902 V 11.096 C 16,11.042 15.957,11 15.904,11 Z"
   id="path1645" />
		</g>
		<g
   id="g1653">
			<path
   d="M 8,10 V 8.058 h 2 V 7 H 7.248 C 7.111,7 7,7.118 7,7.265 V 10 Z"
   id="path1649" />
			<path
   d="M 8,17 H 7 v 2.762 C 7,19.893 7.111,20 7.248,20 H 10 V 19.052 H 8 Z"
   id="path1651" />
		</g>
		<g
   id="g1659">
			<path
   d="m 19,10 h 1 V 7.265 C 20,7.118 19.89,7 19.752,7 H 17 v 1.059 h 2 z"
   id="path1655" />
			<path
   d="m 19,17 v 2.052 H 17 V 20 h 2.752 C 19.89,20 20,19.893 20,19.762 V 17 Z"
   id="path1657" />
		</g>
	</g>
</g>
<g
   id="Layer_28"
   display="none"
   transform="translate(-0.17903032,-5.7825403)">
	<path
   display="inline"
   d="M 19.769,6.999 H 18.021 V 6.5 c 0,-0.276 -0.224,-0.5 -0.5,-0.5 -0.276,0 -0.5,0.224 -0.5,0.5 V 7 H 10 V 6.5 C 10,6.223 9.776,6 9.5,6 9.224,6 9,6.223 9,6.5 V 7 H 7.232 C 7.104,6.999 7,7.096 7,7.214 V 19.785 C 7,19.902 7.104,20 7.232,20 H 19.768 C 19.896,20 20,19.902 20,19.785 V 7.214 C 20,7.096 19.896,6.999 19.769,6.999 Z M 9,7.999 v 0.5 C 9,8.776 9.224,9 9.5,9 9.776,9 10,8.776 10,8.5 V 8 h 7.021 v 0.5 c 0,0.276 0.224,0.5 0.5,0.5 0.276,0 0.5,-0.224 0.5,-0.5 V 8 H 19 v 5.032 H 8 V 7.999 Z M 8,19 V 14.031 H 19 V 19 Z"
   id="path1664" />
</g>
<g
   id="Layer_29"
   display="none"
   transform="translate(-0.17903032,-5.7825403)">
	<g
   display="inline"
   id="g1675">
		<g
   id="g1673">
			<g
   id="g1669">
				<path
   d="m 15.261,7.658 2.651,1.523 1.57,2.702 -7.909,7.91 -4.225,-4.225 7.913,-7.91 M 15.143,6.465 c -0.064,0 -0.128,0.024 -0.177,0.073 l -8.854,8.854 c -0.098,0.098 -0.098,0.256 0,0.354 l 5.285,5.285 c 0.049,0.049 0.113,0.073 0.177,0.073 0.064,0 0.128,-0.024 0.177,-0.073 l 8.854,-8.854 c 0.098,-0.098 0.098,-0.256 0,-0.354 L 18.644,8.448 15.321,6.539 C 15.271,6.49 15.206,6.465 15.143,6.465 Z"
   id="path1667" />
			</g>
			<circle
   cx="15.935"
   cy="11.252"
   r="1"
   id="circle1671" />
		</g>
	</g>
</g>
<g
   id="Layer_30"
   display="none"
   transform="translate(-0.17903032,-5.7825403)">
</g>
<g
   id="Layer_31"
   display="none"
   transform="translate(-0.17903032,-5.7825403)">
	<g
   display="inline"
   id="g1691">
		<g
   display="none"
   id="g1681">
			<path
   display="inline"
   d="M 13,2 C 19.617,2 25,7.383 25,14 25,20.617 19.617,26 13,26 6.383,26 1,20.617 1,14 1,7.383 6.383,2 13,2 M 13,1 C 5.82,1 0,6.82 0,14 0,21.18 5.82,27 13,27 20.18,27 26,21.18 26,14 26,6.82 20.18,1 13,1 Z"
   id="path1679" />
		</g>
		<path
   d="m 12.068,9.259 -0.5,-0.5 c -0.097,-0.097 -0.255,-0.098 -0.354,0 l -3.138,3.138 c -0.02,0.02 -0.018,0.048 -0.03,0.071 L 6.98,10.9 c -0.098,-0.098 -0.256,-0.098 -0.354,0 l -0.5,0.5 c -0.098,0.098 -0.098,0.256 0,0.354 l 1.724,1.724 c 0.098,0.098 0.256,0.098 0.354,0 l 0.5,-0.5 C 8.748,12.934 8.767,12.875 8.77,12.817 8.828,12.813 8.886,12.795 8.931,12.75 l 3.137,-3.138 c 0.099,-0.097 0.099,-0.255 0,-0.353 z"
   id="path1683" />
		<path
   d="m 21.975,11.031 c 0,0.069 -0.111,0.125 -0.251,0.125 h -6.497 c -0.14,0 -0.252,-0.056 -0.252,-0.125 v -0.75 c 0,-0.069 0.112,-0.125 0.252,-0.125 h 6.497 c 0.14,0 0.251,0.056 0.251,0.125 z"
   id="path1685" />
		<path
   d="m 21.975,16.919 c 0,0.07 -0.111,0.125 -0.251,0.125 h -6.497 c -0.14,0 -0.252,-0.055 -0.252,-0.125 v -0.75 c 0,-0.068 0.112,-0.125 0.252,-0.125 h 6.497 c 0.14,0 0.251,0.057 0.251,0.125 z"
   id="path1687" />
		<path
   d="m 12.068,14.942 -0.5,-0.5 c -0.097,-0.098 -0.255,-0.099 -0.354,0 l -3.138,3.137 c -0.02,0.02 -0.018,0.048 -0.03,0.072 L 6.98,16.583 c -0.098,-0.098 -0.256,-0.098 -0.354,0 l -0.5,0.5 c -0.098,0.098 -0.098,0.256 0,0.354 l 1.724,1.725 c 0.098,0.098 0.256,0.098 0.354,0 l 0.5,-0.5 C 8.749,18.617 8.767,18.558 8.771,18.5 8.829,18.495 8.886,18.478 8.931,18.434 l 3.137,-3.137 c 0.099,-0.101 0.099,-0.257 0,-0.355 z"
   id="path1689" />
	</g>
</g>
<g
   id="Layer_32"
   display="none"
   transform="translate(-0.17903032,-5.7825403)">
	<g
   display="inline"
   id="g1706">
		<g
   display="none"
   id="g1696">
			<path
   display="inline"
   d="M 13,2 C 19.617,2 25,7.383 25,14 25,20.617 19.617,26 13,26 6.383,26 1,20.617 1,14 1,7.383 6.383,2 13,2 M 13,1 C 5.82,1 0,6.82 0,14 0,21.18 5.82,27 13,27 20.18,27 26,21.18 26,14 26,6.82 20.18,1 13,1 Z"
   id="path1694" />
		</g>
		<g
   id="g1704">
			<path
   fill="none"
   d="M 19,11 V 9 h -1.006 v 0.5 c 0,0.276 -0.224,0.5 -0.5,0.5 -0.276,0 -0.5,-0.224 -0.5,-0.5 V 9 h -6.988 v 0.5 c 0,0.276 -0.224,0.5 -0.5,0.5 -0.276,0 -0.5,-0.224 -0.5,-0.5 V 9 H 8 v 2 z"
   id="path1698" />
			<rect
   x="8"
   y="12"
   fill="none"
   width="11"
   height="7"
   id="rect1700" />
			<path
   d="M 19.768,8 H 17.995 V 7.5 c 0,-0.276 -0.224,-0.5 -0.5,-0.5 -0.276,0 -0.5,0.224 -0.5,0.5 V 8 H 10.007 V 7.5 C 10.007,7.224 9.783,7 9.507,7 9.231,7 9.007,7.224 9.007,7.5 V 8 H 7.231 C 7.104,8 7,8.097 7,8.214 V 19.785 C 7,19.902 7.104,20 7.231,20 H 19.767 C 19.895,20 20,19.902 20,19.785 V 8.214 C 20,8.097 19.895,8 19.768,8 Z M 9.006,9 v 0.5 c 0,0.276 0.224,0.5 0.5,0.5 0.276,0 0.5,-0.224 0.5,-0.5 V 9 h 6.988 v 0.5 c 0,0.276 0.224,0.5 0.5,0.5 0.276,0 0.5,-0.224 0.5,-0.5 V 9 H 19 v 2 H 8 V 9 Z M 8,19 v -7 h 11 v 7 z"
   id="path1702" />
		</g>
	</g>
</g>
<g
   id="Layer_33"
   display="none"
   transform="translate(-0.17903032,-5.7825403)">
	<g
   display="inline"
   id="g1717">
		<g
   id="g1711">
			<path
   d="m 15.703,13.427 -2.239,2.238 -2.122,-2.122 -0.707,0.707 2.654,2.655 c 0.096,0.096 0.254,0.096 0.352,-0.002 l 2.77,-2.77 z"
   id="path1709" />
		</g>
		<path
   d="m 19.022,19.265 c 0,-0.131 -0.156,-0.236 -0.351,-0.236 H 8.373 c -0.194,0 -0.351,0.105 -0.351,0.236 v 0.525 c 0,0.131 0.157,0.238 0.351,0.238 h 10.299 c 0.194,0 0.351,-0.107 0.351,-0.238 v -0.525 z"
   id="path1713" />
		<rect
   x="13.014"
   y="7.1739998"
   width="1.017"
   height="8.717"
   id="rect1715" />
	</g>
</g>
<g
   id="Layer_34"
   display="none"
   transform="translate(-0.17903032,-5.7825403)">
	<g
   display="inline"
   id="g1728">
		<g
   id="g1724">
			<g
   id="g1722">
				<circle
   cx="14"
   cy="13"
   r="1"
   id="circle1720" />
			</g>
		</g>
		<path
   d="m 20.986,13.995 v -2 h -1.598 c -0.146,-0.783 -0.45,-1.511 -0.891,-2.14 L 19.653,8.7 18.239,7.286 17.076,8.449 C 16.465,8.034 15.762,7.748 15.009,7.607 V 5.995 h -2 V 7.599 C 12.244,7.738 11.531,8.025 10.912,8.445 L 9.757,7.289 8.343,8.704 9.488,9.849 C 9.046,10.48 8.74,11.209 8.593,11.995 H 7.014 v 2 H 8.59 c 0.14,0.763 0.428,1.474 0.848,2.092 l -1.152,1.151 1.414,1.414 1.144,-1.144 c 0.636,0.444 1.372,0.752 2.165,0.896 v 1.613 h 2 v -1.622 c 0.781,-0.147 1.508,-0.452 2.135,-0.893 l 1.152,1.152 1.414,-1.414 -1.161,-1.161 c 0.417,-0.617 0.704,-1.326 0.843,-2.086 h 1.594 z m -6.995,2.507 c -1.93,0 -3.5,-1.57 -3.5,-3.5 0,-1.93 1.57,-3.5 3.5,-3.5 1.93,0 3.5,1.57 3.5,3.5 0,1.93 -1.57,3.5 -3.5,3.5 z"
   id="path1726" />
	</g>
</g>
<g
   id="Layer_35"
   display="none"
   transform="translate(-0.17903032,-5.7825403)">
	<g
   display="inline"
   id="g1739">
		<path
   fill="none"
   d="M 19.798,23.877 C 18.071,22.105 15.663,21 12.999,21 10.336,21 7.929,22.105 6.202,23.877 8.136,25.213 10.477,26 13,26 c 2.522,0 4.864,-0.787 6.798,-2.123 z"
   id="path1731" />
		<path
   fill="none"
   d="m 12.999,20 c 2.995,0 5.691,1.261 7.605,3.273 C 23.286,21.071 25,17.732 25,14 25,7.383 19.616,2 13,2 6.383,2 1,7.383 1,14 1,17.731 2.713,21.07 5.394,23.272 7.306,21.26 10.002,20 12.999,20 Z"
   id="path1733" />
		<path
   d="M 13,1 C 5.82,1 0,6.82 0,14 c 0,4.041 1.844,7.65 4.736,10.035 0.258,0.213 0.53,0.408 0.804,0.602 C 7.653,26.121 10.222,27 13,27 c 2.778,0 5.347,-0.879 7.46,-2.363 0.273,-0.193 0.545,-0.389 0.803,-0.602 C 24.155,21.651 26,18.041 26,14 26,6.82 20.18,1 13,1 Z m 0,25 C 10.477,26 8.136,25.213 6.202,23.877 7.929,22.105 10.336,21 12.999,21 c 2.664,0 5.072,1.105 6.799,2.877 C 17.864,25.213 15.522,26 13,26 Z m 7.604,-2.727 C 18.69,21.261 15.994,20 12.999,20 10.002,20 7.306,21.26 5.394,23.272 2.713,21.07 1,17.731 1,14 1,7.383 6.383,2 13,2 c 6.616,0 12,5.383 12,12 0,3.732 -1.714,7.071 -4.396,9.273 z"
   id="path1735" />
		<path
   d="m 12.989,8.005 c -2.209,0 -4,1.791 -4,3.999 0,0.531 0,0.496 0,1.498 0,0.82 0,0.967 0,1.497 0,2.21 1.791,4.001 4,4.001 2.209,0 4,-1.791 4,-4.001 0,-0.53 0,0.009 0,-1.497 0,-0.841 0,-1.217 0,-1.375 0,-0.074 0,-0.105 0,-0.105 0,-0.006 0,-0.01 0,-0.018 0,-2.208 -1.791,-3.999 -4,-3.999 z m 3,4.333 c 0,0.967 0,0.014 0,1.164 0,0.803 0,0.068 0,1.164 0,0.111 0,0.219 0,0.333 0,1.654 -1.346,3.001 -3,3.001 -1.654,0 -2.997,-1.347 -2.997,-3.001 0,-0.114 0,0.196 0,-0.333 0,-0.004 0,-0.008 0,-0.012 V 12.35 c 0,-0.004 0,-0.008 0,-0.012 -0.012,-0.111 0,0.779 0,-0.334 0,-0.01 0,-0.019 0,-0.028 v -0.062 0 c 0.049,-1.611 1.374,-2.909 2.997,-2.909 1.654,0 3,1.346 3,2.999 0,0.115 0,0.223 0,0.334 z"
   id="path1737" />
	</g>
</g>
<g
   id="Layer_36"
   display="none"
   transform="translate(-0.17903032,-5.7825403)">
	<g
   display="inline"
   id="g1744">
		<path
   d="m 20.5,15.128 v 0 c 1.47,0 2.852,0.572 3.89,1.61 1.038,1.038 1.61,2.42 1.61,3.889 0,1.47 -0.571,2.852 -1.61,3.891 -1.038,1.038 -2.419,1.61 -3.89,1.61 -1.47,0 -2.852,-0.572 -3.89,-1.61 -2.144,-2.144 -2.144,-5.634 0,-7.779 1.039,-1.039 2.42,-1.611 3.89,-1.611 m 0,-1 c -1.663,0 -3.327,0.634 -4.597,1.903 -2.537,2.539 -2.537,6.656 0,9.193 1.269,1.269 2.933,1.903 4.597,1.903 1.664,0 3.328,-0.635 4.597,-1.903 2.539,-2.539 2.537,-6.656 0,-9.193 -1.269,-1.268 -2.933,-1.903 -4.597,-1.903 z"
   id="path1742" />
	</g>
	<path
   display="inline"
   d="M 23.999,20.381 C 24,20.242 23.948,20.129 23.882,20.127 H 21.038 V 17.244 C 21.037,17.18 20.924,17.129 20.784,17.129 H 20.29 c -0.14,0 -0.253,0.051 -0.253,0.117 v 2.881 h -2.921 c -0.063,0.002 -0.115,0.115 -0.115,0.254 v 0.494 c 0,0.141 0.053,0.254 0.117,0.254 l 2.92,-0.001 v 2.882 c -0.001,0.064 0.111,0.117 0.252,0.119 l 0.495,-0.002 c 0.139,0 0.252,-0.053 0.253,-0.117 v -2.882 l 2.845,-0.001 c 0.065,0.002 0.117,-0.111 0.118,-0.252 z"
   id="path1746" />
	<path
   display="inline"
   fill="none"
   d="m 15.989,12.338 c 0,-0.111 0,-0.219 0,-0.334 0,-1.653 -1.346,-2.999 -3,-2.999 -1.623,0 -2.948,1.298 -2.997,2.909 v 0.062 c 0,0.01 0,0.019 0,0.028 0,0.143 0,0.25 0,0.334 0,0.001 0,-0.002 0,0 0,0.004 0,0.008 0,0.012 v 2.305 c 0,0.004 0,0.008 0,0.012 0,0.198 0,0.278 0,0.307 0,-0.003 0,0 0,0.015 0,0.004 0,0.005 0,0.011 0,1.654 1.343,3.001 2.997,3.001 0.003,0 0.007,-0.001 0.01,-0.001 0.464,-1.708 1.543,-3.161 2.99,-4.103 0,-0.055 0,-0.151 0,-0.395 0,-1.15 0,-0.197 0,-1.164 z"
   id="path1748" />
	<path
   display="inline"
   d="m 12.989,18 c -1.654,0 -2.997,-1.347 -2.997,-3.001 0,-0.006 0,-0.007 0,-0.011 0,-0.015 0,-0.019 0,-0.015 0,-0.029 0,-0.109 0,-0.307 0,-0.004 0,-0.008 0,-0.012 V 12.35 c 0,-0.004 0,-0.008 0,-0.012 0,-0.002 0,0.001 0,0 -0.002,0.554 -0.01,-0.064 0,0 0,-0.083 0,-0.191 0,-0.334 0,-0.01 0,-0.019 0,-0.028 v -0.062 c 0.049,-1.611 1.374,-2.909 2.997,-2.909 1.655,0 3,1.346 3,2.999 0,0.115 0,0.223 0,0.334 0,0.967 0,0.014 0,1.164 0,0.243 0,0.34 0,0.395 0.316,-0.207 0.65,-0.388 1,-0.542 0,-0.727 0,-1.08 0,-1.227 0,-0.074 0,-0.105 0,-0.105 0,-0.006 0,-0.01 0,-0.018 0,-2.208 -1.791,-3.999 -4,-3.999 -2.208,0 -4,1.791 -4,3.999 0,0.531 0,0.496 0,1.498 0,0.82 0,0.967 0,1.497 0,2.146 1.694,3.884 3.814,3.982 0.042,-0.336 0.108,-0.663 0.195,-0.982 -0.002,-0.001 -0.006,0 -0.009,0 z"
   id="path1750" />
	<path
   display="inline"
   d="m 9.992,12.338 c -0.01,-0.064 -0.003,0.554 0,0 z"
   id="path1752" />
	<path
   display="inline"
   d="M 5.394,23.272 C 2.713,21.07 1,17.731 1,14 1,7.383 6.383,2 13,2 c 6.001,0 10.973,4.432 11.849,10.191 0.061,0.012 0.119,0.037 0.18,0.052 h 0.838 C 25.006,5.896 19.583,1 13,1 5.82,1 0,6.82 0,14 c 0,4.041 1.844,7.65 4.736,10.035 0.258,0.213 0.53,0.408 0.804,0.602 C 7.653,26.121 10.222,27 13,27 c 0.648,0 1.278,-0.066 1.897,-0.162 v -1.01 C 14.278,25.93 13.648,26 13,26 10.477,26 8.136,25.213 6.202,23.877 c 1.692,-1.736 4.04,-2.825 6.64,-2.869 -0.052,-0.325 -0.085,-0.656 -0.092,-0.995 -2.896,0.069 -5.498,1.303 -7.356,3.259 z"
   id="path1754" />
</g>
<g
   id="Layer_37"
   display="none"
   transform="translate(-0.17903032,-5.7825403)">
	<g
   display="inline"
   id="g1767">
		<g
   display="none"
   id="g1759">
			<path
   display="inline"
   d="M 13,2 C 19.617,2 25,7.383 25,14 25,20.617 19.617,26 13,26 6.383,26 1,20.617 1,14 1,7.383 6.383,2 13,2 M 13,1 C 5.82,1 0,6.82 0,14 0,21.18 5.82,27 13,27 20.18,27 26,21.18 26,14 26,6.82 20.18,1 13,1 Z"
   id="path1757" />
		</g>
		<g
   id="g1765">
			<path
   d="m 16.903,16.263 c 0.059,0.061 0.025,0.188 -0.073,0.285 l -0.349,0.35 c -0.1,0.1 -0.227,0.133 -0.285,0.072 l -6.151,-6.15 c -0.059,-0.059 -0.026,-0.186 0.072,-0.285 l 0.35,-0.35 c 0.098,-0.098 0.226,-0.131 0.285,-0.074 z"
   id="path1761" />
			<path
   d="m 10.805,16.97 c -0.06,0.059 -0.187,0.025 -0.285,-0.072 L 10.169,16.55 c -0.098,-0.102 -0.131,-0.229 -0.071,-0.287 l 6.149,-6.15 c 0.059,-0.059 0.186,-0.025 0.285,0.072 l 0.35,0.35 c 0.098,0.1 0.131,0.227 0.074,0.285 z"
   id="path1763" />
		</g>
	</g>
</g>
<g
   id="Layer_38"
   display="none"
   transform="translate(-0.17903032,-5.7825403)">
	<g
   display="inline"
   id="g1776">
		<g
   display="none"
   id="g1772">
			<path
   display="inline"
   d="M 13.999,2 C 20.617,2 26,7.383 26,14 c 0,6.617 -5.383,12 -12.001,12 -6.617,0 -12,-5.383 -12,-12 0,-6.617 5.383,-12 12,-12 m 0,-1 c -7.18,0 -13,5.82 -13,13 0,7.18 5.82,13 13,13 C 21.18,27 27,21.18 27,14 27,6.82 21.18,1 13.999,1 Z"
   id="path1770" />
		</g>
		<path
   d="m 19.264,10.738 -0.346,-0.346 c -0.098,-0.098 -0.256,-0.098 -0.354,0 l -5.359,5.358 -2.616,-2.616 c -0.098,-0.098 -0.256,-0.098 -0.354,0 l -0.5,0.5 c -0.098,0.098 -0.098,0.256 0,0.354 l 2.793,2.793 0.346,0.346 c 0.098,0.098 0.256,0.098 0.354,0 l 6.036,-6.035 c 0.097,-0.098 0.097,-0.256 0,-0.354 z"
   id="path1774" />
	</g>
</g>
<g
   id="Layer_39"
   display="none"
   transform="translate(-0.17903032,-5.7825403)">
	<g
   display="inline"
   id="g1785">
		<g
   display="none"
   id="g1781">
			<path
   display="inline"
   d="m 13.25,0.75 c 6.893,0 12.5,5.607 12.5,12.5 0,6.893 -5.607,12.5 -12.5,12.5 -6.893,0 -12.5,-5.607 -12.5,-12.5 0,-6.893 5.607,-12.5 12.5,-12.5 m 0,-1 c -7.456,0 -13.5,6.044 -13.5,13.5 0,7.456 6.044,13.5 13.5,13.5 7.456,0 13.5,-6.044 13.5,-13.5 0,-7.456 -6.044,-13.5 -13.5,-13.5 z"
   id="path1779" />
		</g>
		<rect
   x="0.398"
   y="12.88"
   transform="matrix(0.7071,0.7071,-0.7071,0.7071,13.3804,-5.5423)"
   width="25.965"
   height="1"
   id="rect1783" />
	</g>
</g>
<g
   id="Layer_40"
   display="none"
   transform="translate(-0.17903032,-5.7825403)">
	<g
   display="inline"
   id="g1800">
		<g
   display="none"
   id="g1790">
			<path
   display="inline"
   d="M 14,1 C 20.617,1 26,6.383 26,13 26,19.617 20.617,25 14,25 7.383,25 2,19.617 2,13 2,6.383 7.383,1 14,1 M 14,0 C 6.82,0 1,5.82 1,13 1,20.18 6.82,26 14,26 21.18,26 27,20.18 27,13 27,5.82 21.18,0 14,0 Z"
   id="path1788" />
		</g>
		<g
   id="g1794">
			<path
   d="m 13.5,9.5 c 2.479,0 6,2.07 6,4.002 0,1.93 -3.521,3.999 -6,3.999 -2.479,0 -6,-2.068 -6,-3.999 0,-1.933 3.521,-4.002 6,-4.002 m 0,-1 c -2.762,0 -7,2.238 -7,5.002 0,2.76 4.238,4.999 7,4.999 2.761,0 7,-2.238 7,-4.999 0,-2.764 -4.239,-5.002 -7,-5.002 z"
   id="path1792" />
		</g>
		<g
   id="g1798">
			<path
   d="m 13.492,11.898 c 0.827,0 1.5,0.673 1.5,1.5 0,0.827 -0.673,1.5 -1.5,1.5 -0.827,0 -1.499,-0.673 -1.499,-1.5 0,-0.827 0.673,-1.5 1.499,-1.5 m 0,-1 c -1.38,0 -2.499,1.119 -2.499,2.5 0,1.38 1.119,2.5 2.499,2.5 1.381,0 2.5,-1.12 2.5,-2.5 0,-1.381 -1.119,-2.5 -2.5,-2.5 z"
   id="path1796" />
		</g>
	</g>
</g>
<g
   id="Layer_41"
   display="none"
   transform="translate(-0.17903032,-5.7825403)">
	<g
   display="inline"
   id="g1815">
		<g
   display="none"
   id="g1805">
			<path
   display="inline"
   d="m 15.978,-0.641 c 6.617,0 12,5.383 12,12 0,6.617 -5.383,12 -12,12 -6.617,0 -12,-5.383 -12,-12 0,-6.616 5.383,-12 12,-12 m 0,-1 c -7.18,0 -13,5.82 -13,13 0,7.18 5.82,13 13,13 7.18,0 13,-5.82 13,-13 0,-7.18 -5.821,-13 -13,-13 z"
   id="path1803" />
		</g>
		<g
   id="g1809">
			<path
   d="m 13.5,9.499 c 2.479,0 6,2.07 6,4.002 0,1.931 -3.521,3.999 -6,3.999 -2.479,0 -6,-2.068 -6,-3.999 0,-1.932 3.521,-4.002 6,-4.002 m 0,-1 c -2.761,0 -7,2.238 -7,5.002 0,2.761 4.239,4.999 7,4.999 2.762,0 7,-2.238 7,-4.999 0,-2.764 -4.238,-5.002 -7,-5.002 z"
   id="path1807" />
		</g>
		<g
   id="g1813">
			<path
   d="M 15.225,11.601 13.51,13.285 V 10.9 c -0.006,0 -0.011,-0.002 -0.017,-0.002 -1.38,0 -2.5,1.119 -2.5,2.5 0,1.382 1.12,2.501 2.5,2.501 1.381,0 2.5,-1.119 2.5,-2.501 0,-0.708 -0.296,-1.344 -0.768,-1.797 z"
   id="path1811" />
		</g>
	</g>
</g>
<g
   id="Layer_51"
   transform="matrix(-3.0594289,0,0,-3.0535279,57.832597,55.438097)">
	<path
   d="M 18.77,10.948 18.42,10.6 C 18.322,10.5 18.206,10.457 18.158,10.504 L 14,14.662 9.841,10.503 C 9.795,10.458 9.678,10.501 9.578,10.601 L 9.23,10.95 c -0.099,0.098 -0.143,0.215 -0.096,0.262 l 4.333,4.332 c 0.002,0.002 0.002,0.004 0.004,0.006 l 0.35,0.348 0.098,0.098 c 0.01,0.01 0.032,10e-4 0.047,0.002 0.016,0.007 0.024,0 0.039,0.002 0.011,-0.002 0.018,0.003 0.03,-0.002 0.017,-0.002 0.039,0.007 0.05,-0.004 l 0.09,-0.09 c 0.002,-0.002 0.004,-0.002 0.006,-0.004 l 0.35,-0.35 c 0.002,-0.002 0.002,-0.004 0.004,-0.006 l 4.332,-4.332 c 0.046,-0.047 0.002,-0.164 -0.097,-0.264 z"
   id="path1818" />
</g>
<g
   id="Layer_42"
   display="none"
   transform="translate(-0.17903032,-5.7825403)">
	<g
   display="inline"
   id="g1839">
		<g
   id="g1831">
			<g
   display="none"
   id="g1823">
				<path
   display="inline"
   d="M 14,1 C 20.618,1 26.001,6.383 26.001,13 26.001,19.617 20.618,25 14,25 7.383,25 2,19.617 2,13 2,6.383 7.383,1 14,1 M 14,0 C 6.82,0 1,5.82 1,13 1,20.18 6.82,26 14,26 21.181,26 27.001,20.18 27.001,13 27.001,5.82 21.181,0 14,0 Z"
   id="path1821" />
			</g>
			<g
   id="g1829">
				<path
   fill="none"
   d="m 13.99,9.501 c -1.929,0 -3.5,1.57 -3.5,3.5 0,1.93 1.571,3.5 3.5,3.5 1.931,0 3.501,-1.57 3.501,-3.5 0,-1.929 -1.57,-3.5 -3.501,-3.5 z"
   id="path1825" />
				<path
   d="m 19.987,13.995 v -2 H 19.393 C 19.252,11.23 18.955,10.52 18.532,9.902 L 18.966,9.469 17.552,8.055 17.122,8.484 C 16.499,8.051 15.782,7.745 15.009,7.601 V 6.995 h -2 V 7.594 C 12.234,7.735 11.514,8.033 10.887,8.463 L 10.483,8.059 9.068,9.472 9.469,9.873 C 9.035,10.498 8.73,11.217 8.586,11.994 H 8.014 v 2 h 0.571 c 0.143,0.783 0.45,1.507 0.887,2.137 l -0.424,0.425 1.414,1.414 0.428,-0.428 c 0.626,0.428 1.345,0.727 2.119,0.866 v 0.609 h 2 v -0.614 c 0.773,-0.146 1.488,-0.45 2.111,-0.882 l 0.416,0.416 1.414,-1.415 -0.42,-0.419 c 0.426,-0.623 0.725,-1.339 0.867,-2.11 h 0.59 z m -5.997,2.507 c -1.929,0 -3.5,-1.57 -3.5,-3.5 0,-1.93 1.571,-3.5 3.5,-3.5 1.931,0 3.501,1.57 3.501,3.5 0,1.93 -1.57,3.5 -3.501,3.5 z"
   id="path1827" />
			</g>
		</g>
		<g
   id="g1837">
			<g
   id="g1835">
				<circle
   cx="14"
   cy="13"
   r="1"
   id="circle1833" />
			</g>
		</g>
	</g>
</g>
<g
   id="Layer_43"
   display="none"
   transform="translate(-0.17903032,-5.7825403)">
	<g
   display="inline"
   id="g1852">
		<g
   display="none"
   id="g1844">
			<path
   display="inline"
   d="M 14,1 C 20.617,1 26,6.383 26,13 26,19.617 20.617,25 14,25 7.383,25 2,19.617 2,13 2,6.383 7.383,1 14,1 M 14,0 C 6.82,0 1,5.82 1,13 1,20.18 6.82,26 14,26 21.18,26 27,20.18 27,13 27,5.82 21.18,0 14,0 Z"
   id="path1842" />
		</g>
		<path
   d="M 14.953,9.783 C 14.953,9.903 14.855,10 14.735,10 H 13.17 C 13.05,10 12.953,9.903 12.953,9.783 V 8.217 C 12.953,8.097 13.05,8 13.17,8 h 1.565 c 0.12,0 0.218,0.097 0.218,0.217 z"
   id="path1846" />
		<path
   d="m 14.953,13.783 c 0,0.12 -0.098,0.217 -0.218,0.217 H 13.17 c -0.12,0 -0.217,-0.097 -0.217,-0.217 v -1.565 c 0,-0.12 0.097,-0.217 0.217,-0.217 h 1.565 c 0.12,0 0.218,0.097 0.218,0.217 z"
   id="path1848" />
		<path
   d="m 14.953,17.788 c 0,0.12 -0.098,0.218 -0.218,0.218 H 13.17 c -0.12,0 -0.217,-0.098 -0.217,-0.218 v -1.565 c 0,-0.12 0.097,-0.217 0.217,-0.217 h 1.565 c 0.12,0 0.218,0.097 0.218,0.217 z"
   id="path1850" />
	</g>
</g>
<g
   id="Layer_44"
   display="none"
   transform="translate(-0.17903032,-5.7825403)">
	<g
   display="inline"
   id="g1863">
		<g
   id="g1861">
			<path
   d="m 16.72,14.5 c -0.121,0 -0.217,-0.097 -0.217,-0.217 v -1.565 c 0,-0.12 0.096,-0.217 0.217,-0.217 h 1.564 c 0.121,0 0.219,0.097 0.219,0.217 v 1.565 c 0,0.12 -0.098,0.217 -0.219,0.217 z"
   id="path1855" />
			<path
   d="m 12.72,14.5 c -0.121,0 -0.217,-0.097 -0.217,-0.217 v -1.565 c 0,-0.12 0.096,-0.217 0.217,-0.217 h 1.564 c 0.121,0 0.219,0.097 0.219,0.217 v 1.565 c 0,0.12 -0.098,0.217 -0.219,0.217 z"
   id="path1857" />
			<path
   d="m 8.715,14.5 c -0.12,0 -0.218,-0.097 -0.218,-0.217 v -1.565 c 0,-0.12 0.098,-0.217 0.218,-0.217 h 1.565 c 0.12,0 0.217,0.097 0.217,0.217 v 1.565 c 0,0.12 -0.097,0.217 -0.217,0.217 z"
   id="path1859" />
		</g>
	</g>
</g>
<g
   id="Layer_45"
   display="none"
   transform="translate(-0.17903032,-5.7825403)">
	<g
   display="inline"
   id="g1872">
		<path
   d="M 20.714,9.117 H 7.213 c -0.138,0 -0.25,0.073 -0.25,0.161 v 8.685 c 0,0.088 0.111,0.16 0.25,0.16 h 6.526 l 2.325,2.326 c 0.026,0.027 0.063,0.04 0.099,0.04 0.036,0 0.073,-0.015 0.101,-0.043 l 2.321,-2.323 h 2.129 c 0.137,0 0.25,-0.072 0.25,-0.16 V 15.744 14.229 9.278 c 0,-0.088 -0.113,-0.161 -0.25,-0.161 z m -0.75,5.526 v 0.687 1.414 0.379 h -0.379 -1.413 l -0.999,1 -1.01,1.01 -1.01,-1.01 -1,-1 H 12.739 7.963 v -7.006 h 7.512 1.379 3.109 v 3.111 1.415 z"
   id="path1866" />
		<rect
   x="9.9779997"
   y="12.118"
   width="8"
   height="1"
   id="rect1868" />
		<rect
   x="9.9779997"
   y="14.069"
   width="8"
   height="1"
   id="rect1870" />
	</g>
</g>
<g
   id="Layer_46"
   display="none"
   transform="translate(-0.17903032,-5.7825403)">
	<g
   display="inline"
   id="g1889">
		<g
   id="g1877">
			<path
   d="m 15.994,15 v 5 h -5 v -5 h 5 m 1,-1 h -7 v 7 h 7 z"
   id="path1875" />
		</g>
		
			<line
   fill="none"
   stroke="#000000"
   stroke-linecap="round"
   stroke-linejoin="round"
   stroke-miterlimit="10"
   x1="10.166"
   y1="14.528"
   x2="8.0150003"
   y2="16.677999"
   id="line1879" />
		
			<line
   fill="none"
   stroke="#000000"
   stroke-linecap="round"
   stroke-linejoin="round"
   stroke-miterlimit="10"
   x1="18.985001"
   y1="16.677999"
   x2="16.834999"
   y2="14.528"
   id="line1881" />
		<g
   id="g1885">
			<path
   d="m 15.728,9.376 -2.24,2.238 -2.121,-2.121 -0.707,0.707 2.653,2.653 c 0.097,0.097 0.254,0.096 0.353,-0.002 l 2.769,-2.768 z"
   id="path1883" />
		</g>
		<rect
   x="13.039"
   y="5.9899998"
   width="1.016"
   height="5.8499999"
   id="rect1887" />
	</g>
</g>
<g
   id="Layer_47"
   display="none"
   transform="translate(-0.17903032,-5.7825403)">
	<g
   display="inline"
   id="g1898">
		<path
   d="m 19.89,13.609 c 0,-3.53 -2.859,-6.391 -6.389,-6.391 -3.53,0 -6.391,2.862 -6.391,6.391 0,3.53 2.862,6.391 6.391,6.391 1.16,0 2.244,-0.314 3.184,-0.855 l 1.52,0.85 -0.355,-1.713 c 1.253,-1.167 2.04,-2.825 2.04,-4.673 z m -3.145,4.276 c -0.037,0.027 -0.068,0.061 -0.107,0.088 -0.314,0.227 -0.646,0.428 -1.006,0.584 C 14.978,18.84 14.258,19 13.501,19 10.528,19 8.11,16.582 8.11,13.609 c 0,-2.972 2.418,-5.391 5.391,-5.391 2.971,0 5.389,2.418 5.389,5.391 0,1.323 -0.498,2.521 -1.291,3.461 -0.256,0.301 -0.537,0.575 -0.854,0.815 z"
   id="path1892" />
		<rect
   x="10.021"
   y="11.917"
   width="6.9569998"
   height="1"
   id="rect1894" />
		<rect
   x="10.021"
   y="14"
   width="5"
   height="1"
   id="rect1896" />
	</g>
</g>
<g
   id="Layer_48"
   display="none"
   transform="translate(-0.17903032,-5.7825403)">
	<g
   id="Layer_49"
   display="inline">
		<g
   id="g1907">
			<path
   fill="none"
   d="m 14.132,14.931 c -0.193,0.09 -0.406,0.145 -0.633,0.145 -0.828,0 -1.5,-0.672 -1.5,-1.5 0,-0.632 0.391,-1.169 0.943,-1.391 -0.006,-0.031 -0.019,-0.06 -0.019,-0.093 V 1.104 C 6.299,1.408 1,6.876 1,13.575 c 0,6.893 5.607,12.5 12.5,12.5 3.267,0 6.235,-1.27 8.465,-3.329 -0.016,-0.012 -0.034,-0.018 -0.049,-0.032 z"
   id="path1901" />
			<circle
   fill="none"
   cx="13.499"
   cy="13.575"
   r="0.5"
   id="circle1903" />
			<path
   d="M 13.794,0.09 13.586,0 13.587,0.079 c -0.03,0 -0.059,-0.004 -0.088,-0.004 C 6.043,0.075 0,6.119 0,13.575 c 0,7.457 6.044,13.5 13.5,13.5 7.456,0 13.5,-6.044 13.5,-13.5 C 26.999,6.219 21.112,0.248 13.794,0.09 Z m -0.295,12.985 c 0.276,0 0.5,0.225 0.5,0.5 0,0.275 -0.224,0.5 -0.5,0.5 -0.276,0 -0.5,-0.224 -0.5,-0.5 0,-0.276 0.224,-0.5 0.5,-0.5 z m 0,13 c -6.892,0 -12.5,-5.607 -12.5,-12.5 0,-6.698 5.3,-12.167 11.924,-12.471 v 10.987 c 0,0.033 0.013,0.062 0.019,0.093 -0.552,0.222 -0.943,0.759 -0.943,1.391 0,0.828 0.672,1.5 1.5,1.5 0.227,0 0.44,-0.054 0.633,-0.145 l 7.783,7.783 c 0.015,0.015 0.033,0.021 0.049,0.032 -2.23,2.061 -5.198,3.33 -8.465,3.33 z"
   id="path1905" />
		</g>
	</g>
</g>
<g
   id="Layer_50"
   display="none"
   transform="translate(-0.17903032,-5.7825403)">
	<path
   display="inline"
   d="m 20.813,9.857 -0.35,-0.35 c -0.1,-0.1 -0.23,-0.127 -0.298,-0.061 L 13.921,15.69 7.676,9.447 C 7.609,9.381 7.477,9.408 7.377,9.508 L 7.029,9.858 C 6.93,9.956 6.902,10.088 6.968,10.155 l 6.833,6.834 c 0.018,0.018 0.048,0.012 0.073,0.016 0.018,0.006 0.031,0.01 0.048,0.012 0.014,-0.002 0.023,-0.006 0.037,-0.01 0.027,-0.004 0.06,0.002 0.079,-0.018 l 0.061,-0.061 v 0 l 0.35,-0.35 v 0 l 6.423,-6.424 C 20.939,10.088 20.91,9.955 20.813,9.857 Z"
   id="path1911" />
</g>
</svg>
