<?xml version="1.0" encoding="utf-8"?>
<!-- Generator: Adobe Illustrator 16.0.0, SVG Export Plug-In . SVG Version: 6.00 Build 0)  -->
<!DOCTYPE svg PUBLIC "-//W3C//DTD SVG 1.1//EN" "http://www.w3.org/Graphics/SVG/1.1/DTD/svg11.dtd">
<svg version="1.1" xmlns="http://www.w3.org/2000/svg" xmlns:xlink="http://www.w3.org/1999/xlink" x="0px" y="0px" width="27px"
	 height="27px" viewBox="0 0 27 27" enable-background="new 0 0 27 27" xml:space="preserve">
<g id="Layer_19" display="none">
	<g display="inline">
		<path d="M13.5,0.996c6.895,0,12.503,5.608,12.503,12.502S20.395,26,13.5,26C6.606,26,0.997,20.392,0.997,13.498
			S6.606,0.996,13.5,0.996 M13.5-0.004c-7.458,0-13.503,6.045-13.503,13.502S6.042,27,13.5,27c7.456,0,13.503-6.045,13.503-13.502
			S20.956-0.004,13.5-0.004L13.5-0.004z"/>
	</g>
</g>
<g id="Layer_1" display="none">
	<g display="inline">
		<path d="M13.5,1C20.393,1,26,6.607,26,13.5S20.393,26,13.5,26S1,20.393,1,13.5S6.607,1,13.5,1 M13.5,0C6.044,0,0,6.044,0,13.5
			C0,20.956,6.044,27,13.5,27C20.956,27,27,20.956,27,13.5C27,6.044,20.956,0,13.5,0L13.5,0z"/>
	</g>
	<path display="inline" d="M12.786,17.732v-7.199h-0.759c-0.793,0-1.33,0.114-1.61,0.342s-0.486,0.715-0.619,1.463H9.47l0.034-1.196
		l0.041-1.196h3.951h3.958l0.033,1.196l0.041,1.196h-0.328c-0.132-0.748-0.338-1.235-0.618-1.463s-0.817-0.342-1.61-0.342h-0.758
		v7.199c0,0.496,0.084,0.82,0.253,0.974c0.168,0.153,0.526,0.233,1.073,0.243v0.266h-2.03h-2.038v-0.266
		c0.542-0.01,0.898-0.092,1.066-0.246C12.704,18.553,12.786,18.229,12.786,17.732z"/>
</g>
<g id="Layer_2" display="none">
	<g display="inline">
		<path d="M15.392,14.717c-0.07,0.225-0.127,0.49-0.127,0.701c0,0.195,0.098,0.279,0.336,0.279c0.896,0,1.961-1.499,1.961-3.054
			c0-2.199-1.861-3.6-3.81-3.6c-2.424,0-4.314,2.045-4.314,4.454c0,2.508,2.003,4.455,4.314,4.455c1.388,0,2.774-0.673,3.53-1.695
			h0.883c-0.896,1.527-2.592,2.451-4.413,2.451c-2.941,0-5.239-2.311-5.239-5.211c0-2.913,2.354-5.211,5.239-5.211
			c2.563,0,4.735,1.779,4.735,4.286c0,2.424-1.961,4.049-3.277,4.049c-0.477,0-0.869-0.294-0.896-0.925h-0.029
			c-0.435,0.504-0.925,0.925-1.751,0.925c-1.19,0-1.975-0.952-1.975-2.172c0-1.946,1.288-3.964,3.264-3.964
			c0.644,0,1.247,0.309,1.556,1.148h0.027l0.252-0.882h0.91L15.392,14.717z M12.785,15.697c1.219,0,2.171-1.821,2.171-2.97
			c0-0.714-0.545-1.316-1.134-1.316c-1.317,0-2.256,1.723-2.256,2.941C11.566,15.123,12.085,15.697,12.785,15.697z"/>
	</g>
</g>
<g id="Layer_3" display="none">
	<g display="inline">
		<path d="M11.978,9.009v3h-3v-3H11.978 M12.978,8.009h-5v5h5V8.009L12.978,8.009z"/>
	</g>
	<g display="inline">
		<path d="M11.978,16v3h-3v-3H11.978 M12.978,15h-5v5h5V15L12.978,15z"/>
	</g>
	<g display="inline">
		<path d="M18.986,9.009v3h-3v-3H18.986 M19.986,8.009h-5v5h5V8.009L19.986,8.009z"/>
	</g>
	<g display="inline">
		<path d="M18.986,16v3h-3v-3H18.986 M19.986,15h-5v5h5V15L19.986,15z"/>
	</g>
</g>
<g id="Layer_4" display="none">
	<g>
		<path display="inline" d="M12.97,2.037c6.617,0,12,5.383,12,12c0,6.617-5.383,12-12,12c-6.617,0-12-5.383-12-12
			C0.97,7.42,6.353,2.037,12.97,2.037 M12.97,1.037c-7.18,0-13,5.82-13,13s5.82,13,13,13s13-5.82,13-13S20.149,1.037,12.97,1.037
			L12.97,1.037z"/>
	</g>
	<g display="inline">
		<path d="M17.497,14.016c0.275,0,0.5,0.225,0.5,0.501c0,0.275-0.225,0.499-0.5,0.499s-0.5-0.224-0.5-0.499
			C16.997,14.241,17.222,14.016,17.497,14.016 M17.497,13.016c-0.828,0-1.5,0.671-1.5,1.501c0,0.829,0.672,1.499,1.5,1.499
			s1.5-0.67,1.5-1.499C18.997,13.687,18.325,13.016,17.497,13.016L17.497,13.016z"/>
	</g>
	<g display="inline">
		<polygon fill="none" points="7.935,10.978 7.935,11.609 7.935,18.037 20.005,18.037 20.005,10.978 11.607,10.978 		"/>
		<path d="M20.757,9.978h-8.829h-1.01H7.955C7.952,9.946,7.937,9.919,7.937,9.886c0-0.551,0.449-0.999,1-0.999h2.723h8.85v-1H8.937
			c-0.738,0-1.376,0.405-1.723,1C7.042,9.182,6.937,9.521,6.937,9.886c0,0.078-0.009,0.152,0,0.228c-0.006,0.014,0,0.023,0,0.039
			v8.708c0,0.098,0.112,0.176,0.25,0.176h13.57c0.137,0,0.25-0.078,0.25-0.176v-8.708C21.007,10.056,20.894,9.978,20.757,9.978z
			 M20.005,18.037H7.935v-6.428v-0.631h3.673h8.397V18.037z"/>
	</g>
</g>
<g id="Layer_5" display="none">
	<path display="inline" d="M21.97,13.037H7.826l3.008-2.998l-0.707-0.7L6.06,13.41c-0.097,0.097-0.096,0.255,0.002,0.354
		l4.182,4.184l0.707-0.726l-3.165-3.185H21.97V13.037z"/>
	<g>
		<path display="inline" d="M12.97,2.037c6.617,0,12,5.383,12,12c0,6.617-5.383,12-12,12c-6.617,0-12-5.383-12-12
			C0.97,7.42,6.353,2.037,12.97,2.037 M12.97,1.037c-7.18,0-13,5.82-13,13s5.82,13,13,13s13-5.82,13-13S20.149,1.037,12.97,1.037
			L12.97,1.037z"/>
	</g>
</g>
<g id="Layer_5_copy" display="none">
	<path display="inline" d="M4.97,14.037h14.183l-3.008,2.998l0.707,0.699l4.067-4.07c0.096-0.097,0.096-0.255-0.003-0.354
		l-4.182-4.184l-0.707,0.726l3.165,3.185H4.97V14.037z"/>
	<g>
		<path display="inline" d="M12.97,2.037c6.617,0,12,5.383,12,12c0,6.617-5.383,12-12,12c-6.617,0-12-5.383-12-12
			C0.97,7.42,6.353,2.037,12.97,2.037 M12.97,1.037c-7.18,0-13,5.82-13,13s5.82,13,13,13s13-5.82,13-13S20.149,1.037,12.97,1.037
			L12.97,1.037z"/>
	</g>
</g>
<g id="Layer_7" display="none">
	<g>
		<path display="inline" d="M12.97,2.037c6.617,0,12,5.383,12,12c0,6.617-5.383,12-12,12c-6.617,0-12-5.383-12-12
			C0.97,7.42,6.353,2.037,12.97,2.037 M12.97,1.037c-7.18,0-13,5.82-13,13s5.82,13,13,13s13-5.82,13-13S20.149,1.037,12.97,1.037
			L12.97,1.037z"/>
	</g>
	<g display="inline">
		<g>
			<path d="M13.97,13.037c-0.552,0-1,0.447-1,1s0.448,1,1,1c0.553,0,1-0.447,1-1S14.522,13.037,13.97,13.037z M20.686,13.037H19.36
				c-0.144-1-0.443-1.481-0.867-2.098l0.953-0.96c0.098-0.098,0.124-0.232,0.059-0.298l-1.178-1.179
				c-0.064-0.064-0.197-0.04-0.295,0.058l-0.948,0.953c-0.625-0.432-1.114-0.735-2.114-0.878V7.287c0-0.139-0.084-0.25-0.177-0.25
				h-1.665c-0.093,0-0.158,0.111-0.158,0.25v1.347c-1,0.141-1.479,0.436-2.098,0.858L9.938,8.561
				C9.841,8.463,9.707,8.436,9.642,8.502L8.464,9.678c-0.065,0.066-0.04,0.199,0.058,0.297l0.925,0.938
				c-0.434,0.623-0.742,1.124-0.888,2.124H7.236c-0.138,0-0.266,0.051-0.266,0.143v1.664c0,0.094,0.128,0.193,0.266,0.193h1.316
				c0.14,1,0.445,1.502,0.881,2.134l-0.959,0.952c-0.098,0.098-0.124,0.228-0.058,0.292l1.177,1.177
				c0.066,0.066,0.198,0.038,0.295-0.06l0.964-0.961c0.623,0.429,1.117,0.73,2.117,0.872v1.361c0,0.139,0.065,0.232,0.158,0.232
				h1.665c0.093,0,0.177-0.094,0.177-0.232v-1.361c1-0.144,1.505-0.453,2.135-0.892l0.93,0.933c0.098,0.098,0.229,0.123,0.294,0.059
				l1.178-1.178c0.064-0.064,0.038-0.197-0.06-0.295l-0.938-0.926c0.426-0.626,0.723-1.107,0.861-2.107h1.316
				c0.138,0,0.284-0.1,0.284-0.193V13.18C20.97,13.088,20.823,13.037,20.686,13.037z M13.96,17.539c-1.93,0-3.5-1.57-3.5-3.5
				s1.57-3.5,3.5-3.5c1.929,0,3.5,1.57,3.5,3.5S15.89,17.539,13.96,17.539z"/>
		</g>
	</g>
</g>
<g id="Layer_8" display="none">
	<g display="inline">
		<path fill="none" d="M12.966,7.596L12.966,7.596c0.013,0,0.023,0.004,0.036,0.004c0.01,0,0.02-0.002,0.029-0.002
			c0.173-0.018,0.309-0.158,0.309-0.334c0-0.188-0.152-0.342-0.34-0.342s-0.34,0.154-0.34,0.342
			C12.66,7.439,12.795,7.578,12.966,7.596z"/>
		<path fill="none" d="M11.587,19.02c0.202,0.59,0.756,1.018,1.414,1.018c0.657,0,1.212-0.428,1.414-1.018h-0.013H11.587z"/>
		<path fill="none" d="M15.584,12.479c0.002-1.055,0.003-2.498-0.766-3.268c-0.406-0.406-1.003-0.605-1.816-0.613
			c-0.813,0.008-1.409,0.207-1.816,0.613c-0.769,0.77-0.767,2.213-0.766,3.268v0.127c0,2.971-0.762,4.557-1.567,5.414h1.69h1.042
			h2.804h1.042h1.72c-0.806-0.857-1.567-2.443-1.567-5.414V12.479z"/>
		<path d="M19.206,18.059c-0.001,0-0.002,0-0.002,0c-0.044-0.018-0.087-0.035-0.135-0.039c-0.102-0.008-2.485-0.254-2.485-5.414
			V12.48c0.002-1.23,0.004-2.914-1.059-3.977c-0.414-0.414-0.957-0.678-1.61-0.807c0.064-0.133,0.106-0.277,0.106-0.434
			c0-0.564-0.457-1.021-1.021-1.021s-1.021,0.457-1.021,1.021c0,0.156,0.042,0.301,0.106,0.436c-0.65,0.129-1.193,0.393-1.606,0.805
			C9.417,9.566,9.419,11.25,9.42,12.48v0.125c0,5.143-2.368,5.404-2.484,5.414c-0.273,0.018-0.482,0.25-0.469,0.523
			c0.013,0.268,0.234,0.477,0.499,0.477c0.008,0,0.017,0,0.024-0.002c0.01,0,0.042-0.004,0.084-0.008
			c0.017,0.002,0.031,0.01,0.048,0.01h3.413h0.013c0.225,1.15,1.236,2.018,2.452,2.018s2.226-0.867,2.452-2.018h3.559
			c0.001,0,0.003-0.002,0.005-0.002c0.008,0.002,0.016,0.002,0.023,0.002c0.262,0,0.478-0.205,0.494-0.469
			C19.547,18.326,19.406,18.135,19.206,18.059z M13,6.922c0.188,0,0.34,0.154,0.34,0.342c0,0.176-0.136,0.316-0.309,0.334
			c-0.01,0-0.019,0.002-0.029,0.002c-0.013,0-0.023-0.004-0.036-0.004l0,0c-0.171-0.018-0.307-0.156-0.307-0.332
			C12.66,7.076,12.812,6.922,13,6.922z M13,20.037c-0.658,0-1.212-0.428-1.414-1.018h2.814h0.013
			C14.213,19.609,13.658,20.037,13,20.037z M15.432,18.02H14.39h-2.804h-1.042h-1.69c0.806-0.857,1.567-2.443,1.567-5.414v-0.127
			c-0.001-1.055-0.003-2.498,0.766-3.268c0.407-0.406,1.003-0.605,1.816-0.613c0.813,0.008,1.41,0.207,1.816,0.613
			c0.769,0.77,0.768,2.213,0.766,3.268v0.127c0,2.971,0.762,4.557,1.567,5.414H15.432z"/>
	</g>
</g>
<g id="Layer_9" display="none">
	<g display="inline">
		<g display="none">
			<path display="inline" d="M12.97,2.397c6.617,0,12,5.383,12,12c0,6.617-5.383,12-12,12c-6.617,0-12-5.383-12-12
				C0.97,7.781,6.353,2.397,12.97,2.397 M12.97,1.397c-7.18,0-13,5.82-13,13s5.82,13,13,13s13-5.82,13-13S20.149,1.397,12.97,1.397
				L12.97,1.397z"/>
		</g>
		<path fill="none" d="M12.937,7.648c0.013,0,0.023,0.004,0.036,0.004c0.01,0,0.02-0.002,0.029-0.002
			c0.173-0.018,0.309-0.158,0.309-0.334c0-0.188-0.152-0.342-0.34-0.342s-0.34,0.154-0.34,0.342
			C12.63,7.492,12.765,7.631,12.937,7.648z"/>
		<path fill="none" d="M15.554,12.531c0.002-1.055,0.003-2.498-0.766-3.268c-0.406-0.406-1.003-0.605-1.816-0.613
			c-0.813,0.008-1.409,0.207-1.816,0.613c-0.769,0.77-0.767,2.213-0.766,3.268v0.127c0,2.971-0.762,4.557-1.567,5.414h1.69h1.042
			h2.804h1.042h1.72c-0.806-0.857-1.567-2.443-1.567-5.414V12.531z"/>
		<path d="M19.176,18.111c-0.001,0-0.002,0-0.002,0c-0.044-0.018-0.087-0.035-0.135-0.039c-0.102-0.008-2.485-0.254-2.485-5.414
			v-0.125c0.002-1.23,0.004-2.914-1.059-3.977c-0.414-0.414-0.957-0.678-1.609-0.807c0.063-0.133,0.105-0.277,0.105-0.434
			c0-0.564-0.457-1.021-1.021-1.021s-1.021,0.457-1.021,1.021c0,0.156,0.042,0.301,0.106,0.436c-0.65,0.129-1.193,0.393-1.606,0.805
			c-1.062,1.063-1.06,2.746-1.058,3.977v0.125c0,5.143-2.368,5.404-2.484,5.414c-0.273,0.018-0.482,0.25-0.469,0.523
			c0.013,0.268,0.234,0.477,0.499,0.477c0.008,0,0.017,0,0.024-0.002c0.01,0,0.042-0.004,0.084-0.008
			c0.017,0.002,0.031,0.01,0.048,0.01h3.413h0.013c0,0.002,0.002,0.006,0.002,0.008h4.897c0.001-0.002,0.002-0.006,0.003-0.008
			h3.559c0.001,0,0.003-0.002,0.005-0.002c0.008,0.002,0.016,0.002,0.023,0.002c0.262,0,0.478-0.205,0.494-0.469
			C19.517,18.379,19.376,18.188,19.176,18.111z M12.97,6.975c0.188,0,0.34,0.154,0.34,0.342c0,0.176-0.136,0.316-0.309,0.334
			c-0.01,0-0.019,0.002-0.029,0.002c-0.013,0-0.023-0.004-0.036-0.004c-0.171-0.018-0.307-0.156-0.307-0.332
			C12.63,7.129,12.782,6.975,12.97,6.975z M15.401,18.072h-1.042h-2.804h-1.042h-1.69c0.806-0.857,1.567-2.443,1.567-5.414v-0.127
			c-0.001-1.055-0.003-2.498,0.766-3.268c0.407-0.406,1.003-0.605,1.816-0.613c0.813,0.008,1.41,0.207,1.816,0.613
			c0.769,0.77,0.768,2.213,0.766,3.268v0.127c0,2.971,0.762,4.557,1.567,5.414H15.401z"/>
		<path d="M14.072,20.072c-0.02,0.533-0.454,0.965-0.993,0.965s-0.973-0.432-0.993-0.965h-1.004c0.02,1.088,0.904,1.965,1.997,1.965
			c1.092,0,1.977-0.877,1.996-1.965H14.072z"/>
	</g>
</g>
<g id="Layer_10" display="none">
	<path display="inline" d="M9.835,8.037c0.033,0,0.135-0.156,0.135-0.289V7.225c0-0.131-0.102-0.188-0.135-0.188H8.748H8.224H8.047
		c-0.033,0-0.077,0.057-0.077,0.188v0.209v0.314v12.527v0.268v0.256c0,0.133,0.044,0.238,0.077,0.238h1.788
		c0.033,0,0.135-0.105,0.135-0.238v-0.523c0-0.131-0.102-0.238-0.135-0.238H8.97v-12H9.835z"/>
	<path display="inline" d="M18.97,13.037h-6.064l1.551-1.559l-0.707-0.711l-2.653,2.65c-0.097,0.098-0.096,0.255,0.002,0.353
		l2.769,2.767l0.707-0.707l-1.793-1.793h6.189V13.037z"/>
</g>
<g id="Layer_11" display="none">
	<g display="inline">
		<path display="none" d="M12.97,2.037c6.617,0,12,5.383,12,12c0,6.617-5.383,12-12,12c-6.617,0-12-5.383-12-12
			C0.97,7.42,6.353,2.037,12.97,2.037 M12.97,1.037c-7.18,0-13,5.82-13,13s5.82,13,13,13s13-5.82,13-13S20.149,1.037,12.97,1.037
			L12.97,1.037z"/>
		<path d="M6.734,20.93c-0.054,0-0.108-0.009-0.162-0.026c-0.261-0.09-0.401-0.374-0.312-0.635l2.297-6.731
			c0.089-0.261,0.373-0.401,0.635-0.312l5.853,1.997l2.669-7.827c0.09-0.261,0.378-0.401,0.635-0.312
			c0.262,0.089,0.401,0.373,0.313,0.635l-2.831,8.299c-0.043,0.126-0.134,0.229-0.253,0.288c-0.118,0.058-0.258,0.066-0.382,0.024
			l-5.854-1.997l-2.136,6.257C7.136,20.799,6.942,20.93,6.734,20.93z"/>
	</g>
</g>
<g id="Layer_12" display="none">
	<g display="inline">
		<g display="none">
			<path display="inline" d="M12.97,1.037c6.617,0,12,5.383,12,12c0,6.617-5.383,12-12,12c-6.617,0-12-5.383-12-12
				C0.97,6.42,6.353,1.037,12.97,1.037 M12.97,0.037c-7.18,0-13,5.82-13,13s5.82,13,13,13s13-5.82,13-13S20.149,0.037,12.97,0.037
				L12.97,0.037z"/>
		</g>
		<g>
			<path d="M14.966,12.537v5h-5v-5H14.966 M15.966,11.537h-7v7h7V11.537L15.966,11.537z"/>
		</g>
		<g>
			<polygon points="17.974,9.545 10.973,9.545 10.973,10.544 16.958,10.544 16.958,16.545 17.974,16.545 17.974,9.545 			"/>
		</g>
	</g>
</g>
<g id="Layer_13" display="none">
	<g display="inline">
		<g>
			<path d="M13.5,7.5c3.584,0,6.5,2.916,6.5,6.5s-2.916,6.5-6.5,6.5S7,17.584,7,14S9.916,7.5,13.5,7.5 M13.5,6.5
				C9.357,6.5,6,9.857,6,14s3.357,7.5,7.5,7.5S21,18.143,21,14S17.643,6.5,13.5,6.5L13.5,6.5z"/>
		</g>
		<circle cx="11.059" cy="12.624" r="1"/>
		<circle cx="15.979" cy="12.624" r="1"/>
		<path d="M15.809,15.923c-0.376,0.905-1.269,1.545-2.309,1.545s-1.932-0.64-2.309-1.545h-1.042
			c0.417,1.465,1.751,2.545,3.351,2.545c1.599,0,2.934-1.08,3.352-2.545H15.809z"/>
	</g>
</g>
<g id="Layer_14" display="none">
	<g display="inline">
		<g>
			<path d="M13.5,1.037c6.893,0,12.5,5.607,12.5,12.5s-5.607,12.5-12.5,12.5S1,20.43,1,13.537S6.607,1.037,13.5,1.037 M13.5,0.037
				C6.044,0.037,0,6.081,0,13.537s6.044,13.5,13.5,13.5S27,20.993,27,13.537S20.956,0.037,13.5,0.037L13.5,0.037z"/>
		</g>
		<g>
			<path d="M20.944,7.775c0,0.138-0.111,0.25-0.25,0.25h-13.5c-0.138,0-0.25-0.112-0.25-0.25v-0.5c0-0.138,0.112-0.25,0.25-0.25
				h13.5c0.139,0,0.25,0.112,0.25,0.25V7.775z"/>
			<path d="M14.944,19.787c0,0.139-0.111,0.25-0.25,0.25h-7.5c-0.138,0-0.25-0.111-0.25-0.25v-0.5c0-0.139,0.112-0.25,0.25-0.25h7.5
				c0.139,0,0.25,0.111,0.25,0.25V19.787z"/>
			<path d="M12.944,15.764c0,0.139-0.112,0.25-0.25,0.25h-5.5c-0.138,0-0.25-0.111-0.25-0.25v-0.5c0-0.139,0.112-0.25,0.25-0.25h5.5
				c0.138,0,0.25,0.111,0.25,0.25V15.764z"/>
			<path d="M14.944,11.813c0,0.138-0.111,0.25-0.25,0.25h-7.5c-0.138,0-0.25-0.112-0.25-0.25v-0.5c0-0.138,0.112-0.25,0.25-0.25h7.5
				c0.139,0,0.25,0.112,0.25,0.25V11.813z"/>
			<path d="M20.767,15.037H18.97v-1.75c0-0.138-0.111-0.25-0.25-0.25h-0.5c-0.139,0-0.25,0.112-0.25,0.25v1.75h-1.703
				c-0.139,0-0.297,0.139-0.297,0.276v0.5c0,0.138,0.158,0.224,0.297,0.224h1.703v1.75c0,0.139,0.111,0.25,0.25,0.25h0.5
				c0.139,0,0.25-0.111,0.25-0.25v-1.75h1.797c0.139,0,0.203-0.086,0.203-0.224v-0.5C20.97,15.176,20.905,15.037,20.767,15.037z"/>
		</g>
	</g>
</g>
<g id="Layer_15" display="none">
	<g display="inline">
		<g display="none">
			<path display="inline" d="M13,1c6.617,0,12,5.383,12,12c0,6.617-5.383,12-12,12C6.383,25,1,19.617,1,13C1,6.383,6.383,1,13,1
				 M13,0C5.82,0,0,5.82,0,13s5.82,13,13,13s13-5.82,13-13S20.18,0,13,0L13,0z"/>
		</g>
		<path d="M19.975,10.711c0,0.138-0.112,0.25-0.25,0.25h-13.5c-0.138,0-0.25-0.112-0.25-0.25v-0.5c0-0.138,0.112-0.25,0.25-0.25
			h13.5c0.138,0,0.25,0.112,0.25,0.25V10.711z"/>
		<path d="M13.975,15.75c0,0.139-0.112,0.25-0.25,0.25h-7.5c-0.138,0-0.25-0.111-0.25-0.25v-0.5c0-0.139,0.112-0.25,0.25-0.25h7.5
			c0.138,0,0.25,0.111,0.25,0.25V15.75z"/>
	</g>
</g>
<g id="Layer_16" display="none">
	<g display="inline">
		<g display="none">
			<path display="inline" d="M13,2c6.617,0,12,5.383,12,12c0,6.617-5.383,12-12,12C6.383,26,1,20.617,1,14C1,7.383,6.383,2,13,2
				 M13,1C5.82,1,0,6.82,0,14s5.82,13,13,13s13-5.82,13-13S20.18,1,13,1L13,1z"/>
		</g>
		<g>
			<polygon fill="none" points="15.761,8.419 15.761,10.008 17.35,10.008 			"/>
			<polygon fill="none" points="14.97,11 14.97,10.008 14.97,8.037 8.97,8.037 8.97,20.037 17.97,20.037 17.97,11.037 14.97,11.037 
							"/>
			<path d="M18.746,10.037l0.009-0.023l-0.016-0.023l0.105-0.011L15.97,7.003v0.034H8.01c-0.138,0-0.041,0.062-0.041,0.2v13.5
				c0,0.138-0.098,0.3,0.041,0.3h10.5c0.138,0,0.459-0.162,0.459-0.3v-9.729v-0.93v-0.041H18.746z M15.761,8.419l1.589,1.589h-1.589
				V8.419z M17.97,20.037h-9v-12h6v1.971V11v0.037h3V20.037z"/>
		</g>
	</g>
</g>
<g id="Layer_17" display="none">
	<g display="inline">
		<g display="none">
			<path display="inline" d="M14,2c6.617,0,12,5.383,12,12c0,6.617-5.383,12-12,12C7.383,26,2,20.617,2,14C2,7.383,7.383,2,14,2
				 M14,1C6.82,1,1,6.82,1,14s5.82,13,13,13s13-5.82,13-13S21.18,1,14,1L14,1z"/>
		</g>
		<g>
			<polygon fill="none" points="14.5,8.431 14.5,10.021 16.09,10.021 			"/>
			<polygon fill="none" points="13.5,11.013 13.5,10.021 13.5,8 11.5,8 11.5,20 16.5,20 16.5,11.021 13.5,11.021 			"/>
			<path d="M17.486,10.021l0.008-0.009l-0.016-0.016l0.008-0.008l-2.973-2.974V7H10.75c-0.139,0-0.25,0.111-0.25,0.25v13.5
				c0,0.138,0.112,0.25,0.25,0.25h6.5c0.138,0,0.25-0.112,0.25-0.25v-9.729v-0.93v-0.07H17.486z M14.5,8.431l1.59,1.59H14.5V8.431z
				 M16.5,20h-5V8h2v2.021v0.992v0.008h3V20z"/>
		</g>
	</g>
</g>
<g id="Layer_18" display="none">
	<path display="inline" d="M19.747,12.008l0.008-0.009l-0.016-0.016l0.008-0.008l-2.973-2.974V8.987H9.01
		c-0.138,0-0.25,0.111-0.25,0.25v8.5c0,0.138,0.112,0.25,0.25,0.25h10.5c0.138,0,0.25-0.112,0.25-0.25v-4.729v-0.93v-0.07H19.747z
		 M16.761,10.418l1.59,1.59h-1.59V10.418z M18.761,16.987h-9v-7h6v2.021V13v0.008h3V16.987z"/>
</g>
<g id="Layer_20" display="none">
	<path display="inline" d="M17,13.5h-7c-0.15,0-0.293-0.068-0.389-0.185l-2.03-2.5c-0.174-0.214-0.142-0.529,0.072-0.704
		c0.215-0.174,0.529-0.141,0.704,0.073l1.88,2.315h6.522l1.85-2.313c0.173-0.215,0.487-0.249,0.703-0.078
		c0.216,0.173,0.25,0.487,0.078,0.703l-2,2.5C17.296,13.431,17.152,13.5,17,13.5z M19,10.5H8v7h11V10.5 M19.751,9.5
		C19.889,9.5,20,9.611,20,9.75v8.498c0,0.139-0.111,0.252-0.249,0.252H7.248C7.11,18.5,7,18.387,7,18.248V9.75
		C7,9.611,7.11,9.5,7.248,9.5H19.751L19.751,9.5z"/>
</g>
<g id="Layer_21" display="none">
	<g>
		<path display="inline" d="M14,2c6.617,0,12,5.383,12,12c0,6.617-5.383,12-12,12C7.383,26,2,20.617,2,14C2,7.383,7.383,2,14,2
			 M14,1C6.82,1,1,6.82,1,14s5.82,13,13,13s13-5.82,13-13S21.18,1,14,1L14,1z"/>
	</g>
	<path display="inline" d="M13.569,23.5c-4.136,0-7.5-3.345-7.5-7.457c0-0.276,0.224-0.5,0.5-0.5s0.5,0.224,0.5,0.5
		c0,3.561,2.916,6.457,6.5,6.457s6.5-2.896,6.5-6.457c0-0.276,0.224-0.5,0.5-0.5s0.5,0.224,0.5,0.5
		C21.069,20.155,17.705,23.5,13.569,23.5z"/>
	<path display="inline" d="M20.569,16.543h-14c-0.276,0-0.5-0.224-0.5-0.5s0.224-0.5,0.5-0.5h14c0.276,0,0.5,0.224,0.5,0.5
		S20.846,16.543,20.569,16.543z"/>
	<path display="inline" d="M11.063,12.172c-0.276,0-0.5-0.224-0.5-0.5c0-1.103-0.897-2-2-2s-2,0.897-2,2c0,0.276-0.224,0.5-0.5,0.5
		s-0.5-0.224-0.5-0.5c0-1.654,1.346-3,3-3s3,1.346,3,3C11.563,11.948,11.339,12.172,11.063,12.172z"/>
	<path display="inline" d="M20.938,12.172c-0.276,0-0.5-0.224-0.5-0.5c0-1.103-0.897-2-2-2s-2,0.897-2,2c0,0.276-0.224,0.5-0.5,0.5
		s-0.5-0.224-0.5-0.5c0-1.654,1.346-3,3-3s3,1.346,3,3C21.438,11.948,21.214,12.172,20.938,12.172z"/>
</g>
<g id="Layer_22" display="none">
	<g display="inline">
		<polygon fill="none" points="8.818,16.907 8.817,18.259 10.169,18.259 		"/>
		
			<rect x="9.044" y="12.584" transform="matrix(0.7071 -0.7071 0.7071 0.7071 -6.1535 13.3113)" fill="none" width="7.897" height="3"/>
		
			<rect x="15.735" y="8.893" transform="matrix(-0.707 -0.7072 0.7072 -0.707 22.4609 28.9872)" fill="none" width="3" height="1.896"/>
		<path d="M20.255,10.106L16.97,6.821c-0.048-0.05-0.105-0.077-0.146-0.077c-0.018,0-0.032,0.005-0.042,0.015L14.08,9.46v0.001
			l-6.195,6.194c-0.025,0.025-0.031,0.058-0.044,0.088l-0.021-0.021v0.063c-0.004,0.02-0.001,0.035,0,0.054l-0.002,3.245
			c0,0.063,0.021,0.119,0.052,0.15c0.018,0.018,0.038,0.027,0.06,0.027l3.288-0.004c0.011,0.002,0.019,0.012,0.03,0.012
			c0.009,0,0.017-0.011,0.026-0.012h0.081l-0.024-0.024c0.031-0.013,0.063-0.014,0.09-0.04l6.753-6.754l2.145-2.145
			C20.352,10.261,20.325,10.175,20.255,10.106z M8.818,16.907l1.351,1.352H8.817L8.818,16.907z M11.261,17.937l-2.122-2.121
			l5.584-5.584l2.121,2.121L11.261,17.937z M17.625,11.572l-2.121-2.122l1.34-1.341l2.122,2.122L17.625,11.572z"/>
	</g>
</g>
<g id="Layer_23" display="none">
	<g display="inline">
		
			<rect x="11.815" y="9.153" transform="matrix(-0.7071 -0.7071 0.7071 -0.7071 13.0906 32.6855)" fill="none" width="3" height="8.958"/>
		
			<rect x="16.418" y="8.027" transform="matrix(-0.7071 -0.7071 0.7071 -0.7071 24.2049 28.0797)" fill="none" width="3" height="2"/>
		<path d="M20.976,9.256L17.69,5.971c-0.049-0.05-0.105-0.077-0.146-0.077c-0.018,0-0.032,0.005-0.042,0.015L14.8,8.609
			c0,0,0,0.002,0,0.002l-6.953,6.953c-0.096,0.094-0.118,0.229-0.049,0.299l3.285,3.285c0.027,0.027,0.065,0.04,0.106,0.04
			c0.063,0,0.135-0.031,0.193-0.089l7.4-7.4c0.001-0.001,0.001-0.003,0.002-0.004l2.253-2.252
			C21.071,9.41,21.045,9.324,20.976,9.256z M11.208,17.859l-2.121-2.121l6.333-6.334l2.121,2.121L11.208,17.859z M18.271,10.794
			L16.15,8.673l1.414-1.414l2.121,2.121L18.271,10.794z"/>
		<path d="M7.948,18.998l0.001-1.537l-0.998-1l-0.003,3.361c0,0.063,0.021,0.119,0.053,0.15C7.018,19.99,7.039,20,7.06,20
			l3.426-0.004l-0.999-0.998H7.948z"/>
	</g>
</g>
<g id="Layer_24" display="none">
	<g display="inline">
		<g display="none">
			<path display="inline" d="M13,2c6.617,0,12,5.383,12,12c0,6.617-5.383,12-12,12C6.383,26,1,20.617,1,14C1,7.383,6.383,2,13,2
				 M13,1C5.82,1,0,6.82,0,14s5.82,13,13,13s13-5.82,13-13S20.18,1,13,1L13,1z"/>
		</g>
		<path d="M13.5,7c3.859,0,7,3.14,7,7c0,3.859-3.141,7-7,7c-3.86,0-7-3.141-7-7C6.5,10.14,9.64,7,13.5,7 M13.5,6
			c-4.419,0-8,3.581-8,8s3.581,8,8,8s8-3.581,8-8S17.919,6,13.5,6L13.5,6z"/>
		<path d="M9.628,15.974h0.949l2.923,0.001l2.924-0.001h0.948c-0.438,1.656-1.957,2.811-3.872,2.811
			C11.585,18.784,10.066,17.63,9.628,15.974 M17.817,14.973c-0.868,0-2.477,0.001-4.317,0.001c-1.84,0-3.449-0.001-4.317-0.001
			c-0.434,0-0.683,0-0.683,0.001c0,2.761,2.239,4.81,5,4.81c2.762,0,5-2.049,5-4.81C18.5,14.974,18.251,14.973,17.817,14.973
			L17.817,14.973z"/>
		<path d="M18.005,13.44c-0.276,0-0.5-0.224-0.5-0.5c0-0.551-0.448-1-1-1s-1,0.449-1,1c0,0.276-0.224,0.5-0.5,0.5
			s-0.5-0.224-0.5-0.5c0-1.103,0.897-2,2-2s2,0.897,2,2C18.505,13.217,18.281,13.44,18.005,13.44z"/>
		<path d="M11.972,13.44c-0.276,0-0.5-0.224-0.5-0.5c0-0.551-0.449-1-1-1s-1,0.449-1,1c0,0.276-0.224,0.5-0.5,0.5
			s-0.5-0.224-0.5-0.5c0-1.103,0.897-2,2-2s2,0.897,2,2C12.472,13.217,12.248,13.44,11.972,13.44z"/>
	</g>
</g>
<g id="Layer_25" display="none">
	<g display="inline">
		<g display="none">
			<path display="inline" d="M16,0c6.617,0,12,5.383,12,12c0,6.617-5.383,12-12,12C9.383,24,4,18.617,4,12C4,5.383,9.383,0,16,0
				 M16-1C8.82-1,3,4.82,3,12s5.82,13,13,13s13-5.82,13-13S23.18-1,16-1L16-1z"/>
		</g>
		<g>
			<path d="M19,8v11H8V8H19 M19.752,7H7.248C7.112,7,7,7.111,7,7.252v12.494C7,19.887,7.112,20,7.248,20h12.504
				C19.889,20,20,19.887,20,19.746V7.252C20,7.111,19.889,7,19.752,7L19.752,7z"/>
		</g>
		<g>
			<path d="M15,12v7H8v-7H15 M15.828,11H7.172C7.077,11,7,11.077,7,11.173v8.652C7,19.921,7.077,20,7.172,20h8.656
				C15.923,20,16,19.921,16,19.825v-8.652C16,11.077,15.923,11,15.828,11L15.828,11z"/>
		</g>
	</g>
</g>
<g id="Layer_26" display="none">
	<g display="inline">
		<g display="none">
			<path display="inline" d="M13,2c6.617,0,12,5.383,12,12c0,6.617-5.383,12-12,12C6.383,26,1,20.617,1,14C1,7.383,6.383,2,13,2
				 M13,1C5.82,1,0,6.82,0,14s5.82,13,13,13s13-5.82,13-13S20.18,1,13,1L13,1z"/>
		</g>
		<path d="M16.011,12.093l0.009-0.009l-0.016-0.016l0.008-0.008l-2.975-2.974V9.073H7.273c-0.139,0-0.25,0.111-0.25,0.25v11.5
			c0,0.139,0.111,0.25,0.25,0.25h8.501c0.138,0,0.25-0.111,0.25-0.25v-7.729v-0.93v-0.07H16.011z M13.023,10.503l1.591,1.59h-1.591
			V10.503z M15.024,20.072H8.023v-10h4v2.021v0.992v0.008h3.001V20.072z"/>
		<path d="M19.963,9.053l0.009-0.009l-0.016-0.016l0.008-0.008L16.99,6.047V6.033h-5.765c-0.139,0-0.25,0.111-0.25,0.25v1.721h1
			V7.033h4.001v2.021v0.992v0.008h3v6.98h-2.045v1h2.795c0.138,0,0.25-0.113,0.25-0.25v-7.73v-0.93v-0.07H19.963z M16.977,9.053
			v-1.59l1.59,1.59H16.977z"/>
	</g>
</g>
<g id="Layer_27" display="none">
	<g display="inline">
		<g display="none">
			<path display="inline" d="M14,1c6.617,0,12,5.383,12,12c0,6.617-5.383,12-12,12C7.383,25,2,19.617,2,13C2,6.383,7.383,1,14,1
				 M14,0C6.82,0,1,5.82,1,13s5.82,13,13,13s13-5.82,13-13S21.18,0,14,0L14,0z"/>
		</g>
		<g>
			<path d="M15,12v3h-3v-3H15 M15.904,11h-4.809C11.043,11,11,11.042,11,11.096v4.806C11,15.956,11.043,16,11.096,16h4.809
				C15.957,16,16,15.956,16,15.902v-4.806C16,11.042,15.957,11,15.904,11L15.904,11z"/>
		</g>
		<g>
			<path d="M8,10V8.058h2V7H7.248C7.111,7,7,7.118,7,7.265V10H8z"/>
			<path d="M8,17H7v2.762C7,19.893,7.111,20,7.248,20H10v-0.948H8V17z"/>
		</g>
		<g>
			<path d="M19,10h1V7.265C20,7.118,19.89,7,19.752,7H17v1.059h2V10z"/>
			<path d="M19,17v2.052h-2V20h2.752C19.89,20,20,19.893,20,19.762V17H19z"/>
		</g>
	</g>
</g>
<g id="Layer_28" display="none">
	<path display="inline" d="M19.769,6.999h-1.748V6.5c0-0.276-0.224-0.5-0.5-0.5s-0.5,0.224-0.5,0.5v0.5H10V6.5
		C10,6.223,9.776,6,9.5,6S9,6.223,9,6.5v0.5H7.232C7.104,6.999,7,7.096,7,7.214v12.571C7,19.902,7.104,20,7.232,20h12.536
		C19.896,20,20,19.902,20,19.785V7.214C20,7.096,19.896,6.999,19.769,6.999z M9,7.999v0.5C9,8.776,9.224,9,9.5,9S10,8.776,10,8.5
		v-0.5h7.021v0.5c0,0.276,0.224,0.5,0.5,0.5s0.5-0.224,0.5-0.5v-0.5H19v5.032H8V7.999H9z M8,19v-4.969h11V19H8z"/>
</g>
<g id="Layer_29" display="none">
	<g display="inline">
		<g>
			<g>
				<path d="M15.261,7.658l2.651,1.523l1.57,2.702l-7.909,7.91l-4.225-4.225L15.261,7.658 M15.143,6.465
					c-0.064,0-0.128,0.024-0.177,0.073l-8.854,8.854c-0.098,0.098-0.098,0.256,0,0.354l5.285,5.285
					c0.049,0.049,0.113,0.073,0.177,0.073s0.128-0.024,0.177-0.073l8.854-8.854c0.098-0.098,0.098-0.256,0-0.354l-1.961-3.375
					l-3.323-1.909C15.271,6.49,15.206,6.465,15.143,6.465L15.143,6.465z"/>
			</g>
			<circle cx="15.935" cy="11.252" r="1"/>
		</g>
	</g>
</g>
<g id="Layer_30" display="none">
</g>
<g id="Layer_31" display="none">
	<g display="inline">
		<g display="none">
			<path display="inline" d="M13,2c6.617,0,12,5.383,12,12c0,6.617-5.383,12-12,12C6.383,26,1,20.617,1,14C1,7.383,6.383,2,13,2
				 M13,1C5.82,1,0,6.82,0,14s5.82,13,13,13s13-5.82,13-13S20.18,1,13,1L13,1z"/>
		</g>
		<path d="M12.068,9.259l-0.5-0.5c-0.097-0.097-0.255-0.098-0.354,0l-3.138,3.138c-0.02,0.02-0.018,0.048-0.03,0.071L6.98,10.9
			c-0.098-0.098-0.256-0.098-0.354,0l-0.5,0.5c-0.098,0.098-0.098,0.256,0,0.354l1.724,1.724c0.098,0.098,0.256,0.098,0.354,0
			l0.5-0.5c0.044-0.044,0.063-0.103,0.066-0.161c0.058-0.004,0.116-0.022,0.161-0.067l3.137-3.138
			C12.167,9.515,12.167,9.357,12.068,9.259z"/>
		<path d="M21.975,11.031c0,0.069-0.111,0.125-0.251,0.125h-6.497c-0.14,0-0.252-0.056-0.252-0.125v-0.75
			c0-0.069,0.112-0.125,0.252-0.125h6.497c0.14,0,0.251,0.056,0.251,0.125V11.031z"/>
		<path d="M21.975,16.919c0,0.07-0.111,0.125-0.251,0.125h-6.497c-0.14,0-0.252-0.055-0.252-0.125v-0.75
			c0-0.068,0.112-0.125,0.252-0.125h6.497c0.14,0,0.251,0.057,0.251,0.125V16.919z"/>
		<path d="M12.068,14.942l-0.5-0.5c-0.097-0.098-0.255-0.099-0.354,0l-3.138,3.137c-0.02,0.02-0.018,0.048-0.03,0.072L6.98,16.583
			c-0.098-0.098-0.256-0.098-0.354,0l-0.5,0.5c-0.098,0.098-0.098,0.256,0,0.354l1.724,1.725c0.098,0.098,0.256,0.098,0.354,0
			l0.5-0.5c0.045-0.045,0.063-0.104,0.067-0.162c0.058-0.005,0.115-0.022,0.16-0.066l3.137-3.137
			C12.167,15.196,12.167,15.04,12.068,14.942z"/>
	</g>
</g>
<g id="Layer_32" display="none">
	<g display="inline">
		<g display="none">
			<path display="inline" d="M13,2c6.617,0,12,5.383,12,12c0,6.617-5.383,12-12,12C6.383,26,1,20.617,1,14C1,7.383,6.383,2,13,2
				 M13,1C5.82,1,0,6.82,0,14s5.82,13,13,13s13-5.82,13-13S20.18,1,13,1L13,1z"/>
		</g>
		<g>
			<path fill="none" d="M19,11V9h-1.006v0.5c0,0.276-0.224,0.5-0.5,0.5s-0.5-0.224-0.5-0.5V9h-6.988v0.5c0,0.276-0.224,0.5-0.5,0.5
				s-0.5-0.224-0.5-0.5V9H8v2H19z"/>
			<rect x="8" y="12" fill="none" width="11" height="7"/>
			<path d="M19.768,8h-1.773V7.5c0-0.276-0.224-0.5-0.5-0.5s-0.5,0.224-0.5,0.5V8h-6.988V7.5c0-0.276-0.224-0.5-0.5-0.5
				s-0.5,0.224-0.5,0.5V8H7.231C7.104,8,7,8.097,7,8.214v11.571C7,19.902,7.104,20,7.231,20h12.536C19.895,20,20,19.902,20,19.785
				V8.214C20,8.097,19.895,8,19.768,8z M9.006,9v0.5c0,0.276,0.224,0.5,0.5,0.5s0.5-0.224,0.5-0.5V9h6.988v0.5
				c0,0.276,0.224,0.5,0.5,0.5s0.5-0.224,0.5-0.5V9H19v2H8V9H9.006z M8,19v-7h11v7H8z"/>
		</g>
	</g>
</g>
<g id="Layer_33" display="none">
	<g display="inline">
		<g>
			<path d="M15.703,13.427l-2.239,2.238l-2.122-2.122l-0.707,0.707l2.654,2.655c0.096,0.096,0.254,0.096,0.352-0.002l2.77-2.77
				L15.703,13.427z"/>
		</g>
		<path d="M19.022,19.265c0-0.131-0.156-0.236-0.351-0.236H8.373c-0.194,0-0.351,0.105-0.351,0.236v0.525
			c0,0.131,0.157,0.238,0.351,0.238h10.299c0.194,0,0.351-0.107,0.351-0.238V19.265z"/>
		<rect x="13.014" y="7.174" width="1.017" height="8.717"/>
	</g>
</g>
<g id="Layer_34" display="none">
	<g display="inline">
		<g>
			<g>
				<circle cx="14" cy="13" r="1"/>
			</g>
		</g>
		<path d="M20.986,13.995v-2h-1.598c-0.146-0.783-0.45-1.511-0.891-2.14L19.653,8.7l-1.414-1.414l-1.163,1.163
			c-0.611-0.415-1.314-0.701-2.067-0.842V5.995h-2v1.604c-0.765,0.139-1.478,0.426-2.097,0.846L9.757,7.289L8.343,8.704l1.145,1.145
			c-0.442,0.631-0.748,1.36-0.895,2.146H7.014v2H8.59c0.14,0.763,0.428,1.474,0.848,2.092l-1.152,1.151L9.7,18.652l1.144-1.144
			c0.636,0.444,1.372,0.752,2.165,0.896v1.613h2v-1.622c0.781-0.147,1.508-0.452,2.135-0.893l1.152,1.152l1.414-1.414l-1.161-1.161
			c0.417-0.617,0.704-1.326,0.843-2.086H20.986z M13.991,16.502c-1.93,0-3.5-1.57-3.5-3.5c0-1.93,1.57-3.5,3.5-3.5
			c1.93,0,3.5,1.57,3.5,3.5C17.491,14.932,15.921,16.502,13.991,16.502z"/>
	</g>
</g>
<g id="Layer_35" display="none">
	<g display="inline">
		<path fill="none" d="M19.798,23.877C18.071,22.105,15.663,21,12.999,21c-2.663,0-5.07,1.105-6.797,2.877
			C8.136,25.213,10.477,26,13,26C15.522,26,17.864,25.213,19.798,23.877z"/>
		<path fill="none" d="M12.999,20c2.995,0,5.691,1.261,7.605,3.273C23.286,21.071,25,17.732,25,14c0-6.617-5.384-12-12-12
			C6.383,2,1,7.383,1,14c0,3.731,1.713,7.07,4.394,9.272C7.306,21.26,10.002,20,12.999,20z"/>
		<path d="M13,1C5.82,1,0,6.82,0,14c0,4.041,1.844,7.65,4.736,10.035c0.258,0.213,0.53,0.408,0.804,0.602
			C7.653,26.121,10.222,27,13,27s5.347-0.879,7.46-2.363c0.273-0.193,0.545-0.389,0.803-0.602C24.155,21.651,26,18.041,26,14
			C26,6.82,20.18,1,13,1z M13,26c-2.523,0-4.864-0.787-6.798-2.123C7.929,22.105,10.336,21,12.999,21
			c2.664,0,5.072,1.105,6.799,2.877C17.864,25.213,15.522,26,13,26z M20.604,23.273C18.69,21.261,15.994,20,12.999,20
			c-2.997,0-5.693,1.26-7.605,3.272C2.713,21.07,1,17.731,1,14C1,7.383,6.383,2,13,2c6.616,0,12,5.383,12,12
			C25,17.732,23.286,21.071,20.604,23.273z"/>
		<path d="M12.989,8.005c-2.209,0-4,1.791-4,3.999c0,0.531,0,0.496,0,1.498c0,0.82,0,0.967,0,1.497c0,2.21,1.791,4.001,4,4.001
			s4-1.791,4-4.001c0-0.53,0,0.009,0-1.497c0-0.841,0-1.217,0-1.375c0-0.074,0-0.105,0-0.105c0-0.006,0-0.01,0-0.018
			C16.989,9.796,15.198,8.005,12.989,8.005z M15.989,12.338c0,0.967,0,0.014,0,1.164c0,0.803,0,0.068,0,1.164
			c0,0.111,0,0.219,0,0.333c0,1.654-1.346,3.001-3,3.001s-2.997-1.347-2.997-3.001c0-0.114,0,0.196,0-0.333c0-0.004,0-0.008,0-0.012
			V12.35c0-0.004,0-0.008,0-0.012c-0.012-0.111,0,0.779,0-0.334c0-0.01,0-0.019,0-0.028v-0.062l0,0
			c0.049-1.611,1.374-2.909,2.997-2.909c1.654,0,3,1.346,3,2.999C15.989,12.119,15.989,12.227,15.989,12.338z"/>
	</g>
</g>
<g id="Layer_36" display="none">
	<g display="inline">
		<path d="M20.5,15.128L20.5,15.128c1.47,0,2.852,0.572,3.89,1.61S26,19.158,26,20.627c0,1.47-0.571,2.852-1.61,3.891
			c-1.038,1.038-2.419,1.61-3.89,1.61c-1.47,0-2.852-0.572-3.89-1.61c-2.144-2.144-2.144-5.634,0-7.779
			C17.649,15.7,19.03,15.128,20.5,15.128 M20.5,14.128c-1.663,0-3.327,0.634-4.597,1.903c-2.537,2.539-2.537,6.656,0,9.193
			c1.269,1.269,2.933,1.903,4.597,1.903s3.328-0.635,4.597-1.903c2.539-2.539,2.537-6.656,0-9.193
			C23.828,14.763,22.164,14.128,20.5,14.128L20.5,14.128z"/>
	</g>
	<path display="inline" d="M23.999,20.381c0.001-0.139-0.051-0.252-0.117-0.254h-2.844v-2.883c-0.001-0.064-0.114-0.115-0.254-0.115
		H20.29c-0.14,0-0.253,0.051-0.253,0.117v2.881h-2.921c-0.063,0.002-0.115,0.115-0.115,0.254v0.494c0,0.141,0.053,0.254,0.117,0.254
		l2.92-0.001v2.882c-0.001,0.064,0.111,0.117,0.252,0.119l0.495-0.002c0.139,0,0.252-0.053,0.253-0.117v-2.882l2.845-0.001
		c0.065,0.002,0.117-0.111,0.118-0.252L23.999,20.381z"/>
	<path display="inline" fill="none" d="M15.989,12.338c0-0.111,0-0.219,0-0.334c0-1.653-1.346-2.999-3-2.999
		c-1.623,0-2.948,1.298-2.997,2.909v0.062c0,0.01,0,0.019,0,0.028c0,0.143,0,0.25,0,0.334c0,0.001,0-0.002,0,0
		c0,0.004,0,0.008,0,0.012v2.305c0,0.004,0,0.008,0,0.012c0,0.198,0,0.278,0,0.307c0-0.003,0,0,0,0.015c0,0.004,0,0.005,0,0.011
		c0,1.654,1.343,3.001,2.997,3.001c0.003,0,0.007-0.001,0.01-0.001c0.464-1.708,1.543-3.161,2.99-4.103c0-0.055,0-0.151,0-0.395
		C15.989,12.352,15.989,13.305,15.989,12.338z"/>
	<path display="inline" d="M12.989,18c-1.654,0-2.997-1.347-2.997-3.001c0-0.006,0-0.007,0-0.011c0-0.015,0-0.019,0-0.015
		c0-0.029,0-0.109,0-0.307c0-0.004,0-0.008,0-0.012V12.35c0-0.004,0-0.008,0-0.012c0-0.002,0,0.001,0,0c-0.002,0.554-0.01-0.064,0,0
		c0-0.083,0-0.191,0-0.334c0-0.01,0-0.019,0-0.028v-0.062c0.049-1.611,1.374-2.909,2.997-2.909c1.655,0,3,1.346,3,2.999
		c0,0.115,0,0.223,0,0.334c0,0.967,0,0.014,0,1.164c0,0.243,0,0.34,0,0.395c0.316-0.207,0.65-0.388,1-0.542c0-0.727,0-1.08,0-1.227
		c0-0.074,0-0.105,0-0.105c0-0.006,0-0.01,0-0.018c0-2.208-1.791-3.999-4-3.999c-2.208,0-4,1.791-4,3.999c0,0.531,0,0.496,0,1.498
		c0,0.82,0,0.967,0,1.497c0,2.146,1.694,3.884,3.814,3.982c0.042-0.336,0.108-0.663,0.195-0.982C12.996,17.999,12.992,18,12.989,18z
		"/>
	<path display="inline" d="M9.992,12.338C9.982,12.274,9.989,12.892,9.992,12.338L9.992,12.338z"/>
	<path display="inline" d="M5.394,23.272C2.713,21.07,1,17.731,1,14C1,7.383,6.383,2,13,2c6.001,0,10.973,4.432,11.849,10.191
		c0.061,0.012,0.119,0.037,0.18,0.052h0.838C25.006,5.896,19.583,1,13,1C5.82,1,0,6.82,0,14c0,4.041,1.844,7.65,4.736,10.035
		c0.258,0.213,0.53,0.408,0.804,0.602C7.653,26.121,10.222,27,13,27c0.648,0,1.278-0.066,1.897-0.162v-1.01
		C14.278,25.93,13.648,26,13,26c-2.523,0-4.864-0.787-6.798-2.123c1.692-1.736,4.04-2.825,6.64-2.869
		c-0.052-0.325-0.085-0.656-0.092-0.995C9.854,20.082,7.252,21.316,5.394,23.272z"/>
</g>
<g id="Layer_37" display="none">
	<g display="inline">
		<g display="none">
			<path display="inline" d="M13,2c6.617,0,12,5.383,12,12c0,6.617-5.383,12-12,12C6.383,26,1,20.617,1,14C1,7.383,6.383,2,13,2
				 M13,1C5.82,1,0,6.82,0,14s5.82,13,13,13s13-5.82,13-13S20.18,1,13,1L13,1z"/>
		</g>
		<g>
			<path d="M16.903,16.263c0.059,0.061,0.025,0.188-0.073,0.285l-0.349,0.35c-0.1,0.1-0.227,0.133-0.285,0.072l-6.151-6.15
				c-0.059-0.059-0.026-0.186,0.072-0.285l0.35-0.35c0.098-0.098,0.226-0.131,0.285-0.074L16.903,16.263z"/>
			<path d="M10.805,16.97c-0.06,0.059-0.187,0.025-0.285-0.072l-0.351-0.348c-0.098-0.102-0.131-0.229-0.071-0.287l6.149-6.15
				c0.059-0.059,0.186-0.025,0.285,0.072l0.35,0.35c0.098,0.1,0.131,0.227,0.074,0.285L10.805,16.97z"/>
		</g>
	</g>
</g>
<g id="Layer_38" display="none">
	<g display="inline">
		<g display="none">
			<path display="inline" d="M13.999,2C20.617,2,26,7.383,26,14c0,6.617-5.383,12-12.001,12c-6.617,0-12-5.383-12-12
				C1.999,7.383,7.382,2,13.999,2 M13.999,1c-7.18,0-13,5.82-13,13s5.82,13,13,13C21.18,27,27,21.18,27,14S21.18,1,13.999,1
				L13.999,1z"/>
		</g>
		<path d="M19.264,10.738l-0.346-0.346c-0.098-0.098-0.256-0.098-0.354,0l-5.359,5.358l-2.616-2.616
			c-0.098-0.098-0.256-0.098-0.354,0l-0.5,0.5c-0.098,0.098-0.098,0.256,0,0.354l2.793,2.793l0.346,0.346
			c0.098,0.098,0.256,0.098,0.354,0l6.036-6.035C19.361,10.994,19.361,10.836,19.264,10.738z"/>
	</g>
</g>
<g id="Layer_39" display="none">
	<g display="inline">
		<g display="none">
			<path display="inline" d="M13.25,0.75c6.893,0,12.5,5.607,12.5,12.5s-5.607,12.5-12.5,12.5s-12.5-5.607-12.5-12.5
				S6.357,0.75,13.25,0.75 M13.25-0.25c-7.456,0-13.5,6.044-13.5,13.5s6.044,13.5,13.5,13.5s13.5-6.044,13.5-13.5
				S20.706-0.25,13.25-0.25L13.25-0.25z"/>
		</g>
		<rect x="0.398" y="12.88" transform="matrix(0.7071 0.7071 -0.7071 0.7071 13.3804 -5.5423)" width="25.965" height="1"/>
	</g>
</g>
<g id="Layer_40" display="none">
	<g display="inline">
		<g display="none">
			<path display="inline" d="M14,1c6.617,0,12,5.383,12,12c0,6.617-5.383,12-12,12S2,19.617,2,13C2,6.383,7.383,1,14,1 M14,0
				C6.82,0,1,5.82,1,13s5.82,13,13,13c7.18,0,13-5.82,13-13S21.18,0,14,0L14,0z"/>
		</g>
		<g>
			<path d="M13.5,9.5c2.479,0,6,2.07,6,4.002c0,1.93-3.521,3.999-6,3.999s-6-2.068-6-3.999C7.5,11.569,11.021,9.5,13.5,9.5
				 M13.5,8.5c-2.762,0-7,2.238-7,5.002c0,2.76,4.238,4.999,7,4.999c2.761,0,7-2.238,7-4.999C20.5,10.738,16.261,8.5,13.5,8.5
				L13.5,8.5z"/>
		</g>
		<g>
			<path d="M13.492,11.898c0.827,0,1.5,0.673,1.5,1.5s-0.673,1.5-1.5,1.5c-0.827,0-1.499-0.673-1.499-1.5
				S12.666,11.898,13.492,11.898 M13.492,10.898c-1.38,0-2.499,1.119-2.499,2.5c0,1.38,1.119,2.5,2.499,2.5
				c1.381,0,2.5-1.12,2.5-2.5C15.992,12.017,14.873,10.898,13.492,10.898L13.492,10.898z"/>
		</g>
	</g>
</g>
<g id="Layer_41" display="none">
	<g display="inline">
		<g display="none">
			<path display="inline" d="M15.978-0.641c6.617,0,12,5.383,12,12c0,6.617-5.383,12-12,12c-6.617,0-12-5.383-12-12
				C3.978,4.743,9.361-0.641,15.978-0.641 M15.978-1.641c-7.18,0-13,5.82-13,13s5.82,13,13,13s13-5.82,13-13
				S23.157-1.641,15.978-1.641L15.978-1.641z"/>
		</g>
		<g>
			<path d="M13.5,9.499c2.479,0,6,2.07,6,4.002c0,1.931-3.521,3.999-6,3.999s-6-2.068-6-3.999C7.5,11.569,11.021,9.499,13.5,9.499
				 M13.5,8.499c-2.761,0-7,2.238-7,5.002c0,2.761,4.239,4.999,7,4.999c2.762,0,7-2.238,7-4.999
				C20.5,10.737,16.262,8.499,13.5,8.499L13.5,8.499z"/>
		</g>
		<g>
			<path d="M15.225,11.601l-1.715,1.684v-2.385c-0.006,0-0.011-0.002-0.017-0.002c-1.38,0-2.5,1.119-2.5,2.5
				c0,1.382,1.12,2.501,2.5,2.501c1.381,0,2.5-1.119,2.5-2.501C15.993,12.69,15.697,12.054,15.225,11.601z"/>
		</g>
	</g>
</g>
<g id="Layer_51">
	<path d="M18.77,10.948l-0.35-0.348c-0.098-0.1-0.214-0.143-0.262-0.096L14,14.662l-4.159-4.159
		c-0.046-0.045-0.163-0.002-0.263,0.098L9.23,10.95c-0.099,0.098-0.143,0.215-0.096,0.262l4.333,4.332
		c0.002,0.002,0.002,0.004,0.004,0.006l0.35,0.348l0.098,0.098c0.01,0.01,0.032,0.001,0.047,0.002c0.016,0.007,0.024,0,0.039,0.002
		c0.011-0.002,0.018,0.003,0.03-0.002c0.017-0.002,0.039,0.007,0.05-0.004l0.09-0.09c0.002-0.002,0.004-0.002,0.006-0.004l0.35-0.35
		c0.002-0.002,0.002-0.004,0.004-0.006l4.332-4.332C18.913,11.165,18.869,11.048,18.77,10.948z"/>
</g>
<g id="Layer_42" display="none">
	<g display="inline">
		<g>
			<g display="none">
				<path display="inline" d="M14,1c6.618,0,12.001,5.383,12.001,12c0,6.617-5.383,12-12.001,12C7.383,25,2,19.617,2,13
					C2,6.383,7.383,1,14,1 M14,0C6.82,0,1,5.82,1,13s5.82,13,13,13c7.181,0,13.001-5.82,13.001-13S21.181,0,14,0L14,0z"/>
			</g>
			<g>
				<path fill="none" d="M13.99,9.501c-1.929,0-3.5,1.57-3.5,3.5c0,1.93,1.571,3.5,3.5,3.5c1.931,0,3.501-1.57,3.501-3.5
					C17.491,11.072,15.921,9.501,13.99,9.501z"/>
				<path d="M19.987,13.995v-2h-0.594c-0.141-0.765-0.438-1.475-0.861-2.093l0.434-0.433l-1.414-1.414l-0.43,0.429
					c-0.623-0.433-1.34-0.739-2.113-0.883V6.995h-2v0.599c-0.775,0.141-1.495,0.439-2.122,0.869l-0.404-0.404L9.068,9.472
					l0.401,0.401c-0.434,0.625-0.739,1.344-0.883,2.121H8.014v2h0.571c0.143,0.783,0.45,1.507,0.887,2.137l-0.424,0.425l1.414,1.414
					l0.428-0.428c0.626,0.428,1.345,0.727,2.119,0.866v0.609h2v-0.614c0.773-0.146,1.488-0.45,2.111-0.882l0.416,0.416l1.414-1.415
					l-0.42-0.419c0.426-0.623,0.725-1.339,0.867-2.11H19.987z M13.99,16.502c-1.929,0-3.5-1.57-3.5-3.5c0-1.93,1.571-3.5,3.5-3.5
					c1.931,0,3.501,1.57,3.501,3.5C17.491,14.932,15.921,16.502,13.99,16.502z"/>
			</g>
		</g>
		<g>
			<g>
				<circle cx="14" cy="13" r="1"/>
			</g>
		</g>
	</g>
</g>
<g id="Layer_43" display="none">
	<g display="inline">
		<g display="none">
			<path display="inline" d="M14,1c6.617,0,12,5.383,12,12c0,6.617-5.383,12-12,12S2,19.617,2,13C2,6.383,7.383,1,14,1 M14,0
				C6.82,0,1,5.82,1,13s5.82,13,13,13c7.18,0,13-5.82,13-13S21.18,0,14,0L14,0z"/>
		</g>
		<path d="M14.953,9.783c0,0.12-0.098,0.217-0.218,0.217H13.17c-0.12,0-0.217-0.097-0.217-0.217V8.217C12.953,8.097,13.05,8,13.17,8
			h1.565c0.12,0,0.218,0.097,0.218,0.217V9.783z"/>
		<path d="M14.953,13.783c0,0.12-0.098,0.217-0.218,0.217H13.17c-0.12,0-0.217-0.097-0.217-0.217v-1.565
			c0-0.12,0.097-0.217,0.217-0.217h1.565c0.12,0,0.218,0.097,0.218,0.217V13.783z"/>
		<path d="M14.953,17.788c0,0.12-0.098,0.218-0.218,0.218H13.17c-0.12,0-0.217-0.098-0.217-0.218v-1.565
			c0-0.12,0.097-0.217,0.217-0.217h1.565c0.12,0,0.218,0.097,0.218,0.217V17.788z"/>
	</g>
</g>
<g id="Layer_44" display="none">
	<g display="inline">
		<g>
			<path d="M16.72,14.5c-0.121,0-0.217-0.097-0.217-0.217v-1.565c0-0.12,0.096-0.217,0.217-0.217h1.564
				c0.121,0,0.219,0.097,0.219,0.217v1.565c0,0.12-0.098,0.217-0.219,0.217H16.72z"/>
			<path d="M12.72,14.5c-0.121,0-0.217-0.097-0.217-0.217v-1.565c0-0.12,0.096-0.217,0.217-0.217h1.564
				c0.121,0,0.219,0.097,0.219,0.217v1.565c0,0.12-0.098,0.217-0.219,0.217H12.72z"/>
			<path d="M8.715,14.5c-0.12,0-0.218-0.097-0.218-0.217v-1.565c0-0.12,0.098-0.217,0.218-0.217h1.565
				c0.12,0,0.217,0.097,0.217,0.217v1.565c0,0.12-0.097,0.217-0.217,0.217H8.715z"/>
		</g>
	</g>
</g>
<g id="Layer_45" display="none">
	<g display="inline">
		<path d="M20.714,9.117H7.213c-0.138,0-0.25,0.073-0.25,0.161v8.685c0,0.088,0.111,0.16,0.25,0.16h6.526l2.325,2.326
			c0.026,0.027,0.063,0.04,0.099,0.04s0.073-0.015,0.101-0.043l2.321-2.323h2.129c0.137,0,0.25-0.072,0.25-0.16v-2.219v-1.515V9.278
			C20.964,9.19,20.851,9.117,20.714,9.117z M19.964,14.643v0.687v1.414v0.379h-0.379h-1.413l-0.999,1l-1.01,1.01l-1.01-1.01l-1-1
			h-1.414H7.963v-7.006h7.512h1.379h3.109v3.111V14.643z"/>
		<rect x="9.978" y="12.118" width="8" height="1"/>
		<rect x="9.978" y="14.069" width="8" height="1"/>
	</g>
</g>
<g id="Layer_46" display="none">
	<g display="inline">
		<g>
			<path d="M15.994,15v5h-5v-5H15.994 M16.994,14h-7v7h7V14L16.994,14z"/>
		</g>
		
			<line fill="none" stroke="#000000" stroke-linecap="round" stroke-linejoin="round" stroke-miterlimit="10" x1="10.166" y1="14.528" x2="8.015" y2="16.678"/>
		
			<line fill="none" stroke="#000000" stroke-linecap="round" stroke-linejoin="round" stroke-miterlimit="10" x1="18.985" y1="16.678" x2="16.835" y2="14.528"/>
		<g>
			<path d="M15.728,9.376l-2.24,2.238l-2.121-2.121L10.66,10.2l2.653,2.653c0.097,0.097,0.254,0.096,0.353-0.002l2.769-2.768
				L15.728,9.376z"/>
		</g>
		<rect x="13.039" y="5.99" width="1.016" height="5.85"/>
	</g>
</g>
<g id="Layer_47" display="none">
	<g display="inline">
		<path d="M19.89,13.609c0-3.53-2.859-6.391-6.389-6.391S7.11,10.08,7.11,13.609C7.11,17.139,9.972,20,13.501,20
			c1.16,0,2.244-0.314,3.184-0.855l1.52,0.85l-0.355-1.713C19.103,17.115,19.89,15.457,19.89,13.609z M16.745,17.885
			c-0.037,0.027-0.068,0.061-0.107,0.088c-0.314,0.227-0.646,0.428-1.006,0.584C14.978,18.84,14.258,19,13.501,19
			c-2.973,0-5.391-2.418-5.391-5.391c0-2.972,2.418-5.391,5.391-5.391c2.971,0,5.389,2.418,5.389,5.391
			c0,1.323-0.498,2.521-1.291,3.461C17.343,17.371,17.062,17.645,16.745,17.885z"/>
		<rect x="10.021" y="11.917" width="6.957" height="1"/>
		<rect x="10.021" y="14" width="5" height="1"/>
	</g>
</g>
<g id="Layer_48" display="none">
	<g id="Layer_49" display="inline">
		<g>
			<path fill="none" d="M14.132,14.931c-0.193,0.09-0.406,0.145-0.633,0.145c-0.828,0-1.5-0.672-1.5-1.5
				c0-0.632,0.391-1.169,0.943-1.391c-0.006-0.031-0.019-0.06-0.019-0.093V1.104C6.299,1.408,1,6.876,1,13.575
				c0,6.893,5.607,12.5,12.5,12.5c3.267,0,6.235-1.27,8.465-3.329c-0.016-0.012-0.034-0.018-0.049-0.032L14.132,14.931z"/>
			<circle fill="none" cx="13.499" cy="13.575" r="0.5"/>
			<path d="M13.794,0.09L13.586,0l0.001,0.079c-0.03,0-0.059-0.004-0.088-0.004C6.043,0.075,0,6.119,0,13.575
				c0,7.457,6.044,13.5,13.5,13.5c7.456,0,13.5-6.044,13.5-13.5C26.999,6.219,21.112,0.248,13.794,0.09z M13.499,13.075
				c0.276,0,0.5,0.225,0.5,0.5s-0.224,0.5-0.5,0.5s-0.5-0.224-0.5-0.5S13.223,13.075,13.499,13.075z M13.499,26.075
				c-6.892,0-12.5-5.607-12.5-12.5c0-6.698,5.3-12.167,11.924-12.471v10.987c0,0.033,0.013,0.062,0.019,0.093
				c-0.552,0.222-0.943,0.759-0.943,1.391c0,0.828,0.672,1.5,1.5,1.5c0.227,0,0.44-0.054,0.633-0.145l7.783,7.783
				c0.015,0.015,0.033,0.021,0.049,0.032C19.734,24.806,16.766,26.075,13.499,26.075z"/>
		</g>
	</g>
</g>
<g id="Layer_50" display="none">
	<path display="inline" d="M20.813,9.857l-0.35-0.35c-0.1-0.1-0.23-0.127-0.298-0.061l-6.244,6.244L7.676,9.447
		C7.609,9.381,7.477,9.408,7.377,9.508l-0.348,0.35c-0.099,0.098-0.127,0.23-0.061,0.297l6.833,6.834
		c0.018,0.018,0.048,0.012,0.073,0.016c0.018,0.006,0.031,0.01,0.048,0.012c0.014-0.002,0.023-0.006,0.037-0.01
		c0.027-0.004,0.06,0.002,0.079-0.018l0.061-0.061l0,0l0.35-0.35l0,0l6.423-6.424C20.939,10.088,20.91,9.955,20.813,9.857z"/>
</g>
</svg>
