<?xml version="1.0" encoding="utf-8"?>
<!-- Generator: Adobe Illustrator 21.0.0, SVG Export Plug-In . SVG Version: 6.00 Build 0)  -->
<svg version="1.1" id="Warstwa_1" xmlns="http://www.w3.org/2000/svg" xmlns:xlink="http://www.w3.org/1999/xlink" x="0px" y="0px"
	 viewBox="0 0 30 30" style="enable-background:new 0 0 30 30;" xml:space="preserve">
<path d="M15,2.5c6.9,0,12.5,5.6,12.5,12.5S21.9,27.5,15,27.5S2.5,21.9,2.5,15S8.1,2.5,15,2.5 M15,2C7.8,2,2,7.8,2,15s5.8,13,13,13
	c7.2,0,13-5.8,13-13S22.2,2,15,2L15,2z M13.3,10.3c-0.1,0-0.1,0-0.2,0.1l-2.7,2.7l-1.5-1.5c-0.1-0.1-0.2-0.1-0.3,0
	c-0.1,0.1-0.1,0.2,0,0.3l1.7,1.7c0.1,0.1,0.3,0.1,0.4,0l2.8-2.8c0.1-0.1,0.1-0.3,0-0.4C13.4,10.3,13.4,10.3,13.3,10.3z M15.5,11.8
	c-0.1,0-0.1,0.1-0.1,0.1v0.2c0,0.1,0.1,0.1,0.1,0.1h6.7c0.1,0,0.1-0.1,0.1-0.1v-0.2c0-0.1-0.1-0.1-0.1-0.1H15.5z M13.3,17.3
	c-0.1,0-0.1,0-0.2,0.1l-2.7,2.7l-1.5-1.5c-0.1-0.1-0.2-0.1-0.3,0c-0.1,0.1-0.1,0.2,0,0.3l1.7,1.7c0.1,0.1,0.3,0.1,0.4,0l2.8-2.8
	c0.1-0.1,0.1-0.3,0-0.4C13.4,17.3,13.4,17.3,13.3,17.3z M15.5,18.8c-0.1,0-0.1,0.1-0.1,0.1v0.2c0,0.1,0.1,0.1,0.1,0.1h6.7
	c0.1,0,0.1-0.1,0.1-0.1v-0.2c0-0.1-0.1-0.1-0.1-0.1H15.5z"/>
</svg>
