<?xml version="1.0" encoding="utf-8"?>
<!-- Generator: Adobe Illustrator 21.0.0, SVG Export Plug-In . SVG Version: 6.00 Build 0)  -->
<svg version="1.1" id="Warstwa_2" xmlns="http://www.w3.org/2000/svg" xmlns:xlink="http://www.w3.org/1999/xlink" x="0px" y="0px"
	 width="30px" height="30px" viewBox="0 0 30 30" style="enable-background:new 0 0 30 30;" xml:space="preserve">
<path d="M17.6,14.4C17.6,14.4,17.6,14.3,17.6,14.4C17.6,14.3,17.6,14.3,17.6,14.4l-0.1-0.2c0,0,0,0,0,0l-0.3-0.3c0,0,0,0,0,0
	l-4.3-4.3c0,0-0.2,0-0.3,0.1l-0.3,0.3c-0.1,0.1-0.1,0.2-0.1,0.3l4.2,4.2l-4.2,4.2c0,0,0,0.2,0.1,0.3l0.3,0.3
	c0.1,0.1,0.2,0.1,0.3,0.1l4.3-4.3c0,0,0,0,0,0l0.3-0.4L17.6,14.4C17.6,14.4,17.6,14.4,17.6,14.4C17.6,14.4,17.6,14.4,17.6,14.4z"/>
</svg>
