<?xml version="1.0" encoding="UTF-8" standalone="no"?>
<svg viewBox="0 0 30 30">
  <path d="M 15 0 A 15 15 0 0 0 0 15 A 15 15 0 0 0 15 30 A 15 15 0 0 0 30 15 A 15 15 0 0 0 15 0 z M 15 1 A 14 14 0 0 1 29 15 A 14 14 0 0 1 15 29 A 14 14 0 0 1 1 15 A 14 14 0 0 1 15 1 z M 14.732422 6.4277344 C 14.584458 6.4277344 14.464844 6.5493336 14.464844 6.6972656 L 14.464844 14.464844 L 6.6972656 14.464844 C 6.5493336 14.464844 6.4277344 14.584458 6.4277344 14.732422 L 6.4277344 15.267578 C 6.4277344 15.415542 6.5493336 15.535156 6.6972656 15.535156 L 14.464844 15.535156 L 14.464844 23.302734 C 14.464844 23.450699 14.584458 23.572266 14.732422 23.572266 L 15.267578 23.572266 C 15.415543 23.572266 15.535156 23.450699 15.535156 23.302734 L 15.535156 15.535156 L 23.302734 15.535156 C 23.450698 15.535156 23.572266 15.415542 23.572266 15.267578 L 23.572266 14.732422 C 23.572266 14.584458 23.450698 14.464844 23.302734 14.464844 L 15.535156 14.464844 L 15.535156 6.6972656 C 15.535156 6.5493336 15.415543 6.4277344 15.267578 6.4277344 L 14.732422 6.4277344 z " />
</svg>
