<svg viewBox="0 0 30 30" version="1.1"><path d="M 15 2 C 7.826221 2 2 7.82622 2 15 C 2 22.17378 7.826221 28 15 28 C 22.173779 28 28 22.17378 28 15 C 28 7.82622 22.173779 2 15 2 z M 15 3 C 21.633339 3 27 8.36666 27 15 C 27 21.63334 21.633339 27 15 27 C 8.366661 27 3 21.63334 3 15 C 3 8.36666 8.366661 3 15 3 z M 18.396484 10.429688 A 0.50005 0.50005 0 0 0 18.080078 11.287109 L 21.292969 14.5 L 7 14.5 L 7 15.5 L 21.292969 15.5 L 18.080078 18.712891 A 0.50005 0.50005 0 1 0 18.787109 19.419922 L 22.853516 15.353516 A 0.50005 0.50005 0 0 0 22.853516 14.646484 L 18.787109 10.580078 A 0.50005 0.50005 0 0 0 18.443359 10.429688 A 0.50005 0.50005 0 0 0 18.396484 10.429688 z " /></svg>
