<svg viewBox="0 0 132 132" version="1.1"><path d="M 69.337891 0.083984375 L 69.3125 1.0839844 L 69.332031 1.0839844 L 69.357422 1.0859375 L 72.634766 1.3339844 L 72.638672 1.3339844 L 72.658203 1.3359375 L 74.240234 1.5390625 L 74.365234 0.546875 L 72.759766 0.34179688 L 72.748047 0.33984375 L 72.734375 0.33984375 L 69.408203 0.0859375 L 69.396484 0.0859375 L 69.382812 0.0859375 L 69.337891 0.083984375 z M 62.291016 0.109375 L 59.265625 0.33984375 L 59.251953 0.33984375 L 59.240234 0.34179688 L 57.289062 0.58984375 L 57.416016 1.5820312 L 59.341797 1.3359375 L 59.361328 1.3339844 L 59.365234 1.3339844 L 62.365234 1.1074219 L 62.291016 0.109375 z M 81.298828 1.8027344 L 81.074219 2.7753906 L 82.232422 3.0429688 L 85.318359 3.9179688 L 85.339844 3.9257812 L 85.341797 3.9257812 L 85.841797 4.0957031 L 86.162109 3.1484375 L 85.638672 2.9707031 L 85.626953 2.9667969 L 85.615234 2.9628906 L 82.505859 2.0820312 L 82.494141 2.078125 L 82.482422 2.0742188 L 81.298828 1.8027344 z M 50.363281 1.8808594 L 49.517578 2.0742188 L 49.505859 2.078125 L 49.494141 2.0820312 L 46.384766 2.9628906 L 46.373047 2.9667969 L 46.361328 2.9707031 L 45.507812 3.2597656 L 45.828125 4.2070312 L 46.658203 3.9257812 L 46.660156 3.9257812 L 46.681641 3.9179688 L 49.767578 3.0429688 L 50.587891 2.8535156 L 50.363281 1.8808594 z M 92.744141 5.6621094 L 92.332031 6.5742188 L 94.169922 7.4042969 L 94.171875 7.4042969 L 94.191406 7.4140625 L 96.802734 8.7539062 L 97.259766 7.8632812 L 94.625 6.5136719 L 94.613281 6.5078125 L 94.603516 6.5039062 L 92.744141 5.6621094 z M 38.939453 5.8066406 L 37.396484 6.5039062 L 37.386719 6.5078125 L 37.375 6.5136719 L 34.550781 7.9609375 L 34.541016 7.9667969 L 34.529297 7.9726562 L 34.414062 8.0390625 L 34.912109 8.90625 L 35.027344 8.8398438 L 37.808594 7.4140625 L 37.830078 7.4042969 L 39.351562 6.7167969 L 38.939453 5.8066406 z M 103.29102 11.548828 L 102.71094 12.363281 L 104.88086 13.90625 L 104.90039 13.919922 L 106.70117 15.335938 L 107.31836 14.548828 L 105.49805 13.119141 L 105.48828 13.111328 L 105.47852 13.105469 L 103.29102 11.548828 z M 28.425781 11.75 L 26.521484 13.105469 L 26.511719 13.111328 L 26.501953 13.119141 L 24.408203 14.763672 L 25.025391 15.550781 L 27.099609 13.919922 L 27.119141 13.90625 L 29.005859 12.564453 L 28.425781 11.75 z M 112.57422 19.240234 L 111.88477 19.964844 L 111.95312 20.029297 L 111.96094 20.039062 L 111.9707 20.046875 L 114.10547 22.287109 L 115.24414 23.599609 L 116 22.945312 L 114.86133 21.632812 L 114.85352 21.623047 L 114.8457 21.613281 L 112.67773 19.339844 L 112.66992 19.330078 L 112.66016 19.322266 L 112.57422 19.240234 z M 19.166016 19.503906 L 17.154297 21.613281 L 17.146484 21.623047 L 17.138672 21.632812 L 15.773438 23.207031 L 16.529297 23.863281 L 17.894531 22.287109 L 19.888672 20.195312 L 19.166016 19.503906 z M 120.3125 28.513672 L 119.49805 29.09375 L 119.89258 29.648438 L 119.89453 29.652344 L 119.90625 29.667969 L 121.5957 32.306641 L 122.15234 33.271484 L 123.01758 32.773438 L 122.45117 31.787109 L 122.44531 31.775391 L 122.4375 31.765625 L 120.73438 29.109375 L 120.72852 29.097656 L 120.7207 29.087891 L 120.3125 28.513672 z M 11.486328 28.796875 L 11.279297 29.087891 L 11.271484 29.097656 L 11.265625 29.109375 L 9.5625 31.765625 L 9.5546875 31.775391 L 9.5488281 31.787109 L 8.8085938 33.074219 L 9.6757812 33.574219 L 10.404297 32.306641 L 12.09375 29.667969 L 12.105469 29.652344 L 12.107422 29.648438 L 12.300781 29.376953 L 11.486328 28.796875 z M 126.23828 39.039062 L 125.32812 39.451172 L 125.88672 40.6875 L 125.89258 40.701172 L 125.89648 40.710938 L 127.06055 43.662109 L 127.18555 44.037109 L 128.13281 43.716797 L 128 43.318359 L 127.99609 43.306641 L 127.99023 43.294922 L 126.81836 40.320312 L 126.8125 40.310547 L 126.80859 40.298828 L 126.23828 39.039062 z M 5.6191406 39.355469 L 5.1914062 40.298828 L 5.1875 40.310547 L 5.1816406 40.320312 L 4.0097656 43.294922 L 4.0039062 43.306641 L 4 43.318359 L 3.7558594 44.044922 L 4.703125 44.365234 L 4.9394531 43.662109 L 6.1035156 40.710938 L 6.1074219 40.701172 L 6.1132812 40.6875 L 6.5292969 39.767578 L 5.6191406 39.355469 z M 130.14453 50.46875 L 129.16992 50.693359 L 129.68164 52.912109 L 130.15625 55.568359 L 131.14062 55.392578 L 130.66211 52.710938 L 130.66016 52.699219 L 130.65625 52.6875 L 130.14453 50.46875 z M 1.7773438 50.806641 L 1.34375 52.6875 L 1.3398438 52.699219 L 1.3378906 52.710938 L 0.79882812 55.734375 L 1.7832031 55.910156 L 2.3183594 52.912109 L 2.7519531 51.033203 L 1.7773438 50.806641 z M 65 51 L 65 65 L 51 65 L 51 67 L 65 67 L 65 81 L 67 81 L 67 67 L 81 67 L 81 65 L 67 65 L 67 51 L 65 51 z M 131.89844 62.398438 L 130.90234 62.474609 L 130.91406 62.642578 L 131 65.988281 L 131 66 L 131 66.011719 L 130.91406 69.357422 L 130.79297 70.957031 L 131.78906 71.03125 L 131.91406 69.408203 L 131.91406 69.396484 L 131.91406 69.382812 L 132 66.011719 L 131.5 66 L 132 65.988281 L 131.91406 62.617188 L 131.91406 62.603516 L 131.91406 62.591797 L 131.89844 62.398438 z M 0.08203125 62.771484 L 0 65.988281 L 0 66 L 0 66.011719 L 0.044921875 67.794922 L 1.0449219 67.769531 L 1 66.011719 L 1 66 L 1 65.988281 L 1.0820312 62.796875 L 0.08203125 62.771484 z M 1.5957031 74.691406 L 0.60351562 74.818359 L 0.7578125 76.037109 L 0.75976562 76.050781 L 0.76171875 76.0625 L 1.3378906 79.289062 L 1.3398438 79.300781 L 1.34375 79.3125 L 1.4550781 79.794922 L 2.4296875 79.568359 L 2.3183594 79.087891 L 1.75 75.912109 L 1.7480469 75.900391 L 1.7460938 75.886719 L 1.5957031 74.691406 z M 129.9043 77.84375 L 129.68164 79.087891 L 128.95703 82.232422 L 128.83203 82.673828 L 129.79297 82.947266 L 129.91797 82.505859 L 129.92188 82.494141 L 129.92578 82.482422 L 130.65625 79.3125 L 130.66016 79.300781 L 130.66211 79.289062 L 130.88867 78.019531 L 129.9043 77.84375 z M 4.2421875 86.275391 L 3.2949219 86.595703 L 4 88.681641 L 4.0039062 88.693359 L 4.0097656 88.705078 L 5.0351562 91.306641 L 5.9667969 90.939453 L 4.9394531 88.337891 L 4.2421875 86.275391 z M 126.6875 89.28125 L 125.89648 91.289062 L 125.89258 91.298828 L 125.88672 91.3125 L 124.73633 93.857422 L 125.64844 94.269531 L 126.80859 91.701172 L 126.8125 91.689453 L 126.81836 91.679688 L 127.61914 89.648438 L 126.6875 89.28125 z M 8.9609375 97.183594 L 8.09375 97.681641 L 9.5488281 100.21289 L 9.5546875 100.22461 L 9.5625 100.23438 L 10.683594 101.98438 L 11.525391 101.44531 L 10.404297 99.693359 L 8.9609375 97.183594 z M 121.43555 99.943359 L 119.90625 102.33203 L 119.89453 102.34766 L 119.89258 102.35156 L 118.66602 104.07617 L 119.48047 104.6543 L 120.7207 102.91211 L 120.72852 102.90234 L 120.73438 102.89062 L 122.27734 100.48438 L 121.43555 99.943359 z M 15.617188 107.06055 L 14.832031 107.67773 L 15.064453 107.97266 L 15.070312 107.98242 L 15.078125 107.99219 L 17.138672 110.36719 L 17.146484 110.37695 L 17.154297 110.38672 L 18.175781 111.45703 L 18.898438 110.76758 L 17.894531 109.71289 L 15.849609 107.35547 L 15.835938 107.33984 L 15.833984 107.33594 L 15.617188 107.06055 z M 114.30469 109.48438 L 114.10547 109.71289 L 111.9707 111.95312 L 111.96094 111.96094 L 111.95312 111.9707 L 110.8457 113.02539 L 111.53516 113.75 L 112.66016 112.67773 L 112.66992 112.66992 L 112.67773 112.66016 L 114.8457 110.38672 L 114.85352 110.37695 L 114.86133 110.36719 L 115.06055 110.13867 L 114.30469 109.48438 z M 23.945312 115.54297 L 23.291016 116.29883 L 24.007812 116.92188 L 24.017578 116.92969 L 24.027344 116.93555 L 26.501953 118.88086 L 26.511719 118.88867 L 26.521484 118.89453 L 27.255859 119.41797 L 27.835938 118.60352 L 27.119141 118.09375 L 27.099609 118.08008 L 24.664062 116.16602 L 24.660156 116.16211 L 24.644531 116.15039 L 23.945312 115.54297 z M 105.57227 117.55078 L 104.90039 118.08008 L 104.88086 118.09375 L 102.35156 119.89258 L 102.34766 119.89453 L 102.33203 119.90625 L 101.53516 120.41602 L 102.07617 121.25781 L 102.89062 120.73438 L 102.90234 120.72852 L 102.91211 120.7207 L 105.47852 118.89453 L 105.48828 118.88867 L 105.49805 118.88086 L 106.19141 118.33789 L 105.57227 117.55078 z M 33.667969 122.37891 L 33.169922 123.24609 L 34.529297 124.02734 L 34.541016 124.0332 L 34.550781 124.03906 L 37.375 125.48633 L 37.386719 125.49219 L 37.396484 125.49609 L 37.630859 125.60352 L 38.042969 124.69141 L 37.830078 124.5957 L 37.828125 124.5957 L 37.808594 124.58594 L 35.027344 123.16016 L 33.667969 122.37891 z M 95.525391 123.90039 L 94.191406 124.58594 L 94.171875 124.5957 L 94.169922 124.5957 L 91.3125 125.88672 L 91.298828 125.89258 L 91.289062 125.89648 L 91.041016 125.99414 L 91.408203 126.92383 L 91.679688 126.81836 L 91.689453 126.8125 L 91.701172 126.80859 L 94.603516 125.49609 L 94.613281 125.49219 L 94.625 125.48633 L 95.982422 124.79102 L 95.525391 123.90039 z M 44.46875 127.33203 L 44.148438 128.2793 L 46.361328 129.0293 L 46.373047 129.0332 L 46.384766 129.03711 L 48.947266 129.76367 L 49.220703 128.80273 L 46.681641 128.08203 L 46.660156 128.07422 L 46.658203 128.07422 L 44.46875 127.33203 z M 84.494141 128.31445 L 82.232422 128.95703 L 79.675781 129.54688 L 79.900391 130.52148 L 82.482422 129.92578 L 82.494141 129.92188 L 82.505859 129.91797 L 84.767578 129.27734 L 84.494141 128.31445 z M 56.017578 130.23633 L 55.841797 131.2207 L 55.9375 131.23828 L 55.949219 131.24023 L 55.962891 131.24219 L 59.240234 131.6582 L 59.251953 131.66016 L 59.265625 131.66016 L 60.859375 131.78125 L 60.935547 130.78516 L 59.365234 130.66602 L 59.361328 130.66602 L 59.341797 130.66406 L 56.113281 130.25391 L 56.101562 130.25195 L 56.087891 130.25 L 56.017578 130.23633 z M 72.816406 130.64258 L 72.658203 130.66406 L 72.638672 130.66602 L 72.634766 130.66602 L 69.357422 130.91406 L 67.878906 130.95312 L 67.902344 131.95117 L 69.382812 131.91406 L 69.396484 131.91406 L 69.408203 131.91406 L 72.734375 131.66016 L 72.748047 131.66016 L 72.759766 131.6582 L 72.941406 131.63477 L 72.816406 130.64258 z " /></svg>
