<svg viewBox="0 0 30 30" version="1.1"><path d="M 28,15 C 28,7.826221 22.17378,2 15,2 7.82622,2 2,7.826221 2,15 c 0,7.173779 5.82622,13 13,13 7.17378,0 13,-5.826221 13,-13 z m -1,0 C 27,21.633339 21.63334,27 15,27 8.36666,27 3,21.633339 3,15 3,8.366661 8.36666,3 15,3 21.63334,3 27,8.366661 27,15 Z m -7.429688,3.396484 A 0.50005,0.50005 0 0 0 18.712891,18.080078 L 15.5,21.292969 15.5,7 h -1 l 0,14.292969 -3.212891,-3.212891 a 0.50005,0.50005 0 1 0 -0.707031,0.707031 l 4.066406,4.066407 a 0.50005,0.50005 0 0 0 0.707032,0 l 4.066406,-4.066407 a 0.50005,0.50005 0 0 0 0.15039,-0.34375 0.50005,0.50005 0 0 0 0,-0.04687 z" /></svg>
