<?xml version="1.0" encoding="utf-8"?>
<!-- Generator: Adobe Illustrator 21.0.0, SVG Export Plug-In . SVG Version: 6.00 Build 0)  -->
<svg version="1.1" xmlns="http://www.w3.org/2000/svg" xmlns:xlink="http://www.w3.org/1999/xlink" x="0px" y="0px"
	 viewBox="0 0 27 27" style="enable-background:new 0 0 27 27;" xml:space="preserve">
<style type="text/css">
	.st0{display:none;}
	.st1{display:inline;}
	.st2{fill:none;}
	.st3{display:inline;fill:none;}
	.st4{fill:none;stroke:#000000;stroke-linecap:round;stroke-linejoin:round;stroke-miterlimit:10;}
</style>
<g id="Warstwa_1" class="st0">
	<g id="Layer_19">
		<g class="st1">
			<path d="M13.5,1C20.4,1,26,6.6,26,13.5S20.4,26,13.5,26C6.6,26,1,20.4,1,13.5S6.6,1,13.5,1 M13.5,0C6,0,0,6,0,13.5S6,27,13.5,27
				C21,27,27,21,27,13.5S21,0,13.5,0L13.5,0z"/>
		</g>
	</g>
	<g id="Layer_1">
		<g class="st1">
			<path d="M13.5,1C20.4,1,26,6.6,26,13.5S20.4,26,13.5,26S1,20.4,1,13.5S6.6,1,13.5,1 M13.5,0C6,0,0,6,0,13.5S6,27,13.5,27
				S27,21,27,13.5S21,0,13.5,0L13.5,0z"/>
		</g>
		<path class="st1" d="M12.8,17.7v-7.2H12c-0.8,0-1.3,0.1-1.6,0.3s-0.5,0.7-0.6,1.5H9.5l0-1.2l0-1.2h4h4l0,1.2l0,1.2h-0.3
			c-0.1-0.7-0.3-1.2-0.6-1.5s-0.8-0.3-1.6-0.3h-0.8v7.2c0,0.5,0.1,0.8,0.3,1c0.2,0.2,0.5,0.2,1.1,0.2v0.3h-2h-2v-0.3
			c0.5,0,0.9-0.1,1.1-0.2C12.7,18.6,12.8,18.2,12.8,17.7z"/>
	</g>
	<g id="Layer_2">
		<g class="st1">
			<path d="M15.4,14.7c-0.1,0.2-0.1,0.5-0.1,0.7c0,0.2,0.1,0.3,0.3,0.3c0.9,0,2-1.5,2-3.1c0-2.2-1.9-3.6-3.8-3.6
				c-2.4,0-4.3,2-4.3,4.5c0,2.5,2,4.5,4.3,4.5c1.4,0,2.8-0.7,3.5-1.7h0.9c-0.9,1.5-2.6,2.5-4.4,2.5c-2.9,0-5.2-2.3-5.2-5.2
				c0-2.9,2.4-5.2,5.2-5.2c2.6,0,4.7,1.8,4.7,4.3c0,2.4-2,4-3.3,4c-0.5,0-0.9-0.3-0.9-0.9h0c-0.4,0.5-0.9,0.9-1.8,0.9
				c-1.2,0-2-1-2-2.2c0-1.9,1.3-4,3.3-4c0.6,0,1.2,0.3,1.6,1.1h0l0.3-0.9h0.9L15.4,14.7z M12.8,15.7c1.2,0,2.2-1.8,2.2-3
				c0-0.7-0.5-1.3-1.1-1.3c-1.3,0-2.3,1.7-2.3,2.9C11.6,15.1,12.1,15.7,12.8,15.7z"/>
		</g>
	</g>
	<g id="Layer_3">
		<g class="st1">
			<path d="M12,9v3H9V9H12 M13,8H8v5h5V8L13,8z"/>
		</g>
		<g class="st1">
			<path d="M12,16v3H9v-3H12 M13,15H8v5h5V15L13,15z"/>
		</g>
		<g class="st1">
			<path d="M19,9v3h-3V9H19 M20,8h-5v5h5V8L20,8z"/>
		</g>
		<g class="st1">
			<path d="M19,16v3h-3v-3H19 M20,15h-5v5h5V15L20,15z"/>
		</g>
	</g>
	<g id="Layer_4">
		<g class="st1">
			<path d="M13,2c6.6,0,12,5.4,12,12s-5.4,12-12,12S1,20.7,1,14C1,7.4,6.4,2,13,2 M13,1C5.8,1,0,6.9,0,14s5.8,13,13,13s13-5.8,13-13
				S20.1,1,13,1L13,1z"/>
		</g>
		<g class="st1">
			<path d="M17.5,14c0.3,0,0.5,0.2,0.5,0.5c0,0.3-0.2,0.5-0.5,0.5S17,14.8,17,14.5C17,14.2,17.2,14,17.5,14 M17.5,13
				c-0.8,0-1.5,0.7-1.5,1.5c0,0.8,0.7,1.5,1.5,1.5s1.5-0.7,1.5-1.5C19,13.7,18.3,13,17.5,13L17.5,13z"/>
		</g>
		<g class="st1">
			<polygon class="st2" points="7.9,11 7.9,11.6 7.9,18 20,18 20,11 11.6,11 			"/>
			<path d="M20.8,10h-8.8h-1H8c0,0,0-0.1,0-0.1c0-0.6,0.4-1,1-1h2.7h8.9v-1H8.9c-0.7,0-1.4,0.4-1.7,1C7,9.2,6.9,9.5,6.9,9.9
				c0,0.1,0,0.2,0,0.2c0,0,0,0,0,0v8.7C6.9,19,7,19,7.2,19h13.6c0.1,0,0.3-0.1,0.3-0.2v-8.7C21,10.1,20.9,10,20.8,10z M20,18H7.9
				v-6.4V11h3.7H20C20,11,20,18,20,18z"/>
		</g>
	</g>
	<g id="Layer_5">
		<path class="st1" d="M22,13H7.8l3-3l-0.7-0.7l-4.1,4.1c-0.1,0.1-0.1,0.3,0,0.4l4.2,4.2l0.7-0.7L7.8,14H22V13z"/>
		<g class="st1">
			<path d="M13,2c6.6,0,12,5.4,12,12s-5.4,12-12,12S1,20.7,1,14C1,7.4,6.4,2,13,2 M13,1C5.8,1,0,6.9,0,14s5.8,13,13,13s13-5.8,13-13
				S20.1,1,13,1L13,1z"/>
		</g>
	</g>
	<g id="Layer_5_copy">
		<path class="st1" d="M5,14h14.2l-3,3l0.7,0.7l4.1-4.1c0.1-0.1,0.1-0.3,0-0.4l-4.2-4.2L16,9.9l3.2,3.2H5V14z"/>
		<g class="st1">
			<path d="M13,2c6.6,0,12,5.4,12,12s-5.4,12-12,12S1,20.7,1,14C1,7.4,6.4,2,13,2 M13,1C5.8,1,0,6.9,0,14s5.8,13,13,13s13-5.8,13-13
				S20.1,1,13,1L13,1z"/>
		</g>
	</g>
	<g id="Layer_7">
		<g class="st1">
			<path d="M13,2c6.6,0,12,5.4,12,12s-5.4,12-12,12S1,20.7,1,14C1,7.4,6.4,2,13,2 M13,1C5.8,1,0,6.9,0,14s5.8,13,13,13s13-5.8,13-13
				S20.1,1,13,1L13,1z"/>
		</g>
		<g class="st1">
			<g>
				<path d="M14,13c-0.6,0-1,0.4-1,1s0.4,1,1,1c0.6,0,1-0.4,1-1S14.5,13,14,13z M20.7,13h-1.3c-0.1-1-0.4-1.5-0.9-2.1l1-1
					c0.1-0.1,0.1-0.2,0.1-0.3l-1.2-1.2c-0.1-0.1-0.2,0-0.3,0.1l-0.9,1C16.5,9.1,16,8.8,15,8.6V7.3C15,7.1,14.9,7,14.8,7h-1.7
					C13,7,13,7.1,13,7.3v1.3c-1,0.1-1.5,0.4-2.1,0.9L9.9,8.6C9.8,8.5,9.7,8.4,9.6,8.5L8.5,9.7c-0.1,0.1,0,0.2,0.1,0.3l0.9,0.9
					C9,11.5,8.7,12,8.6,13H7.2C7.1,13,7,13.1,7,13.2v1.7C7,14.9,7.1,15,7.2,15h1.3c0.1,1,0.4,1.5,0.9,2.1l-1,1
					c-0.1,0.1-0.1,0.2-0.1,0.3l1.2,1.2c0.1,0.1,0.2,0,0.3-0.1l1-1c0.6,0.4,1.1,0.7,2.1,0.9v1.4c0,0.1,0.1,0.2,0.2,0.2h1.7
					c0.1,0,0.2-0.1,0.2-0.2v-1.4c1-0.1,1.5-0.5,2.1-0.9l0.9,0.9c0.1,0.1,0.2,0.1,0.3,0.1l1.2-1.2c0.1-0.1,0-0.2-0.1-0.3l-0.9-0.9
					c0.4-0.6,0.7-1.1,0.9-2.1h1.3c0.1,0,0.3-0.1,0.3-0.2v-1.7C21,13.1,20.8,13,20.7,13z M14,17.5c-1.9,0-3.5-1.6-3.5-3.5
					s1.6-3.5,3.5-3.5c1.9,0,3.5,1.6,3.5,3.5S15.9,17.5,14,17.5z"/>
			</g>
		</g>
	</g>
	<g id="Layer_8">
		<g class="st1">
			<path class="st2" d="M13,7.6L13,7.6C13,7.6,13,7.6,13,7.6C13,7.6,13,7.6,13,7.6c0.2,0,0.4-0.2,0.4-0.3c0-0.2-0.2-0.3-0.3-0.3
				s-0.3,0.2-0.3,0.3C12.7,7.4,12.8,7.6,13,7.6z"/>
			<path class="st2" d="M11.6,19c0.2,0.6,0.8,1,1.4,1c0.7,0,1.2-0.4,1.4-1h0H11.6z"/>
			<path class="st2" d="M15.6,12.5c0-1.1,0-2.5-0.8-3.3c-0.4-0.4-1-0.6-1.8-0.6c-0.8,0-1.4,0.2-1.8,0.6c-0.8,0.8-0.8,2.2-0.8,3.3
				v0.1c0,3-0.8,4.6-1.6,5.4h1.7h1h2.8h1h1.7c-0.8-0.9-1.6-2.4-1.6-5.4C15.6,12.6,15.6,12.5,15.6,12.5z"/>
			<path d="M19.2,18.1C19.2,18.1,19.2,18.1,19.2,18.1c0,0-0.1,0-0.1,0c-0.1,0-2.5-0.3-2.5-5.4v-0.1c0-1.2,0-2.9-1.1-4
				c-0.4-0.4-1-0.7-1.6-0.8C14,7.6,14,7.4,14,7.3c0-0.6-0.5-1-1-1s-1,0.5-1,1c0,0.2,0,0.3,0.1,0.4c-0.6,0.1-1.2,0.4-1.6,0.8
				c-1.1,1.1-1.1,2.7-1.1,4v0.1c0,5.1-2.4,5.4-2.5,5.4c-0.3,0-0.5,0.3-0.5,0.5C6.5,18.8,6.7,19,7,19c0,0,0,0,0,0c0,0,0,0,0.1,0
				c0,0,0,0,0,0h3.4h0c0.2,1.1,1.2,2,2.5,2s2.2-0.9,2.5-2H19c0,0,0,0,0,0c0,0,0,0,0,0c0.3,0,0.5-0.2,0.5-0.5
				C19.5,18.3,19.4,18.1,19.2,18.1z M13,6.9c0.2,0,0.3,0.2,0.3,0.3c0,0.2-0.1,0.3-0.3,0.3c0,0,0,0,0,0c0,0,0,0,0,0l0,0
				c-0.2,0-0.3-0.2-0.3-0.3C12.7,7.1,12.8,6.9,13,6.9z M13,20c-0.7,0-1.2-0.4-1.4-1h2.8h0C14.2,19.6,13.7,20,13,20z M15.4,18h-1
				h-2.8h-1H8.9c0.8-0.9,1.6-2.4,1.6-5.4v-0.1c0-1.1,0-2.5,0.8-3.3c0.4-0.4,1-0.6,1.8-0.6c0.8,0,1.4,0.2,1.8,0.6
				c0.8,0.8,0.8,2.2,0.8,3.3v0.1c0,3,0.8,4.6,1.6,5.4H15.4z"/>
		</g>
	</g>
	<g id="Layer_9">
		<g class="st1">
			<g class="st0">
				<path class="st1" d="M13,2.4c6.6,0,12,5.4,12,12s-5.4,12-12,12S1,21,1,14.4C1,7.8,6.4,2.4,13,2.4 M13,1.4c-7.2,0-13,5.8-13,13
					s5.8,13,13,13s13-5.8,13-13S20.1,1.4,13,1.4L13,1.4z"/>
			</g>
			<path class="st2" d="M12.9,7.6C12.9,7.6,13,7.7,12.9,7.6C13,7.7,13,7.7,12.9,7.6c0.2,0,0.4-0.2,0.4-0.3C13.3,7.1,13.2,7,13,7
				s-0.3,0.2-0.3,0.3C12.6,7.5,12.8,7.6,12.9,7.6z"/>
			<path class="st2" d="M15.6,12.5c0-1.1,0-2.5-0.8-3.3c-0.4-0.4-1-0.6-1.8-0.6c-0.8,0-1.4,0.2-1.8,0.6c-0.8,0.8-0.8,2.2-0.8,3.3
				v0.1c0,3-0.8,4.6-1.6,5.4h1.7h1h2.8h1h1.7c-0.8-0.9-1.6-2.4-1.6-5.4V12.5z"/>
			<path d="M19.2,18.1C19.2,18.1,19.2,18.1,19.2,18.1c0,0-0.1,0-0.1,0c-0.1,0-2.5-0.3-2.5-5.4v-0.1c0-1.2,0-2.9-1.1-4
				c-0.4-0.4-1-0.7-1.6-0.8C13.9,7.6,14,7.5,14,7.3c0-0.6-0.5-1-1-1s-1,0.5-1,1c0,0.2,0,0.3,0.1,0.4c-0.6,0.1-1.2,0.4-1.6,0.8
				c-1.1,1.1-1.1,2.7-1.1,4v0.1c0,5.1-2.4,5.4-2.5,5.4c-0.3,0-0.5,0.3-0.5,0.5c0,0.3,0.2,0.5,0.5,0.5c0,0,0,0,0,0c0,0,0,0,0.1,0
				c0,0,0,0,0,0h3.4h0c0,0,0,0,0,0h4.9c0,0,0,0,0,0H19c0,0,0,0,0,0c0,0,0,0,0,0c0.3,0,0.5-0.2,0.5-0.5
				C19.5,18.4,19.4,18.2,19.2,18.1z M13,7c0.2,0,0.3,0.2,0.3,0.3c0,0.2-0.1,0.3-0.3,0.3c0,0,0,0,0,0c0,0,0,0,0,0
				c-0.2,0-0.3-0.2-0.3-0.3C12.6,7.1,12.8,7,13,7z M15.4,18.1h-1h-2.8h-1H8.8c0.8-0.9,1.6-2.4,1.6-5.4v-0.1c0-1.1,0-2.5,0.8-3.3
				c0.4-0.4,1-0.6,1.8-0.6c0.8,0,1.4,0.2,1.8,0.6c0.8,0.8,0.8,2.2,0.8,3.3v0.1c0,3,0.8,4.6,1.6,5.4H15.4z"/>
			<path d="M14.1,20.1c0,0.5-0.5,1-1,1s-1-0.4-1-1h-1c0,1.1,0.9,2,2,2c1.1,0,2-0.9,2-2H14.1z"/>
		</g>
	</g>
	<g id="Layer_10">
		<path class="st1" d="M9.8,8c0,0,0.1-0.2,0.1-0.3V7.2C10,7.1,9.9,7,9.8,7H8.7H8.2H8C8,7,8,7.1,8,7.2v0.2v0.3v12.5v0.3v0.3
			C8,20.9,8,21,8,21h1.8c0,0,0.1-0.1,0.1-0.2v-0.5c0-0.1-0.1-0.2-0.1-0.2H9V8L9.8,8L9.8,8z"/>
		<path class="st1" d="M19,13h-6.1l1.6-1.6l-0.7-0.7l-2.7,2.7c-0.1,0.1-0.1,0.3,0,0.4l2.8,2.8l0.7-0.7L12.8,14H19L19,13L19,13z"/>
	</g>
	<g id="Layer_11">
		<g class="st1">
			<path class="st0" d="M13,2c6.6,0,12,5.4,12,12s-5.4,12-12,12S1,20.7,1,14C1,7.4,6.4,2,13,2 M13,1C5.8,1,0,6.9,0,14s5.8,13,13,13
				s13-5.8,13-13S20.1,1,13,1L13,1z"/>
			<path d="M6.7,20.9c-0.1,0-0.1,0-0.2,0c-0.3-0.1-0.4-0.4-0.3-0.6l2.3-6.7c0.1-0.3,0.4-0.4,0.6-0.3l5.9,2l2.7-7.8
				c0.1-0.3,0.4-0.4,0.6-0.3c0.3,0.1,0.4,0.4,0.3,0.6L15.8,16c0,0.1-0.1,0.2-0.3,0.3c-0.1,0.1-0.3,0.1-0.4,0l-5.9-2l-2.1,6.3
				C7.1,20.8,6.9,20.9,6.7,20.9z"/>
		</g>
	</g>
	<g id="Layer_12">
		<g class="st1">
			<g class="st0">
				<path class="st1" d="M13,1c6.6,0,12,5.4,12,12s-5.4,12-12,12S1,19.7,1,13C1,6.4,6.4,1,13,1 M13,0C5.8,0,0,5.9,0,13s5.8,13,13,13
					s13-5.8,13-13S20.1,0,13,0L13,0z"/>
			</g>
			<g>
				<path d="M15,12.5v5h-5v-5L15,12.5 M16,11.5H9v7h7V11.5L16,11.5z"/>
			</g>
			<g>
				<polygon points="18,9.5 11,9.5 11,10.5 17,10.5 17,16.5 18,16.5 				"/>
			</g>
		</g>
	</g>
	<g id="Layer_13">
		<g class="st1">
			<g>
				<path d="M13.5,7.5c3.6,0,6.5,2.9,6.5,6.5s-2.9,6.5-6.5,6.5S7,17.6,7,14S9.9,7.5,13.5,7.5 M13.5,6.5C9.4,6.5,6,9.9,6,14
					s3.4,7.5,7.5,7.5S21,18.1,21,14S17.6,6.5,13.5,6.5L13.5,6.5z"/>
			</g>
			<circle cx="11.1" cy="12.6" r="1"/>
			<circle cx="16" cy="12.6" r="1"/>
			<path d="M15.8,15.9c-0.4,0.9-1.3,1.5-2.3,1.5s-1.9-0.6-2.3-1.5h-1c0.4,1.5,1.8,2.5,3.4,2.5c1.6,0,2.9-1.1,3.4-2.5H15.8z"/>
		</g>
	</g>
	<g id="Layer_14">
		<g class="st1">
			<g>
				<path d="M13.5,1C20.4,1,26,6.6,26,13.5S20.4,26,13.5,26S1,20.4,1,13.5S6.6,1,13.5,1 M13.5,0C6,0,0,6.1,0,13.5S6,27,13.5,27
					S27,21,27,13.5S21,0,13.5,0L13.5,0z"/>
			</g>
			<g>
				<path d="M20.9,7.8c0,0.1-0.1,0.2-0.3,0.2H7.2C7.1,8,6.9,7.9,6.9,7.8V7.3C6.9,7.1,7.1,7,7.2,7h13.5c0.1,0,0.3,0.1,0.3,0.3V7.8z"
					/>
				<path d="M14.9,19.8c0,0.1-0.1,0.3-0.3,0.3H7.2c-0.1,0-0.3-0.1-0.3-0.3v-0.5c0-0.1,0.1-0.3,0.3-0.3h7.5c0.1,0,0.3,0.1,0.3,0.3
					V19.8z"/>
				<path d="M12.9,15.8c0,0.1-0.1,0.3-0.3,0.3H7.2c-0.1,0-0.3-0.1-0.3-0.3v-0.5c0-0.1,0.1-0.3,0.3-0.3h5.5c0.1,0,0.3,0.1,0.3,0.3
					V15.8z"/>
				<path d="M14.9,11.8c0,0.1-0.1,0.3-0.3,0.3H7.2c-0.1,0-0.3-0.1-0.3-0.3v-0.5c0-0.1,0.1-0.3,0.3-0.3h7.5c0.1,0,0.3,0.1,0.3,0.3
					V11.8z"/>
				<path d="M20.8,15H19v-1.8c0-0.1-0.1-0.3-0.3-0.3h-0.5c-0.1,0-0.3,0.1-0.3,0.3V15h-1.7c-0.1,0-0.3,0.1-0.3,0.3v0.5
					c0,0.1,0.2,0.2,0.3,0.2H18v1.8c0,0.1,0.1,0.3,0.3,0.3h0.5c0.1,0,0.3-0.1,0.3-0.3V16h1.8c0.1,0,0.2-0.1,0.2-0.2v-0.5
					C21,15.2,20.9,15,20.8,15z"/>
			</g>
		</g>
	</g>
	<g id="Layer_15">
		<g class="st1">
			<g class="st0">
				<path class="st1" d="M13,1c6.6,0,12,5.4,12,12s-5.4,12-12,12S1,19.6,1,13S6.4,1,13,1 M13,0C5.8,0,0,5.8,0,13s5.8,13,13,13
					s13-5.8,13-13S20.2,0,13,0L13,0z"/>
			</g>
			<path d="M20,10.7c0,0.1-0.1,0.3-0.3,0.3H6.2C6.1,11,6,10.8,6,10.7v-0.5C6,10.1,6.1,10,6.2,10h13.5c0.1,0,0.3,0.1,0.3,0.3V10.7z"
				/>
			<path d="M14,15.8c0,0.1-0.1,0.3-0.3,0.3H6.2C6.1,16,6,15.9,6,15.8v-0.5C6,15.1,6.1,15,6.2,15h7.5c0.1,0,0.3,0.1,0.3,0.3V15.8z"/>
		</g>
	</g>
	<g id="Layer_16">
		<g class="st1">
			<g class="st0">
				<path class="st1" d="M13,2c6.6,0,12,5.4,12,12s-5.4,12-12,12S1,20.6,1,14S6.4,2,13,2 M13,1C5.8,1,0,6.8,0,14s5.8,13,13,13
					s13-5.8,13-13S20.2,1,13,1L13,1z"/>
			</g>
			<g>
				<polygon class="st2" points="15.8,8.4 15.8,10 17.4,10 				"/>
				<polygon class="st2" points="15,11 15,10 15,8 9,8 9,20 18,20 18,11 15,11 				"/>
				<path d="M18.7,10L18.7,10L18.7,10L18.7,10L16,7v0H8C7.9,7,8,7.1,8,7.2v13.5C8,20.9,7.9,21,8,21h10.5c0.1,0,0.5-0.2,0.5-0.3V11
					v-0.9v0C19,10,18.7,10,18.7,10z M15.8,8.4l1.6,1.6h-1.6C15.8,10,15.8,8.4,15.8,8.4z M18,20H9V8h6v2v1v0h3V20z"/>
			</g>
		</g>
	</g>
	<g id="Layer_17">
		<g class="st1">
			<g class="st0">
				<path class="st1" d="M14,2c6.6,0,12,5.4,12,12s-5.4,12-12,12S2,20.6,2,14S7.4,2,14,2 M14,1C6.8,1,1,6.8,1,14s5.8,13,13,13
					s13-5.8,13-13S21.2,1,14,1L14,1z"/>
			</g>
			<g>
				<polygon class="st2" points="14.5,8.4 14.5,10 16.1,10 				"/>
				<polygon class="st2" points="13.5,11 13.5,10 13.5,8 11.5,8 11.5,20 16.5,20 16.5,11 13.5,11 				"/>
				<path d="M17.5,10L17.5,10L17.5,10L17.5,10l-3-3v0h-3.8c-0.1,0-0.3,0.1-0.3,0.3v13.5c0,0.1,0.1,0.3,0.3,0.3h6.5
					c0.1,0,0.3-0.1,0.3-0.3V11L17.5,10L17.5,10L17.5,10z M14.5,8.4l1.6,1.6h-1.6V8.4z M16.5,20h-5V8h2v2v1v0h3V20z"/>
			</g>
		</g>
	</g>
	<g id="Layer_18">
		<path class="st1" d="M19.7,12L19.7,12L19.7,12L19.7,12l-3-3v0H9C8.9,9,8.8,9.1,8.8,9.2v8.5C8.8,17.9,8.9,18,9,18h10.5
			c0.1,0,0.3-0.1,0.3-0.3V13L19.7,12L19.7,12C19.8,12,19.7,12,19.7,12z M16.8,10.4l1.6,1.6h-1.6V10.4z M18.8,17h-9v-7h6v2v1v0h3V17z
			"/>
	</g>
	<g id="Layer_20">
		<path class="st1" d="M17,13.5h-7c-0.1,0-0.3-0.1-0.4-0.2l-2-2.5c-0.2-0.2-0.1-0.5,0.1-0.7c0.2-0.2,0.5-0.1,0.7,0.1l1.9,2.3h6.5
			l1.9-2.3c0.2-0.2,0.5-0.2,0.7-0.1c0.2,0.2,0.3,0.5,0.1,0.7l-2,2.5C17.3,13.4,17.2,13.5,17,13.5z M19,10.5H8v7h11V10.5 M19.8,9.5
			c0.1,0,0.2,0.1,0.2,0.3v8.5c0,0.1-0.1,0.3-0.2,0.3H7.2c-0.1,0-0.2-0.1-0.2-0.3V9.8c0-0.1,0.1-0.3,0.2-0.3H19.8L19.8,9.5z"/>
	</g>
	<g id="Layer_21">
		<g class="st1">
			<path d="M14,2c6.6,0,12,5.4,12,12s-5.4,12-12,12S2,20.6,2,14S7.4,2,14,2 M14,1C6.8,1,1,6.8,1,14s5.8,13,13,13s13-5.8,13-13
				S21.2,1,14,1L14,1z"/>
		</g>
		<path class="st1" d="M13.6,23.5c-4.1,0-7.5-3.3-7.5-7.5c0-0.3,0.2-0.5,0.5-0.5s0.5,0.2,0.5,0.5c0,3.6,2.9,6.5,6.5,6.5
			s6.5-2.9,6.5-6.5c0-0.3,0.2-0.5,0.5-0.5s0.5,0.2,0.5,0.5C21.1,20.2,17.7,23.5,13.6,23.5z"/>
		<path class="st1" d="M20.6,16.5h-14c-0.3,0-0.5-0.2-0.5-0.5s0.2-0.5,0.5-0.5h14c0.3,0,0.5,0.2,0.5,0.5
			C21.1,16.3,20.8,16.5,20.6,16.5z"/>
		<path class="st1" d="M11.1,12.2c-0.3,0-0.5-0.2-0.5-0.5c0-1.1-0.9-2-2-2s-2,0.9-2,2c0,0.3-0.2,0.5-0.5,0.5s-0.5-0.2-0.5-0.5
			c0-1.7,1.3-3,3-3s3,1.3,3,3C11.6,11.9,11.3,12.2,11.1,12.2z"/>
		<path class="st1" d="M20.9,12.2c-0.3,0-0.5-0.2-0.5-0.5c0-1.1-0.9-2-2-2s-2,0.9-2,2c0,0.3-0.2,0.5-0.5,0.5s-0.5-0.2-0.5-0.5
			c0-1.7,1.3-3,3-3s3,1.3,3,3C21.4,11.9,21.2,12.2,20.9,12.2z"/>
	</g>
	<g id="Layer_22">
		<g class="st1">
			<polygon class="st2" points="8.8,16.9 8.8,18.3 10.2,18.3 			"/>
			<rect x="9" y="12.6" transform="matrix(0.7071 -0.7071 0.7071 0.7071 -6.1529 13.3118)" class="st2" width="7.9" height="3"/>
			<rect x="16.3" y="8.3" transform="matrix(0.7072 -0.707 0.707 0.7072 -1.9113 15.0669)" class="st2" width="1.9" height="3"/>
			<path d="M20.3,10.1L17,6.8c0-0.1-0.1-0.1-0.1-0.1c0,0,0,0,0,0l-2.7,2.7v0l-6.2,6.2c0,0,0,0.1,0,0.1l0,0v0.1c0,0,0,0,0,0.1l0,3.2
				c0,0.1,0,0.1,0.1,0.1c0,0,0,0,0.1,0l3.3,0c0,0,0,0,0,0c0,0,0,0,0,0h0.1l0,0c0,0,0.1,0,0.1,0l6.8-6.8l2.1-2.1
				C20.4,10.3,20.3,10.2,20.3,10.1z M8.8,16.9l1.4,1.4H8.8L8.8,16.9z M11.3,17.9l-2.1-2.1l5.6-5.6l2.1,2.1L11.3,17.9z M17.6,11.6
				l-2.1-2.1l1.3-1.3l2.1,2.1L17.6,11.6z"/>
		</g>
	</g>
	<g id="Layer_23">
		<g class="st1">
			<rect x="8.8" y="12.1" transform="matrix(0.7071 -0.7071 0.7071 0.7071 -5.739 13.4075)" class="st2" width="9" height="3"/>
			<rect x="16.9" y="7.5" transform="matrix(0.7071 -0.7071 0.7071 0.7071 -1.1349 15.3139)" class="st2" width="2" height="3"/>
			<path d="M21,9.3L17.7,6c0-0.1-0.1-0.1-0.1-0.1c0,0,0,0,0,0l-2.7,2.7v0l-7,7c-0.1,0.1-0.1,0.2,0,0.3l3.3,3.3c0,0,0.1,0,0.1,0
				c0.1,0,0.1,0,0.2-0.1l7.4-7.4c0,0,0,0,0,0L21,9.4C21.1,9.4,21,9.3,21,9.3z M11.2,17.9l-2.1-2.1l6.3-6.3l2.1,2.1L11.2,17.9z
				 M18.3,10.8l-2.1-2.1l1.4-1.4l2.1,2.1L18.3,10.8z"/>
			<path d="M7.9,19l0-1.5l-1-1l0,3.4c0,0.1,0,0.1,0.1,0.1c0,0,0,0,0.1,0l3.4,0l-1-1C9.5,19,7.9,19,7.9,19z"/>
		</g>
	</g>
	<g id="Layer_24">
		<g class="st1">
			<g class="st0">
				<path class="st1" d="M13,2c6.6,0,12,5.4,12,12s-5.4,12-12,12S1,20.6,1,14S6.4,2,13,2 M13,1C5.8,1,0,6.8,0,14s5.8,13,13,13
					s13-5.8,13-13S20.2,1,13,1L13,1z"/>
			</g>
			<path d="M13.5,7c3.9,0,7,3.1,7,7c0,3.9-3.1,7-7,7c-3.9,0-7-3.1-7-7C6.5,10.1,9.6,7,13.5,7 M13.5,6c-4.4,0-8,3.6-8,8s3.6,8,8,8
				s8-3.6,8-8S17.9,6,13.5,6L13.5,6z"/>
			<path d="M9.6,16h0.9l2.9,0l2.9,0h0.9c-0.4,1.7-2,2.8-3.9,2.8C11.6,18.8,10.1,17.6,9.6,16 M17.8,15c-0.9,0-2.5,0-4.3,0
				s-3.4,0-4.3,0c-0.4,0-0.7,0-0.7,0c0,2.8,2.2,4.8,5,4.8c2.8,0,5-2,5-4.8C18.5,15,18.3,15,17.8,15L17.8,15z"/>
			<path d="M18,13.4c-0.3,0-0.5-0.2-0.5-0.5c0-0.6-0.4-1-1-1s-1,0.4-1,1c0,0.3-0.2,0.5-0.5,0.5s-0.5-0.2-0.5-0.5c0-1.1,0.9-2,2-2
				s2,0.9,2,2C18.5,13.2,18.3,13.4,18,13.4z"/>
			<path d="M12,13.4c-0.3,0-0.5-0.2-0.5-0.5c0-0.6-0.4-1-1-1s-1,0.4-1,1c0,0.3-0.2,0.5-0.5,0.5s-0.5-0.2-0.5-0.5c0-1.1,0.9-2,2-2
				s2,0.9,2,2C12.5,13.2,12.2,13.4,12,13.4z"/>
		</g>
	</g>
	<g id="Layer_25">
		<g class="st1">
			<g class="st0">
				<path class="st1" d="M16,0c6.6,0,12,5.4,12,12s-5.4,12-12,12S4,18.6,4,12S9.4,0,16,0 M16-1C8.8-1,3,4.8,3,12s5.8,13,13,13
					s13-5.8,13-13S23.2-1,16-1L16-1z"/>
			</g>
			<g>
				<path d="M19,8v11H8V8H19 M19.8,7H7.2C7.1,7,7,7.1,7,7.3v12.5C7,19.9,7.1,20,7.2,20h12.5c0.1,0,0.2-0.1,0.2-0.3V7.3
					C20,7.1,19.9,7,19.8,7L19.8,7z"/>
			</g>
			<g>
				<path d="M15,12v7H8v-7H15 M15.8,11H7.2C7.1,11,7,11.1,7,11.2v8.7C7,19.9,7.1,20,7.2,20h8.7c0.1,0,0.2-0.1,0.2-0.2v-8.7
					C16,11.1,15.9,11,15.8,11L15.8,11z"/>
			</g>
		</g>
	</g>
	<g id="Layer_26">
		<g class="st1">
			<g class="st0">
				<path class="st1" d="M13,2c6.6,0,12,5.4,12,12s-5.4,12-12,12S1,20.6,1,14S6.4,2,13,2 M13,1C5.8,1,0,6.8,0,14s5.8,13,13,13
					s13-5.8,13-13S20.2,1,13,1L13,1z"/>
			</g>
			<path d="M16,12.1L16,12.1L16,12.1L16,12.1l-3-3v0H7.3C7.1,9.1,7,9.2,7,9.3v11.5c0,0.1,0.1,0.3,0.3,0.3h8.5c0.1,0,0.3-0.1,0.3-0.3
				v-7.7L16,12.1L16,12.1L16,12.1L16,12.1z M13,10.5l1.6,1.6H13V10.5z M15,20.1H8v-10h4v2v1v0h3V20.1z"/>
			<path d="M20,9.1L20,9.1L20,9.1L20,9.1l-3-3v0h-5.8C11.1,6,11,6.1,11,6.3V8h1V7h4v2v1v0h3v7h-2v1h2.8c0.1,0,0.3-0.1,0.3-0.3v-7.7
				L20,9.1L20,9.1L20,9.1L20,9.1z M17,9.1V7.5l1.6,1.6H17z"/>
		</g>
	</g>
	<g id="Layer_27">
		<g class="st1">
			<g class="st0">
				<path class="st1" d="M14,1c6.6,0,12,5.4,12,12s-5.4,12-12,12S2,19.6,2,13S7.4,1,14,1 M14,0C6.8,0,1,5.8,1,13s5.8,13,13,13
					s13-5.8,13-13S21.2,0,14,0L14,0z"/>
			</g>
			<g>
				<path d="M15,12v3h-3v-3H15 M15.9,11h-4.8C11,11,11,11,11,11.1v4.8c0,0.1,0,0.1,0.1,0.1h4.8c0.1,0,0.1,0,0.1-0.1L15.9,11
					C16,11,16,11,15.9,11L15.9,11z"/>
			</g>
			<g>
				<path d="M8,10V8.1h2V7H7.2C7.1,7,7,7.1,7,7.3V10H8z"/>
				<path d="M8,17H7v2.8C7,19.9,7.1,20,7.2,20H10v-0.9H8V17z"/>
			</g>
			<g>
				<path d="M19,10h1V7.3C20,7.1,19.9,7,19.8,7H17v1.1h2V10z"/>
				<path d="M19,17v2.1h-2V20h2.8c0.1,0,0.2-0.1,0.2-0.2V17H19z"/>
			</g>
		</g>
	</g>
	<g id="Layer_28">
		<path class="st1" d="M19.8,7H18V6.5C18,6.2,17.8,6,17.5,6S17,6.2,17,6.5V7h-7V6.5C10,6.2,9.8,6,9.5,6S9,6.2,9,6.5V7H7.2
			C7.1,7,7,7.1,7,7.2v12.6C7,19.9,7.1,20,7.2,20h12.5c0.1,0,0.2-0.1,0.2-0.2V7.2C20,7.1,19.9,7,19.8,7z M9,8v0.5C9,8.8,9.2,9,9.5,9
			S10,8.8,10,8.5V8h7v0.5C17,8.8,17.2,9,17.5,9S18,8.8,18,8.5V8h1v5H8V8H9z M8,19v-5h11v5H8z"/>
	</g>
	<g id="Layer_29">
		<g class="st1">
			<g>
				<g>
					<path d="M15.3,7.7l2.7,1.5l1.6,2.7l-7.9,7.9l-4.2-4.2L15.3,7.7 M15.1,6.5c-0.1,0-0.1,0-0.2,0.1l-8.9,8.9
						c-0.1,0.1-0.1,0.3,0,0.4l5.3,5.3c0,0,0.1,0.1,0.2,0.1s0.1,0,0.2-0.1l8.9-8.9c0.1-0.1,0.1-0.3,0-0.4l-2-3.4l-3.3-1.9
						C15.3,6.5,15.2,6.5,15.1,6.5L15.1,6.5z"/>
				</g>
				<circle cx="15.9" cy="11.3" r="1"/>
			</g>
		</g>
	</g>
	<g id="Layer_30">
	</g>
	<g id="Layer_31">
		<g class="st1">
			<g class="st0">
				<path class="st1" d="M13,2c6.6,0,12,5.4,12,12s-5.4,12-12,12S1,20.6,1,14S6.4,2,13,2 M13,1C5.8,1,0,6.8,0,14s5.8,13,13,13
					s13-5.8,13-13S20.2,1,13,1L13,1z"/>
			</g>
			<path d="M12.1,9.3l-0.5-0.5c-0.1-0.1-0.3-0.1-0.4,0l-3.1,3.1c0,0,0,0,0,0.1L7,10.9c-0.1-0.1-0.3-0.1-0.4,0l-0.5,0.5
				c-0.1,0.1-0.1,0.3,0,0.4l1.7,1.7c0.1,0.1,0.3,0.1,0.4,0L8.7,13c0,0,0.1-0.1,0.1-0.2c0.1,0,0.1,0,0.2-0.1l3.1-3.1
				C12.2,9.5,12.2,9.4,12.1,9.3z"/>
			<path d="M22,11c0,0.1-0.1,0.1-0.3,0.1h-6.5c-0.1,0-0.3-0.1-0.3-0.1v-0.8c0-0.1,0.1-0.1,0.3-0.1h6.5c0.1,0,0.3,0.1,0.3,0.1V11z"/>
			<path d="M22,16.9c0,0.1-0.1,0.1-0.3,0.1h-6.5C15.1,17,15,17,15,16.9v-0.8c0-0.1,0.1-0.1,0.3-0.1h6.5c0.1,0,0.3,0.1,0.3,0.1V16.9z
				"/>
			<path d="M12.1,14.9l-0.5-0.5c-0.1-0.1-0.3-0.1-0.4,0l-3.1,3.1c0,0,0,0,0,0.1L7,16.6c-0.1-0.1-0.3-0.1-0.4,0l-0.5,0.5
				c-0.1,0.1-0.1,0.3,0,0.4l1.7,1.7c0.1,0.1,0.3,0.1,0.4,0l0.5-0.5c0,0,0.1-0.1,0.1-0.2c0.1,0,0.1,0,0.2-0.1l3.1-3.1
				C12.2,15.2,12.2,15,12.1,14.9z"/>
		</g>
	</g>
	<g id="Layer_32">
		<g class="st1">
			<g class="st0">
				<path class="st1" d="M13,2c6.6,0,12,5.4,12,12s-5.4,12-12,12S1,20.6,1,14S6.4,2,13,2 M13,1C5.8,1,0,6.8,0,14s5.8,13,13,13
					s13-5.8,13-13S20.2,1,13,1L13,1z"/>
			</g>
			<g>
				<path class="st2" d="M19,11V9h-1v0.5c0,0.3-0.2,0.5-0.5,0.5S17,9.8,17,9.5V9h-7v0.5C10,9.8,9.8,10,9.5,10S9,9.8,9,9.5V9H8v2H19z
					"/>
				<rect x="8" y="12" class="st2" width="11" height="7"/>
				<path d="M19.8,8H18V7.5C18,7.2,17.8,7,17.5,7S17,7.2,17,7.5V8h-7V7.5C10,7.2,9.8,7,9.5,7S9,7.2,9,7.5V8H7.2C7.1,8,7,8.1,7,8.2
					v11.6C7,19.9,7.1,20,7.2,20h12.5c0.1,0,0.2-0.1,0.2-0.2V8.2C20,8.1,19.9,8,19.8,8z M9,9v0.5C9,9.8,9.2,10,9.5,10S10,9.8,10,9.5
					V9h7v0.5c0,0.3,0.2,0.5,0.5,0.5S18,9.8,18,9.5V9h1v2H8V9H9z M8,19v-7h11v7H8z"/>
			</g>
		</g>
	</g>
	<g id="Layer_33">
		<g class="st1">
			<g>
				<path d="M15.7,13.4l-2.2,2.2l-2.1-2.1l-0.7,0.7l2.7,2.7c0.1,0.1,0.3,0.1,0.4,0l2.8-2.8L15.7,13.4z"/>
			</g>
			<path d="M19,19.3c0-0.1-0.2-0.2-0.4-0.2H8.4C8.2,19,8,19.1,8,19.3v0.5C8,19.9,8.2,20,8.4,20h10.3c0.2,0,0.4-0.1,0.4-0.2L19,19.3
				L19,19.3z"/>
			<rect x="13" y="7.2" width="1" height="8.7"/>
		</g>
	</g>
	<g id="Layer_34">
		<g class="st1">
			<g>
				<g>
					<circle cx="14" cy="13" r="1"/>
				</g>
			</g>
			<path d="M21,14v-2h-1.6c-0.1-0.8-0.5-1.5-0.9-2.1l1.2-1.2l-1.4-1.4l-1.2,1.2C16.5,8,15.8,7.7,15,7.6V6h-2v1.6
				c-0.8,0.1-1.5,0.4-2.1,0.8L9.8,7.3L8.3,8.7l1.1,1.1C9,10.5,8.7,11.2,8.6,12H7v2h1.6c0.1,0.8,0.4,1.5,0.8,2.1l-1.2,1.2l1.4,1.4
				l1.1-1.1c0.6,0.4,1.4,0.8,2.2,0.9V20h2v-1.6c0.8-0.1,1.5-0.5,2.1-0.9l1.2,1.2l1.4-1.4l-1.2-1.2c0.4-0.6,0.7-1.3,0.8-2.1L21,14
				L21,14z M14,16.5c-1.9,0-3.5-1.6-3.5-3.5s1.6-3.5,3.5-3.5s3.5,1.6,3.5,3.5C17.5,14.9,15.9,16.5,14,16.5z"/>
		</g>
	</g>
	<g id="Layer_35">
		<g class="st1">
			<path class="st2" d="M19.8,23.9C18.1,22.1,15.7,21,13,21c-2.7,0-5.1,1.1-6.8,2.9C8.1,25.2,10.5,26,13,26
				C15.5,26,17.9,25.2,19.8,23.9z"/>
			<path class="st2" d="M13,20c3,0,5.7,1.3,7.6,3.3c2.7-2.2,4.4-5.5,4.4-9.3c0-6.6-5.4-12-12-12C6.4,2,1,7.4,1,14
				c0,3.7,1.7,7.1,4.4,9.3C7.3,21.3,10,20,13,20z"/>
			<path d="M13,1C5.8,1,0,6.8,0,14c0,4,1.8,7.6,4.7,10c0.3,0.2,0.5,0.4,0.8,0.6C7.7,26.1,10.2,27,13,27s5.3-0.9,7.5-2.4
				c0.3-0.2,0.5-0.4,0.8-0.6c2.9-2.4,4.7-6,4.7-10C26,6.8,20.2,1,13,1z M13,26c-2.5,0-4.9-0.8-6.8-2.1C7.9,22.1,10.3,21,13,21
				c2.7,0,5.1,1.1,6.8,2.9C17.9,25.2,15.5,26,13,26z M20.6,23.3C18.7,21.3,16,20,13,20c-3,0-5.7,1.3-7.6,3.3C2.7,21.1,1,17.7,1,14
				C1,7.4,6.4,2,13,2c6.6,0,12,5.4,12,12C25,17.7,23.3,21.1,20.6,23.3z"/>
			<path d="M13,8c-2.2,0-4,1.8-4,4c0,0.5,0,0.5,0,1.5c0,0.8,0,1,0,1.5c0,2.2,1.8,4,4,4s4-1.8,4-4c0-0.5,0,0,0-1.5c0-0.8,0-1.2,0-1.4
				c0-0.1,0-0.1,0-0.1c0,0,0,0,0,0C17,9.8,15.2,8,13,8z M16,12.3c0,1,0,0,0,1.2c0,0.8,0,0.1,0,1.2c0,0.1,0,0.2,0,0.3
				c0,1.7-1.3,3-3,3s-3-1.3-3-3c0-0.1,0,0.2,0-0.3c0,0,0,0,0,0v-2.3c0,0,0,0,0,0c0-0.1,0,0.8,0-0.3c0,0,0,0,0,0v-0.1l0,0
				c0-1.6,1.4-2.9,3-2.9c1.7,0,3,1.3,3,3C16,12.1,16,12.2,16,12.3z"/>
		</g>
	</g>
	<g id="Layer_36">
		<g class="st1">
			<path d="M20.5,15.1L20.5,15.1c1.5,0,2.9,0.6,3.9,1.6s1.6,2.4,1.6,3.9c0,1.5-0.6,2.9-1.6,3.9c-1,1-2.4,1.6-3.9,1.6
				c-1.5,0-2.9-0.6-3.9-1.6c-2.1-2.1-2.1-5.6,0-7.8C17.6,15.7,19,15.1,20.5,15.1 M20.5,14.1c-1.7,0-3.3,0.6-4.6,1.9
				c-2.5,2.5-2.5,6.7,0,9.2c1.3,1.3,2.9,1.9,4.6,1.9s3.3-0.6,4.6-1.9c2.5-2.5,2.5-6.7,0-9.2C23.8,14.8,22.2,14.1,20.5,14.1
				L20.5,14.1z"/>
		</g>
		<path class="st1" d="M24,20.4c0-0.1-0.1-0.3-0.1-0.3H21v-2.9c0-0.1-0.1-0.1-0.3-0.1h-0.5c-0.1,0-0.3,0.1-0.3,0.1v2.9h-2.9
			c-0.1,0-0.1,0.1-0.1,0.3v0.5c0,0.1,0.1,0.3,0.1,0.3l2.9,0V24c0,0.1,0.1,0.1,0.3,0.1l0.5,0c0.1,0,0.3-0.1,0.3-0.1v-2.9l2.8,0
			c0.1,0,0.1-0.1,0.1-0.3L24,20.4z"/>
		<path class="st3" d="M16,12.3c0-0.1,0-0.2,0-0.3c0-1.7-1.3-3-3-3c-1.6,0-2.9,1.3-3,2.9V12c0,0,0,0,0,0c0,0.1,0,0.3,0,0.3
			c0,0,0,0,0,0c0,0,0,0,0,0v2.3c0,0,0,0,0,0c0,0.2,0,0.3,0,0.3c0,0,0,0,0,0c0,0,0,0,0,0c0,1.7,1.3,3,3,3c0,0,0,0,0,0
			c0.5-1.7,1.5-3.2,3-4.1c0-0.1,0-0.2,0-0.4C16,12.4,16,13.3,16,12.3z"/>
		<path class="st1" d="M13,18c-1.7,0-3-1.3-3-3c0,0,0,0,0,0c0,0,0,0,0,0c0,0,0-0.1,0-0.3c0,0,0,0,0,0v-2.3c0,0,0,0,0,0c0,0,0,0,0,0
			c0,0.6,0-0.1,0,0c0-0.1,0-0.2,0-0.3c0,0,0,0,0,0v-0.1c0-1.6,1.4-2.9,3-2.9c1.7,0,3,1.3,3,3c0,0.1,0,0.2,0,0.3c0,1,0,0,0,1.2
			c0,0.2,0,0.3,0,0.4c0.3-0.2,0.6-0.4,1-0.5c0-0.7,0-1.1,0-1.2c0-0.1,0-0.1,0-0.1c0,0,0,0,0,0c0-2.2-1.8-4-4-4c-2.2,0-4,1.8-4,4
			c0,0.5,0,0.5,0,1.5c0,0.8,0,1,0,1.5c0,2.1,1.7,3.9,3.8,4C12.8,18.6,12.9,18.3,13,18C13,18,13,18,13,18z"/>
		<path class="st1" d="M10,12.3C10,12.3,10,12.9,10,12.3L10,12.3z"/>
		<path class="st1" d="M5.4,23.3C2.7,21.1,1,17.7,1,14C1,7.4,6.4,2,13,2c6,0,11,4.4,11.8,10.2c0.1,0,0.1,0,0.2,0.1h0.8
			C25,5.9,19.6,1,13,1C5.8,1,0,6.8,0,14c0,4,1.8,7.6,4.7,10c0.3,0.2,0.5,0.4,0.8,0.6C7.7,26.1,10.2,27,13,27c0.6,0,1.3-0.1,1.9-0.2
			v-1C14.3,25.9,13.6,26,13,26c-2.5,0-4.9-0.8-6.8-2.1c1.7-1.7,4-2.8,6.6-2.9c-0.1-0.3-0.1-0.7-0.1-1C9.9,20.1,7.3,21.3,5.4,23.3z"
			/>
	</g>
	<g id="Layer_37">
		<g class="st1">
			<g class="st0">
				<path class="st1" d="M13,2c6.6,0,12,5.4,12,12s-5.4,12-12,12S1,20.6,1,14S6.4,2,13,2 M13,1C5.8,1,0,6.8,0,14s5.8,13,13,13
					s13-5.8,13-13S20.2,1,13,1L13,1z"/>
			</g>
			<g>
				<path d="M16.9,16.3c0.1,0.1,0,0.2-0.1,0.3l-0.3,0.4C16.4,17,16.3,17,16.2,17L10,10.8c-0.1-0.1,0-0.2,0.1-0.3l0.4-0.4
					c0.1-0.1,0.2-0.1,0.3-0.1L16.9,16.3z"/>
				<path d="M10.8,17c-0.1,0.1-0.2,0-0.3-0.1l-0.4-0.3c-0.1-0.1-0.1-0.2-0.1-0.3l6.1-6.1c0.1-0.1,0.2,0,0.3,0.1l0.4,0.4
					c0.1,0.1,0.1,0.2,0.1,0.3L10.8,17z"/>
			</g>
		</g>
	</g>
	<g id="Layer_38">
		<g class="st1">
			<g class="st0">
				<path class="st1" d="M14,2c6.6,0,12,5.4,12,12s-5.4,12-12,12C7.4,26,2,20.6,2,14C2,7.4,7.4,2,14,2 M14,1C6.8,1,1,6.8,1,14
					s5.8,13,13,13c7.2,0,13-5.8,13-13S21.2,1,14,1L14,1z"/>
			</g>
			<path d="M19.3,10.7l-0.3-0.3c-0.1-0.1-0.3-0.1-0.4,0l-5.4,5.4l-2.6-2.6c-0.1-0.1-0.3-0.1-0.4,0l-0.5,0.5c-0.1,0.1-0.1,0.3,0,0.4
				l2.8,2.8l0.3,0.3c0.1,0.1,0.3,0.1,0.4,0l6-6C19.4,11,19.4,10.8,19.3,10.7z"/>
		</g>
	</g>
	<g id="Layer_39">
		<g class="st1">
			<g class="st0">
				<path class="st1" d="M13.3,0.8c6.9,0,12.5,5.6,12.5,12.5s-5.6,12.5-12.5,12.5S0.8,20.1,0.8,13.3S6.4,0.8,13.3,0.8 M13.3-0.3
					c-7.5,0-13.5,6-13.5,13.5s6,13.5,13.5,13.5s13.5-6,13.5-13.5S20.7-0.3,13.3-0.3L13.3-0.3z"/>
			</g>
			<rect x="12.9" y="0.4" transform="matrix(0.7071 -0.7071 0.7071 0.7071 -5.542 13.3805)" width="1" height="26"/>
		</g>
	</g>
	<g id="Layer_40">
		<g class="st1">
			<g class="st0">
				<path class="st1" d="M14,1c6.6,0,12,5.4,12,12s-5.4,12-12,12S2,19.6,2,13S7.4,1,14,1 M14,0C6.8,0,1,5.8,1,13s5.8,13,13,13
					s13-5.8,13-13S21.2,0,14,0L14,0z"/>
			</g>
			<g>
				<path d="M13.5,9.5c2.5,0,6,2.1,6,4c0,1.9-3.5,4-6,4s-6-2.1-6-4C7.5,11.6,11,9.5,13.5,9.5 M13.5,8.5c-2.8,0-7,2.2-7,5
					c0,2.8,4.2,5,7,5c2.8,0,7-2.2,7-5C20.5,10.7,16.3,8.5,13.5,8.5L13.5,8.5z"/>
			</g>
			<g>
				<path d="M13.5,11.9c0.8,0,1.5,0.7,1.5,1.5s-0.7,1.5-1.5,1.5S12,14.2,12,13.4S12.7,11.9,13.5,11.9 M13.5,10.9
					c-1.4,0-2.5,1.1-2.5,2.5c0,1.4,1.1,2.5,2.5,2.5c1.4,0,2.5-1.1,2.5-2.5C16,12,14.9,10.9,13.5,10.9L13.5,10.9z"/>
			</g>
		</g>
	</g>
	<g id="Layer_41">
		<g class="st1">
			<g class="st0">
				<path class="st1" d="M16-0.6c6.6,0,12,5.4,12,12s-5.4,12-12,12S4,18,4,11.4C4,4.7,9.4-0.6,16-0.6 M16-1.6c-7.2,0-13,5.8-13,13
					s5.8,13,13,13s13-5.8,13-13S23.2-1.6,16-1.6L16-1.6z"/>
			</g>
			<g>
				<path d="M13.5,9.5c2.5,0,6,2.1,6,4c0,1.9-3.5,4-6,4s-6-2.1-6-4C7.5,11.6,11,9.5,13.5,9.5 M13.5,8.5c-2.8,0-7,2.2-7,5
					c0,2.8,4.2,5,7,5c2.8,0,7-2.2,7-5C20.5,10.7,16.3,8.5,13.5,8.5L13.5,8.5z"/>
			</g>
			<g>
				<path d="M15.2,11.6l-1.7,1.7v-2.4c0,0,0,0,0,0c-1.4,0-2.5,1.1-2.5,2.5c0,1.4,1.1,2.5,2.5,2.5c1.4,0,2.5-1.1,2.5-2.5
					C16,12.7,15.7,12.1,15.2,11.6z"/>
			</g>
		</g>
	</g>
	<g id="Layer_51">
		<path class="st1" d="M18.8,10.9l-0.4-0.3c-0.1-0.1-0.2-0.1-0.3-0.1L14,14.7l-4.2-4.2c0,0-0.2,0-0.3,0.1l-0.3,0.3
			c-0.1,0.1-0.1,0.2-0.1,0.3l4.3,4.3c0,0,0,0,0,0l0.4,0.3l0.1,0.1c0,0,0,0,0,0c0,0,0,0,0,0c0,0,0,0,0,0c0,0,0,0,0.1,0l0.1-0.1
			c0,0,0,0,0,0l0.4-0.4c0,0,0,0,0,0l4.3-4.3C18.9,11.2,18.9,11,18.8,10.9z"/>
	</g>
	<g id="Layer_42">
		<g class="st1">
			<g>
				<g class="st0">
					<path class="st1" d="M14,1c6.6,0,12,5.4,12,12s-5.4,12-12,12C7.4,25,2,19.6,2,13S7.4,1,14,1 M14,0C6.8,0,1,5.8,1,13
						s5.8,13,13,13c7.2,0,13-5.8,13-13S21.2,0,14,0L14,0z"/>
				</g>
				<g>
					<path class="st2" d="M14,9.5c-1.9,0-3.5,1.6-3.5,3.5s1.6,3.5,3.5,3.5c1.9,0,3.5-1.6,3.5-3.5C17.5,11.1,15.9,9.5,14,9.5z"/>
					<path d="M20,14v-2h-0.6c-0.1-0.8-0.4-1.5-0.9-2.1L19,9.5l-1.4-1.4l-0.4,0.4c-0.6-0.4-1.3-0.7-2.1-0.9V7h-2v0.6
						c-0.8,0.1-1.5,0.4-2.1,0.9l-0.4-0.4L9.1,9.5l0.4,0.4C9,10.5,8.7,11.2,8.6,12H8v2h0.6c0.1,0.8,0.4,1.5,0.9,2.1L9,16.6l1.4,1.4
						l0.4-0.4c0.6,0.4,1.3,0.7,2.1,0.9V19h2v-0.6c0.8-0.1,1.5-0.5,2.1-0.9l0.4,0.4l1.4-1.4l-0.4-0.4c0.4-0.6,0.7-1.3,0.9-2.1L20,14
						L20,14z M14,16.5c-1.9,0-3.5-1.6-3.5-3.5s1.6-3.5,3.5-3.5c1.9,0,3.5,1.6,3.5,3.5S15.9,16.5,14,16.5z"/>
				</g>
			</g>
			<g>
				<g>
					<circle cx="14" cy="13" r="1"/>
				</g>
			</g>
		</g>
	</g>
	<g id="Layer_43">
		<g class="st1">
			<g class="st0">
				<path class="st1" d="M14,1c6.6,0,12,5.4,12,12s-5.4,12-12,12S2,19.6,2,13S7.4,1,14,1 M14,0C6.8,0,1,5.8,1,13s5.8,13,13,13
					s13-5.8,13-13S21.2,0,14,0L14,0z"/>
			</g>
			<path d="M15,9.8c0,0.1-0.1,0.2-0.2,0.2h-1.6C13.1,10,13,9.9,13,9.8V8.2C13,8.1,13.1,8,13.2,8h1.6C14.9,8,15,8.1,15,8.2
				C15,8.2,15,9.8,15,9.8z"/>
			<path d="M15,13.8c0,0.1-0.1,0.2-0.2,0.2h-1.6c-0.1,0-0.2-0.1-0.2-0.2v-1.6c0-0.1,0.1-0.2,0.2-0.2h1.6c0.1,0,0.2,0.1,0.2,0.2
				C15,12.2,15,13.8,15,13.8z"/>
			<path d="M15,17.8c0,0.1-0.1,0.2-0.2,0.2h-1.6c-0.1,0-0.2-0.1-0.2-0.2v-1.6c0-0.1,0.1-0.2,0.2-0.2h1.6c0.1,0,0.2,0.1,0.2,0.2
				C15,16.2,15,17.8,15,17.8z"/>
		</g>
	</g>
	<g id="Layer_44">
		<g class="st1">
			<g>
				<path d="M16.7,14.5c-0.1,0-0.2-0.1-0.2-0.2v-1.6c0-0.1,0.1-0.2,0.2-0.2h1.6c0.1,0,0.2,0.1,0.2,0.2v1.6c0,0.1-0.1,0.2-0.2,0.2
					C18.3,14.5,16.7,14.5,16.7,14.5z"/>
				<path d="M12.7,14.5c-0.1,0-0.2-0.1-0.2-0.2v-1.6c0-0.1,0.1-0.2,0.2-0.2h1.6c0.1,0,0.2,0.1,0.2,0.2v1.6c0,0.1-0.1,0.2-0.2,0.2
					C14.3,14.5,12.7,14.5,12.7,14.5z"/>
				<path d="M8.7,14.5c-0.1,0-0.2-0.1-0.2-0.2v-1.6c0-0.1,0.1-0.2,0.2-0.2h1.6c0.1,0,0.2,0.1,0.2,0.2v1.6c0,0.1-0.1,0.2-0.2,0.2
					C10.3,14.5,8.7,14.5,8.7,14.5z"/>
			</g>
		</g>
	</g>
	<g id="Layer_45">
		<g class="st1">
			<path d="M20.7,9.1H7.2C7.1,9.1,7,9.2,7,9.3V18c0,0.1,0.1,0.2,0.3,0.2h6.5l2.3,2.3c0,0,0.1,0,0.1,0s0.1,0,0.1,0l2.3-2.3h2.1
				c0.1,0,0.3-0.1,0.3-0.2v-2.2v-1.5v-5C21,9.2,20.9,9.1,20.7,9.1z M20,14.6v0.7v1.4v0.4h-0.4h-1.4l-1,1l-1,1l-1-1l-1-1h-1.4H8v-7
				h7.5h1.4H20v3.1L20,14.6L20,14.6z"/>
			<rect x="10" y="12.1" width="8" height="1"/>
			<rect x="10" y="14.1" width="8" height="1"/>
		</g>
	</g>
	<g id="Layer_46">
		<g class="st1">
			<g>
				<path d="M16,15v5h-5v-5H16 M17,14h-7v7h7V14L17,14z"/>
			</g>
			<line class="st4" x1="10.2" y1="14.5" x2="8" y2="16.7"/>
			<line class="st4" x1="19" y1="16.7" x2="16.8" y2="14.5"/>
			<g>
				<path d="M15.7,9.4l-2.2,2.2l-2.1-2.1l-0.7,0.7l2.7,2.7c0.1,0.1,0.3,0.1,0.4,0l2.8-2.8L15.7,9.4z"/>
			</g>
			<rect x="13" y="6" width="1" height="5.9"/>
		</g>
	</g>
	<g id="Layer_47">
		<g class="st1">
			<path d="M19.9,13.6c0-3.5-2.9-6.4-6.4-6.4s-6.4,2.9-6.4,6.4c0,3.5,2.9,6.4,6.4,6.4c1.2,0,2.2-0.3,3.2-0.9l1.5,0.9l-0.4-1.7
				C19.1,17.1,19.9,15.5,19.9,13.6z M16.7,17.9c0,0-0.1,0.1-0.1,0.1c-0.3,0.2-0.6,0.4-1,0.6C15,18.8,14.3,19,13.5,19
				c-3,0-5.4-2.4-5.4-5.4c0-3,2.4-5.4,5.4-5.4c3,0,5.4,2.4,5.4,5.4c0,1.3-0.5,2.5-1.3,3.5C17.3,17.4,17.1,17.6,16.7,17.9z"/>
			<rect x="10" y="11.9" width="7" height="1"/>
			<rect x="10" y="14" width="5" height="1"/>
		</g>
	</g>
	<g id="Layer_48">
		<g id="Layer_49" class="st1">
			<g>
				<path class="st2" d="M14.1,14.9c-0.2,0.1-0.4,0.1-0.6,0.1c-0.8,0-1.5-0.7-1.5-1.5c0-0.6,0.4-1.2,0.9-1.4c0,0,0-0.1,0-0.1v-11
					C6.3,1.4,1,6.9,1,13.6c0,6.9,5.6,12.5,12.5,12.5c3.3,0,6.2-1.3,8.5-3.3c0,0,0,0,0,0L14.1,14.9z"/>
				<circle class="st2" cx="13.5" cy="13.6" r="0.5"/>
				<path d="M13.8,0.1L13.6,0l0,0.1c0,0-0.1,0-0.1,0C6,0.1,0,6.1,0,13.6C0,21,6,27.1,13.5,27.1S27,21,27,13.6
					C27,6.2,21.1,0.2,13.8,0.1z M13.5,13.1c0.3,0,0.5,0.2,0.5,0.5s-0.2,0.5-0.5,0.5S13,13.9,13,13.6S13.2,13.1,13.5,13.1z
					 M13.5,26.1C6.6,26.1,1,20.5,1,13.6C1,6.9,6.3,1.4,12.9,1.1v11c0,0,0,0.1,0,0.1c-0.6,0.2-0.9,0.8-0.9,1.4c0,0.8,0.7,1.5,1.5,1.5
					c0.2,0,0.4-0.1,0.6-0.1l7.8,7.8c0,0,0,0,0,0C19.7,24.8,16.8,26.1,13.5,26.1z"/>
			</g>
		</g>
	</g>
	<g id="Layer_50">
		<path class="st1" d="M20.8,9.9l-0.4-0.4c-0.1-0.1-0.2-0.1-0.3-0.1l-6.2,6.2L7.7,9.4c-0.1-0.1-0.2,0-0.3,0.1L7,9.9
			C6.9,10,6.9,10.1,7,10.2l6.8,6.8c0,0,0,0,0.1,0c0,0,0,0,0,0c0,0,0,0,0,0c0,0,0.1,0,0.1,0l0.1-0.1l0,0l0.4-0.4l0,0l6.4-6.4
			C20.9,10.1,20.9,10,20.8,9.9z"/>
	</g>
	<g id="Layer_52" class="st1">
		<g>
			<g class="st0">
				<path class="st1" d="M13,3c6.6,0,12,5.4,12,12s-5.4,12-12,12S1,21.6,1,15S6.4,3,13,3 M13,2C5.8,2,0,7.8,0,15s5.8,13,13,13
					s13-5.8,13-13S20.2,2,13,2L13,2z"/>
			</g>
			<g>
				<path class="st2" d="M17.7,10.1c0.3,0,0.5,0.2,0.5,0.5s-0.2,0.5-0.5,0.5h-5.4l1,1h4.4c0.3,0,0.5,0.2,0.5,0.5s-0.2,0.5-0.5,0.5
					h-3.4l1,1h2.4c0.3,0,0.5,0.2,0.5,0.5s-0.2,0.5-0.5,0.5h-1.4l1,1h0.4c0.3,0,0.5,0.2,0.5,0.5c0,0.1,0,0.2-0.1,0.3l1.8,1.8V8.1H9.3
					l2,2L17.7,10.1L17.7,10.1z"/>
				<path class="st2" d="M10.1,17.1c-0.3,0-0.5-0.2-0.5-0.5s0.2-0.5,0.5-0.5h5.7l-1-1h-4.7c-0.3,0-0.5-0.2-0.5-0.5s0.2-0.5,0.5-0.5
					h3.7l-1-1h-2.7c-0.3,0-0.5-0.2-0.5-0.5s0.2-0.5,0.5-0.5h1.7l-1-1h-0.7c-0.3,0-0.5-0.2-0.5-0.5c0-0.2,0.1-0.4,0.3-0.4l-2-2v10.9
					h10.9l-2-2H10.1z"/>
				<path d="M23.1,21.9l-2.2-2.2V7.4c0-0.1-0.1-0.2-0.3-0.2H8.3L5.7,4.5L5,5.2L7,7.3c0,0,0,0.1,0,0.1v12.5c0,0.1,0.1,0.2,0.3,0.2
					h12.6l2.5,2.5L23.1,21.9z M19.9,8.1v10.6l-1.8-1.8c0.1-0.1,0.1-0.2,0.1-0.3c0-0.3-0.2-0.5-0.5-0.5h-0.4l-1-1h1.4
					c0.3,0,0.5-0.2,0.5-0.5s-0.2-0.5-0.5-0.5h-2.4l-1-1h3.4c0.3,0,0.5-0.2,0.5-0.5s-0.2-0.5-0.5-0.5h-4.4l-1-1h5.4
					c0.3,0,0.5-0.2,0.5-0.5s-0.2-0.5-0.5-0.5h-6.4l-2-2H19.9z M8,19.1V8.2l2,2c-0.2,0.1-0.3,0.2-0.3,0.4c0,0.3,0.2,0.5,0.5,0.5h0.7
					l1,1h-1.7c-0.3,0-0.5,0.2-0.5,0.5s0.2,0.5,0.5,0.5h2.7l1,1h-3.7c-0.3,0-0.5,0.2-0.5,0.5s0.2,0.5,0.5,0.5h4.7l1,1h-5.7
					c-0.3,0-0.5,0.2-0.5,0.5s0.2,0.5,0.5,0.5h6.7l2,2C18.8,19.1,8,19.1,8,19.1z"/>
			</g>
		</g>
	</g>
</g>
<g id="Warstwa_2">
	<g>
		<path d="M12.9,1.1c3.2,0,6.2,1.2,8.5,3.5c2.3,2.3,3.5,5.3,3.5,8.5s-1.2,6.2-3.5,8.5s-5.3,3.5-8.5,3.5c-3.2,0-6.2-1.2-8.5-3.5
			c-2.3-2.3-3.5-5.3-3.5-8.5c0-3.2,1.2-6.2,3.5-8.5C6.7,2.4,9.7,1.1,12.9,1.1 M12.9,0.1c-3.3,0-6.7,1.3-9.2,3.8
			c-5.1,5.1-5.1,13.3,0,18.4c2.5,2.5,5.9,3.8,9.2,3.8c3.3,0,6.7-1.3,9.2-3.8c5.1-5.1,5.1-13.3,0-18.4C19.5,1.4,16.2,0.1,12.9,0.1
			L12.9,0.1z"/>
		<path d="M17.3,12.9c0-0.1-0.1-0.3-0.2-0.3l-3.8,0l0-3.9c0-0.1-0.1-0.1-0.3-0.1l-0.5,0c-0.1,0-0.3,0.1-0.3,0.2l0,3.9l-3.9,0
			c-0.1,0-0.1,0.1-0.1,0.3l0,0.5c0,0.1,0.1,0.3,0.2,0.3l3.9,0l0,3.8c0,0.1,0.1,0.2,0.3,0.2l0.5,0c0.1,0,0.3-0.1,0.3-0.2l0-3.8l3.8,0
			c0.1,0,0.2-0.1,0.2-0.3L17.3,12.9z"/>
	</g>
</g>
</svg>
