<svg width="27" height="27" viewBox="0 0 27 27" fill="none" xmlns="http://www.w3.org/2000/svg">
<rect opacity="0.5" x="0.5" y="0.5" width="26" height="26" rx="13" stroke="#FE5E7C"/>
<path opacity="0.5" d="M16.4877 14.7825L14.0186 20.25C13.5274 20.25 13.0564 20.058 12.7091 19.7162C12.3618 19.3744 12.1667 18.9109 12.1667 18.4275V15.9975L8.67279 15.9975C8.49383 15.9995 8.31657 15.9632 8.15329 15.8911C7.99001 15.819 7.84462 15.7128 7.72718 15.5799C7.60975 15.447 7.52308 15.2905 7.47318 15.1214C7.42328 14.9522 7.41134 14.7744 7.4382 14.6003L8.29007 9.13282C8.33471 8.8431 8.48425 8.57903 8.71112 8.38924C8.93799 8.19946 9.22692 8.09677 9.52466 8.10008L16.4877 8.10008M16.4877 14.7825V8.10008M16.4877 14.7825H18.3396C18.6671 14.7825 18.9568 14.7825 19.5741 14.7825C19.5741 14.175 19.5742 13.8898 19.5742 13.5675V9.31507C19.5742 8.99284 19.5742 8.40383 19.5742 8.10008C19.2655 8.10008 18.6671 8.10008 18.3396 8.10008H16.4877" stroke="#FE5E7C" stroke-linecap="round" stroke-linejoin="round"/>
</svg>
