<svg version="1.1" viewBox="0 0 30 30">
  <path class="st0" d="M15,19.8c2.1,0,3.8-1.7,3.8-3.8v-3c0-2.1-1.7-3.8-3.8-3.8c-2.1,0-3.8,1.7-3.8,3.8v3
	C11.2,18.1,12.9,19.8,15,19.8z M11.7,13c0-1.8,1.5-3.3,3.3-3.3s3.3,1.5,3.3,3.3v3c0,1.8-1.5,3.3-3.3,3.3s-3.3-1.5-3.3-3.3V13z M15,2
	C7.8,2,2,7.8,2,15c0,4,1.8,7.5,4.6,9.9C6.7,25,6.8,25.1,7,25.2C9.2,27,12,28,15,28s5.8-1,8-2.8c0.1-0.1,0.3-0.2,0.4-0.3
	C26.2,22.5,28,19,28,15C28,7.8,22.2,2,15,2z M15,27.5c-2.9,0-5.6-1-7.7-2.7c2-2,4.7-3.3,7.7-3.3s5.7,1.3,7.7,3.3
	C20.6,26.5,17.9,27.5,15,27.5z M23.1,24.5c-2-2.1-4.9-3.4-8.1-3.4s-6,1.3-8.1,3.4c-2.7-2.3-4.4-5.7-4.4-9.5C2.5,8.1,8.1,2.5,15,2.5
	S27.5,8.1,27.5,15C27.5,18.8,25.8,22.2,23.1,24.5z"/>
</svg>
