<svg viewBox="0 0 30 30" version="1.1">
  <path d="M 15 1 C 7.2709796 1 1 7.271 1 15 C 1 22.729 7.2709796 29 15 29 C 22.72903 29 29 22.729 29 15 C 29 7.271 22.72903 1 15 1 z M 15 1.5 C 22.45881 1.5 28.5 7.5412 28.5 15 C 28.5 22.4588 22.45881 28.5 15 28.5 C 7.5411995 28.5 1.5 22.4588 1.5 15 C 1.5 7.5412 7.5411995 1.5 15 1.5 z M 14.751953 7.2128906 L 14.751953 7.2167969 L 14.751953 13.246094 L 12.580078 11.054688 L 12.232422 11.402344 C 13.150787 12.343344 14.07808 13.275378 15.007812 14.205078 C 15.928029 13.265878 16.847738 12.326219 17.767578 11.386719 L 17.414062 11.044922 L 15.248047 13.244141 L 15.251953 7.2128906 L 14.751953 7.2128906 z M 11.363281 15.519531 L 8.7832031 18.113281 A 0.25066493 0.25066493 0 1 0 9.1386719 18.466797 L 11.363281 16.230469 L 11.363281 22.777344 L 18.626953 22.777344 L 18.626953 16.234375 L 20.847656 18.466797 A 0.250665 0.250665 0 1 0 21.203125 18.113281 L 18.626953 15.523438 L 18.626953 15.519531 L 18.623047 15.519531 L 11.363281 15.519531 z M 11.863281 16.019531 L 18.126953 16.019531 L 18.126953 22.277344 L 11.863281 22.277344 L 11.863281 16.019531 z " />
</svg>
