<svg viewBox="0 0 30 30" fill="none">
<rect opacity="0.6" x="26.5" y="26.5" width="26" height="26" rx="13" transform="rotate(-180 26.5 26.5)" fill="white" stroke="#68D2D2"/>
<path d="M14.8326 11.0025L14.8326 8.57249C14.8326 8.08913 14.6375 7.62558 14.2902 7.2838C13.9429 6.94201 13.4719 6.75 12.9807 6.75L10.5115 12.2175L10.5115 18.8999L17.4746 18.8999C17.7724 18.9032 18.0613 18.8005 18.2881 18.6108C18.515 18.421 18.6646 18.1569 18.7092 17.8672L19.5611 12.3997C19.5879 12.2256 19.576 12.0478 19.5261 11.8786C19.4762 11.7095 19.3895 11.553 19.2721 11.4201C19.1547 11.2872 19.0093 11.181 18.846 11.1089C18.6827 11.0368 18.5054 11.0005 18.3265 11.0025L14.8326 11.0025ZM10.5115 18.8999L8.65964 18.8999C8.3322 18.8999 7.73375 18.8999 7.42508 18.8999C7.4251 18.5962 7.42505 18.0072 7.42505 17.6849L7.42505 13.4325C7.42505 13.1102 7.42513 12.825 7.42513 12.2175C8.04242 12.2175 8.33221 12.2175 8.65964 12.2175L10.5115 12.2175" fill="#68D2D2"/>
<path d="M10.5115 12.2175L12.9807 6.75C13.4719 6.75 13.9429 6.94201 14.2902 7.2838C14.6375 7.62558 14.8326 8.08913 14.8326 8.57249L14.8326 11.0025L18.3265 11.0025C18.5054 11.0005 18.6827 11.0368 18.846 11.1089C19.0093 11.181 19.1547 11.2872 19.2721 11.4201C19.3895 11.553 19.4762 11.7095 19.5261 11.8786C19.576 12.0478 19.5879 12.2256 19.5611 12.3997L18.7092 17.8672C18.6646 18.1569 18.515 18.421 18.2881 18.6108C18.0613 18.8005 17.7724 18.9032 17.4746 18.8999L10.5115 18.8999M10.5115 12.2175L10.5115 18.8999M10.5115 12.2175L8.65964 12.2175C8.33221 12.2175 8.04242 12.2175 7.42513 12.2175C7.42513 12.825 7.42505 13.1102 7.42505 13.4325L7.42505 17.6849C7.42505 18.0072 7.4251 18.5962 7.42508 18.8999C7.73375 18.8999 8.3322 18.8999 8.65964 18.8999L10.5115 18.8999" stroke="#F9FAFA" stroke-linecap="round" stroke-linejoin="round"/>
</svg>
