<?xml version="1.0" encoding="UTF-8" standalone="no"?>
<svg version="1.1" viewBox="0 0 30 30">
<path d="M 15 0 C 6.6996097 0 0 6.6996097 0 15 C 0 23.300391 6.6996097 30 15 30 C 23.300391 30 30 23.300391 30 15 C 30 6.6996097 23.300391 0 15 0 z M 15 1.1113281 C 22.704055 1.1113281 28.888672 7.2959461 28.888672 15 C 28.888672 22.704055 22.704055 28.888672 15 28.888672 C 7.2959461 28.888672 1.1113281 22.704055 1.1113281 15 C 1.1113281 7.2959461 7.2959461 1.1113281 15 1.1113281 z M 18.310547 8.4375 A 0.55561114 0.55561114 0 0 0 18.222656 8.4453125 L 10.589844 8.4453125 C 10.12731 8.440173 9.6767448 8.5980044 9.3222656 8.8945312 C 8.9678172 9.1910482 8.7324086 9.6062474 8.6621094 10.0625 L 7.7148438 16.136719 A 0.55561114 0.55561114 0 0 0 7.7148438 16.138672 C 7.6725258 16.412968 7.6929724 16.692765 7.7714844 16.958984 C 7.8500164 17.225112 7.9859607 17.47149 8.1699219 17.679688 C 8.3538219 17.887797 8.5796322 18.051748 8.8339844 18.164062 C 9.088328 18.276376 9.3646075 18.333154 9.6425781 18.330078 L 12.962891 18.330078 L 12.962891 20.474609 C 12.962891 21.161201 13.24171 21.819793 13.732422 22.302734 C 14.223154 22.785695 14.885624 23.054686 15.576172 23.054688 A 0.55561114 0.55561114 0 0 0 16.082031 22.728516 L 18.679688 16.980469 L 20.376953 16.980469 L 21.748047 16.980469 A 0.55561114 0.55561114 0 0 0 22.304688 16.425781 L 22.304688 15.074219 L 22.304688 10.349609 L 22.304688 9 A 0.55561114 0.55561114 0 0 0 21.75 8.4453125 L 20.376953 8.4453125 L 18.421875 8.4453125 A 0.55561114 0.55561114 0 0 0 18.310547 8.4375 z M 10.576172 9.5546875 A 0.55561114 0.55561114 0 0 0 10.582031 9.5546875 L 17.763672 9.5546875 L 17.763672 16.304688 L 15.273438 21.822266 C 14.998553 21.760556 14.712859 21.709674 14.511719 21.511719 C 14.230653 21.235104 14.074219 20.86224 14.074219 20.474609 L 14.074219 17.775391 A 0.55561114 0.55561114 0 0 0 13.519531 17.21875 L 9.6367188 17.21875 A 0.55561114 0.55561114 0 0 0 9.6308594 17.21875 C 9.5111412 17.22005 9.3917039 17.196347 9.2832031 17.148438 C 9.1747109 17.100527 9.0790307 17.030584 9.0019531 16.943359 C 8.9249591 16.856219 8.868294 16.75418 8.8359375 16.644531 C 8.8035615 16.534751 8.7970821 16.419233 8.8144531 16.306641 L 9.7597656 10.232422 C 9.7886666 10.044852 9.8854494 9.8732857 10.035156 9.7480469 C 10.184833 9.6228404 10.37706 9.5524739 10.576172 9.5546875 z M 18.875 9.5546875 L 20.376953 9.5546875 L 21.193359 9.5546875 L 21.193359 10.349609 L 21.193359 15.074219 C 21.193359 15.284774 21.193391 15.605775 21.193359 15.869141 L 20.376953 15.869141 L 18.875 15.869141 L 18.875 9.5546875 z " style="color:#000000;font-style:normal;font-variant:normal;font-weight:normal;font-stretch:normal;font-size:medium;line-height:normal;font-family:sans-serif;font-variant-ligatures:normal;font-variant-position:normal;font-variant-caps:normal;font-variant-numeric:normal;font-variant-alternates:normal;font-feature-settings:normal;text-indent:0;text-align:start;text-decoration:none;text-decoration-line:none;text-decoration-style:solid;text-decoration-color:#000000;letter-spacing:normal;word-spacing:normal;text-transform:none;writing-mode:lr-tb;direction:ltr;text-orientation:mixed;dominant-baseline:auto;baseline-shift:baseline;text-anchor:start;white-space:normal;shape-padding:0;clip-rule:nonzero;display:inline;overflow:visible;visibility:visible;opacity:0.5;isolation:auto;mix-blend-mode:normal;color-interpolation:sRGB;color-interpolation-filters:linearRGB;solid-color:#000000;solid-opacity:1;vector-effect:none;fill:#fe5e7c;fill-opacity:1;fill-rule:nonzero;stroke:none;stroke-width:1.11111116;stroke-linecap:butt;stroke-linejoin:miter;stroke-miterlimit:4;stroke-dasharray:none;stroke-dashoffset:0;stroke-opacity:1;color-rendering:auto;image-rendering:auto;shape-rendering:auto;text-rendering:auto;enable-background:accumulate" />
</svg>
