<svg width="17" height="17" viewBox="0 0 17 17" fill="none" xmlns="http://www.w3.org/2000/svg">
<circle cx="8.5" cy="8.5" r="8" stroke="#FE5E7C"/>
<path fill-rule="evenodd" clip-rule="evenodd" d="M11.8208 11.4708C11.9208 11.3708 11.9508 11.2408 11.8908 11.1808L9.19579 8.48579L11.9408 5.74079C12.0008 5.68079 11.9608 5.55079 11.8708 5.45079L11.5208 5.10079C11.4208 5.00079 11.2908 4.97079 11.2308 5.03079L8.48579 7.77579L5.74079 5.03079C5.68079 4.97079 5.55079 5.00079 5.45079 5.10079L5.10079 5.45079C5.00079 5.55079 4.97079 5.68079 5.03079 5.74079L7.77803 8.48356L5.0808 11.1808C5.0208 11.2408 5.0508 11.3708 5.1508 11.4708L5.5008 11.8108C5.6008 11.9108 5.7308 11.9508 5.7908 11.8908L8.48861 9.19298L11.1808 11.8808C11.2408 11.9408 11.3708 11.9108 11.4708 11.8108L11.8208 11.4708Z" fill="#FE5E7C"/>
</svg>
