<svg width="27" height="27" viewBox="0 0 27 27" fill="none" xmlns="http://www.w3.org/2000/svg">
<rect opacity="0.6" x="0.5" y="0.5" width="26" height="26" rx="13" fill="white" stroke="#FE5E7C"/>
<path d="M12.1674 15.9975V18.4275C12.1674 18.9109 12.3625 19.3744 12.7098 19.7162C13.0571 20.058 13.5281 20.25 14.0193 20.25L16.4885 14.7825V8.10008L9.52539 8.10008C9.22765 8.09677 8.93872 8.19946 8.71185 8.38924C8.48498 8.57902 8.33544 8.8431 8.2908 9.13282L7.43893 14.6003C7.41207 14.7744 7.42401 14.9522 7.47391 15.1214C7.5238 15.2905 7.61047 15.447 7.72791 15.5799C7.84535 15.7128 7.99074 15.819 8.15402 15.8911C8.3173 15.9632 8.49456 15.9995 8.67352 15.9975L12.1674 15.9975ZM16.4885 8.10008H18.3404C18.6678 8.10008 19.2663 8.10008 19.5749 8.10008C19.5749 8.40383 19.575 8.99283 19.575 9.31507V13.5675C19.575 13.8898 19.5749 14.175 19.5749 14.7825C18.9576 14.7825 18.6678 14.7825 18.3404 14.7825H16.4885" fill="#FE5E7C"/>
<path d="M16.4885 14.7825L14.0193 20.25C13.5281 20.25 13.0571 20.058 12.7098 19.7162C12.3625 19.3744 12.1674 18.9109 12.1674 18.4275V15.9975L8.67352 15.9975C8.49456 15.9995 8.3173 15.9632 8.15402 15.8911C7.99074 15.819 7.84535 15.7128 7.72791 15.5799C7.61047 15.447 7.5238 15.2905 7.47391 15.1214C7.42401 14.9522 7.41207 14.7744 7.43893 14.6003L8.2908 9.13282C8.33544 8.8431 8.48498 8.57902 8.71185 8.38924C8.93872 8.19946 9.22765 8.09677 9.52539 8.10008L16.4885 8.10008M16.4885 14.7825V8.10008M16.4885 14.7825H18.3404C18.6678 14.7825 18.9576 14.7825 19.5749 14.7825C19.5749 14.175 19.575 13.8898 19.575 13.5675V9.31507C19.575 8.99283 19.5749 8.40383 19.5749 8.10008C19.2663 8.10008 18.6678 8.10008 18.3404 8.10008H16.4885" stroke="#F9FAFA" stroke-linecap="round" stroke-linejoin="round"/>
</svg>
