<svg version="1.1" viewBox="0 0 30 30"><g transform="translate(0,-289.0625)"><path transform="translate(0,289.0625)" d="M 15 2 C 7.826221 2 2 7.82622 2 15 C 2 22.17378 7.826221 28 15 28 C 22.173779 28 28 22.17378 28 15 C 28 7.82622 22.173779 2 15 2 z M 15 3 C 21.633339 3 27 8.36666 27 15 C 27 21.63334 21.633339 27 15 27 C 8.366661 27 3 21.63334 3 15 C 3 8.36666 8.366661 3 15 3 z M 17.275391 9.8125 A 0.50005 0.50005 0 0 0 16.931641 9.9628906 L 11.710938 15.183594 L 16.849609 20.322266 A 0.50005 0.50005 0 1 0 17.556641 19.615234 L 13.125 15.183594 L 17.638672 10.669922 A 0.50005 0.50005 0 0 0 17.275391 9.8125 z "/></g></svg>
