<svg version="1.1" viewBox="414.545 414.5 29.999999 30">
  <path d="m 429.54501,415.5 c -7.72902,0 -14,6.27097 -14,14 0,7.72902 6.27098,14 14,14 7.72903,0 14,-6.27098 14,-14 0,-7.72903 -6.27097,-14 -14,-14 z m 0,0.5 c 7.45881,0 13.5,6.04119 13.5,13.5 0,7.4588 -6.04119,13.5 -13.5,13.5 -7.4588,0 -13.5,-6.0412 -13.5,-13.5 0,-7.45881 6.0412,-13.5 13.5,-13.5 z m -5.14648,8.11914 a 0.250025,0.250025 0 0 0 -0.13672,0.0547 0.250025,0.250025 0 0 0 -0.0195,0.375 l 4.94922,4.94922 -4.94922,4.95117 a 0.250025,0.250025 0 1 0 0.35351,0.35352 l 4.94922,-4.94922 4.94922,4.94922 a 0.250025,0.250025 0 1 0 0.35352,-0.35352 l -4.94922,-4.95117 4.94922,-4.94922 a 0.250025,0.250025 0 0 0 -0.0195,-0.375 0.250025,0.250025 0 0 0 -0.33399,0.0215 l -4.94922,4.94922 -4.94922,-4.94922 a 0.250025,0.250025 0 0 0 -0.17187,-0.0762 0.250025,0.250025 0 0 0 -0.0254,0 z" />
</svg>
