<?xml version="1.0" encoding="utf-8"?>
<!-- Generator: Adobe Illustrator 21.0.0, SVG Export Plug-In . SVG Version: 6.00 Build 0)  -->
<svg version="1.1" id="Warstwa_1" xmlns="http://www.w3.org/2000/svg" xmlns:xlink="http://www.w3.org/1999/xlink" x="0px" y="0px"
	 viewBox="0 0 29 29" style="enable-background:new 0 0 29 29;" xml:space="preserve">
<style type="text/css">
	.st0{display:none;}
	.st1{display:inline;}
	.st2{fill:none;}
	.st3{display:inline;fill:none;}
</style>
<g id="Layer_19">
	<g>
		<path d="M14.5,2C21.4,2,27,7.6,27,14.5S21.4,27,14.5,27C7.6,27,2,21.4,2,14.5S7.6,2,14.5,2 M14.5,1C7,1,1,7,1,14.5S7,28,14.5,28
			C22,28,28,22,28,14.5S22,1,14.5,1L14.5,1z"/>
	</g>
</g>
<g id="Layer_1" class="st0">
	<g class="st1">
		<path d="M14.5,2C21.4,2,27,7.6,27,14.5S21.4,27,14.5,27S2,21.4,2,14.5S7.6,2,14.5,2 M14.5,1C7,1,1,7,1,14.5S7,28,14.5,28
			S28,22,28,14.5S22,1,14.5,1L14.5,1z"/>
	</g>
	<path class="st1" d="M13.8,18.7v-7.2H13c-0.8,0-1.3,0.1-1.6,0.3s-0.5,0.7-0.6,1.5h-0.3l0-1.2l0-1.2h4h4l0,1.2l0,1.2h-0.3
		c-0.1-0.7-0.3-1.2-0.6-1.5s-0.8-0.3-1.6-0.3h-0.8v7.2c0,0.5,0.1,0.8,0.3,1c0.2,0.2,0.5,0.2,1.1,0.2v0.3h-2h-2v-0.3
		c0.5,0,0.9-0.1,1.1-0.2C13.7,19.6,13.8,19.2,13.8,18.7z"/>
</g>
<g id="Layer_2" class="st0">
	<g class="st1">
		<path d="M16.4,15.7c-0.1,0.2-0.1,0.5-0.1,0.7c0,0.2,0.1,0.3,0.3,0.3c0.9,0,2-1.5,2-3.1c0-2.2-1.9-3.6-3.8-3.6
			c-2.4,0-4.3,2-4.3,4.5c0,2.5,2,4.5,4.3,4.5c1.4,0,2.8-0.7,3.5-1.7h0.9c-0.9,1.5-2.6,2.5-4.4,2.5c-2.9,0-5.2-2.3-5.2-5.2
			c0-2.9,2.4-5.2,5.2-5.2c2.6,0,4.7,1.8,4.7,4.3c0,2.4-2,4-3.3,4c-0.5,0-0.9-0.3-0.9-0.9h0c-0.4,0.5-0.9,0.9-1.8,0.9
			c-1.2,0-2-1-2-2.2c0-1.9,1.3-4,3.3-4c0.6,0,1.2,0.3,1.6,1.1h0l0.3-0.9h0.9L16.4,15.7z M13.8,16.7c1.2,0,2.2-1.8,2.2-3
			c0-0.7-0.5-1.3-1.1-1.3c-1.3,0-2.3,1.7-2.3,2.9C12.6,16.1,13.1,16.7,13.8,16.7z"/>
	</g>
</g>
<g id="Layer_3" class="st0">
	<g class="st1">
		<path d="M13,10v3h-3v-3H13 M14,9H9v5h5V9L14,9z"/>
	</g>
	<g class="st1">
		<path d="M13,17v3h-3v-3H13 M14,16H9v5h5V16L14,16z"/>
	</g>
	<g class="st1">
		<path d="M20,10v3h-3v-3H20 M21,9h-5v5h5V9L21,9z"/>
	</g>
	<g class="st1">
		<path d="M20,17v3h-3v-3H20 M21,16h-5v5h5V16L21,16z"/>
	</g>
</g>
<g id="Layer_4" class="st0">
	<g class="st1">
		<path d="M14,3c6.6,0,12,5.4,12,12s-5.4,12-12,12S2,21.7,2,15C2,8.4,7.4,3,14,3 M14,2C6.8,2,1,7.9,1,15s5.8,13,13,13s13-5.8,13-13
			S21.1,2,14,2L14,2z"/>
	</g>
	<g class="st1">
		<path d="M18.5,15c0.3,0,0.5,0.2,0.5,0.5c0,0.3-0.2,0.5-0.5,0.5S18,15.8,18,15.5C18,15.2,18.2,15,18.5,15 M18.5,14
			c-0.8,0-1.5,0.7-1.5,1.5c0,0.8,0.7,1.5,1.5,1.5s1.5-0.7,1.5-1.5C20,14.7,19.3,14,18.5,14L18.5,14z"/>
	</g>
	<g class="st1">
		<polygon class="st2" points="8.9,12 8.9,12.6 8.9,19 21,19 21,12 12.6,12 		"/>
		<path d="M21.8,11h-8.8h-1H9c0,0,0-0.1,0-0.1c0-0.6,0.4-1,1-1h2.7h8.9v-1H9.9c-0.7,0-1.4,0.4-1.7,1c-0.2,0.3-0.3,0.6-0.3,1
			c0,0.1,0,0.2,0,0.2c0,0,0,0,0,0v8.7C7.9,20,8,20,8.2,20h13.6c0.1,0,0.3-0.1,0.3-0.2v-8.7C22,11.1,21.9,11,21.8,11z M21,19H8.9
			v-6.4V12h3.7H21C21,12,21,19,21,19z"/>
	</g>
</g>
<g id="Layer_5" class="st0">
	<path class="st1" d="M23,14H8.8l3-3l-0.7-0.7l-4.1,4.1c-0.1,0.1-0.1,0.3,0,0.4l4.2,4.2l0.7-0.7L8.8,15H23V14z"/>
	<g class="st1">
		<path d="M14,3c6.6,0,12,5.4,12,12s-5.4,12-12,12S2,21.7,2,15C2,8.4,7.4,3,14,3 M14,2C6.8,2,1,7.9,1,15s5.8,13,13,13s13-5.8,13-13
			S21.1,2,14,2L14,2z"/>
	</g>
</g>
<g id="Layer_5_copy" class="st0">
	<path class="st1" d="M6,15h14.2l-3,3l0.7,0.7l4.1-4.1c0.1-0.1,0.1-0.3,0-0.4l-4.2-4.2L17,10.9l3.2,3.2H6V15z"/>
	<g class="st1">
		<path d="M14,3c6.6,0,12,5.4,12,12s-5.4,12-12,12S2,21.7,2,15C2,8.4,7.4,3,14,3 M14,2C6.8,2,1,7.9,1,15s5.8,13,13,13s13-5.8,13-13
			S21.1,2,14,2L14,2z"/>
	</g>
</g>
<g id="Layer_7" class="st0">
	<g class="st1">
		<path d="M14,3c6.6,0,12,5.4,12,12s-5.4,12-12,12S2,21.7,2,15C2,8.4,7.4,3,14,3 M14,2C6.8,2,1,7.9,1,15s5.8,13,13,13s13-5.8,13-13
			S21.1,2,14,2L14,2z"/>
	</g>
	<g class="st1">
		<g>
			<path d="M15,14c-0.6,0-1,0.4-1,1s0.4,1,1,1c0.6,0,1-0.4,1-1S15.5,14,15,14z M21.7,14h-1.3c-0.1-1-0.4-1.5-0.9-2.1l1-1
				c0.1-0.1,0.1-0.2,0.1-0.3l-1.2-1.2c-0.1-0.1-0.2,0-0.3,0.1l-0.9,1C17.5,10.1,17,9.8,16,9.6V8.3C16,8.1,15.9,8,15.8,8h-1.7
				C14,8,14,8.1,14,8.3v1.3c-1,0.1-1.5,0.4-2.1,0.9l-0.9-0.9c-0.1-0.1-0.2-0.1-0.3-0.1l-1.2,1.2c-0.1,0.1,0,0.2,0.1,0.3l0.9,0.9
				C10,12.5,9.7,13,9.6,14H8.2C8.1,14,8,14.1,8,14.2v1.7C8,15.9,8.1,16,8.2,16h1.3c0.1,1,0.4,1.5,0.9,2.1l-1,1
				c-0.1,0.1-0.1,0.2-0.1,0.3l1.2,1.2c0.1,0.1,0.2,0,0.3-0.1l1-1c0.6,0.4,1.1,0.7,2.1,0.9v1.4c0,0.1,0.1,0.2,0.2,0.2h1.7
				c0.1,0,0.2-0.1,0.2-0.2v-1.4c1-0.1,1.5-0.5,2.1-0.9l0.9,0.9c0.1,0.1,0.2,0.1,0.3,0.1l1.2-1.2c0.1-0.1,0-0.2-0.1-0.3l-0.9-0.9
				c0.4-0.6,0.7-1.1,0.9-2.1h1.3c0.1,0,0.3-0.1,0.3-0.2v-1.7C22,14.1,21.8,14,21.7,14z M15,18.5c-1.9,0-3.5-1.6-3.5-3.5
				s1.6-3.5,3.5-3.5c1.9,0,3.5,1.6,3.5,3.5S16.9,18.5,15,18.5z"/>
		</g>
	</g>
</g>
<g id="Layer_8" class="st0">
	<g class="st1">
		<path class="st2" d="M14,8.6L14,8.6C14,8.6,14,8.6,14,8.6C14,8.6,14,8.6,14,8.6c0.2,0,0.4-0.2,0.4-0.3c0-0.2-0.2-0.3-0.3-0.3
			s-0.3,0.2-0.3,0.3C13.7,8.4,13.8,8.6,14,8.6z"/>
		<path class="st2" d="M12.6,20c0.2,0.6,0.8,1,1.4,1c0.7,0,1.2-0.4,1.4-1h0H12.6z"/>
		<path class="st2" d="M16.6,13.5c0-1.1,0-2.5-0.8-3.3c-0.4-0.4-1-0.6-1.8-0.6c-0.8,0-1.4,0.2-1.8,0.6c-0.8,0.8-0.8,2.2-0.8,3.3v0.1
			c0,3-0.8,4.6-1.6,5.4h1.7h1h2.8h1h1.7c-0.8-0.9-1.6-2.4-1.6-5.4C16.6,13.6,16.6,13.5,16.6,13.5z"/>
		<path d="M20.2,19.1C20.2,19.1,20.2,19.1,20.2,19.1c0,0-0.1,0-0.1,0c-0.1,0-2.5-0.3-2.5-5.4v-0.1c0-1.2,0-2.9-1.1-4
			c-0.4-0.4-1-0.7-1.6-0.8C15,8.6,15,8.4,15,8.3c0-0.6-0.5-1-1-1s-1,0.5-1,1c0,0.2,0,0.3,0.1,0.4c-0.6,0.1-1.2,0.4-1.6,0.8
			c-1.1,1.1-1.1,2.7-1.1,4v0.1c0,5.1-2.4,5.4-2.5,5.4c-0.3,0-0.5,0.3-0.5,0.5C7.5,19.8,7.7,20,8,20c0,0,0,0,0,0c0,0,0,0,0.1,0
			c0,0,0,0,0,0h3.4h0c0.2,1.1,1.2,2,2.5,2s2.2-0.9,2.5-2H20c0,0,0,0,0,0c0,0,0,0,0,0c0.3,0,0.5-0.2,0.5-0.5
			C20.5,19.3,20.4,19.1,20.2,19.1z M14,7.9c0.2,0,0.3,0.2,0.3,0.3c0,0.2-0.1,0.3-0.3,0.3c0,0,0,0,0,0c0,0,0,0,0,0l0,0
			c-0.2,0-0.3-0.2-0.3-0.3C13.7,8.1,13.8,7.9,14,7.9z M14,21c-0.7,0-1.2-0.4-1.4-1h2.8h0C15.2,20.6,14.7,21,14,21z M16.4,19h-1h-2.8
			h-1H9.9c0.8-0.9,1.6-2.4,1.6-5.4v-0.1c0-1.1,0-2.5,0.8-3.3c0.4-0.4,1-0.6,1.8-0.6c0.8,0,1.4,0.2,1.8,0.6c0.8,0.8,0.8,2.2,0.8,3.3
			v0.1c0,3,0.8,4.6,1.6,5.4H16.4z"/>
	</g>
</g>
<g id="Layer_9" class="st0">
	<g class="st1">
		<g class="st0">
			<path class="st1" d="M14,3.4c6.6,0,12,5.4,12,12s-5.4,12-12,12S2,22,2,15.4C2,8.8,7.4,3.4,14,3.4 M14,2.4c-7.2,0-13,5.8-13,13
				s5.8,13,13,13s13-5.8,13-13S21.1,2.4,14,2.4L14,2.4z"/>
		</g>
		<path class="st2" d="M13.9,8.6C13.9,8.6,14,8.7,13.9,8.6C14,8.7,14,8.6,13.9,8.6c0.2,0,0.4-0.2,0.4-0.3C14.3,8.1,14.2,8,14,8
			s-0.3,0.2-0.3,0.3C13.6,8.5,13.8,8.6,13.9,8.6z"/>
		<path class="st2" d="M16.6,13.5c0-1.1,0-2.5-0.8-3.3c-0.4-0.4-1-0.6-1.8-0.6c-0.8,0-1.4,0.2-1.8,0.6c-0.8,0.8-0.8,2.2-0.8,3.3v0.1
			c0,3-0.8,4.6-1.6,5.4h1.7h1h2.8h1h1.7c-0.8-0.9-1.6-2.4-1.6-5.4V13.5z"/>
		<path d="M20.2,19.1C20.2,19.1,20.2,19.1,20.2,19.1c0,0-0.1,0-0.1,0c-0.1,0-2.5-0.3-2.5-5.4v-0.1c0-1.2,0-2.9-1.1-4
			c-0.4-0.4-1-0.7-1.6-0.8C14.9,8.6,15,8.5,15,8.3c0-0.6-0.5-1-1-1s-1,0.5-1,1c0,0.2,0,0.3,0.1,0.4c-0.6,0.1-1.2,0.4-1.6,0.8
			c-1.1,1.1-1.1,2.7-1.1,4v0.1c0,5.1-2.4,5.4-2.5,5.4c-0.3,0-0.5,0.3-0.5,0.5c0,0.3,0.2,0.5,0.5,0.5c0,0,0,0,0,0c0,0,0,0,0.1,0
			c0,0,0,0,0,0h3.4h0c0,0,0,0,0,0h4.9c0,0,0,0,0,0H20c0,0,0,0,0,0c0,0,0,0,0,0c0.3,0,0.5-0.2,0.5-0.5C20.5,19.4,20.4,19.2,20.2,19.1
			z M14,8c0.2,0,0.3,0.2,0.3,0.3c0,0.2-0.1,0.3-0.3,0.3c0,0,0,0,0,0c0,0,0,0,0,0c-0.2,0-0.3-0.2-0.3-0.3C13.6,8.1,13.8,8,14,8z
			 M16.4,19.1h-1h-2.8h-1H9.8c0.8-0.9,1.6-2.4,1.6-5.4v-0.1c0-1.1,0-2.5,0.8-3.3c0.4-0.4,1-0.6,1.8-0.6c0.8,0,1.4,0.2,1.8,0.6
			c0.8,0.8,0.8,2.2,0.8,3.3v0.1c0,3,0.8,4.6,1.6,5.4H16.4z"/>
		<path d="M15.1,21.1c0,0.5-0.5,1-1,1s-1-0.4-1-1h-1c0,1.1,0.9,2,2,2c1.1,0,2-0.9,2-2H15.1z"/>
	</g>
</g>
<g id="Layer_10" class="st0">
	<path class="st1" d="M10.8,9c0,0,0.1-0.2,0.1-0.3V8.2C11,8.1,10.9,8,10.8,8H9.7H9.2H9C9,8,9,8.1,9,8.2v0.2v0.3v12.5v0.3v0.3
		C9,21.9,9,22,9,22h1.8c0,0,0.1-0.1,0.1-0.2v-0.5c0-0.1-0.1-0.2-0.1-0.2H10V9L10.8,9L10.8,9z"/>
	<path class="st1" d="M20,14h-6.1l1.6-1.6l-0.7-0.7l-2.7,2.7c-0.1,0.1-0.1,0.3,0,0.4l2.8,2.8l0.7-0.7L13.8,15H20L20,14L20,14z"/>
</g>
<g id="Layer_11" class="st0">
	<g class="st1">
		<path class="st0" d="M14,3c6.6,0,12,5.4,12,12s-5.4,12-12,12S2,21.7,2,15C2,8.4,7.4,3,14,3 M14,2C6.8,2,1,7.9,1,15s5.8,13,13,13
			s13-5.8,13-13S21.1,2,14,2L14,2z"/>
		<path d="M7.7,21.9c-0.1,0-0.1,0-0.2,0c-0.3-0.1-0.4-0.4-0.3-0.6l2.3-6.7c0.1-0.3,0.4-0.4,0.6-0.3l5.9,2l2.7-7.8
			c0.1-0.3,0.4-0.4,0.6-0.3c0.3,0.1,0.4,0.4,0.3,0.6L16.8,17c0,0.1-0.1,0.2-0.3,0.3c-0.1,0.1-0.3,0.1-0.4,0l-5.9-2l-2.1,6.3
			C8.1,21.8,7.9,21.9,7.7,21.9z"/>
	</g>
</g>
<g id="Layer_12" class="st0">
	<g class="st1">
		<g class="st0">
			<path class="st1" d="M14,2c6.6,0,12,5.4,12,12s-5.4,12-12,12S2,20.7,2,14C2,7.4,7.4,2,14,2 M14,1C6.8,1,1,6.9,1,14s5.8,13,13,13
				s13-5.8,13-13S21.1,1,14,1L14,1z"/>
		</g>
		<g>
			<path d="M16,13.5v5h-5v-5L16,13.5 M17,12.5h-7v7h7V12.5L17,12.5z"/>
		</g>
		<g>
			<polygon points="19,10.5 12,10.5 12,11.5 18,11.5 18,17.5 19,17.5 			"/>
		</g>
	</g>
</g>
<g id="Layer_13" class="st0">
	<g class="st1">
		<g>
			<path d="M14.5,8.5c3.6,0,6.5,2.9,6.5,6.5s-2.9,6.5-6.5,6.5S8,18.6,8,15S10.9,8.5,14.5,8.5 M14.5,7.5C10.4,7.5,7,10.9,7,15
				s3.4,7.5,7.5,7.5S22,19.1,22,15S18.6,7.5,14.5,7.5L14.5,7.5z"/>
		</g>
		<circle cx="12.1" cy="13.6" r="1"/>
		<circle cx="17" cy="13.6" r="1"/>
		<path d="M16.8,16.9c-0.4,0.9-1.3,1.5-2.3,1.5s-1.9-0.6-2.3-1.5h-1c0.4,1.5,1.8,2.5,3.4,2.5c1.6,0,2.9-1.1,3.4-2.5H16.8z"/>
	</g>
</g>
<g id="Layer_14" class="st0">
	<g class="st1">
		<g>
			<path d="M14.5,2C21.4,2,27,7.6,27,14.5S21.4,27,14.5,27S2,21.4,2,14.5S7.6,2,14.5,2 M14.5,1C7,1,1,7.1,1,14.5S7,28,14.5,28
				S28,22,28,14.5S22,1,14.5,1L14.5,1z"/>
		</g>
		<g>
			<path d="M21.9,8.8c0,0.1-0.1,0.3-0.3,0.3H8.2C8.1,9,7.9,8.9,7.9,8.8V8.3C7.9,8.1,8.1,8,8.2,8h13.5c0.1,0,0.3,0.1,0.3,0.3V8.8z"/>
			<path d="M15.9,20.8c0,0.1-0.1,0.3-0.3,0.3H8.2c-0.1,0-0.3-0.1-0.3-0.3v-0.5c0-0.1,0.1-0.3,0.3-0.3h7.5c0.1,0,0.3,0.1,0.3,0.3
				V20.8z"/>
			<path d="M13.9,16.8c0,0.1-0.1,0.3-0.3,0.3H8.2c-0.1,0-0.3-0.1-0.3-0.3v-0.5c0-0.1,0.1-0.3,0.3-0.3h5.5c0.1,0,0.3,0.1,0.3,0.3
				V16.8z"/>
			<path d="M15.9,12.8c0,0.1-0.1,0.3-0.3,0.3H8.2c-0.1,0-0.3-0.1-0.3-0.3v-0.5c0-0.1,0.1-0.3,0.3-0.3h7.5c0.1,0,0.3,0.1,0.3,0.3
				V12.8z"/>
			<path d="M21.8,16H20v-1.7c0-0.1-0.1-0.3-0.3-0.3h-0.5c-0.1,0-0.3,0.1-0.3,0.3V16h-1.7c-0.1,0-0.3,0.1-0.3,0.3v0.5
				c0,0.1,0.2,0.2,0.3,0.2H19v1.8c0,0.1,0.1,0.3,0.3,0.3h0.5c0.1,0,0.3-0.1,0.3-0.3V17h1.8c0.1,0,0.2-0.1,0.2-0.2v-0.5
				C22,16.2,21.9,16,21.8,16z"/>
		</g>
	</g>
</g>
<g id="Layer_15" class="st0">
	<g class="st1">
		<g class="st0">
			<path class="st1" d="M14,2c6.6,0,12,5.4,12,12s-5.4,12-12,12S2,20.6,2,14S7.4,2,14,2 M14,1C6.8,1,1,6.8,1,14s5.8,13,13,13
				s13-5.8,13-13S21.2,1,14,1L14,1z"/>
		</g>
		<path d="M21,11.7c0,0.1-0.1,0.3-0.3,0.3H7.2C7.1,12,7,11.8,7,11.7v-0.5C7,11.1,7.1,11,7.2,11h13.5c0.1,0,0.3,0.1,0.3,0.3V11.7z"/>
		<path d="M15,16.8c0,0.1-0.1,0.3-0.3,0.3H7.2C7.1,17,7,16.9,7,16.8v-0.5C7,16.1,7.1,16,7.2,16h7.5c0.1,0,0.3,0.1,0.3,0.3V16.8z"/>
	</g>
</g>
<g id="Layer_16" class="st0">
	<g class="st1">
		<g class="st0">
			<path class="st1" d="M14,3c6.6,0,12,5.4,12,12s-5.4,12-12,12S2,21.6,2,15S7.4,3,14,3 M14,2C6.8,2,1,7.8,1,15s5.8,13,13,13
				s13-5.8,13-13S21.2,2,14,2L14,2z"/>
		</g>
		<g>
			<polygon class="st2" points="16.8,9.4 16.8,11 18.4,11 			"/>
			<polygon class="st2" points="16,12 16,11 16,9 10,9 10,21 19,21 19,12 16,12 			"/>
			<path d="M19.7,11L19.7,11L19.7,11L19.7,11L17,8v0H9C8.9,8,9,8.1,9,8.2v13.5C9,21.9,8.9,22,9,22h10.5c0.1,0,0.5-0.2,0.5-0.3V12
				v-0.9v0C20,11,19.7,11,19.7,11z M16.8,9.4l1.6,1.6h-1.6C16.8,11,16.8,9.4,16.8,9.4z M19,21h-9V9h6v2v1v0h3V21z"/>
		</g>
	</g>
</g>
<g id="Layer_17" class="st0">
	<g class="st1">
		<g class="st0">
			<path class="st1" d="M15,3c6.6,0,12,5.4,12,12s-5.4,12-12,12S3,21.6,3,15S8.4,3,15,3 M15,2C7.8,2,2,7.8,2,15s5.8,13,13,13
				s13-5.8,13-13S22.2,2,15,2L15,2z"/>
		</g>
		<g>
			<polygon class="st2" points="15.5,9.4 15.5,11 17.1,11 			"/>
			<polygon class="st2" points="14.5,12 14.5,11 14.5,9 12.5,9 12.5,21 17.5,21 17.5,12 14.5,12 			"/>
			<path d="M18.5,11L18.5,11L18.5,11L18.5,11l-3-3v0h-3.8c-0.1,0-0.3,0.1-0.3,0.3v13.5c0,0.1,0.1,0.3,0.3,0.3h6.5
				c0.1,0,0.3-0.1,0.3-0.3V12L18.5,11L18.5,11L18.5,11z M15.5,9.4l1.6,1.6h-1.6V9.4z M17.5,21h-5V9h2v2v1v0h3V21z"/>
		</g>
	</g>
</g>
<g id="Layer_18" class="st0">
	<path class="st1" d="M20.7,13L20.7,13L20.7,13L20.7,13l-3-3v0H10c-0.1,0-0.3,0.1-0.3,0.3v8.5c0,0.1,0.1,0.3,0.3,0.3h10.5
		c0.1,0,0.3-0.1,0.3-0.3V14L20.7,13L20.7,13C20.8,13,20.7,13,20.7,13z M17.8,11.4l1.6,1.6h-1.6V11.4z M19.8,18h-9v-7h6v2v1v0h3V18z"
		/>
</g>
<g id="Layer_20" class="st0">
	<path class="st1" d="M18,14.5h-7c-0.1,0-0.3-0.1-0.4-0.2l-2-2.5c-0.2-0.2-0.1-0.5,0.1-0.7c0.2-0.2,0.5-0.1,0.7,0.1l1.9,2.3h6.5
		l1.9-2.3c0.2-0.2,0.5-0.2,0.7-0.1c0.2,0.2,0.3,0.5,0.1,0.7l-2,2.5C18.3,14.4,18.2,14.5,18,14.5z M20,11.5H9v7h11V11.5 M20.8,10.5
		c0.1,0,0.2,0.1,0.2,0.3v8.5c0,0.1-0.1,0.3-0.2,0.3H8.2c-0.1,0-0.2-0.1-0.2-0.3v-8.5c0-0.1,0.1-0.3,0.2-0.3H20.8L20.8,10.5z"/>
</g>
<g id="Layer_21" class="st0">
	<g class="st1">
		<path d="M15,3c6.6,0,12,5.4,12,12s-5.4,12-12,12S3,21.6,3,15S8.4,3,15,3 M15,2C7.8,2,2,7.8,2,15s5.8,13,13,13s13-5.8,13-13
			S22.2,2,15,2L15,2z"/>
	</g>
	<path class="st1" d="M14.6,24.5c-4.1,0-7.5-3.3-7.5-7.5c0-0.3,0.2-0.5,0.5-0.5s0.5,0.2,0.5,0.5c0,3.6,2.9,6.5,6.5,6.5
		s6.5-2.9,6.5-6.5c0-0.3,0.2-0.5,0.5-0.5s0.5,0.2,0.5,0.5C22.1,21.2,18.7,24.5,14.6,24.5z"/>
	<path class="st1" d="M21.6,17.5h-14c-0.3,0-0.5-0.2-0.5-0.5s0.2-0.5,0.5-0.5h14c0.3,0,0.5,0.2,0.5,0.5S21.8,17.5,21.6,17.5z"/>
	<path class="st1" d="M12.1,13.2c-0.3,0-0.5-0.2-0.5-0.5c0-1.1-0.9-2-2-2s-2,0.9-2,2c0,0.3-0.2,0.5-0.5,0.5s-0.5-0.2-0.5-0.5
		c0-1.7,1.3-3,3-3s3,1.3,3,3C12.6,12.9,12.3,13.2,12.1,13.2z"/>
	<path class="st1" d="M21.9,13.2c-0.3,0-0.5-0.2-0.5-0.5c0-1.1-0.9-2-2-2s-2,0.9-2,2c0,0.3-0.2,0.5-0.5,0.5s-0.5-0.2-0.5-0.5
		c0-1.7,1.3-3,3-3s3,1.3,3,3C22.4,12.9,22.2,13.2,21.9,13.2z"/>
</g>
<g id="Layer_22" class="st0">
	<g class="st1">
		<polygon class="st2" points="9.8,17.9 9.8,19.3 11.2,19.3 		"/>
		<rect x="10" y="13.6" transform="matrix(0.7071 -0.7071 0.7071 0.7071 -6.5671 14.3118)" class="st2" width="7.9" height="3"/>
		<rect x="17.3" y="9.3" transform="matrix(0.7072 -0.707 0.707 0.7072 -2.3255 16.0667)" class="st2" width="1.9" height="3"/>
		<path d="M21.3,11.1L18,7.8c0-0.1-0.1-0.1-0.1-0.1c0,0,0,0,0,0l-2.7,2.7v0l-6.2,6.2c0,0,0,0.1,0,0.1l0,0v0.1c0,0,0,0,0,0.1l0,3.2
			c0,0.1,0,0.1,0.1,0.1c0,0,0,0,0.1,0l3.3,0c0,0,0,0,0,0c0,0,0,0,0,0h0.1l0,0c0,0,0.1,0,0.1,0l6.8-6.8l2.1-2.1
			C21.4,11.3,21.3,11.2,21.3,11.1z M9.8,17.9l1.4,1.4H9.8L9.8,17.9z M12.3,18.9l-2.1-2.1l5.6-5.6l2.1,2.1L12.3,18.9z M18.6,12.6
			l-2.1-2.1l1.3-1.3l2.1,2.1L18.6,12.6z"/>
	</g>
</g>
<g id="Layer_23" class="st0">
	<g class="st1">
		<rect x="9.8" y="13.1" transform="matrix(0.7071 -0.7071 0.7071 0.7071 -6.1532 14.4075)" class="st2" width="9" height="3"/>
		<rect x="17.9" y="8.5" transform="matrix(0.7071 -0.7071 0.7071 0.7071 -1.5491 16.3139)" class="st2" width="2" height="3"/>
		<path d="M22,10.3L18.7,7c0-0.1-0.1-0.1-0.1-0.1c0,0,0,0,0,0l-2.7,2.7v0l-7,7c-0.1,0.1-0.1,0.2,0,0.3l3.3,3.3c0,0,0.1,0,0.1,0
			c0.1,0,0.1,0,0.2-0.1l7.4-7.4c0,0,0,0,0,0l2.3-2.3C22.1,10.4,22,10.3,22,10.3z M12.2,18.9l-2.1-2.1l6.3-6.3l2.1,2.1L12.2,18.9z
			 M19.3,11.8l-2.1-2.1l1.4-1.4l2.1,2.1L19.3,11.8z"/>
		<path d="M8.9,20l0-1.5l-1-1l0,3.4c0,0.1,0,0.1,0.1,0.1c0,0,0,0,0.1,0l3.4,0l-1-1C10.5,20,8.9,20,8.9,20z"/>
	</g>
</g>
<g id="Layer_24" class="st0">
	<g class="st1">
		<g class="st0">
			<path class="st1" d="M14,3c6.6,0,12,5.4,12,12s-5.4,12-12,12S2,21.6,2,15S7.4,3,14,3 M14,2C6.8,2,1,7.8,1,15s5.8,13,13,13
				s13-5.8,13-13S21.2,2,14,2L14,2z"/>
		</g>
		<path d="M14.5,8c3.9,0,7,3.1,7,7c0,3.9-3.1,7-7,7c-3.9,0-7-3.1-7-7C7.5,11.1,10.6,8,14.5,8 M14.5,7c-4.4,0-8,3.6-8,8s3.6,8,8,8
			s8-3.6,8-8S18.9,7,14.5,7L14.5,7z"/>
		<path d="M10.6,17h0.9l2.9,0l2.9,0h0.9c-0.4,1.7-2,2.8-3.9,2.8C12.6,19.8,11.1,18.6,10.6,17 M18.8,16c-0.9,0-2.5,0-4.3,0
			s-3.4,0-4.3,0c-0.4,0-0.7,0-0.7,0c0,2.8,2.2,4.8,5,4.8c2.8,0,5-2,5-4.8C19.5,16,19.3,16,18.8,16L18.8,16z"/>
		<path d="M19,14.4c-0.3,0-0.5-0.2-0.5-0.5c0-0.6-0.4-1-1-1s-1,0.4-1,1c0,0.3-0.2,0.5-0.5,0.5c-0.3,0-0.5-0.2-0.5-0.5
			c0-1.1,0.9-2,2-2s2,0.9,2,2C19.5,14.2,19.3,14.4,19,14.4z"/>
		<path d="M13,14.4c-0.3,0-0.5-0.2-0.5-0.5c0-0.6-0.4-1-1-1s-1,0.4-1,1c0,0.3-0.2,0.5-0.5,0.5s-0.5-0.2-0.5-0.5c0-1.1,0.9-2,2-2
			s2,0.9,2,2C13.5,14.2,13.2,14.4,13,14.4z"/>
	</g>
</g>
<g id="Layer_25" class="st0">
	<g class="st1">
		<g class="st0">
			<path class="st1" d="M17,1c6.6,0,12,5.4,12,12s-5.4,12-12,12S5,19.6,5,13S10.4,1,17,1 M17,0C9.8,0,4,5.8,4,13s5.8,13,13,13
				s13-5.8,13-13S24.2,0,17,0L17,0z"/>
		</g>
		<g>
			<path d="M20,9v11H9V9H20 M20.8,8H8.2C8.1,8,8,8.1,8,8.3v12.5C8,20.9,8.1,21,8.2,21h12.5c0.1,0,0.2-0.1,0.2-0.3V8.3
				C21,8.1,20.9,8,20.8,8L20.8,8z"/>
		</g>
		<g>
			<path d="M16,13v7H9v-7H16 M16.8,12H8.2C8.1,12,8,12.1,8,12.2v8.7C8,20.9,8.1,21,8.2,21h8.7c0.1,0,0.2-0.1,0.2-0.2v-8.7
				C17,12.1,16.9,12,16.8,12L16.8,12z"/>
		</g>
	</g>
</g>
<g id="Layer_26" class="st0">
	<g class="st1">
		<g class="st0">
			<path class="st1" d="M14,3c6.6,0,12,5.4,12,12s-5.4,12-12,12S2,21.6,2,15S7.4,3,14,3 M14,2C6.8,2,1,7.8,1,15s5.8,13,13,13
				s13-5.8,13-13S21.2,2,14,2L14,2z"/>
		</g>
		<path d="M17,13.1L17,13.1L17,13.1L17,13.1l-3-3v0H8.3c-0.1,0-0.3,0.1-0.3,0.3v11.5c0,0.1,0.1,0.3,0.3,0.3h8.5
			c0.1,0,0.3-0.1,0.3-0.3v-7.7L17,13.1L17,13.1L17,13.1L17,13.1z M14,11.5l1.6,1.6H14V11.5z M16,21.1H9v-10h4v2v1v0h3V21.1z"/>
		<path d="M21,10.1L21,10.1L21,10.1L21,10.1l-3-3v0h-5.8C12.1,7,12,7.1,12,7.3V9h1V8h4v2v1v0h3v7h-2v1h2.8c0.1,0,0.3-0.1,0.3-0.3
			v-7.7L21,10.1L21,10.1L21,10.1L21,10.1z M18,10.1V8.5l1.6,1.6H18z"/>
	</g>
</g>
<g id="Layer_27" class="st0">
	<g class="st1">
		<g class="st0">
			<path class="st1" d="M15,2c6.6,0,12,5.4,12,12s-5.4,12-12,12S3,20.6,3,14S8.4,2,15,2 M15,1C7.8,1,2,6.8,2,14s5.8,13,13,13
				s13-5.8,13-13S22.2,1,15,1L15,1z"/>
		</g>
		<g>
			<path d="M16,13v3h-3v-3H16 M16.9,12h-4.8C12,12,12,12,12,12.1v4.8c0,0.1,0,0.1,0.1,0.1h4.8c0.1,0,0.1,0,0.1-0.1L16.9,12
				C17,12,17,12,16.9,12L16.9,12z"/>
		</g>
		<g>
			<path d="M9,11V9.1h2V8H8.2C8.1,8,8,8.1,8,8.3V11H9z"/>
			<path d="M9,18H8v2.8C8,20.9,8.1,21,8.2,21H11v-0.9H9V18z"/>
		</g>
		<g>
			<path d="M20,11h1V8.3C21,8.1,20.9,8,20.8,8H18v1.1h2V11z"/>
			<path d="M20,18v2.1h-2V21h2.8c0.1,0,0.2-0.1,0.2-0.2V18H20z"/>
		</g>
	</g>
</g>
<g id="Layer_28" class="st0">
	<path class="st1" d="M20.8,8H19V7.5C19,7.2,18.8,7,18.5,7S18,7.2,18,7.5V8h-7V7.5C11,7.2,10.8,7,10.5,7S10,7.2,10,7.5V8H8.2
		C8.1,8,8,8.1,8,8.2v12.6C8,20.9,8.1,21,8.2,21h12.5c0.1,0,0.2-0.1,0.2-0.2V8.2C21,8.1,20.9,8,20.8,8z M10,9v0.5
		c0,0.3,0.2,0.5,0.5,0.5S11,9.8,11,9.5V9h7v0.5c0,0.3,0.2,0.5,0.5,0.5S19,9.8,19,9.5V9h1v5H9V9H10z M9,20v-5h11v5H9z"/>
</g>
<g id="Layer_29" class="st0">
	<g class="st1">
		<g>
			<g>
				<path d="M16.3,8.7l2.7,1.5l1.6,2.7l-7.9,7.9l-4.2-4.2L16.3,8.7 M16.1,7.5c-0.1,0-0.1,0-0.2,0.1l-8.9,8.9c-0.1,0.1-0.1,0.3,0,0.4
					l5.3,5.3c0,0,0.1,0.1,0.2,0.1s0.1,0,0.2-0.1l8.9-8.9c0.1-0.1,0.1-0.3,0-0.4l-2-3.4l-3.3-1.9C16.3,7.5,16.2,7.5,16.1,7.5
					L16.1,7.5z"/>
			</g>
			<circle cx="16.9" cy="12.3" r="1"/>
		</g>
	</g>
</g>
<g id="Layer_30" class="st0">
</g>
<g id="Layer_31" class="st0">
	<g class="st1">
		<g class="st0">
			<path class="st1" d="M14,3c6.6,0,12,5.4,12,12s-5.4,12-12,12S2,21.6,2,15S7.4,3,14,3 M14,2C6.8,2,1,7.8,1,15s5.8,13,13,13
				s13-5.8,13-13S21.2,2,14,2L14,2z"/>
		</g>
		<path d="M13.1,10.3l-0.5-0.5c-0.1-0.1-0.3-0.1-0.4,0l-3.1,3.1c0,0,0,0,0,0.1L8,11.9c-0.1-0.1-0.3-0.1-0.4,0l-0.5,0.5
			c-0.1,0.1-0.1,0.3,0,0.4l1.7,1.7c0.1,0.1,0.3,0.1,0.4,0L9.7,14c0,0,0.1-0.1,0.1-0.2c0.1,0,0.1,0,0.2-0.1l3.1-3.1
			C13.2,10.5,13.2,10.4,13.1,10.3z"/>
		<path d="M23,12c0,0.1-0.1,0.1-0.3,0.1h-6.5c-0.1,0-0.3-0.1-0.3-0.1v-0.8c0-0.1,0.1-0.1,0.3-0.1h6.5c0.1,0,0.3,0.1,0.3,0.1V12z"/>
		<path d="M23,17.9c0,0.1-0.1,0.1-0.3,0.1h-6.5C16.1,18,16,18,16,17.9v-0.8c0-0.1,0.1-0.1,0.3-0.1h6.5c0.1,0,0.3,0.1,0.3,0.1V17.9z"
			/>
		<path d="M13.1,15.9l-0.5-0.5c-0.1-0.1-0.3-0.1-0.4,0l-3.1,3.1c0,0,0,0,0,0.1L8,17.6c-0.1-0.1-0.3-0.1-0.4,0l-0.5,0.5
			c-0.1,0.1-0.1,0.3,0,0.4l1.7,1.7c0.1,0.1,0.3,0.1,0.4,0l0.5-0.5c0,0,0.1-0.1,0.1-0.2c0.1,0,0.1,0,0.2-0.1l3.1-3.1
			C13.2,16.2,13.2,16,13.1,15.9z"/>
	</g>
</g>
<g id="Layer_32" class="st0">
	<g class="st1">
		<g class="st0">
			<path class="st1" d="M14,3c6.6,0,12,5.4,12,12s-5.4,12-12,12S2,21.6,2,15S7.4,3,14,3 M14,2C6.8,2,1,7.8,1,15s5.8,13,13,13
				s13-5.8,13-13S21.2,2,14,2L14,2z"/>
		</g>
		<g>
			<path class="st2" d="M20,12v-2h-1v0.5c0,0.3-0.2,0.5-0.5,0.5S18,10.8,18,10.5V10h-7v0.5c0,0.3-0.2,0.5-0.5,0.5S10,10.8,10,10.5
				V10H9v2H20z"/>
			<rect x="9" y="13" class="st2" width="11" height="7"/>
			<path d="M20.8,9H19V8.5C19,8.2,18.8,8,18.5,8S18,8.2,18,8.5V9h-7V8.5C11,8.2,10.8,8,10.5,8S10,8.2,10,8.5V9H8.2
				C8.1,9,8,9.1,8,9.2v11.6C8,20.9,8.1,21,8.2,21h12.5c0.1,0,0.2-0.1,0.2-0.2V9.2C21,9.1,20.9,9,20.8,9z M10,10v0.5
				c0,0.3,0.2,0.5,0.5,0.5s0.5-0.2,0.5-0.5V10h7v0.5c0,0.3,0.2,0.5,0.5,0.5s0.5-0.2,0.5-0.5V10h1v2H9v-2H10z M9,20v-7h11v7H9z"/>
		</g>
	</g>
</g>
<g id="Layer_33" class="st0">
	<g class="st1">
		<g>
			<path d="M16.7,14.4l-2.2,2.2l-2.1-2.1l-0.7,0.7l2.7,2.7c0.1,0.1,0.3,0.1,0.4,0l2.8-2.8L16.7,14.4z"/>
		</g>
		<path d="M20,20.3c0-0.1-0.2-0.2-0.4-0.2H9.4C9.2,20,9,20.1,9,20.3v0.5C9,20.9,9.2,21,9.4,21h10.3c0.2,0,0.4-0.1,0.4-0.2L20,20.3
			L20,20.3z"/>
		<rect x="14" y="8.2" width="1" height="8.7"/>
	</g>
</g>
<g id="Layer_34" class="st0">
	<g class="st1">
		<g>
			<g>
				<circle cx="15" cy="14" r="1"/>
			</g>
		</g>
		<path d="M22,15v-2h-1.6c-0.1-0.8-0.5-1.5-0.9-2.1l1.2-1.2l-1.4-1.4l-1.2,1.2C17.5,9,16.8,8.7,16,8.6V7h-2v1.6
			c-0.8,0.1-1.5,0.4-2.1,0.8l-1.2-1.2L9.3,9.7l1.1,1.1C10,11.5,9.7,12.2,9.6,13H8v2h1.6c0.1,0.8,0.4,1.5,0.8,2.1l-1.2,1.2l1.4,1.4
			l1.1-1.1c0.6,0.4,1.4,0.8,2.2,0.9V21h2v-1.6c0.8-0.1,1.5-0.5,2.1-0.9l1.2,1.2l1.4-1.4l-1.2-1.2c0.4-0.6,0.7-1.3,0.8-2.1L22,15
			L22,15z M15,17.5c-1.9,0-3.5-1.6-3.5-3.5s1.6-3.5,3.5-3.5s3.5,1.6,3.5,3.5C18.5,15.9,16.9,17.5,15,17.5z"/>
	</g>
</g>
<g id="Layer_35" class="st0">
	<g class="st1">
		<path class="st2" d="M20.8,24.9C19.1,23.1,16.7,22,14,22c-2.7,0-5.1,1.1-6.8,2.9C9.1,26.2,11.5,27,14,27
			C16.5,27,18.9,26.2,20.8,24.9z"/>
		<path class="st2" d="M14,21c3,0,5.7,1.3,7.6,3.3c2.7-2.2,4.4-5.5,4.4-9.3c0-6.6-5.4-12-12-12C7.4,3,2,8.4,2,15
			c0,3.7,1.7,7.1,4.4,9.3C8.3,22.3,11,21,14,21z"/>
		<path d="M14,2C6.8,2,1,7.8,1,15c0,4,1.8,7.6,4.7,10c0.3,0.2,0.5,0.4,0.8,0.6C8.7,27.1,11.2,28,14,28s5.3-0.9,7.5-2.4
			c0.3-0.2,0.5-0.4,0.8-0.6c2.9-2.4,4.7-6,4.7-10C27,7.8,21.2,2,14,2z M14,27c-2.5,0-4.9-0.8-6.8-2.1C8.9,23.1,11.3,22,14,22
			c2.7,0,5.1,1.1,6.8,2.9C18.9,26.2,16.5,27,14,27z M21.6,24.3C19.7,22.3,17,21,14,21c-3,0-5.7,1.3-7.6,3.3C3.7,22.1,2,18.7,2,15
			C2,8.4,7.4,3,14,3c6.6,0,12,5.4,12,12C26,18.7,24.3,22.1,21.6,24.3z"/>
		<path d="M14,9c-2.2,0-4,1.8-4,4c0,0.5,0,0.5,0,1.5c0,0.8,0,1,0,1.5c0,2.2,1.8,4,4,4s4-1.8,4-4c0-0.5,0,0,0-1.5c0-0.8,0-1.2,0-1.4
			c0-0.1,0-0.1,0-0.1c0,0,0,0,0,0C18,10.8,16.2,9,14,9z M17,13.3c0,1,0,0,0,1.2c0,0.8,0,0.1,0,1.2c0,0.1,0,0.2,0,0.3
			c0,1.7-1.3,3-3,3s-3-1.3-3-3c0-0.1,0,0.2,0-0.3c0,0,0,0,0,0v-2.3c0,0,0,0,0,0c0-0.1,0,0.8,0-0.3c0,0,0,0,0,0v-0.1l0,0
			c0-1.6,1.4-2.9,3-2.9c1.7,0,3,1.3,3,3C17,13.1,17,13.2,17,13.3z"/>
	</g>
</g>
<g id="Layer_36" class="st0">
	<g class="st1">
		<path d="M21.5,16.1L21.5,16.1c1.5,0,2.9,0.6,3.9,1.6s1.6,2.4,1.6,3.9c0,1.5-0.6,2.9-1.6,3.9c-1,1-2.4,1.6-3.9,1.6
			c-1.5,0-2.9-0.6-3.9-1.6c-2.1-2.1-2.1-5.6,0-7.8C18.6,16.7,20,16.1,21.5,16.1 M21.5,15.1c-1.7,0-3.3,0.6-4.6,1.9
			c-2.5,2.5-2.5,6.7,0,9.2c1.3,1.3,2.9,1.9,4.6,1.9s3.3-0.6,4.6-1.9c2.5-2.5,2.5-6.7,0-9.2C24.8,15.8,23.2,15.1,21.5,15.1L21.5,15.1
			z"/>
	</g>
	<path class="st1" d="M25,21.4c0-0.1-0.1-0.3-0.1-0.3H22v-2.9c0-0.1-0.1-0.1-0.3-0.1h-0.5c-0.1,0-0.3,0.1-0.3,0.1v2.9h-2.9
		c-0.1,0-0.1,0.1-0.1,0.3v0.5c0,0.1,0.1,0.3,0.1,0.3l2.9,0V25c0,0.1,0.1,0.1,0.3,0.1l0.5,0c0.1,0,0.3-0.1,0.3-0.1v-2.9l2.8,0
		c0.1,0,0.1-0.1,0.1-0.3L25,21.4z"/>
	<path class="st3" d="M17,13.3c0-0.1,0-0.2,0-0.3c0-1.7-1.3-3-3-3c-1.6,0-2.9,1.3-3,2.9V13c0,0,0,0,0,0c0,0.1,0,0.3,0,0.3
		c0,0,0,0,0,0c0,0,0,0,0,0v2.3c0,0,0,0,0,0c0,0.2,0,0.3,0,0.3c0,0,0,0,0,0c0,0,0,0,0,0c0,1.7,1.3,3,3,3c0,0,0,0,0,0
		c0.5-1.7,1.5-3.2,3-4.1c0-0.1,0-0.2,0-0.4C17,13.4,17,14.3,17,13.3z"/>
	<path class="st1" d="M14,19c-1.7,0-3-1.3-3-3c0,0,0,0,0,0c0,0,0,0,0,0c0,0,0-0.1,0-0.3c0,0,0,0,0,0v-2.3c0,0,0,0,0,0c0,0,0,0,0,0
		c0,0.6,0-0.1,0,0c0-0.1,0-0.2,0-0.3c0,0,0,0,0,0v-0.1c0-1.6,1.4-2.9,3-2.9c1.7,0,3,1.3,3,3c0,0.1,0,0.2,0,0.3c0,1,0,0,0,1.2
		c0,0.2,0,0.3,0,0.4c0.3-0.2,0.6-0.4,1-0.5c0-0.7,0-1.1,0-1.2c0-0.1,0-0.1,0-0.1c0,0,0,0,0,0c0-2.2-1.8-4-4-4c-2.2,0-4,1.8-4,4
		c0,0.5,0,0.5,0,1.5c0,0.8,0,1,0,1.5c0,2.1,1.7,3.9,3.8,4C13.8,19.6,13.9,19.3,14,19C14,19,14,19,14,19z"/>
	<path class="st1" d="M11,13.3C11,13.3,11,13.9,11,13.3L11,13.3z"/>
	<path class="st1" d="M6.4,24.3C3.7,22.1,2,18.7,2,15C2,8.4,7.4,3,14,3c6,0,11,4.4,11.8,10.2c0.1,0,0.1,0,0.2,0.1h0.8
		C26,6.9,20.6,2,14,2C6.8,2,1,7.8,1,15c0,4,1.8,7.6,4.7,10c0.3,0.2,0.5,0.4,0.8,0.6C8.7,27.1,11.2,28,14,28c0.6,0,1.3-0.1,1.9-0.2
		v-1C15.3,26.9,14.6,27,14,27c-2.5,0-4.9-0.8-6.8-2.1c1.7-1.7,4-2.8,6.6-2.9c-0.1-0.3-0.1-0.7-0.1-1C10.9,21.1,8.3,22.3,6.4,24.3z"
		/>
</g>
<g id="Layer_37" class="st0">
	<g class="st1">
		<g class="st0">
			<path class="st1" d="M14,3c6.6,0,12,5.4,12,12s-5.4,12-12,12S2,21.6,2,15S7.4,3,14,3 M14,2C6.8,2,1,7.8,1,15s5.8,13,13,13
				s13-5.8,13-13S21.2,2,14,2L14,2z"/>
		</g>
		<g>
			<path d="M17.9,17.3c0.1,0.1,0,0.2-0.1,0.3l-0.3,0.4C17.4,18,17.3,18,17.2,18L11,11.8c-0.1-0.1,0-0.2,0.1-0.3l0.4-0.4
				c0.1-0.1,0.2-0.1,0.3-0.1L17.9,17.3z"/>
			<path d="M11.8,18c-0.1,0.1-0.2,0-0.3-0.1l-0.4-0.3c-0.1-0.1-0.1-0.2-0.1-0.3l6.1-6.1c0.1-0.1,0.2,0,0.3,0.1l0.4,0.4
				c0.1,0.1,0.1,0.2,0.1,0.3L11.8,18z"/>
		</g>
	</g>
</g>
<g id="Layer_38" class="st0">
	<g class="st1">
		<g class="st0">
			<path class="st1" d="M15,3c6.6,0,12,5.4,12,12s-5.4,12-12,12C8.4,27,3,21.6,3,15C3,8.4,8.4,3,15,3 M15,2C7.8,2,2,7.8,2,15
				s5.8,13,13,13c7.2,0,13-5.8,13-13S22.2,2,15,2L15,2z"/>
		</g>
		<path d="M20.3,11.7l-0.3-0.3c-0.1-0.1-0.3-0.1-0.4,0l-5.4,5.4l-2.6-2.6c-0.1-0.1-0.3-0.1-0.4,0l-0.5,0.5c-0.1,0.1-0.1,0.3,0,0.4
			l2.8,2.8l0.3,0.3c0.1,0.1,0.3,0.1,0.4,0l6-6C20.4,12,20.4,11.8,20.3,11.7z"/>
	</g>
</g>
<g id="Layer_39" class="st0">
	<g class="st1">
		<g class="st0">
			<path class="st1" d="M14.3,1.8c6.9,0,12.5,5.6,12.5,12.5s-5.6,12.5-12.5,12.5S1.8,21.1,1.8,14.3S7.4,1.8,14.3,1.8 M14.3,0.8
				c-7.5,0-13.5,6-13.5,13.5s6,13.5,13.5,13.5s13.5-6,13.5-13.5S21.7,0.8,14.3,0.8L14.3,0.8z"/>
		</g>
		<rect x="13.9" y="1.4" transform="matrix(0.7071 -0.7071 0.7071 0.7071 -5.9562 14.3805)" width="1" height="26"/>
	</g>
</g>
<g id="Layer_40">
	<g>
		<g class="st0">
			<path class="st1" d="M15,2c6.6,0,12,5.4,12,12s-5.4,12-12,12S3,20.6,3,14S8.4,2,15,2 M15,1C7.8,1,2,6.8,2,14s5.8,13,13,13
				s13-5.8,13-13S22.2,1,15,1L15,1z"/>
		</g>
		<g>
			<path d="M14.5,10.5c2.5,0,6,2.1,6,4c0,1.9-3.5,4-6,4s-6-2.1-6-4C8.5,12.6,12,10.5,14.5,10.5 M14.5,9.5c-2.8,0-7,2.2-7,5
				c0,2.8,4.2,5,7,5c2.8,0,7-2.2,7-5C21.5,11.7,17.3,9.5,14.5,9.5L14.5,9.5z"/>
		</g>
		<g>
			<path d="M14.5,12.9c0.8,0,1.5,0.7,1.5,1.5s-0.7,1.5-1.5,1.5S13,15.2,13,14.4S13.7,12.9,14.5,12.9 M14.5,11.9
				c-1.4,0-2.5,1.1-2.5,2.5c0,1.4,1.1,2.5,2.5,2.5c1.4,0,2.5-1.1,2.5-2.5C17,13,15.9,11.9,14.5,11.9L14.5,11.9z"/>
		</g>
	</g>
</g>
</svg>
