<svg width="28" height="28" viewBox="0 0 28 28" fill="none" xmlns="http://www.w3.org/2000/svg">
<g clip-path="url(#clip0_976_111483)">
<circle cx="14" cy="14" r="13.5" stroke="#4C5DFF"/>
<path fill-rule="evenodd" clip-rule="evenodd" d="M14.25 6C14.1119 6 14 6.11193 14 6.25V13.5H6.75C6.61193 13.5 6.5 13.6119 6.5 13.75V14.25C6.5 14.3881 6.61193 14.5 6.75 14.5H14V21.75C14 21.8881 14.1119 22 14.25 22H14.75C14.8881 22 15 21.8881 15 21.75V14.5H22.25C22.3881 14.5 22.5 14.3881 22.5 14.25V13.75C22.5 13.6119 22.3881 13.5 22.25 13.5H15V6.25C15 6.11193 14.8881 6 14.75 6H14.25Z" fill="#4C5DFF"/>
</g>
<defs>
<clipPath id="clip0_976_111483">
<rect width="28" height="28" fill="white"/>
</clipPath>
</defs>
</svg>
