<svg width="27" height="27" viewBox="0 0 27 27" fill="none" xmlns="http://www.w3.org/2000/svg">
<rect opacity="0.75" x="26.5" y="26.5" width="26" height="26" rx="13" transform="rotate(-180 26.5 26.5)" stroke="#68D2D2"/>
<path opacity="0.75" d="M10.5123 12.2175L12.9814 6.75C13.4726 6.75 13.9436 6.94201 14.2909 7.2838C14.6382 7.62558 14.8333 8.08913 14.8333 8.57249L14.8333 11.0025L18.3272 11.0025C18.5062 11.0005 18.6834 11.0368 18.8467 11.1089C19.01 11.181 19.1554 11.2872 19.2728 11.4201C19.3903 11.553 19.4769 11.7095 19.5268 11.8786C19.5767 12.0478 19.5887 12.2256 19.5618 12.3997L18.7099 17.8672C18.6653 18.1569 18.5158 18.421 18.2889 18.6108C18.062 18.8005 17.7731 18.9032 17.4753 18.8999L10.5123 18.8999M10.5123 12.2175L10.5123 18.8999M10.5123 12.2175L8.66037 12.2175C8.33294 12.2175 8.04315 12.2175 7.42587 12.2175C7.42587 12.825 7.42578 13.1102 7.42578 13.4325L7.42578 17.6849C7.42578 18.0072 7.42583 18.5962 7.42581 18.8999C7.73448 18.8999 8.33294 18.8999 8.66037 18.8999L10.5123 18.8999" stroke="#68D2D2" stroke-linecap="round" stroke-linejoin="round"/>
</svg>
