<?xml version="1.0" encoding="UTF-8" standalone="no"?>
<svg version="1.1" viewBox="0 0 30 30">
<path d="M 15 0 C 6.6996094 0 0 6.6996094 0 15 C 0 23.300391 6.6996094 30 15 30 C 23.300391 30 30 23.300391 30 15 C 30 6.6996094 23.300391 0 15 0 z M 15 1.1113281 C 22.704054 1.1113281 28.888672 7.2959459 28.888672 15 C 28.888672 22.704054 22.704054 28.888672 15 28.888672 C 7.2959459 28.888672 1.1113281 22.704054 1.1113281 15 C 1.1113281 7.2959459 7.2959459 1.1113281 15 1.1113281 z M 14.423828 6.9453125 A 0.55561114 0.55561114 0 0 0 13.917969 7.2714844 L 11.320312 13.019531 L 9.6230469 13.019531 L 8.25 13.019531 A 0.55561114 0.55561114 0 0 0 7.6953125 13.574219 L 7.6953125 14.925781 L 7.6953125 19.650391 C 7.6953125 20.008559 7.6953347 20.662663 7.6953125 21 A 0.55561114 0.55561114 0 0 0 8.25 21.554688 L 9.6230469 21.554688 L 11.578125 21.554688 A 0.55561114 0.55561114 0 0 0 11.777344 21.554688 L 19.410156 21.554688 C 19.872731 21.559787 20.32329 21.401801 20.677734 21.105469 C 21.032269 20.808903 21.267648 20.393724 21.337891 19.9375 L 22.285156 13.863281 A 0.55561114 0.55561114 0 0 0 22.285156 13.861328 C 22.327576 13.586819 22.306986 13.307102 22.228516 13.041016 C 22.150026 12.775023 22.014266 12.528641 21.830078 12.320312 C 21.646174 12.112127 21.420394 11.948249 21.166016 11.835938 C 20.911717 11.723659 20.635417 11.666847 20.357422 11.669922 L 17.037109 11.669922 L 17.037109 9.5253906 C 17.037109 8.8388308 16.758323 8.1802104 16.267578 7.6972656 C 15.776851 7.2143243 15.114384 6.9453125 14.423828 6.9453125 z M 14.726562 8.1777344 C 15.001447 8.2394424 15.287137 8.2903287 15.488281 8.4882812 C 15.769314 8.7648477 15.925781 9.1378171 15.925781 9.5253906 L 15.925781 12.224609 A 0.55561114 0.55561114 0 0 0 16.480469 12.78125 L 20.363281 12.78125 A 0.55561114 0.55561114 0 0 0 20.369141 12.78125 C 20.488922 12.77995 20.608206 12.803623 20.716797 12.851562 C 20.825306 12.899472 20.921063 12.969492 20.998047 13.056641 C 21.074967 13.143651 21.131667 13.245686 21.164062 13.355469 C 21.196472 13.465382 21.202917 13.58098 21.185547 13.693359 L 20.240234 19.767578 C 20.211354 19.955132 20.114531 20.126741 19.964844 20.251953 C 19.815066 20.377175 19.623032 20.447521 19.423828 20.445312 A 0.55561114 0.55561114 0 0 0 19.417969 20.443359 L 12.236328 20.443359 L 12.236328 13.695312 L 14.726562 8.1777344 z M 8.8066406 14.130859 L 9.6230469 14.130859 L 11.125 14.130859 L 11.125 20.443359 L 9.6230469 20.443359 L 8.8066406 20.443359 C 8.8066293 20.152743 8.8066406 19.860767 8.8066406 19.650391 L 8.8066406 14.925781 C 8.8066406 14.715219 8.8066121 14.394224 8.8066406 14.130859 z " style="color:#000000;font-style:normal;font-variant:normal;font-weight:normal;font-stretch:normal;font-size:medium;line-height:normal;font-family:sans-serif;font-variant-ligatures:normal;font-variant-position:normal;font-variant-caps:normal;font-variant-numeric:normal;font-variant-alternates:normal;font-feature-settings:normal;text-indent:0;text-align:start;text-decoration:none;text-decoration-line:none;text-decoration-style:solid;text-decoration-color:#000000;letter-spacing:normal;word-spacing:normal;text-transform:none;writing-mode:lr-tb;direction:ltr;text-orientation:mixed;dominant-baseline:auto;baseline-shift:baseline;text-anchor:start;white-space:normal;shape-padding:0;clip-rule:nonzero;display:inline;overflow:visible;visibility:visible;opacity:0.75;isolation:auto;mix-blend-mode:normal;color-interpolation:sRGB;color-interpolation-filters:linearRGB;solid-color:#000000;solid-opacity:1;vector-effect:none;fill:#68d2d2;fill-opacity:1;fill-rule:nonzero;stroke:none;stroke-width:1.11111116;stroke-linecap:butt;stroke-linejoin:miter;stroke-miterlimit:4;stroke-dasharray:none;stroke-dashoffset:0;stroke-opacity:1;color-rendering:auto;image-rendering:auto;shape-rendering:auto;text-rendering:auto;enable-background:accumulate" />
</svg>
