<svg xml:space="preserve" xmlns="http://www.w3.org/2000/svg" viewBox="0 0 30 30">
  <g fill-rule="evenodd" clip-rule="evenodd">
    <path d="M15 2.52C8.107 2.52 2.52 8.106 2.52 15c0 6.893 5.587 12.48 12.48 12.48 6.893 0 12.48-5.587 12.48-12.48 0-6.893-5.587-12.48-12.48-12.48zM.25 15C.25 6.854 6.854.25 15 .25S29.75 6.854 29.75 15 23.146 29.75 15 29.75.25 23.146.25 15Z"/>
    <path d="M15.205 5.781c.622 0 1.127.505 1.127 1.127v6.76h6.76a1.127 1.127 0 0 1 0 2.254h-7.887a1.127 1.127 0 0 1-1.127-1.127V6.908c0-.622.505-1.127 1.127-1.127z"/>
  </g>
</svg>