<?xml version="1.0" encoding="utf-8"?>
<!-- Generator: Adobe Illustrator 21.0.0, SVG Export Plug-In . SVG Version: 6.00 Build 0)  -->
<svg version="1.1" id="Warstwa_2" xmlns="http://www.w3.org/2000/svg" xmlns:xlink="http://www.w3.org/1999/xlink" x="0px" y="0px"
	 viewBox="0 0 27 27" style="enable-background:new 0 0 27 27;" xml:space="preserve">
<path d="M14.7,13l4.5-4.5c0.1-0.1,0.1-0.2,0-0.3l-0.3-0.3c-0.1-0.1-0.3-0.1-0.3,0L14,12.3L9.5,7.9c-0.1-0.1-0.2-0.1-0.3,0L8.8,8.2
	c-0.1,0.1-0.1,0.3,0,0.3l4.4,4.4l-4.4,4.4c-0.1,0.1-0.1,0.2,0,0.3l0.3,0.3c0.1,0.1,0.3,0.1,0.3,0l4.4-4.4l4.4,4.4
	c0.1,0.1,0.2,0.1,0.3,0l0.3-0.3c0.1-0.1,0.1-0.3,0-0.3L14.7,13z"/>
</svg>
