<svg width="15" height="16" viewBox="0 0 15 16" fill="none" xmlns="http://www.w3.org/2000/svg">
<path d="M7.48177 4.46454C8.52881 4.46454 9.3776 3.59292 9.3776 2.51773C9.3776 1.44254 8.52881 0.570923 7.48177 0.570923C6.43473 0.570923 5.58594 1.44254 5.58594 2.51773C5.58594 3.59292 6.43473 4.46454 7.48177 4.46454Z" fill="#00284B"/>
<path d="M7.48177 15.9228C8.52881 15.9228 9.3776 15.0512 9.3776 13.976C9.3776 12.9008 8.52881 12.0292 7.48177 12.0292C6.43473 12.0292 5.58594 12.9008 5.58594 13.976C5.58594 15.0512 6.43473 15.9228 7.48177 15.9228Z" fill="#00284B"/>
<path d="M13.0614 10.1937C14.1084 10.1937 14.9572 9.32205 14.9572 8.24686C14.9572 7.17167 14.1084 6.30005 13.0614 6.30005C12.0143 6.30005 11.1655 7.17167 11.1655 8.24686C11.1655 9.32205 12.0143 10.1937 13.0614 10.1937Z" fill="#00284B"/>
<path d="M1.90267 10.1937C2.94971 10.1937 3.7985 9.32205 3.7985 8.24686C3.7985 7.17167 2.94971 6.30005 1.90267 6.30005C0.855629 6.30005 0.00683594 7.17167 0.00683594 8.24686C0.00683594 9.32205 0.855629 10.1937 1.90267 10.1937Z" fill="#00284B"/>
<path d="M7.477 5.15148L4.45117 8.25867L7.477 11.3659L10.5028 8.25867L7.477 5.15148Z" fill="#00284B"/>
<path d="M10.8945 4.7428V1.42395L14.1445 4.7428H10.8945Z" fill="#00284B"/>
<path d="M4.06935 4.7428H0.837402L4.06935 1.42395V4.7428Z" fill="#00284B"/>
<path d="M4.06935 11.7509V15.0882L0.837402 11.7509H4.06935Z" fill="#00284B"/>
<path d="M10.8945 11.7509H14.1445L10.8945 15.0882V11.7509Z" fill="#00284B"/>
</svg>
