<svg width="13" height="13" viewBox="0 0 13 13" fill="none"
  xmlns="http://www.w3.org/2000/svg">
  <g clip-path="url(#clip0)">
    <path d="M9.29999 4.79999H3.29999V5.79999H9.29999V4.79999Z" fill="#76748B"/>
    <path d="M7.29999 6.79999H3.29999V7.79999H7.29999V6.79999Z" fill="#76748B"/>
    <path d="M12.8 6.4C12.8 2.9 9.9 0 6.4 0C2.9 0 0 2.9 0 6.4C0 9.9 2.9 12.8 6.4 12.8C7.6 12.8 8.6 12.5 9.6 11.9L11.1 12.7L10.7 11C12 9.9 12.8 8.2 12.8 6.4ZM9.6 10.7L9.5 10.8C9.2 11 8.9 11.2 8.5 11.4C7.8 11.7 7.1 11.8 6.4 11.8C3.4 11.8 1 9.4 1 6.4C1 3.4 3.4 1 6.4 1C9.4 1 11.8 3.4 11.8 6.4C11.8 7.7 11.3 8.9 10.5 9.9C10.2 10.2 10 10.4 9.6 10.7Z" fill="#76748B"/>
  </g>
  <defs>
    <clipPath id="clip0">
      <rect width="12.8" height="12.8" fill="white"/>
    </clipPath>
  </defs>
</svg>
