<svg width="18" height="18" viewBox="0 0 18 18" fill="none" xmlns="http://www.w3.org/2000/svg">
<path d="M8 4.5H10V13H8V4.5Z" fill="#99AAB5"/>
<path d="M5 12.25C5 12.664 4.664 13 4.25 13H2.75C2.336 13 2 12.664 2 12.25C2 11.836 2.336 11.5 2.75 11.5H4.25C4.664 11.5 5 11.836 5 12.25Z" fill="#DA2F47"/>
<path d="M17 17C17 17.552 16.552 18 16 18H2C1.448 18 1 17.552 1 17V14C1 13.448 1.448 13 2 13H16C16.552 13 17 13.448 17 14V17Z" fill="#31373D"/>
<path d="M5 17.25C5 17.664 4.6645 18 4.25 18H2.75C2.3355 18 2 17.664 2 17.25C2 16.836 2.3355 16.5 2.75 16.5H4.25C4.6645 16.5 5 16.836 5 17.25ZM16 17.25C16 17.664 15.664 18 15.25 18H13.75C13.336 18 13 17.664 13 17.25C13 16.836 13.336 16.5 13.75 16.5H15.25C15.664 16.5 16 16.836 16 17.25Z" fill="#31373D"/>
<path d="M9 6C10.3807 6 11.5 4.88071 11.5 3.5C11.5 2.11929 10.3807 1 9 1C7.61929 1 6.5 2.11929 6.5 3.5C6.5 4.88071 7.61929 6 9 6Z" fill="#DA2F47"/>
<path d="M12.5 13C12.5 13.552 12.052 14 11.5 14H6.5C5.948 14 5.5 13.552 5.5 13V12.5C5.5 11.948 7.448 9.5 8 9.5H10C10.552 9.5 12.5 11.948 12.5 12.5V13Z" fill="#31373D"/>
<path d="M16.5 14C16.5 14.2765 16.2765 14.5 16 14.5H2C1.724 14.5 1.5 14.2765 1.5 14C1.5 13.7235 1.724 13.5 2 13.5H16C16.2765 13.5 16.5 13.7235 16.5 14Z" fill="#66757F"/>
</svg>
