<svg viewBox="0 0 30 30" xmlns="http://www.w3.org/2000/svg">
<path fill-rule="evenodd" clip-rule="evenodd" d="M7 3.02918C7 2.46078 7.4504 2 8.006 2H26.994C27.5496 2 28 2.46078 28 3.02918V23.9708C28 24.5392 27.5496 25 26.994 25C26.4384 25 25.988 24.5392 25.988 23.9708V4.05837H8.006C7.4504 4.05837 7 3.59758 7 3.02918Z"/>
<path fill-rule="evenodd" clip-rule="evenodd" d="M3 8.02918C3 7.46078 3.4504 7 4.006 7H22.994C23.5496 7 24 7.46078 24 8.02918V28.9708C24 29.5392 23.5496 30 22.994 30H4.006C3.4504 30 3 29.5392 3 28.9708V8.02918ZM5.01201 9.05837V27.9416H21.988V9.05837H5.01201Z"/>
</svg>
