<svg width="120" height="120" viewBox="0 0 120 120" fill="none" xmlns="http://www.w3.org/2000/svg">
<path d="M60 120C93.1371 120 120 93.1371 120 60C120 26.8629 93.1371 0 60 0C26.8629 0 0 26.8629 0 60C0 93.1371 26.8629 120 60 120Z" fill="#C8D2DC"/>
<path d="M59.6909 99.9859C71.2657 99.9859 80.6489 98.5487 80.6489 96.7759C80.6489 95.0031 71.2657 93.5659 59.6909 93.5659C48.1161 93.5659 38.7329 95.0031 38.7329 96.7759C38.7329 98.5487 48.1161 99.9859 59.6909 99.9859Z" fill="#788CA0"/>
<path d="M80.9804 60.2329V75.9004C80.9804 81.4584 78.7725 86.7888 74.8424 90.7189C70.9123 94.649 65.5819 96.8569 60.0239 96.8569C54.4659 96.8569 49.1355 94.649 45.2054 90.7189C41.2753 86.7888 39.0674 81.4584 39.0674 75.9004V60.2329H80.9804Z" fill="#00284B"/>
<path d="M60.2788 54.1801C58.8588 54.1968 57.4496 53.9317 56.1329 53.3999C54.8161 52.8681 53.618 52.0803 52.6079 51.0821C51.5978 50.0839 50.7959 48.8951 50.2486 47.5848C49.7013 46.2744 49.4194 44.8684 49.4194 43.4483C49.4194 42.0282 49.7013 40.6223 50.2486 39.3119C50.7959 38.0015 51.5978 36.8128 52.6079 35.8146C53.618 34.8164 54.8161 34.0285 56.1329 33.4968C57.4496 32.965 58.8588 32.6998 60.2788 32.7166V54.1801Z" fill="white"/>
<path d="M60.2773 20.1108C61.9482 20.1108 63.5506 20.7746 64.7321 21.9561C65.9136 23.1375 66.5773 24.74 66.5773 26.4108C66.5773 28.0817 65.9136 29.6841 64.7321 30.8656C63.5506 32.0471 61.9482 32.7109 60.2773 32.7109V20.1108Z" fill="white"/>
<path d="M60.024 74.7228C60.9924 74.7228 61.7775 73.9378 61.7775 72.9693C61.7775 72.0009 60.9924 71.2158 60.024 71.2158C59.0556 71.2158 58.2705 72.0009 58.2705 72.9693C58.2705 73.9378 59.0556 74.7228 60.024 74.7228Z" fill="white"/>
<path d="M60.024 85.049C60.9924 85.049 61.7775 84.2639 61.7775 83.2955C61.7775 82.3271 60.9924 81.542 60.024 81.542C59.0556 81.542 58.2705 82.3271 58.2705 83.2955C58.2705 84.2639 59.0556 85.049 60.024 85.049Z" fill="white"/>
<path d="M65.1871 79.8859C66.1555 79.8859 66.9406 79.1008 66.9406 78.1324C66.9406 77.164 66.1555 76.3789 65.1871 76.3789C64.2187 76.3789 63.4336 77.164 63.4336 78.1324C63.4336 79.1008 64.2187 79.8859 65.1871 79.8859Z" fill="white"/>
<path d="M54.8609 79.8859C55.8294 79.8859 56.6144 79.1008 56.6144 78.1324C56.6144 77.164 55.8294 76.3789 54.8609 76.3789C53.8925 76.3789 53.1074 77.164 53.1074 78.1324C53.1074 79.1008 53.8925 79.8859 54.8609 79.8859Z" fill="white"/>
<path d="M62.8299 78.1316L60.0244 75.3262L57.219 78.1316L60.0244 80.9371L62.8299 78.1316Z" fill="white"/>
<path d="M63.1802 74.9751V71.9722L66.1832 74.9751H63.1802Z" fill="white"/>
<path d="M56.8682 74.9746H53.8652L56.8682 71.9731V74.9746Z" fill="white"/>
<path d="M56.8682 81.2881V84.2911L53.8652 81.2881H56.8682Z" fill="white"/>
<path d="M63.1802 81.2871H66.1832L63.1802 84.2901V81.2871Z" fill="white"/>
<path d="M80.98 78.1954H79.75L80.98 73.4524C81.5433 73.463 82.103 73.3612 82.6265 73.153C83.15 72.9447 83.6267 72.6343 84.0288 72.2396C84.4309 71.845 84.7503 71.3742 84.9684 70.8548C85.1864 70.3353 85.2987 69.7775 85.2987 69.2142C85.2987 68.6508 85.1864 68.093 84.9684 67.5736C84.7503 67.0541 84.4309 66.5833 84.0288 66.1887C83.6267 65.7941 83.15 65.4836 82.6265 65.2753C82.103 65.0671 81.5433 64.9653 80.98 64.9759V60.2329C83.3419 60.2634 85.5967 61.2231 87.2561 62.9041C88.9155 64.5851 89.8459 66.8521 89.8459 69.2142C89.8459 71.5762 88.9155 73.8432 87.2561 75.5242C85.5967 77.2052 83.3419 78.1649 80.98 78.1954Z" fill="#00284B"/>
</svg>
