<?xml version="1.0" encoding="UTF-8" standalone="no"?>
<svg
   viewBox="0 0 30 30">
  <path
     d="m 5.833125,9.5837043 h 18.33335 V 24.583704 H 5.833125 Z"
     fill="#292f33"
     id="path10"
     style="stroke-width:2.5" />
  <path
     d="m 6.666475,24.582879 c 0,0.9199 -0.4975,1.66665 -1.11085,1.66665 h -1.11165 c -0.61335,0 -1.11085,-0.74675 -1.11085,-1.66665 V 9.5828793 c 0,-0.92 0.4975,-1.66665 1.11085,-1.66665 H 5.5548 c 0.614175,0 1.111675,0.74665 1.111675,1.66665 z m 20.000025,0 c 0,0.9199 -0.4975,1.66665 -1.11075,1.66665 h -1.111775 c -0.61335,0 -1.11085,-0.74675 -1.11085,-1.66665 V 9.5828793 c 0,-0.92 0.4975,-1.66665 1.11085,-1.66665 h 1.111775 c 0.61325,0 1.11075,0.74665 1.11075,1.66665 z m -13.333375,0 c 0,0.9199 -0.4975,1.66665 -1.110825,1.66665 h -1.110825 c -0.614175,0 -1.111675,-0.74675 -1.111675,-1.66665 V 9.5828793 c 0,-0.92 0.4975,-1.66665 1.110825,-1.66665 h 1.11085 c 0.61415,0 1.11165,0.74665 1.11165,1.66665 z m 6.666675,0 c 0,0.9199 -0.498325,1.66665 -1.111675,1.66665 h -1.11 c -0.613325,0 -1.11165,-0.74675 -1.11165,-1.66665 V 9.5828793 c 0,-0.92 0.498325,-1.66665 1.11165,-1.66665 h 1.11 c 0.61335,0 1.111675,0.74665 1.111675,1.66665 z"
     fill="#ccd6dd"
     id="path12"
     style="stroke-width:2.5" />
  <path
     d="m 27.5,25.415529 c 0,0.92 -0.74675,1.6665 -1.66675,1.6665 H 4.166675 c -0.92,0 -1.666675,-0.7465 -1.666675,-1.6665 0,-0.920125 0.746675,-1.6668 1.666675,-1.6668 H 25.83325 c 0.92,0 1.66675,0.746675 1.66675,1.6668 z"
     fill="#9aaab4"
     id="path14"
     style="stroke-width:2.5" />
  <path
     d="m 29.1665,27.082779 c 0,0.92 -0.74675,1.66675 -1.66675,1.66675 H 2.4997975 c -0.92,0 -1.6666675,-0.74675 -1.6666675,-1.66675 0,-0.92 0.7466675,-1.6665 1.6666675,-1.6665 H 27.49975 c 0.92,0 1.66675,0.7465 1.66675,1.6665 z"
     fill="#ccd6dd"
     id="path16"
     style="stroke-width:2.5" />
  <path
     d="m 30,28.333779 c 0,0.69 -0.56,1.25 -1.25,1.25 H 1.25 c -0.6908325,0 -1.25,-0.56 -1.25,-1.25 0,-0.69 0.5591675,-1.25 1.25,-1.25 h 27.5 c 0.69,0 1.25,0.56 1.25,1.25 z"
     fill="#e1e8ed"
     id="path18"
     style="stroke-width:2.5" />
  <path
     d="m 27.5,8.7503793 c 0,-0.92 -0.79675,-1.666675 -1.7775,-1.666675 H 4.166675 c -0.9825,0 -1.666675,0.746675 -1.666675,1.666675 0,0.625825 0.321675,1.165 0.833325,1.4499997 v 1.05 h 3.33335 v -0.83335 H 10 v 0.83335 h 3.333325 v -0.83335 h 3.33335 v 0.83335 H 20 v -0.83335 h 3.333325 v 0.83335 h 3.333425 v -1.09335 C 27.16575,9.8620293 27.5,9.3445293 27.5,8.7503793 Z"
     fill="#9aaab4"
     id="path20"
     style="stroke-width:2.5" />
  <path
     d="m 1.66687,7.4528793 c 0,-0.85915 0.84333,-1.203325 0.84333,-1.203325 l 12.42,-5.83333359 12.53905,5.83333359 c 0,0 0.86425,0.1925 0.86425,1.208325 v 0.45835 H 1.66687 Z"
     fill="#ccd6dd"
     id="path22"
     style="stroke-width:2.5" />
  <path
     d="m 14.999525,2.5353618 c 0,0 -8.599175,4.0541675 -9.45835,4.4183425 -0.85915,0.36415 -0.57165,0.963325 8.5e-4,0.963325 h 18.87165 c 0.885075,0 0.676575,-0.676675 -0.02583,-1.041675 -0.703325,-0.365 -9.388325,-4.3399925 -9.388325,-4.3399925 z"
     fill="#9aaab4"
     id="path24"
     style="stroke-width:2.5" />
  <path
     d="m 28.3335,7.9170293 c 0,0.46 -0.3725,0.83335 -0.83325,0.83335 H 2.5002 c -0.4599975,0 -0.83333,-0.37335 -0.83333,-0.83335 0,-0.46 0.3733325,-0.833325 0.83333,-0.833325 l 25.00005,0.005 c 0.46075,0 0.83325,0.368325 0.83325,0.828325 z"
     fill="#ccd6dd"
     id="path26"
     style="stroke-width:2.5" />
</svg>
