<svg version="1.1" viewBox="0 0 30 30">
 <g transform="translate(-90 -134.25)" stroke-width="1.6667">
  <path d="m118.54 139.52-2.285 2.2859s-1.5242 0.76168-3.0476-0.76251c-1.5242-1.5234-0.76252-3.0476-0.76252-3.0476l2.2859-2.2859c0.76252-0.76168-0.15333-1.46-0.84084-1.46-3.3759 0-6.1118 2.7359-6.1118 6.1109 0 0.47417 0.06 0.93418 0.16167 1.3775l-5.1659 5.1659 4.5709 4.5709 5.1659-5.1651c0.44417 0.10167 0.90335 0.16167 1.3784 0.16167 3.3751 0 6.1109-2.7359 6.1109-6.1109 8.3e-4 -0.69168-0.69835-1.6025-1.46-0.84085zm-15.856 7.5335-10.158 10.157c-1.2458 1.2467-1.2458 3.2676 0 4.5142 1.2475 1.2459 3.2676 1.2459 4.5142 0l10.156-10.157zm-7.881 13.729c-0.68251 0-1.235-0.55334-1.235-1.235s0.55334-1.2359 1.235-1.2359c0.68251 0 1.235 0.55335 1.235 1.2359 0 0.68168-0.55251 1.235-1.235 1.235z" fill="#8899a6"/>
  <path d="m115.69 161.99c0.97168 0.97168 2.5184 1.0175 3.4342 0.10084 0.91668-0.91669 0.87085-2.4625-0.10083-3.4342l-19.388-19.388c-0.97252-0.97252-2.5175-1.0175-3.4342-0.10083-0.91668 0.91668-0.87085 2.4625 0.10084 3.4342z" fill="#f4900c"/>
  <path d="m107.87 135s-5-2.5-9.1668 1.6667l-5.8334 5.8334s-0.83335-0.83334-1.6667 0l-0.83335 0.83335s-0.83335 0.83335 0 1.6667l3.3334 3.3334s0.83335 0.83335 1.6667 0l0.83335-0.83334s0.83335-0.83335 0-1.6667l-0.065-0.065c0.64168-0.61918 1.6025-1.25 2.565-0.76834l3.3334-3.3334s-0.83335-2.5 0.83334-4.1667c1.6667-1.6667 2.5-1.6667 4.1667-1.6667 1.6667 0 0.83335-0.83334 0.83335-0.83334z" fill="#66757f"/>
 </g>
</svg>
