<svg version="1.1" viewBox="0 0 30 30" xmlns="http://www.w3.org/2000/svg">
 <g transform="translate(-94.167 -133.5)" stroke-width="1.6667">
  <path d="m105 133.5c-3.8433 0-7.0692 2.605-8.0325 6.1425l3.2125 0.87667c0.57833-2.1225 2.5142-3.6858 4.82-3.6858 2.7608 0 4.9999 2.2392 4.9999 5v8.3333h3.3333v-8.3333c0-4.6017-3.7308-8.3333-8.3333-8.3333z" fill="#aab8c2"/>
  <path d="m115.83 160.17c0 1.8408-1.4925 3.3333-3.3333 3.3333h-15c-1.8408 0-3.3333-1.4925-3.3333-3.3333v-10c0-1.8408 1.4925-3.3333 3.3333-3.3333h15c1.8408 0 3.3333 1.4925 3.3333 3.3333z" fill="#ffac33"/>
 </g>
</svg>
