<?xml version="1.0" encoding="UTF-8" standalone="no"?><svg viewBox="0 0 30 30"><path style="fill:#c1694f;stroke-width:0.84838581" d="M 3.6902064,27.833657 C 2.1995926,29.325119 0.72255285,30.265131 0.39083399,29.933412 0.05911513,29.601693 0.99997501,28.124654 2.4905889,26.63404 c 1.4906139,-1.491463 2.9676536,-2.431474 3.2993724,-2.099755 0.3308705,0.331719 -0.609141,1.80791 -2.0997549,3.299372 z" /><path style="fill:#ffcc4d;stroke-width:0.84838581" d="M 5.7899613,24.535133 3.9896866,22.734858 c 0,0 -0.9188018,1.181802 -1.9377132,3.079641 -0.7635472,1.421895 -1.06133064,2.319487 -1.06133064,2.319487 l 0.59980874,0.599809 0.5998088,0.599808 c 0,0 0.8984406,-0.298631 2.3194868,-1.06133 1.8978391,-1.018912 3.0787922,-1.937714 3.0787922,-1.937714 z" /><path style="fill:#31373d;stroke-width:0.84838581" d="m 29.185897,1.138349 c -2.999044,-2.9998923 -15.41008,8.7358288 -16.009889,9.335638 -0.599808,0.599808 -1.106295,1.143624 -0.787302,1.462617 L 10.58928,13.73603 c -1.8002748,1.800275 -7.1994021,8.398171 -6.5995934,8.99798 l 1.8002747,1.800275 1.7994264,1.799426 c 0.5998087,0.599809 7.1985533,-4.799318 8.9988283,-6.598745 l 1.799426,-1.799426 c 0.318993,0.318993 0.862809,-0.188342 1.462618,-0.788151 0.599808,-0.59896 12.335529,-13.0091477 9.335637,-16.00904 z" /><path style="fill:#ffcc4d;stroke-width:0.84838581" d="m 19.85026,17.148238 c 0.07211,-0.07127 0.307115,-0.318145 0.65665,-0.693131 L 13.869988,9.8190327 c -0.374987,0.3486863 -0.621019,0.5845383 -0.693131,0.6566503 -0.599809,0.599809 -1.106295,1.143624 -0.787302,1.462617 l 2.999044,2.999893 2.999892,2.999044 c 0.318144,0.317296 0.86196,-0.18919 1.461769,-0.788999 z" /><path style="fill:#ffac33;stroke-width:0.84838581" d="m 26.80363,1.1561651 c -0.786454,-0.78645365 -1.835907,-1.61108467 -3.335853,-0.8611116 -1.499946,0.7499731 -6.204246,3.7676814 -8.380355,5.9429427 -1.121567,1.121566 -1.057938,1.783307 -0.637138,1.8367553 0.696525,0.089929 1.162288,0.074658 1.800275,-0.5624798 0.636289,-0.6371378 0.749124,-1.7247684 0.749124,-1.7247684 0,0 2.587577,-1.9869196 4.63049,-3.2052016 2.043761,-1.2191305 2.772525,-1.426985 3.486866,-0.7126441 0.714341,0.7143408 1.686591,-0.7134925 1.686591,-0.7134925 z" /><path style="fill:#ffac33;stroke-width:0.84838581" d="M 24.81671,1.5684806 28.755765,5.507536 C 29.055246,4.9060304 29.291097,4.33337 29.449745,3.8014321 L 26.522814,0.87450101 C 25.990876,1.0339975 25.419064,1.2698488 24.81671,1.5684806 Z" /></svg>
