<?xml version="1.0" encoding="UTF-8" standalone="no"?><svg viewBox="0 0 30 30"><path d="m 29.183214,15.816786 c 0,-1.72034 -0.306191,-3.369764 -0.867679,-4.895711 -0.383781,4.496078 -2.780744,6.805439 -5.285333,5.730018 C 20.684131,15.64325 22.265143,11.7145 22.381946,9.8398131 22.578842,6.6619389 22.371934,3.0243618 16.599366,2.098e-8 18.997998,4.5886868 16.87719,7.4395128 14.652928,7.6130486 12.185049,7.8057734 9.9249124,5.492241 10.759219,1.7378609 8.057734,3.7285166 7.9793092,7.0790923 8.8127816,9.2466211 9.6821292,11.505924 8.7777407,13.383114 6.6577674,13.59169 4.2883364,13.825296 2.9718005,11.054564 4.1857167,6.6394127 2.0849324,9.113132 0.81678627,12.31687 0.81678627,15.816786 0.81678627,23.650092 7.1666945,30 15,30 22.833306,30 29.183214,23.650092 29.183214,15.816786 Z" style="fill:#f4900c;stroke-width:0.83430672" /><path d="m 23.671784,19.987485 c 0.123477,2.573002 -2.13666,3.581679 -3.353079,3.094444 -1.75705,-0.703321 -1.285666,-1.911397 -1.737861,-4.414317 -0.452194,-2.50292 -2.190055,-4.240781 -4.762222,-5.00584 1.87719,5.283664 -1.040381,7.230936 -2.569665,7.578842 -1.561822,0.355415 -3.1311529,-8.34e-4 -3.3105288,-3.343067 -1.8221258,1.813783 -2.9501085,4.323377 -2.9501085,7.096613 0,0.307025 0.019189,0.609044 0.045887,0.909394 C 7.5955281,28.434841 11.113799,30 15,30 c 3.886201,0 7.404472,-1.565159 9.965793,-4.096446 0.0267,-0.30035 0.04589,-0.602369 0.04589,-0.909394 0,-1.824629 -0.487235,-3.534123 -1.339896,-5.006675 z" style="fill:#ffcc4d;stroke-width:0.83430672" /></svg>
