<?xml version="1.0" encoding="UTF-8" standalone="no"?><svg viewBox="0 0 30 30"><path style="fill:#66757f;stroke-width:0.83916086" d="M 23.361328 6.7128906 C 23.239649 6.7128906 23.140625 6.8119147 23.140625 6.9335938 L 23.140625 16.5625 C 23.140625 16.684178 23.238808 16.783203 23.361328 16.783203 L 23.761719 16.783203 C 23.883398 16.783203 23.982422 16.685019 23.982422 16.5625 L 23.982422 6.9335938 C 23.982422 6.8119157 23.884238 6.7128906 23.761719 6.7128906 L 23.361328 6.7128906 z M 17.609375 19.091797 L 17.609375 19.929688 L 18.316406 19.929688 L 18.316406 22.001953 L 17.609375 22.001953 L 17.609375 22.841797 L 29.515625 22.841797 L 29.515625 22.001953 L 28.806641 22.001953 L 28.806641 19.929688 L 29.515625 19.929688 L 29.515625 19.091797 L 17.609375 19.091797 z "/><path style="fill:#f19020;stroke-width:0.83916086" d="M 23.5625 15.105469 A 1.2587413 1.2587413 0 0 0 22.302734 16.363281 A 1.2587413 1.2587413 0 0 0 23.5625 17.623047 A 1.2587413 1.2587413 0 0 0 24.820312 16.363281 A 1.2587413 1.2587413 0 0 0 23.5625 15.105469 z M 23.5625 17.623047 A 0.83916084 0.83916084 0 0 0 22.722656 18.460938 A 0.83916084 0.83916084 0 0 0 23.5625 19.300781 A 0.83916084 0.83916084 0 0 0 24.400391 18.460938 A 0.83916084 0.83916084 0 0 0 23.5625 17.623047 z " /><path d="M 28.177343,6.713287 H 24.712448 L 8.6215385,0.0335664 8.6198602,0.0327273 H 8.619021 C 8.605594,0.0268573 8.592168,0.0285273 8.579581,0.0243373 8.5401399,0.0125874 8.5006993,0 8.457063,0 H 8.455383 C 8.399998,0 8.346292,0.011748 8.2959424,0.031888 8.2581804,0.048671 8.2254534,0.073846 8.1935648,0.100699 c -0.01007,0.00755 -0.021818,0.011748 -0.031049,0.020979 -0.03944,0.038601 -0.071329,0.085594 -0.092308,0.1376224 v 8.392e-4 c -0.00336,0.00755 -0.00252,0.016783 -0.00503,0.024336 L 3.4153847,6.838322 c -0.00252,0.0034 -0.00252,0.0084 -0.00503,0.01175 C 3.1711938,6.997764 3.0025225,7.250352 3.0025225,7.55245 v 1.678321 c 0,0.463217 0.3759441,0.839161 0.8391609,0.839161 H 5.0962238 L 1.9795805,28.321678 H 0.485035 V 30 h 15.908811 v -1.678322 h -1.46014 L 11.817902,10.06993 h 16.359441 c 0.464056,0 0.839161,-0.375944 0.839161,-0.839161 V 7.552448 c 0,-0.463217 -0.375105,-0.839161 -0.839161,-0.839161 z M 9.9096504,10.06993 8.457063,11.235524 7.0053147,10.06993 Z M 8.457063,17.664336 11.534266,19.681678 8.457063,21.36 5.3798602,19.681678 Z M 5.4033567,18.26014 5.8011189,15.923916 7.366993,16.95021 Z m 4.1437762,-1.30993 1.5692311,-1.027972 0.400279,2.340419 z M 8.457063,16.223497 6.0839161,14.641678 8.457063,12.693147 10.83021,14.641678 Z M 6.3062937,12.961678 6.61007,11.176783 7.5591609,11.955524 Z m 3.0486714,-1.005314 0.9499299,-0.779581 0.305455,1.787413 z M 4.5323077,6.713287 8.0374826,1.7723077 V 5.034965 H 6.3591609 C 5.8959441,5.034965 5.52,5.410909 5.52,5.874126 v 0.839161 z m 0.4447553,14.045874 2.2909091,1.24951 -2.7608392,1.505455 z m 8.257343,7.562517 H 3.6881119 l 0.5756644,-3.376783 4.1932867,-2.287552 4.200839,2.291748 z m -1.292308,-7.565035 0.471608,2.761679 -2.7675521,-1.509651 z M 11.394126,6.713287 V 5.874126 c 0,-0.463217 -0.375944,-0.839161 -0.839161,-0.839161 H 8.8766434 V 1.0481119 L 22.523916,6.713287 Z m 1.678322,2.517482 H 12.099021 V 7.552448 h 0.973427 z m 2.517482,0 H 13.911608 V 7.552448 h 1.678322 z m 2.517483,0 H 16.429091 V 7.552448 h 1.678322 z m 2.517482,0 H 18.946573 V 7.552448 h 1.678322 z m 2.517483,0 H 21.464056 V 7.552448 h 1.678322 z m 2.517482,0 H 23.981538 V 7.552448 h 1.678322 z m 2.517483,-0.41958 c 0,0.231608 -0.187972,0.41958 -0.419581,0.41958 H 26.499021 V 7.552448 h 1.258741 c 0.231609,0 0.419581,0.187972 0.419581,0.41958 z" style="fill:#bd2032;stroke-width:0.83916086" /><path d="M 10.554965,5.874126 H 8.8766434 c -0.4632168,0 -0.8391608,0.375944 -0.8391608,0.839161 v 1.678321 c 0,0.463217 0.375944,0.839161 0.8391608,0.839161 H 11.394126 V 5.874126 Z" style="fill:#4b545d;stroke-width:0.83916086" /><path d="M 9.7158042,5.874126 H 11.394126 V 9.230769 H 9.7158042 Z" style="fill:#cdd7df;stroke-width:0.83916086" /></svg>
