<svg width="10" height="11" viewBox="0 0 10 11" fill="none" xmlns="http://www.w3.org/2000/svg">
  <path fill-rule="evenodd" clip-rule="evenodd" d="M3.78226 2.00443C4.10524 1.68145 4.54329 1.5 5.00005 1.5C5.45682 1.5 5.89487 1.68145 6.21785 2.00443C6.54083 2.32741 6.72228 2.76546 6.72228 3.22222V4.33333V4.5H3.27783V4.33333V3.22222C3.27783 2.76546 3.45928 2.32741 3.78226 2.00443ZM2.27783 4.5V4.33333V3.22222C2.27783 2.50024 2.56464 1.80784 3.07515 1.29732C3.58567 0.786805 4.27808 0.5 5.00005 0.5C5.72203 0.5 6.41444 0.786805 6.92496 1.29732C7.43547 1.80784 7.72228 2.50024 7.72228 3.22222V4.33333V4.5H8.11111C8.87817 4.5 9.5 5.12183 9.5 5.88889V9C9.5 9.76706 8.87817 10.3889 8.11111 10.3889H1.88889C1.12183 10.3889 0.5 9.76706 0.5 9V5.88889C0.5 5.12183 1.12183 4.5 1.88889 4.5H2.27783ZM1.5 5.88889C1.5 5.67411 1.67411 5.5 1.88889 5.5H8.11111C8.32589 5.5 8.5 5.67411 8.5 5.88889V9C8.5 9.21478 8.32589 9.38889 8.11111 9.38889H1.88889C1.67411 9.38889 1.5 9.21478 1.5 9V5.88889Z" fill="#C2CCCC"/>
</svg>
