<?xml version="1.0" encoding="UTF-8" standalone="no"?>
<svg viewBox="0 0 30 30" version="1.1">
  <path
     d="m 30.001205,26.668256 c 0,1.840943 -1.49256,3.333532 -3.333467,3.333532 H 3.3334672 C 1.4925599,30.001788 0,28.509199 0,26.668256 V 3.3335319 C 0,1.4925889 1.4925599,0 3.3334672,0 H 26.667738 c 1.840907,0 3.333467,1.4925889 3.333467,3.3335319 z"
     fill="#226699"
     id="path74"
     style="stroke-width:1.66675" />
  <path
     d="m 9.1670348,7.5004302 c 0,0 6.0752442,-3.7977263 17.5007032,-4.1410801 0.543355,-0.016668 1.666733,-0.025835 1.666733,0.8075482 C 23.33427,11.667345 20.83417,23.334724 20.83417,23.334724 Z"
     fill="#f4900c"
     id="path76"
     style="stroke-width:1.66675" />
  <path
     d="m 10.000402,13.334128 c 0,0 10.000401,-9.1672131 16.667336,-9.9747612 0.539188,-0.065837 1.666733,-0.025835 1.666733,0.8075481 C 22.500904,7.5004469 18.33407,20.001192 18.33407,20.001192 Z"
     fill="#ffac33"
     id="path78"
     style="stroke-width:1.66675" />
  <path
     d="m 12.630507,10.365701 c 0.688361,0.605869 1.99008,0.970058 2.892616,0.810048 l 4.076831,-0.721709 c 0.903369,-0.16001 1.34422,0.398357 0.981706,1.240073 l -1.640066,3.802727 c -0.363348,0.841717 -0.307512,2.191714 0.123338,3.001762 l 1.945912,3.653551 c 0.431684,0.810048 0.03667,1.40175 -0.875869,1.316745 L 16.01231,23.083042 c -0.912537,-0.085 -2.180088,0.385023 -2.815947,1.045062 l -2.875115,2.981011 C 9.6853889,27.769154 9.0003614,27.577476 8.7986867,26.682423 L 7.8911502,22.643016 C 7.6903088,21.748796 6.8511085,20.688733 6.0269087,20.287042 L 2.3042592,18.474434 C 1.4800594,18.073577 1.4508916,17.361868 2.2392566,16.89434 L 5.8010663,14.782631 C 6.5894313,14.315103 7.338628,13.190036 7.4652998,12.281648 L 8.0394895,8.1814041 C 8.1661613,7.2730167 8.8336881,7.0255019 9.522049,7.6313713 Z"
     fill="#ffd983"
     id="path80"
     style="stroke-width:1.66675" />
</svg>
