<?xml version="1.0" encoding="UTF-8" standalone="no"?>
<svg
   viewBox="0 0 30 30"
   version="1.1">
  <path
     d="m 14.157894,29.87276 c 7.819156,0 14.157895,-6.315765 14.157895,-14.106581 0,-7.7908491 -6.338739,-14.1065812 -14.157895,-14.1065812 C 6.338706,1.6595978 0,7.9753299 0,15.766179 0,23.556995 6.338706,29.87276 14.157894,29.87276 Z"
     fill="#ffcc4d"
     style="stroke-width:0.831307" />
  <path
     d="m 14.989879,23.649269 c 0.91993,0 1.665635,-0.928794 1.665635,-2.074498 0,-1.145703 -0.745705,-2.074497 -1.665635,-2.074497 -0.919846,0 -1.665635,0.928794 -1.665635,2.074497 0,1.145704 0.745789,2.074498 1.665635,2.074498 z"
     fill="#664500"
     style="stroke-width:0.831307" />
  <path
     d="m 6.7549814,17.743673 c -0.1515727,0 -0.3056439,-0.04149 -0.4430589,-0.127789 -0.3889256,-0.243961 -0.5055201,-0.755947 -0.2606718,-1.144293 0.7628607,-1.205698 3.0822569,-3.267748 6.4043653,-2.457864 0.44639,0.108703 0.719554,0.558455 0.610455,1.003227 -0.109932,0.444772 -0.562985,0.715286 -1.006876,0.608242 -3.0014737,-0.731882 -4.5821609,1.706066 -4.5979845,1.730961 -0.1590681,0.250599 -0.4297338,0.387516 -0.7062291,0.387516 z m 9.9713216,-3.105108 c -0.241516,0 -0.479702,-0.103724 -0.6446,-0.303706 -0.291487,-0.354324 -0.239852,-0.877927 0.116594,-1.168357 2.645028,-2.160796 5.631511,-1.296146 6.841595,-0.53605 0.388925,0.24396 0.50552,0.756776 0.259839,1.144292 -0.244016,0.385857 -0.756199,0.503688 -1.145957,0.261387 -0.114929,-0.0697 -2.541759,-1.512723 -4.900297,0.41407 -0.154904,0.126959 -0.341456,0.188364 -0.527174,0.188364 z"
     fill="#664500"
     style="stroke-width:0.831307" />
  <path
     d="m 11.114863,25.950301 c -0.05663,0 -0.114096,-0.0075 -0.170727,-0.02323 C 10.612675,25.8333 10.419461,25.489766 10.51357,25.158676 10.87751,23.880787 10.728436,22.645215 10.105488,21.768118 9.6915785,21.185595 9.1019439,20.829612 8.4873247,20.790611 8.1424967,20.769866 7.880992,20.473628 7.9026453,20.130922 c 0.021653,-0.342708 0.3173035,-0.62318 0.6621314,-0.58169 0.9935511,0.0614 1.9263063,0.608243 2.5592473,1.499447 0.841978,1.185782 1.057678,2.807209 0.590468,4.448551 -0.07746,0.274664 -0.32813,0.453071 -0.599629,0.453071 z m 9.191806,-2.540015 c -0.118261,0 -0.237353,-0.03319 -0.343121,-0.102895 -0.971898,-0.638945 -1.515729,-1.756684 -1.492409,-3.066107 0.02415,-1.35672 0.673749,-2.616355 1.652309,-3.210492 0.293985,-0.179236 0.677913,-0.0863 0.857802,0.20828 0.179888,0.293749 0.08661,0.675457 -0.209037,0.854693 -0.61212,0.37175 -1.036025,1.243869 -1.052681,2.169094 -0.01666,0.875438 0.323966,1.606491 0.93109,2.005624 0.288155,0.189194 0.367272,0.575051 0.17739,0.862161 -0.119925,0.181726 -0.318136,0.279642 -0.521343,0.279642 z"
     fill="#e2a62d"
     style="stroke-width:0.831307" />
  <path
     d="m 14.306969,2.257136 c -0.03581,-0.04066 -0.09161,-0.063065 -0.157403,-0.075512 0,0 -13.26178273,-2.50848624 -13.83559387,-2.00396851 -0.57297832,0.50534733 0.30231269,13.92734751 0.30231269,13.92734751 0.004164,0.06721 0.0191548,0.12447 0.0557988,0.165131 C 1.1751052,14.837717 4.6346285,12.607218 8.3997956,9.2905115 12.165796,5.9729754 14.809991,2.8247184 14.306969,2.257136 Z"
     fill="#dd2e44"
     style="stroke-width:0.831307" />
  <path
     d="M 0.2906824,0.22477675 C 0.2781901,0.24967075 0.2673635,0.28369245 0.2590353,0.32684202 0.39145329,1.4644955 1.6706648,10.825473 2.4676711,13.751344 3.6635884,13.085016 4.8786772,12.179705 6.3061261,11.052009 5.0935441,8.8405945 0.96443578,0.12105189 0.2906824,0.22477675 Z"
     fill="#ea596e"
     style="stroke-width:0.831307" />
  <path
     d="m 24.902904,24.254109 -8.805378,-1.081228 c -0.941083,-0.08464 -2.595891,-0.09293 -2.510944,-1.578277 0.07746,-1.346764 1.698947,-1.139314 2.897372,-0.962567 l 8.859511,1.472063 z"
     fill="#3b88c3"
     style="stroke-width:0.831307" />
  <path
     d="m 25.342548,22.105012 -3.516155,-0.600773 c -0.411412,-0.07385 -0.777851,0.536879 -0.796173,1.183293 -0.02082,0.718606 0.189049,1.082057 0.604626,1.166696 l 3.451195,0.424857 z"
     fill="#88c9f9"
     style="stroke-width:0.831307" />
  <path
     d="m 29.080316,21.857733 -2.183648,2.000645 -3.903415,-4.229485 2.183648,-2.000646 c 1.133465,-1.038907 2.914027,-0.964226 3.956715,0.16513 l 0.11243,0.121981 c 1.041854,1.130186 0.967734,2.903466 -0.16573,3.942375 z"
     fill="#3b88c3"
     style="stroke-width:0.831307" />
  <path
     d="m 26.895336,23.85954 c 0.937835,-0.859257 0.82449,-2.502508 -0.253343,-3.67045 -1.077749,-1.167941 -2.711736,-1.418209 -3.649655,-0.559036 -0.937836,0.859257 -0.824489,2.502508 0.253343,3.67045 1.077748,1.167942 2.711736,1.41821 3.649655,0.559036 z"
     fill="#88c9f9"
     style="stroke-width:0.831307" />
  <path
     d="m 26.114653,23.013477 c 0.46896,-0.42967 0.324966,-1.345934 -0.321634,-2.046616 -0.646599,-0.700682 -1.550956,-0.920496 -2.019915,-0.490826 -0.46896,0.429587 -0.324883,1.34585 0.321717,2.046533 0.6466,0.700682 1.550872,0.920496 2.019832,0.490909 z"
     fill="#226699"
     style="stroke-width:0.831307" />
  <path
     d="m 2.0820433,29.042962 c 0.6899309,0 1.249226,-0.557294 1.249226,-1.244699 0,-0.687405 -0.5592951,-1.244699 -1.249226,-1.244699 -0.6899308,0 -1.24922597,0.557294 -1.24922597,1.244699 0,0.687405 0.55929517,1.244699 1.24922597,1.244699 z"
     fill="#55acee"
     style="stroke-width:0.831307" />
  <path
     d="m 24.151703,3.3191956 c 0.91993,0 1.665635,-0.7430268 1.665635,-1.6595978 C 25.817338,0.74302683 25.071633,0 24.151703,0 c -0.919931,0 -1.665635,0.74302683 -1.665635,1.6595978 0,0.916571 0.745704,1.6595978 1.665635,1.6595978 z"
     fill="#55acee"
     style="stroke-width:0.831307" />
  <path
     d="M 4.0508152,24.268299 2.1036883,19.608148 0.34310992,24.624282 Z M 21.653251,4.1489945 18.321981,4.9787934 19.154799,1.6595978 Z"
     fill="#ea596e"
     style="stroke-width:0.831307" />
  <path
     d="M 26.649322,10.787386 29.981424,6.6375614 27.482972,4.9787934 Z"
     fill="#77b255"
     style="stroke-width:0.831307" />
</svg>
