<svg viewBox="0 0 30 30" fill="none" xmlns="http://www.w3.org/2000/svg">
<rect fill="#E5E5E5"/>
<path d="M23.3333 17.5C23.3333 19.3408 20.8333 30 15.8333 30H9.16667C4.16667 30 1.66667 19.3408 1.66667 17.5V3.33333C1.66667 1.4925 3.15917 0 5 0H20C21.8408 0 23.3333 1.4925 23.3333 3.33333V17.5Z" fill="#DA2F47"/>
<path d="M12.0341 7.64284C13.8158 9.59534 14.2966 12.2337 13.1091 13.5353C11.9241 14.8362 9.51577 14.3087 7.73577 12.3562C5.95494 10.4037 5.47327 7.76534 6.66077 6.46367C7.84744 5.16284 10.2549 5.69117 12.0341 7.64284V7.64284Z" fill="#F5F8FA"/>
<path d="M13.2784 10.5888C13.7859 11.2397 13.7859 12.2955 13.2784 12.9463C12.7725 13.5972 11.9509 13.5972 11.4442 12.9463C10.9375 12.2955 10.9375 11.2405 11.4442 10.5897C11.9509 9.93799 12.7725 9.93799 13.2784 10.5888V10.5888Z" fill="#292F33"/>
<path d="M18.1059 7.72599C16.5842 9.67766 16.1742 12.3168 17.1892 13.6185C18.2017 14.9202 20.2559 14.3927 21.7759 12.4402C23.2959 10.4877 23.7059 7.84932 22.6925 6.54766C21.68 5.24599 19.6259 5.77349 18.1059 7.72599V7.72599Z" fill="#F5F8FA"/>
<path d="M18.5633 13.5172C19.2799 13.5172 19.8608 12.771 19.8608 11.8505C19.8608 10.93 19.2799 10.1838 18.5633 10.1838C17.8468 10.1838 17.2658 10.93 17.2658 11.8505C17.2658 12.771 17.8468 13.5172 18.5633 13.5172Z" fill="#292F33"/>
<path d="M17.4099 9.16647C17.0516 9.16647 16.6916 9.05147 16.3874 8.8148C15.6616 8.2498 15.5308 7.2023 16.0958 6.47563L19.9874 1.47563C20.5533 0.748967 21.5991 0.618133 22.3266 1.18397C23.0524 1.74897 23.1833 2.79647 22.6183 3.52313L18.7266 8.52313C18.3966 8.94563 17.9058 9.16647 17.4099 9.16647V9.16647ZM13.5174 9.16647C13.0208 9.16647 12.5299 8.94563 12.2008 8.52397L8.30742 3.52397C7.74159 2.7973 7.87242 1.75063 8.59826 1.1848C9.32492 0.618967 10.3724 0.748967 10.9374 1.47563L14.8308 6.47563C15.3966 7.2023 15.2658 8.24897 14.5399 8.8148C14.2358 9.05147 13.8749 9.16647 13.5174 9.16647Z" fill="#292F33"/>
<path d="M20 25.8342C19.325 25.8342 18.6908 25.4208 18.4391 24.7517C18.3525 24.5358 17.4666 22.5 15 22.5C12.5333 22.5 11.6475 24.5358 11.5541 24.7683C11.215 25.6167 10.2516 26.0408 9.40164 25.7125C8.54997 25.3825 8.11914 24.4375 8.43997 23.5817C8.50664 23.4008 10.1508 19.1667 15 19.1667C19.8491 19.1667 21.4933 23.4008 21.5608 23.5817C21.8841 24.4433 21.4466 25.4042 20.585 25.7275C20.3925 25.7992 20.1941 25.8342 20 25.8342Z" fill="#FDD888"/>
<path d="M15.4625 18.3335C15.4625 18.3335 19.1975 17.8727 21.3375 21.6668C23.6866 25.8335 23.6866 17.5002 23.0991 16.6668C22.5125 15.8335 21.89 17.8218 20.7491 17.4168C18.3983 16.5835 15.4625 18.3335 15.4625 18.3335ZM15.4625 18.3335C15.4625 18.3335 10.5558 17.8727 7.7433 21.6668C4.65746 25.8335 4.65746 17.5002 5.4283 16.6668C6.19996 15.8335 7.01746 18.1043 8.51663 17.6993C11.6033 16.866 15.4625 18.3335 15.4625 18.3335Z" fill="#292F33"/>
<path d="M26.8849 12.5C26.8099 12.5 26.7399 12.5158 26.6666 12.5242V12.5H15.1283C13.8691 12.5 12.8499 13.6192 12.8499 15C12.8499 16.3808 13.8699 17.5 15.1283 17.5H26.6666V17.4758C26.7399 17.4833 26.8099 17.5 26.8849 17.5C28.1449 17.5 29.1666 16.3808 29.1666 15C29.1666 13.62 28.1449 12.5 26.8849 12.5Z" fill="#E75A70"/>
</svg>
