<?xml version="1.0" encoding="UTF-8" standalone="no"?><svg viewBox="0 0 30 30"><path d="M 30,15 A 15,15 0 0 1 15,30 15,15 0 0 1 0,15 15,15 0 0 1 15,0 15,15 0 0 1 30,15 Z" style="fill:#ffcc4d;stroke-width:0.83333331" /><path style="fill:#664500;stroke-width:0.83333331" d="m 22.779167,19.690833 c -0.148334,-0.134166 -0.37,-0.1425 -0.529167,-0.02417 -0.0325,0.02417 -3.268333,2.416666 -7.25,2.416666 -3.971667,0 -7.2183333,-2.3925 -7.25,-2.416666 -0.1591667,-0.11833 -0.3808333,-0.10833 -0.5291667,0.02417 C 7.0733333,19.824167 7.04,20.044167 7.1425,20.214167 7.25,20.393333 9.8233333,24.583333 15,24.583333 c 5.176667,0 7.750833,-4.19 7.8575,-4.369166 0.1025,-0.170834 0.07,-0.39 -0.07833,-0.523334 z" /><path style="fill:#65471b;stroke-width:0.83333331" d="m 15,22.159167 c -0.123333,0 -0.2425,-0.0092 -0.365,-0.01333 v 3.763334 h 0.729167 V 22.145 C 15.243333,22.1492 15.123333,22.15917 15,22.15917 Z" /><path style="fill:#ffffff;stroke-width:0.83333331" d="m 18.333333,21.666667 c 0.01333,-0.0033 -1.208333,0.315 -2.038333,0.405 -0.305,0.035 -0.614167,0.06333 -0.930833,0.07417 V 25.91 h 1.3025 c 0.916666,0 1.666666,-0.75 1.666666,-1.666667 z m -6.666666,0 c -0.01333,-0.0033 1.208333,0.315 2.038333,0.405 0.305,0.035 0.614167,0.06333 0.930833,0.07417 V 25.91 h -1.3025 c -0.916666,0 -1.666666,-0.75 -1.666666,-1.666667 z" /><path style="fill:#65471b;stroke-width:0.83333331" d="m 22.779167,19.690833 c -0.148334,-0.134166 -0.37,-0.1425 -0.529167,-0.02417 -0.025,0.01833 -1.8825,1.39 -4.509167,2.058333 -0.369166,0.09417 -1.553333,0.358333 -2.738333,0.359167 -1.186667,0 -2.374167,-0.265 -2.743333,-0.359167 C 9.6325,21.056667 7.775,19.685 7.75,19.666667 7.5916667,19.548333 7.3691667,19.556667 7.2208333,19.690833 7.0725,19.824167 7.04,20.043333 7.1425,20.214167 c 0.080833,0.135 1.5708333,2.555833 4.524167,3.734166 v -1.524166 c -0.01333,-0.0033 1.208333,0.315 2.038333,0.405 0.305,0.035 0.614167,0.06333 0.930833,0.07417 0.121667,0.0042 0.240834,0.01333 0.364167,0.01333 0.123333,0 0.2425,-0.0092 0.365,-0.01333 0.316667,-0.01083 0.625833,-0.03833 0.930833,-0.07417 0.83,-0.09 2.051667,-0.408334 2.038334,-0.405 v 1.524166 C 21.2875,22.77 22.7775,20.349167 22.858333,20.214167 c 0.101667,-0.170834 0.06917,-0.39 -0.07917,-0.523334 z m -0.5925,-8.004166 c 0,1.428333 -0.781667,2.586666 -1.746667,2.586666 -0.964167,0 -1.746667,-1.158333 -1.746667,-2.586666 C 18.693333,10.258333 19.475,9.1 20.44,9.1 c 0.965,0 1.746667,1.158333 1.746667,2.586667 z m -14.3058337,0 c 0,1.428333 0.7816667,2.586666 1.7466667,2.586666 0.964167,0 1.746667,-1.158333 1.746667,-2.586666 C 11.374167,10.258333 10.5925,9.1 9.6275,9.1 c -0.965,0 -1.7466667,1.158333 -1.7466667,2.586667 z" /><path style="fill:#292f33;stroke-width:0.83333331" d="M 29.006667,8.0225 C 28.864167,7.8841667 27.950833,8.2508333 27.026667,7.78 25.12,6.8083333 20.301667,5.8708333 17.165,8.0933333 c -0.335833,0.2375 -1.739167,0.2775 -2.131667,0.2608334 -0.3925,0.0175 -1.795833,-0.0225 -2.131666,-0.2608334 C 9.7658333,5.8708333 4.9475,6.8083333 3.0408333,7.78 c -0.9241666,0.4708333 -1.8375,0.1041667 -1.98,0.2425 C 0.855,8.2216667 0.855,9.0191667 1.0616667,9.2191667 c 0.205,0.1991666 1.2308333,0.4291666 1.435,1.0266663 0.2058333,0.598334 0.2075,4.131667 1.8441666,5.353334 1.5325,1.143333 5.1075,1.4875 7.3733337,0.198333 1.976666,-1.124167 1.9075,-3.490833 2.27,-4.900833 0.129166,-0.5025 0.493333,-0.755834 1.05,-0.755834 0.556666,0 0.920833,0.253334 1.05,0.755834 0.3625,1.409166 0.2925,3.776666 2.27,4.900833 2.265833,1.288333 5.840833,0.944167 7.3725,-0.198333 1.6375,-1.220834 1.639166,-4.755 1.844166,-5.353334 0.204167,-0.5974997 1.23,-0.828333 1.435,-1.0266663 0.206667,-0.2 0.2075,-0.9975 8.34e-4,-1.1966667 z M 12.178333,11.064167 C 12.114167,11.985 11.95,13.753333 10.8475,14.380833 10.171667,14.765833 9.2908333,15 8.3691667,15 H 8.3683333 C 7.3475,15 5.9325,14.710833 5.3791667,14.298333 4.6875,13.7825 4.4241667,11.659167 4.325,10.865 4.2616667,10.359167 4.0916667,9.1233333 4.6483333,8.9333333 5.5316667,8.6325 6.7641667,8.3975 8.025,8.3975 c 0.5775,0 2.5175,0.035833 3.4625,0.6175 0.8375,0.5141667 0.726667,1.5425 0.690833,2.049167 z m 13.565,-0.210834 c -0.09917,0.795 -0.3625,2.929167 -1.054166,3.445 C 24.135833,14.710833 22.720833,15 21.7,15 h -8.33e-4 c -0.9225,0 -1.8025,-0.234167 -2.479167,-0.619167 -1.1025,-0.626666 -1.266667,-2.384166 -1.330833,-3.305 C 17.854167,10.569167 17.7425,9.5333333 18.58,9.0191667 19.525833,8.4375 21.465,8.3975 22.0425,8.3975 c 1.260833,0 2.4925,0.2308333 3.376667,0.5316667 0.556666,0.19 0.3875,1.4183333 0.324166,1.9241663 z" /></svg>
