<?xml version="1.0" encoding="UTF-8" standalone="no"?>
<svg
   viewBox="0 0 30 30">
  <path
     d="m 28.46625,24.010104 -2.43,-21.7783422 C 25.89475,0.9609293 24.820475,9.5705e-5 23.54215,9.5705e-5 H 6.386325 c -1.2875,0 -2.36585,0.973333595 -2.4975,2.253333595 L 1.6638175,24.010104 Z"
     fill="#dd2e44"
     style="stroke-width:2.5" />
  <path
     d="m 15.0572,19.472404 c 4.310575,0 7.805,-3.494425 7.805,-7.805 0,-4.3105747 -3.494425,-7.8049997 -7.805,-7.8049997 -4.310575,0 -7.805,3.494425 -7.805,7.8049997 0,4.310575 3.494425,7.805 7.805,7.805 z"
     fill="#be1931"
     style="stroke-width:2.5" />
  <path
     d="M 29.60075,24.316504 H 0.3991675 L 0,28.333154 c 0,1.66675 1.6666675,1.66675 1.6666675,1.66675 H 28.33325 c 0,0 1.66675,0 1.66675,-1.66675 z"
     fill="#99aab5"
     style="stroke-width:2.5" />
  <path
     d="m 29.6615,24.925954 -0.06075,-0.61 c -0.1175,-0.615 -0.64175,-0.98335 -1.2675,-0.98335 H 1.6664675 c -0.6258325,0 -1.15,0.36835 -1.2675,0.98335 l -0.0608325,0.61 z"
     fill="#ccd6dd"
     style="stroke-width:2.5" />
  <path
     d="m 24.70625,11.359579 -6.39,-1.04 3.7825,-5.2566747 c 0.08918,-0.123325 0.07585,-0.295 -0.0325,-0.403325 -0.10915,-0.1075 -0.28,-0.121675 -0.403325,-0.0325 l -5.2575,3.78165 -1.039175,-6.389155 c -0.02415,-0.1508325 -0.155825,-0.261665 -0.308325,-0.261665 -0.1525,0 -0.284175,0.1108325 -0.308325,0.261665 l -1.04,6.389155 -5.256675,-3.78165 c -0.124175,-0.089175 -0.294175,-0.075 -0.403325,0.0325 -0.10835,0.10915 -0.121675,0.27915 -0.0325,0.403325 l 3.78165,5.2566747 -6.39,1.04 c -0.150825,0.02415 -0.26165,0.155 -0.26165,0.308325 0,0.153325 0.110825,0.284175 0.26165,0.308325 l 6.39,1.04 -3.78165,5.256675 c -0.089175,0.124175 -0.07585,0.295 0.0325,0.403325 0.10915,0.1075 0.27915,0.121675 0.403325,0.0325 l 5.256675,-3.78165 1.04,6.38915 c 0.02415,0.151675 0.155825,0.261675 0.308325,0.261675 0.1525,0 0.284175,-0.111675 0.308325,-0.261675 l 1.039175,-6.38915 5.256675,3.78165 c 0.123325,0.08835 0.295,0.075 0.403325,-0.0325 0.108325,-0.10915 0.121675,-0.27915 0.0325,-0.403325 l -3.781675,-5.256675 6.39,-1.04 c 0.151675,-0.02415 0.261675,-0.155825 0.261675,-0.308325 0,-0.1525 -0.11,-0.284175 -0.261675,-0.308325 z"
     fill="#ec9dad"
     style="stroke-width:2.5" />
</svg>
