<?xml version="1.0" encoding="UTF-8" standalone="no"?><svg viewBox="0 0 30 30"><path d="M 28.112647,13.000424 C 27.445982,8.3754906 23.785585,4.8402495 17.631245,4.8402495 c -0.244471,0 -0.518146,0.010013 -0.804336,0.025031 C 15.592871,4.9136744 14.356329,5.0722054 13.1565,5.3325299 12.531554,5.4526797 11.899098,5.5970264 11.276656,5.761398 10.630016,4.8844713 9.3225527,3.9566478 8.9938095,3.9566478 c -0.4271993,0 -0.031706,1.5611131 -0.00501,2.5465083 C 8.2545507,6.7943525 7.58288,7.1222614 7.0305246,7.4902201 4.3797196,9.2574235 4.3797196,10.141025 1.3250777,10.141025 c -1.36169773,0 -1.32498528665,1.383392 -1.32498528665,3.091354 0,1.707129 -0.03671244335,2.184391 1.32498528665,3.093024 1.8214377,1.214848 3.9474217,3.013757 6.6349391,4.493936 1.6879379,2.625774 0.2711715,5.224013 1.7213128,5.224013 1.0229414,0 2.3420864,-1.63871 3.0429604,-3.290769 1.49186,0.395493 3.113882,0.641633 4.906951,0.641633 0.952855,0 1.83896,-0.07426 2.67083,-0.204422 0.22695,1.622023 -0.1335,2.853558 0.863577,2.853558 1.297451,0 5.838947,-4.166862 6.856882,-9.420078 0.05006,-0.239465 0.08594,-0.485606 0.118482,-0.735918 0.01001,-0.07509 0.02336,-0.150187 0.03171,-0.226115 0.01752,-0.16604 0.02503,-0.337087 0.03421,-0.507299 C 29.079686,15.383395 30,15.732163 30,15.007927 30,14.419693 29.066336,13.576976 28.112647,13.000424 Z" style="fill:#f4abba;stroke-width:0.83437365" /><path d="m 8.7968973,10.141025 c 0,0.487274 -0.3954931,0.883602 -0.8836017,0.883602 -0.4872742,0 -0.8836017,-0.395493 -0.8836017,-0.883602 0,-0.4881084 0.3954931,-0.8836015 0.8836017,-0.8836015 0.4881086,0 0.8836017,0.3954931 0.8836017,0.8836015 z" style="fill:#292f33;stroke-width:0.83437365" /></svg>
