<?xml version="1.0" encoding="UTF-8" standalone="no"?>
<svg viewBox="0 0 30 30">
<path d="M 25.636875,26.666667 C 25.636875,28.5075 24.144375,30 22.303542,30 H 3.9702084 C 2.1293751,30 0.63687506,28.5075 0.63687506,26.666667 V 3.3333334 C 0.63687506,1.4925001 2.1293751,5.9999998e-8 3.9702084,5.9999998e-8 H 22.303542 C 24.144375,5.9999998e-8 25.636875,1.4925001 25.636875,3.3333334 Z" style="fill:#ccd6dd;stroke-width:0.83333331" />
<path d="m 22.303542,20 c 0,0.460833 -0.3725,0.833333 -0.833334,0.833333 H 4.8035417 c -0.46,0 -0.8333333,-0.3725 -0.8333333,-0.833333 0,-0.460833 0.3733333,-0.833333 0.8333333,-0.833333 H 21.470208 c 0.460834,0 0.833334,0.3725 0.833334,0.833333 z M 8.9702084,23.333333 c 0,0.460834 -0.3733334,0.833334 -0.8333334,0.833334 H 4.8035417 c -0.46,0 -0.8333333,-0.3725 -0.8333333,-0.833334 C 3.9702084,22.8725 4.3435417,22.5 4.8035417,22.5 H 8.136875 c 0.46,0 0.8333334,0.3725 0.8333334,0.833333 z M 22.303542,6.6666667 c 0,0.46 -0.3725,0.8333333 -0.833334,0.8333333 H 4.8035417 c -0.46,0 -0.8333333,-0.3733333 -0.8333333,-0.8333333 0,-0.46 0.3733333,-0.8333333 0.8333333,-0.8333333 H 21.470208 c 0.460834,0 0.833334,0.3733333 0.833334,0.8333333 z m 0,3.3333333 c 0,0.460833 -0.3725,0.833333 -0.833334,0.833333 H 4.8035417 c -0.46,0 -0.8333333,-0.3725 -0.8333333,-0.833333 0,-0.4608333 0.3733333,-0.8333333 0.8333333,-0.8333333 H 21.470208 c 0.460834,0 0.833334,0.3725 0.833334,0.8333333 z m 0,3.333333 c 0,0.460834 -0.3725,0.833334 -0.833334,0.833334 H 4.8035417 c -0.46,0 -0.8333333,-0.3725 -0.8333333,-0.833334 C 3.9702084,12.8725 4.3435417,12.5 4.8035417,12.5 H 21.470208 c 0.460834,0 0.833334,0.3725 0.833334,0.833333 z m 0,3.333334 c 0,0.460833 -0.3725,0.833333 -0.833334,0.833333 H 4.8035417 c -0.46,0 -0.8333333,-0.3725 -0.8333333,-0.833333 0,-0.460834 0.3733333,-0.833334 0.8333333,-0.833334 H 21.470208 c 0.460834,0 0.833334,0.3725 0.833334,0.833334 z" style="fill:#99aab5;stroke-width:0.83333331" />
<path d="M 25.636875,5.2266667 C 24.947708,4.7808334 24.106042,4.7441667 23.536042,5.2075 l -0.66,0.5383334 -1.236667,1.0091666 -0.08333,0.066667 -1.98,1.615 -9.8983336,8.071666 c -0.3641667,0.2975 -0.6608334,1.015834 -0.9775,1.728334 -0.315,0.708333 -0.8075,2.376666 -1.2025,3.659166 -0.1233334,0.208334 -0.8875,1.538334 -0.4591667,2.044167 0.4333333,0.5125 1.9383333,0.0083 2.14,-0.06333 1.3550003,-0.145 3.1091663,-0.310834 3.8733333,-0.483334 0.77,-0.175833 1.545,-0.329166 1.909167,-0.626666 0.0067,-0.005 0.0083,-0.015 0.01417,-0.01917 l 9.881667,-8.055 0.66,-0.538333 0.12,-0.09833 z" style="fill:#66757f;stroke-width:0.83333331" />
<path d="m 14.924375,18.771667 c 0,0 -1.061667,-1.5675 -1.764167,-2.1275 -0.56,-0.7025 -2.124166,-1.763334 -2.124166,-1.763334 -0.373334,-0.371666 -0.9925,-0.4 -1.3575003,-0.03583 -0.3641667,0.365 -0.6608333,1.138333 -0.9775,1.909167 -0.3933333,0.955 -1.0633333,3.461666 -1.4733333,4.793333 -0.069167,0.226667 0.4308333,-0.375 0.4191666,-0.175 -0.00833,0.155833 0.0225,0.328333 0.061667,0.484167 l -0.1216667,0.1325 0.1733334,0.05583 c 0.020833,0.06833 0.041667,0.128333 0.056667,0.175 l 0.1325,-0.121667 c 0.1558334,0.03917 0.3283334,0.07 0.4833334,0.06167 0.2,-0.01167 -0.4025,0.489167 -0.175,0.419167 1.3316666,-0.410834 3.8391669,-1.08 4.7933339,-1.473334 0.77,-0.3175 1.545,-0.613333 1.909166,-0.978333 0.365834,-0.3625 0.338334,-0.981667 -0.03583,-1.355833 z" style="fill:#d99e82;stroke-width:0.83333331" />
<path d="m 20.896875,3.6258334 c -0.73,0.7291666 -0.73,1.9108333 0,2.64 l 2.639167,2.64 c 0.73,0.7283333 1.911666,0.7283333 2.64,0 l 2.640833,-2.64 c 0.728333,-0.7291667 0.728333,-1.9108334 0,-2.64 L 26.176042,0.98583339 c -0.728334,-0.72916666 -1.91,-0.72916666 -2.64,0 z" style="fill:#ea596e;stroke-width:0.83333331" />
<path d="m 9.6777084,14.845833 2.6416666,2.641667 2.6375,2.638333 9.900833,-9.899166 -5.280833,-5.2800003 z" style="fill:#ffcc4d;stroke-width:0.83333331" />
<path d="m 9.2185417,22.285 c 0,0 -1.7166667,0.944167 -2.18,0.48 -0.4641667,-0.465 0.4841667,-2.175833 0.4841667,-2.175833 0,0 1.6258333,0.03 1.6958333,1.695833 z" style="fill:#292f33;stroke-width:0.83333331" />
<path d="m 19.576875,4.9458334 3.3,-3.3 5.28,5.2808333 -3.3,3.3000003 z" style="fill:#ccd6dd;stroke-width:0.83333331" />
<path d="m 21.556042,2.965 0.66,-0.6599999 5.28,5.2791666 -0.66,0.66 z m -1.319167,1.32 0.659167,-0.6591666 5.28,5.2791666 -0.66,0.66 z" style="fill:#99aab5;stroke-width:0.83333331" />
</svg>
