<?xml version="1.0" encoding="UTF-8" standalone="no"?>
<svg viewBox="0 0 30 30">
  <path d="M 15 0 C 12.834089 0 10.758123 0.8692187 9.2265625 2.4179688 C 7.6950325 3.9667356 6.8339844 6.0675395 6.8339844 8.2578125 L 6.8339844 12.134766 L 5.6679688 12.134766 C 3.3667887 12.134766 1.5 14.020622 1.5 16.347656 L 1.5 25.787109 C 1.5 28.114143 3.3667888 30 5.6679688 30 L 24.333984 30 C 26.635165 30 28.5 28.114143 28.5 25.787109 L 28.5 16.347656 C 28.5 14.020622 26.635165 12.134766 24.333984 12.134766 L 23.167969 12.134766 L 23.167969 8.2578125 C 23.167969 6.0675395 22.306921 3.9667354 20.775391 2.4179688 C 19.243832 0.8692177 17.16594 -2.9605947e-16 15 0 z M 15 3 A 5.1821251 5.3128943 0 0 1 20.175781 8.140625 A 5.1821251 5.3128943 0 0 1 20.181641 8.3125 A 5.1821251 5.3128943 0 0 1 20.175781 8.4355469 L 20.175781 12.144531 L 18.587891 12.144531 L 11.419922 12.144531 L 9.84375 12.144531 L 9.84375 8.7871094 A 5.1821251 5.3128943 0 0 1 9.8183594 8.3125 A 5.1821251 5.3128943 0 0 1 15 3 z M 5.5625 15 L 24.4375 15 C 25.026125 15 25.5 15.473875 25.5 16.0625 L 25.5 25.9375 C 25.5 26.526125 25.026125 27 24.4375 27 L 5.5625 27 C 4.973875 27 4.5 26.526125 4.5 25.9375 L 4.5 16.0625 C 4.5 15.473875 4.973875 15 5.5625 15 z " />
</svg>
