<svg version="1.1" viewBox="0 0 30 30">
 <g transform="translate(-90 -132.89)">
  <path d="m100.46 152.24c-0.0498-0.30493-0.10838-0.59339-0.18005-0.85028-0.54184-1.9428-0.99632-2.7652-0.80229-4.8016 0.25346-1.3844 0.23859-4.1627 3.918-3.7301 0.97184 0.11448 2.4847 0.81016 3.3508 0.79532 0.49553-9e-3 0.85654-1.0112 0.8888-1.345 0.0446-0.45971-0.75597-1.241-1.0907-1.3581-0.33474-0.11712-1.7584-0.55148-2.3431-0.72016-0.90805-0.26307-0.86085-1.4901-0.91854-1.9271-0.0271-0.20539 0.0734-0.40814 0.25694-0.51652 0.18353-0.10835 0.32775-7e-3 0.50602 0.10925l0.77346 0.56633c0.43437 0.37231-0.76383 1.0837-0.43959 1.2026 0 0 1.5338 0.57594 2.191 0.69568 0.36008 0.0656 1.6029-1.3363 1.6754-2.1587 0.0567-0.64673-2.9697-3.5684-5.1276-4.7028-0.75861-0.39853-1.2035-0.63013-1.7034-0.60653-0.59692 0.028-0.78482 0.26393-1.5277 0.90018-3.3621 2.8762-6.6255 9.0962-7.1044 10.473-1.9629 5.6467-2.2697 8.6217-2.3396 10.302-0.04282 0.51569-0.06642 1.0286-0.06642 1.5365 0.05681 0-0.87397 4.3697 0 5.2438 0.87396 0.87388 4.6547 0.87388 4.6547 0.87388 8.7397 3.4863 24.969 2.5765 24.969-6.3213 0-10.638-16.442-9.2265-19.541-3.6603z" fill="#ffdc5d" stroke-width="1.7346"/>
 </g>
</svg>
