<svg version="1.1" viewBox="0 0 30 30">
 <g transform="translate(-90 -133.52)" stroke-width="1.6787">
  <path d="m92.426 155.42 2.8806 2.8806-0.77471 0.77387-2.8806-2.8798z" fill="#77b255"/>
  <path d="m95.232 158.22 2.8798 2.8806-0.77471 0.7747-2.8789-2.8806z" fill="#ffd983"/>
  <path d="m95.157 153.73 2.8806 2.8806-0.77471 0.77471-2.8806-2.8806z" fill="#ffac33"/>
  <path d="m97.444 156.02 2.8806 2.8806-0.7747 0.77471-2.8798-2.8806zm3.281-7.8553 2.8798 2.8806-0.77471 0.77471-2.8798-2.8806z" fill="#ea596e"/>
  <path d="m103.01 150.45 2.8806 2.8798-0.7747 0.7747-2.8806-2.8798z" fill="#ffac33"/>
  <path d="m102.46 145.46 2.8806 2.8806-0.77387 0.77471-2.8806-2.8806z" fill="#77b255"/>
  <path d="m105.23 148.23 2.8807 2.8806-0.7747 0.77471-2.8807-2.8806z" fill="#ffd983"/>
  <path d="m104.68 143.24 2.8806 2.8806-0.7747 0.77387-2.8806-2.8798z" fill="#ffac33"/>
  <path d="m107.45 146.01 2.8806 2.8798-0.77471 0.77471-2.8798-2.8806zm2.9075-8.4588 2.8806 2.8806-0.77471 0.77387-2.8806-2.8798z" fill="#ea596e"/>
  <path d="m113.14 140.33 2.8806 2.8798-0.77471 0.77471-2.8806-2.8806z" fill="#ffac33"/>
  <path d="m112.56 135.28 2.8806 2.8806-0.77471 0.77471-2.8806-2.8806z" fill="#77b255"/>
  <path d="m115.37 138.09 2.8806 2.8798-0.77471 0.7747-2.8806-2.8798z" fill="#ffd983"/>
  <path d="m110.81 134.07c-2.1151 2.1151-2.1831 5.1577-2.011 8.2305 0.42051 0.0235 0.84102 0.0512 1.2607 0.0789 0.32734 0.0218 0.65048 0.0428 0.97279 0.0621-0.16619-2.7581-0.16703-5.287 1.348-6.802 0.6102-0.59005 0.80157-1.3874 0.37519-1.818-0.44905-0.45324-1.2943-0.41715-1.9456 0.24845z" fill="#9266cc"/>
  <path d="m100.93 154.92-0.12842-2.2326c-0.0218-0.37351-0.0487-0.75457-0.0621-1.118-0.24844-0.24844-2.0698-0.29293-2.2268-0.13597 0.01091 0.36931 0.03945 0.74197 0.05959 1.1138 0.0235 0.42134 0.10576 1.9095 0.12506 2.2326 0.04532 0.7638 0.08058 1.5158 0.07218 2.2293 0.21739 0.21739 1.9901 0.36679 2.22 0.13598 0.0126-0.73191-0.0185-1.4781-0.0596-2.2251z" fill="#3b88c3"/>
  <path d="m100.99 157.14-2.2234-0.13598c-0.02182 1.8541-0.32231 3.479-1.416 4.5727-0.43394 0.43394-0.43394 1.1365 0 1.5704 0.21655 0.21655 0.50108 0.32566 0.78478 0.32566s0.56823-0.10827 0.78478-0.32566c2.0337-2.0329 2.0706-6.0214 2.0698-6.0071z" fill="#55acee"/>
  <path d="m111.17 144.68c-0.42051-0.0235-0.84186-0.0512-1.2615-0.0789-0.3265-0.0218-0.65048-0.0428-0.97195-0.0621 0.16619 2.7572 0.16703 5.287-1.3488 6.8019-1.5142 1.5142-4.0398 1.515-6.7936 1.3488-0.32399-0.0193-1.8121-0.11751-2.2293-0.14101-3.0778-0.17291-6.1246-0.10576-8.2423 2.0119-0.4331 0.4331-0.4331 1.1356 8.39e-4 1.5696 0.21655 0.21655 0.50108 0.32566 0.78478 0.32566s0.56823-0.10827 0.78478-0.32566c1.515-1.5142 4.0414-1.5158 6.797-1.3497 0.32314 0.0193 1.8138 0.11751 2.2326 0.14101 3.0737 0.17207 6.118 0.10492 8.2348-2.011 2.116-2.1151 2.1848-5.1577 2.0127-8.2305z" fill="#9266cc"/>
  <path d="m111.17 144.68c-0.0235-0.4205-0.12171-1.9112-0.14101-2.2326-0.0227-0.3777-0.0411-0.75037-0.0537-1.118-0.28202-0.0176-1.7626-0.11163-2.2268-0.13681 0.0109 0.36931 0.0269 0.74113 0.047 1.113 0.0235 0.42051 0.1217 1.9112 0.14101 2.2335 0.0462 0.76715 0.0764 1.5142 0.068 2.2293 0.2795 0.0176 1.7576 0.1108 2.22 0.13598 0.0126-0.7319-0.0126-1.4764-0.0546-2.2242z" fill="#744eaa"/>
  <path d="m119.76 140.8c-0.35252-0.36595-1.1625-0.50444-1.9229 0.29629-1.515 1.515-4.0431 1.5158-6.802 1.3488-0.32231-0.0193-1.813-0.11834-2.2335-0.14184-3.0719-0.17207-6.1153-0.10324-8.2305 2.0119-1.8591 1.8591-2.1361 4.435-2.0589 7.1176 0.46415 0.0252 1.9464 0.11918 2.2268 0.13597-0.0823-2.3124 0.0948-4.3763 1.4025-5.684 1.515-1.515 4.0439-1.515 6.8019-1.3488 0.32147 0.0193 1.813 0.11751 2.2335 0.14101 3.0728 0.17207 6.1154 0.10408 8.2305-2.011 0.74365-0.72938 0.70504-1.4999 0.35252-1.8658z" fill="#55acee"/>
 </g>
</svg>
