<?xml version="1.0" encoding="UTF-8" standalone="no"?>
<svg
   viewBox="0 0 30 30">
  <path
     d="m 14.999985,30.000809 c 7.824025,0 14.1667,-6.342625 14.1667,-14.16665 0,-7.8240504 -6.342675,-14.1666779 -14.1667,-14.1666779 -7.82405,0 -14.16667,6.3426275 -14.16667,14.1666779 0,7.824025 6.34262,14.16665 14.16667,14.16665 z"
     fill="#f4900c"
     style="stroke-width:2.5" />
  <path
     d="m 14.999985,28.333309 c 7.824025,0 14.1667,-6.3426 14.1667,-14.16665 C 29.166685,6.3426336 22.82401,0 14.999985,0 7.175935,0 0.833315,6.3426336 0.833315,14.166659 c 0,7.82405 6.34262,14.16665 14.16667,14.16665 z"
     fill="#ffcc4d"
     style="stroke-width:2.5" />
  <path
     d="m 14.999985,26.665809 c 6.443325,0 11.6667,-5.2233 11.6667,-11.666625 0,-6.4433254 -5.223375,-11.6666754 -11.6667,-11.6666754 -6.443325,0 -11.666675,5.22335 -11.666675,11.6666754 0,6.443325 5.22335,11.666625 11.666675,11.666625 z"
     fill="#ffe8b6"
     style="stroke-width:2.5" />
  <path
     d="m 14.999985,25.833309 c 6.443325,0 11.6667,-5.223325 11.6667,-11.66665 0,-6.4433254 -5.223375,-11.6666504 -11.6667,-11.6666504 -6.443325,0 -11.666675,5.223325 -11.666675,11.6666504 0,6.443325 5.22335,11.66665 11.666675,11.66665 z"
     fill="#ffac33"
     style="stroke-width:2.5" />
  <path
     d="m 7.95246,9.0463086 c 0,-0.45415 0.445825,-0.635825 0.445825,-0.635825 l 6.565,-3.083325 6.6275,3.083325 c 0,0 0.456675,0.101675 0.456675,0.639175 v 0.53415 h -14.095 z"
     fill="#ffe8b6"
     style="stroke-width:2.5" />
  <path
     d="m 21.606935,10.697734 c 0,-0.486675 -0.420825,-0.8808504 -0.93915,-0.8808504 H 9.27361 c -0.519175,0 -0.880825,0.3941754 -0.880825,0.8808504 0,0.330825 0.17,0.615825 0.440825,0.76665 v 0.555 h 1.761675 v -0.440825 h 1.76165 v 0.440825 h 1.761675 v -0.440825 h 1.761675 v 0.440825 h 1.76165 v -0.440825 h 1.761675 v 0.440825 h 1.7625 v -0.5775 c 0.264175,-0.15665 0.440825,-0.430825 0.440825,-0.74415 z m 1.32085,9.303325 c 0,0.365 -0.29585,0.660825 -0.66085,0.660825 h -14.535 c -0.365,0 -0.660825,-0.295825 -0.660825,-0.660825 0,-0.365 0.295825,-0.660825 0.660825,-0.660825 h 14.53585 c 0.36415,0 0.66,0.295825 0.66,0.660825 z"
     fill="#f4900c"
     style="stroke-width:2.5" />
  <path
     d="m 22.047685,10.167384 c 0,0.24335 -0.196675,0.44085 -0.44085,0.44085 H 8.392685 c -0.24335,0 -0.44085,-0.1975 -0.44085,-0.44085 0,-0.2433254 0.1975,-0.4408254 0.44085,-0.4408254 l 13.21415,0.0025 c 0.244175,8.25e-4 0.44085,0.195 0.44085,0.4383254 z m -11.8925,0.511675 h 9.690825 v 0.988325 h -9.690825 z"
     fill="#f4900c"
     style="stroke-width:2.5" />
  <path
     d="m 10.595685,17.356534 c 0,0.48665 -0.263325,0.880825 -0.5875,0.880825 h -0.5875 c -0.32415,0 -0.5875,-0.394175 -0.5875,-0.880825 v -6.67835 c 0,-0.48665 0.26335,-0.8808254 0.5875,-0.8808254 h 0.5875 c 0.324175,0 0.5875,0.3941754 0.5875,0.8808254 z m 10.571675,0 c 0,0.48665 -0.2625,0.880825 -0.5875,0.880825 h -0.5875 c -0.324175,0 -0.5875,-0.394175 -0.5875,-0.880825 v -6.67835 c 0,-0.48665 0.2625,-0.8808254 0.5875,-0.8808254 h 0.5875 c 0.324175,0 0.5875,0.3941754 0.5875,0.8808254 z m -7.0475,0 c 0,0.48665 -0.263325,0.880825 -0.5875,0.880825 h -0.5875 c -0.324175,0 -0.5875,-0.394175 -0.5875,-0.880825 v -6.67835 c 0,-0.48665 0.263325,-0.8808254 0.5875,-0.8808254 h 0.5875 c 0.324175,0 0.5875,0.3941754 0.5875,0.8808254 z m 3.523325,0 c 0,0.48665 -0.263325,0.880825 -0.5875,0.880825 h -0.58665 c -0.324175,0 -0.5875,-0.394175 -0.5875,-0.880825 v -6.67835 c 0,-0.48665 0.263325,-0.8808254 0.5875,-0.8808254 h 0.58665 c 0.324175,0 0.5875,0.3941754 0.5875,0.8808254 z"
     fill="#ffd983"
     style="stroke-width:2.5" />
  <path
     d="m 21.60731,17.797334 c 0,0.486675 -0.394175,0.880825 -0.88085,0.880825 H 9.27396 c -0.486675,0 -0.880825,-0.39415 -0.880825,-0.880825 0,-0.486675 0.39415,-0.880825 0.880825,-0.880825 h 11.4525 c 0.48585,0 0.88085,0.39415 0.88085,0.880825 z"
     fill="#ffcc4d"
     style="stroke-width:2.5" />
  <path
     d="m 22.48906,18.678684 c 0,0.486675 -0.394175,0.88085 -0.880825,0.88085 h -13.215 c -0.486675,0 -0.88085,-0.394175 -0.88085,-0.88085 0,-0.486675 0.394175,-0.880825 0.88085,-0.880825 h 13.21415 c 0.486675,0 0.881675,0.39415 0.881675,0.880825 z"
     fill="#ffd983"
     style="stroke-width:2.5" />
  <path
     d="m 22.927785,19.340034 c 0,0.365 -0.29585,0.660825 -0.66085,0.660825 h -14.535 c -0.365,0 -0.660825,-0.295825 -0.660825,-0.660825 0,-0.365 0.295825,-0.660825 0.660825,-0.660825 h 14.53585 c 0.36415,0 0.66,0.295825 0.66,0.660825 z"
     fill="#ffd983"
     style="stroke-width:2.5" />
  <path
     d="m 21.60731,10.238734 c 0,-0.4866504 -0.42085,-0.8808254 -0.939175,-0.8808254 H 9.27396 c -0.519175,0 -0.880825,0.394175 -0.880825,0.8808254 0,0.33085 0.17,0.61585 0.440825,0.766675 v 0.555 h 1.761675 v -0.440825 h 1.76165 v 0.440825 h 1.761675 v -0.440825 h 1.761675 v 0.440825 h 1.761675 v -0.440825 h 1.76165 v 0.440825 h 1.7625 v -0.5775 c 0.264175,-0.156675 0.44085,-0.430825 0.44085,-0.744175 z"
     fill="#ffcc4d"
     style="stroke-width:2.5" />
  <path
     d="m 7.95246,9.5516836 c 0,-0.454175 0.445825,-0.635825 0.445825,-0.635825 l 6.565,-3.08335 6.6275,3.08335 c 0,0 0.456675,0.10165 0.456675,0.63915 v 0.2425 h -14.095 z"
     fill="#ffd983"
     style="stroke-width:2.5" />
  <path
     d="m 15.000185,6.9531336 c 0,0 -4.54585,2.1425 -4.999175,2.335825 -0.454175,0.1925 -0.3025,0.509175 8.25e-4,0.509175 h 9.975 c 0.46835,0 0.3575,-0.3575 -0.01415,-0.55085 -0.371675,-0.1925 -4.9625,-2.29415 -4.9625,-2.29415 z"
     fill="#ffac33"
     style="stroke-width:2.5" />
  <path
     d="m 22.047685,9.7963086 c 0,0.2433254 -0.196675,0.4408254 -0.44085,0.4408254 H 8.392685 c -0.24335,0 -0.44085,-0.1975 -0.44085,-0.4408254 0,-0.24335 0.1975,-0.44085 0.44085,-0.44085 l 13.21415,0.0025 c 0.244175,8.5e-4 0.44085,0.195 0.44085,0.43835 z"
     fill="#ffd983"
     style="stroke-width:2.5" />
</svg>
