<?xml version="1.0" encoding="UTF-8" standalone="no"?>
<svg viewBox="0 0 30 30">
  <path
     d="M 3.316695,19.613371 C 3.1405229,20.088465 2.6534939,20.311594 2.2296536,20.114489 1.8058035,19.916463 1.6055118,19.372587 1.7817014,18.898441 L 5.6187999,7.2418714 C 5.794972,6.7677243 6.282001,6.543648 6.7050036,6.7407539 7.1288538,6.9387799 7.3291604,7.4826543 7.1529633,7.9568013 Z"
     fill="#66757f"
     id="path606"
     style="stroke-width:2.63702" />
  <path
     d="m 11.629744,18.898469 c 0.176172,0.474148 -0.02411,1.018021 -0.447959,1.216047 -0.423849,0.197078 -0.910033,-0.02605 -1.087052,-0.501118 L 6.2593125,7.9568293 C 6.0831156,7.4826822 6.2833971,6.9388077 6.7072475,6.7407817 7.1310977,6.543676 7.6172788,6.7677239 7.7942987,7.2418714 Z m 8.311604,0.714929 c -0.17702,0.475067 -0.664024,0.698196 -1.087874,0.501118 -0.423852,-0.198026 -0.62331,-0.741899 -0.447111,-1.216047 L 22.242605,7.240951 c 0.176197,-0.4732267 0.66238,-0.697275 1.086228,-0.5001693 0.42385,0.198026 0.624981,0.7419005 0.44796,1.2160476 z"
     fill="#66757f"
     id="path608"
     style="stroke-width:2.63702" />
  <path
     d="m 28.249985,18.898441 c 0.176272,0.474146 -0.02318,1.018022 -0.447039,1.216048 -0.423849,0.197105 -0.910779,-0.02602 -1.087798,-0.501118 L 22.879603,7.9568013 c -0.177021,-0.474147 0.02412,-1.0180214 0.447958,-1.2160474 0.423851,-0.1971059 0.910033,0.026971 1.086204,0.5011175 z"
     fill="#66757f"
     id="path610"
     style="stroke-width:2.63702" />
  <path
     d="M 12.404542,18.755248 H 1.007135 c -0.52441,0 -0.94992322,0.475096 -0.94992322,1.062649 0,2.346579 2.97692462,4.249666 6.64863942,4.249666 3.6716908,0 6.6486148,-1.903087 6.6486148,-4.249666 0,-0.587553 -0.425496,-1.062649 -0.949924,-1.062649 z m 7.598564,11.156372 h -9.972948 c -0.458755,0 -0.83107,-0.415575 -0.83107,-0.929607 0,-2.053892 2.604585,-3.718845 5.817545,-3.718845 3.212959,0 5.817543,1.664953 5.817543,3.718845 0,0.514032 -0.371493,0.929607 -0.83107,0.929607 z M 29.026129,18.755248 H 17.628722 c -0.525252,0 -0.949924,0.475096 -0.949924,1.062649 0,2.346579 2.976077,4.249666 6.648615,4.249666 3.672463,0 6.648638,-1.903087 6.648638,-4.249666 0,-0.587553 -0.424598,-1.062649 -0.949922,-1.062649 z"
     fill="#ffac33"
     id="path612"
     style="stroke-width:2.63702" />
  <path
     d="m 15.903277,1.0740065 c 0,-0.51633399 -0.37278,-0.93538678 -0.833951,-0.93538678 -0.460346,0 -0.833976,0.41905279 -0.833976,0.93538678 V 26.329417 c 0,0.517457 0.37363,0.935574 0.833976,0.935574 0.461171,0 0.833951,-0.418117 0.833951,-0.935574 z"
     fill="#ffac33"
     id="path614"
     style="stroke-width:2.64966" />
  <path
     d="m 15.067675,3.8801694 c 0.921167,0 1.667928,-0.8375835 1.667928,-1.8707846 0,-1.03319003 -0.746761,-1.87076508 -1.667928,-1.87076508 -0.921168,0 -1.667905,0.83757505 -1.667905,1.87076508 0,1.0332011 0.746737,1.8707846 1.667905,1.8707846 z"
     fill="#ffac33"
     id="path616"
     style="stroke-width:2.64966" />
  <path
     d="m 6.7058512,9.4583692 c 0.9179849,0 1.6621412,-0.8324907 1.6621412,-1.8594094 0,-1.0269185 -0.7441563,-1.8593813 -1.6621412,-1.8593813 -0.9179848,0 -1.662166,0.8324628 -1.662166,1.8593813 0,1.0269187 0.7441812,1.8594094 1.662166,1.8594094 z"
     fill="#ffac33"
     id="path618"
     style="stroke-width:2.63702" />
  <path
     d="m 23.328236,9.4583692 c 0.917985,0 1.662091,-0.8324907 1.662091,-1.8594094 0,-1.0269185 -0.744106,-1.8593813 -1.662091,-1.8593813 -0.917985,0 -1.662167,0.8324628 -1.662167,1.8593813 0,1.0269187 0.744182,1.8594094 1.662167,1.8594094 z"
     fill="#ffac33"
     id="path620"
     style="stroke-width:2.63702" />
  <path
     d="m 23.328236,7.5989039 c 0,1.026389 0,0 -8.310781,0 -8.3108059,0 -8.3108059,1.026389 -8.3108059,0 0,-1.0263886 2.4932366,-3.7187905 8.3108059,-3.7187905 5.817544,0 8.310781,2.6924019 8.310781,3.7187905 z"
     fill="#ffac33"
     id="path622"
     style="stroke-width:2.63702" />
</svg>
