<svg viewBox="0 0 30 30">
<path d="M18 16C18 17.1045 17.1045 18 16 18H2C0.8955 18 0 17.1045 0 16V2C0 0.8955 0.8955 0 2 0H16C17.1045 0 18 0.8955 18 2V16Z" fill="#226699"/>
<path d="M5.5 4.49999C5.5 4.49999 9.145 2.22149 16 2.01549C16.326 2.00549 17 1.99999 17 2.49999C14 6.99999 12.5 14 12.5 14L5.5 4.49999Z" fill="#F4900C"/>
<path d="M6 8C6 8 12 2.5 16 2.0155C16.3235 1.976 17 2 17 2.5C13.5 4.5 11 12 11 12L6 8Z" fill="#FFAC33"/>
<path d="M7.578 6.21905C7.991 6.58255 8.772 6.80105 9.3135 6.70505L11.7595 6.27205C12.3015 6.17605 12.566 6.51105 12.3485 7.01605L11.3645 9.29755C11.1465 9.80255 11.18 10.6125 11.4385 11.0985L12.606 13.2905C12.865 13.7765 12.628 14.1315 12.0805 14.0805L9.607 13.849C9.0595 13.798 8.299 14.08 7.9175 14.476L6.1925 16.2645C5.811 16.6605 5.4 16.5455 5.279 16.0085L4.7345 13.585C4.614 13.0485 4.1105 12.4125 3.616 12.1715L1.3825 11.084C0.888 10.8435 0.8705 10.4165 1.3435 10.136L3.4805 8.86905C3.9535 8.58855 4.403 7.91355 4.479 7.36855L4.8235 4.90855C4.8995 4.36355 5.3 4.21505 5.713 4.57855L7.578 6.21905Z" fill="#FFD983"/>
</svg>
