<?xml version="1.0" encoding="UTF-8" standalone="no"?>
<svg viewBox="0 0 30 30">
   <path style="fill:#5c913b;" d="M 1.6666667,6.666667 C 0,6.666667 0,8.333333 0,8.333333 v 17.5 C 0,25.833333 0,27.5 1.6666667,27.5 H 28.333333 C 30,27.5 30,25.833333 30,25.833333 v -17.5 c 0,0 0,-1.666666 -1.666667,-1.666666 z" />
   <path style="fill:#a7d28b;" d="M 1.6666667,2.5 C 0,2.5 0,4.166667 0,4.166667 V 20.833333 C 0,20.833333 0,22.5 1.6666667,22.5 H 28.333333 C 30,22.5 30,20.833333 30,20.833333 V 4.166667 C 30,4.166667 30,2.5 28.333333,2.5 Z" />
   <path style="fill:#77b255;" d="M 26.25,12.5 A 5.4166665,5.4166665 0 0 1 20.833334,17.916667 5.4166665,5.4166665 0 0 1 15.416667,12.5 5.4166665,5.4166665 0 0 1 20.833334,7.0833335 5.4166665,5.4166665 0 0 1 26.25,12.5 Z" />
   <path style="fill:#5c913b;" d="M 27.5,21.25 H 2.5 C 1.8108333,21.25 1.25,20.689167 1.25,20 V 5 C 1.25,4.310833 1.8108333,3.75 2.5,3.75 h 25 c 0.689167,0 1.25,0.560833 1.25,1.25 v 15 c 0,0.689167 -0.560833,1.25 -1.25,1.25 z M 2.5,4.583333 C 2.2708333,4.583333 2.0833333,4.77 2.0833333,5 v 15 c 0,0.229167 0.1875,0.416667 0.4166667,0.416667 h 25 c 0.229167,0 0.416667,-0.1875 0.416667,-0.416667 V 5 c 0,-0.23 -0.1875,-0.416667 -0.416667,-0.416667 z" />
   <path style="fill:#ffe8b6;" d="m 11.666667,2.5 h 6.666666 v 20.051667 h -6.666666 z" />
   <path style="fill:#ffac33;" d="m 11.666667,22.5 h 6.666666 v 5 h -6.666666 z" />
   <path style="fill:#5c913b;" d="m 9.8416667,14.185833 c 0,-2.4825 -4.5775,-2.320833 -4.5775,-3.82 0,-0.725833 0.6941666,-1.08 1.4991666,-1.08 1.3541667,0 1.595,0.87 2.2083334,0.87 C 9.4058333,10.155833 9.615,9.8825 9.615,9.575833 9.615,8.8625 8.535,8.324167 7.4991667,8.1375 V 7.45 c 0,-0.429167 -0.3475,-0.776667 -0.7766667,-0.776667 -0.4291667,0 -0.7766667,0.348334 -0.7766667,0.776667 V 8.160833 C 4.8175,8.419167 3.845,9.2025 3.845,10.478333 c 0,2.385 4.5775,2.288334 4.5775,3.965 0,0.579167 -0.6283333,1.159167 -1.66,1.159167 -1.5475,0 -2.0633333,-1.0475 -2.6908333,-1.0475 -0.3066667,0 -0.58,0.2575 -0.58,0.645833 0,0.6175 1.0333333,1.359167 2.4558333,1.5675 l -8.333e-4,0.0033 V 17.55 c 0,0.428333 0.3483333,0.776667 0.7775,0.776667 C 7.1525,18.325833 7.5,17.9775 7.5,17.55 v -0.778333 c 0,-0.0083 -0.00417,-0.01583 -0.005,-0.02333 1.2791667,-0.239166 2.3466667,-1.071666 2.3466667,-2.5625 z" />
</svg>
