<?xml version="1.0" encoding="UTF-8" standalone="no"?>
<svg viewBox="0 0 30 30">
  <g
     clip-path="url(#clip0)"
     id="g306"
     transform="matrix(2.6455307,0.00437079,0.00755512,2.6629157,-0.92713187,-1.9659585)">
    <path
       d="m 5.99707,12 h 5.66663 c 0,0 -0.0223,-1.068 -0.518,-1.8597 -1.3033,-2.08062 -5.14863,0.193 -5.14863,0.193 z"
       fill="#a0041e"
       id="path280" />
    <path
       d="M 5.99967,12 H 0.333008 c 0,0 0.022333,-1.068 0.518,-1.8597 1.303662,-2.08062 5.148662,0.193 5.148662,0.193 z"
       fill="#a0041e"
       id="path282" />
    <path
       d="m 9.33125,9.66669 h -6.664 c -1,0 -1.65067,1.16671 -1.33333,2.33331 H 10.6646 C 10.9822,10.8334 10.3312,9.66669 9.33125,9.66669 Z"
       fill="#55acee"
       id="path284" />
    <path
       d="m 4.75684,10.0137 c 0.48866,0.355 0.988,0.3266 1.224,0.3266 0.236,0 0.73133,0.0284 1.21999,-0.3266 V 8.12567 H 4.75684 Z"
       fill="#ffdc5d"
       id="path286" />
    <path
       d="m 4.75488,8.39304 c 0.34067,0.385 0.76334,0.48933 1.22267,0.48933 0.45967,0 0.88233,-0.104 1.22333,-0.48933 V 7.41437 h -2.446 z"
       fill="#f9ca55"
       id="path288" />
    <path
       d="M 7.23002,0.871703 C 6.59535,0.66637 5.10202,0.72237 4.72869,1.2077 3.75802,1.22637 2.61935,2.1037 2.47002,3.26104 2.32235,4.4067 2.65169,4.93837 2.76869,5.7997 c 0.13266,0.976 0.68133,1.288 1.12,1.41867 0.631,0.83367 1.302,0.798 2.42833,0.798 2.19967,0 3.24733,-1.47167 3.34,-3.97167 0.056,-1.51166 -0.83133,-2.657 -2.427,-3.172997 z"
       fill="#ffac33"
       id="path290" />
    <path
       d="m 8.48768,4.15198 c -0.213,-0.29467 -0.48533,-0.532 -1.08267,-0.616 0.224,0.10267 0.43867,0.45733 0.46667,0.65333 0.028,0.196 0.056,0.35467 -0.12133,0.15867 -0.71034,-0.78533 -1.484,-0.476 -2.251,-0.95567 -0.53567,-0.335 -0.69867,-0.70566 -0.69867,-0.70566 0,0 -0.06533,0.49466 -0.87733,0.99866 -0.23534,0.146 -0.51634,0.47167 -0.672,0.952 -0.112,0.34534 -0.07734,0.65334 -0.07734,1.17967 0,1.53633 1.26634,2.82833 2.82834,2.82833 1.562,0 2.82833,-1.303 2.82833,-2.82833 -3.3e-4,-0.95567 -0.10033,-1.329 -0.343,-1.665 z"
       fill="#ffdc5d"
       id="path292" />
    <path
       d="m 5.96247,7.84764 c -0.53533,0 -0.81567,-0.26466 -0.84567,-0.295 -0.08933,-0.089 -0.08933,-0.23333 0,-0.32233 0.08867,-0.08833 0.23067,-0.089 0.32034,-0.00233 0.01166,0.01066 0.18366,0.16366 0.52533,0.16366 0.346,0 0.51833,-0.15766 0.52533,-0.164 0.091,-0.08533 0.23434,-0.08266 0.321,0.00667 0.08667,0.08967 0.08667,0.23033 -0.00133,0.31833 -0.03,0.03034 -0.31,0.295 -0.845,0.295 z"
       fill="#c1694f"
       id="path294" />
    <path
       d="m 8.17489,4.33331 c -0.932,0 -1.55333,0.28567 -2.17433,0.28567 -0.621,0 -1.24267,-0.28567 -2.17434,-0.28567 -0.932,0 -0.31066,1.63434 0,1.92 0.31067,0.28567 1.55334,-0.28566 2.17434,-0.28566 0.621,0 1.86366,0.57133 2.17433,0.28566 0.31067,-0.28566 0.932,-1.92 0,-1.92 z"
       fill="#226699"
       id="path296" />
    <path
       d="m 4.83278,5.75634 c -0.155,0 -0.282,-0.127 -0.282,-0.28233 V 5.19234 c 0,-0.155 0.127,-0.282 0.282,-0.282 0.15533,0 0.28233,0.127 0.28233,0.282 V 5.47401 C 5.11478,5.62934 4.98778,5.75634 4.83278,5.75634 Z m 2.33334,0 c -0.155,0 -0.282,-0.127 -0.282,-0.28233 V 5.19234 c 0,-0.155 0.127,-0.282 0.282,-0.282 0.155,0 0.282,0.127 0.282,0.282 v 0.28167 c 0,0.15533 -0.127,0.28233 -0.282,0.28233 z"
       fill="#88c9f9"
       id="path298" />
    <path
       d="M 6.25902,6.83333 H 5.69569 c -0.07767,0 -0.141,-0.06333 -0.141,-0.141 v -0.051 C 5.55469,6.56367 5.61769,6.5 5.69569,6.5 h 0.56333 c 0.07767,0 0.14133,0.06333 0.14133,0.14133 v 0.051 c 0,0.07767 -0.06333,0.141 -0.14133,0.141 z"
       fill="#c1694f"
       id="path300" />
    <path
       d="M 8.01856,12 C 7.6149,11.602 6.86323,11.3333 5.9999,11.3333 5.13656,11.3333 4.3849,11.602 3.98123,12 Z M 5.9999,10.3407 c 0,0 -1.66667,-0.0074 -2.33334,0.326 0,0 -0.43966,-0.9927 -1.23433,-1.10837 -0.985,-0.14333 -1.580668,0.58197 -1.580668,0.58197 0,0 0.294668,-0.59497 0.971668,-0.93197 0.656,-0.32633 1.346,0.025 1.346,0.025 0,0 0.4,-0.24633 0.73333,-0.24633 0.35534,0 0.69834,0.03133 0.889,0.30467 0.23967,0.34366 0.875,1.04903 1.20834,1.04903 z"
       fill="#dd2e44"
       id="path302" />
    <path
       d="m 5.99707,10.3406 c 0,0 1.66667,-0.0073 2.33333,0.326 0,0 0.43967,-0.99263 1.23434,-1.1083 0.98496,-0.14333 1.58066,0.582 1.58066,0.582 0,0 -0.2947,-0.595 -0.9717,-0.932 -0.65596,-0.32633 -1.34596,0.02467 -1.34596,0.02467 0,0 -0.4,-0.24634 -0.73334,-0.24634 -0.35533,0 -0.69833,0.03134 -0.889,0.30467 -0.23933,0.344 -0.875,1.0493 -1.20833,1.0493 z"
       fill="#dd2e44"
       id="path304" />
  </g>
  <defs
     id="defs311">
    <clipPath
       id="clip0">
      <rect
         width="12"
         height="12"
         fill="white"
         id="rect308" />
    </clipPath>
  </defs>
</svg>
