<?xml version="1.0" encoding="UTF-8" standalone="no"?><svg viewBox="0 0 30 30"><path style="fill:#55acee;stroke-width:0.83333331" d="M 20.833333,2e-8 H 9.166667 C 8.2466666,2e-8 7.5,0.74666668 7.5,1.6666667 v 9.1666663 c 0,0 0,0.833334 0.8333333,1.666667 l 5.3574997,4.166667 h 2.618334 L 21.666667,12.5 C 22.5,11.666667 22.5,10.833333 22.5,10.833333 V 1.6666667 C 22.5,0.74666668 21.753333,2e-8 20.833333,2e-8 Z" /><path style="fill:#e1e8ed;stroke-width:0.83333331" d="M 10,2e-8 V 13.795833 l 3.690833,2.870834 h 2.618334 L 20,13.795833 V 2e-8 Z" /><path style="fill:#dd2e44;stroke-width:0.83333331" d="M 11.666667,2e-8 V 15.0925 l 2.024166,1.574167 h 2.618334 L 18.333333,15.0925 V 2e-8 Z" /><path style="fill:#ffac33;stroke-width:0.83333331" d="m 18.251667,17.516667 c 0.05,-0.135834 0.08167,-0.280834 0.08167,-0.433334 0,-0.69 -0.56,-1.25 -1.25,-1.25 h -4.166666 c -0.690834,0 -1.25,0.56 -1.25,1.25 0,0.1525 0.03167,0.2975 0.08167,0.433334 C 9.711667,18.6575 8.3333333,20.833333 8.3333333,23.333333 8.3333333,27.015 11.3175,30 15,30 c 3.681667,0 6.666667,-2.985 6.666667,-6.666667 0,-2.5 -1.378334,-4.675833 -3.415,-5.816666 z" /><path d="m 20,23.333333 a 5,5 0 0 1 -5,5 5,5 0 0 1 -5,-5 5,5 0 0 1 5,-5 5,5 0 0 1 5,5 z" style="fill:#ffd983;stroke-width:0.83333331" /><path style="fill:#ffac33;stroke-width:0.83333331" d="m 17.275833,26.966667 c -0.09917,0 -0.1975,-0.03 -0.2825,-0.09083 L 15,25.445837 l -1.994167,1.43 c -0.17,0.121667 -0.3975,0.121667 -0.566666,-0.0017 -0.169167,-0.1225 -0.24,-0.339167 -0.176667,-0.5375 l 0.743333,-2.4 -1.975833,-1.3925 c -0.168333,-0.124167 -0.2375,-0.341667 -0.173333,-0.54 0.065,-0.198334 0.249166,-0.3325 0.4575,-0.334167 l 2.4475,-0.0033 0.779166,-2.340834 C 14.606667,19.1275 14.791667,18.994167 15,18.994167 c 0.208333,0 0.393333,0.133333 0.459167,0.331666 l 0.765833,2.340834 2.46,0.0033 c 0.209167,0.0017 0.393333,0.135833 0.4575,0.334167 0.06417,0.198333 -0.005,0.415833 -0.173333,0.54 l -1.975834,1.3925 0.743334,2.4 c 0.06333,0.198333 -0.0083,0.415 -0.176667,0.5375 -0.08417,0.06167 -0.184167,0.0925 -0.284167,0.0925 z" /></svg>
