<?xml version="1.0" encoding="UTF-8" standalone="no"?>
<svg
   viewBox="0 0 30 30">
  <g
     transform="translate(-102.61875,-146.11875)">
    <path
       d="m 129.28542,146.11875 h -18.33334 c -1.84083,0 -3.33333,1.4925 -3.33333,3.33333 v 20 h -1.66667 c -1.84083,0 -3.33333,1.4925 -3.33333,3.33334 0,1.84083 1.4925,3.33333 3.33333,3.33333 h 20 c 1.84084,0 3.33334,-1.4925 3.33334,-3.33333 v -20 c 1.84083,0 3.33333,-1.4925 3.33333,-3.33334 0,-1.84083 -1.4925,-3.33333 -3.33333,-3.33333 z"
       fill="#ffd983"
       style="stroke-width:1.66667" />
    <path
       d="m 109.28542,154.45208 h 20 v -1.66666 h -18.33334 l -1.66666,-0.83334 z"
       fill="#e39f3d"
       style="stroke-width:1.66667" />
    <path
       d="m 110.95208,146.11875 c -1.84083,0 -3.33333,1.4925 -3.33333,3.33333 v 20.4625 c -0.49167,-0.28666 -1.05667,-0.4625 -1.66667,-0.4625 -1.84083,0 -3.33333,1.4925 -3.33333,3.33334 0,1.84083 1.4925,3.33333 3.33333,3.33333 1.84084,0 3.33334,-1.4925 3.33334,-3.33333 v -20.4625 c 0.49166,0.28666 1.05666,0.4625 1.66666,0.4625 1.84084,0 3.33334,-1.4925 3.33334,-3.33334 0,-1.84083 -1.4925,-3.33333 -3.33334,-3.33333 z"
       fill="#ffe8b6"
       style="stroke-width:1.66667" />
    <path
       d="m 112.61875,149.45208 c 0,0.92 -0.74667,1.66667 -1.66667,1.66667 -0.92,0 -1.66666,-0.74667 -1.66666,-1.66667 0,-0.92 0.74666,-1.66666 1.66666,-1.66666 0.92,0 1.66667,0.74666 1.66667,1.66666 z m -5,23.33334 c 0,0.92 -0.74667,1.66666 -1.66667,1.66666 -0.92,0 -1.66666,-0.74666 -1.66666,-1.66666 0,-0.92 0.74666,-1.66667 1.66666,-1.66667 0.92,0 1.66667,0.74667 1.66667,1.66667 z m 20,-14.16667 c 0,0.46 -0.3725,0.83333 -0.83333,0.83333 h -15 c -0.46,0 -0.83334,-0.37333 -0.83334,-0.83333 0,-0.46 0.37334,-0.83333 0.83334,-0.83333 h 15 c 0.46083,0 0.83333,0.37333 0.83333,0.83333 z m 0,3.33333 c 0,0.46084 -0.3725,0.83334 -0.83333,0.83334 h -15 c -0.46,0 -0.83334,-0.3725 -0.83334,-0.83334 0,-0.46083 0.37334,-0.83333 0.83334,-0.83333 h 15 c 0.46083,0 0.83333,0.3725 0.83333,0.83333 z m 0,3.33334 c 0,0.46083 -0.3725,0.83333 -0.83333,0.83333 h -15 c -0.46,0 -0.83334,-0.3725 -0.83334,-0.83333 0,-0.46084 0.37334,-0.83334 0.83334,-0.83334 h 15 c 0.46083,0 0.83333,0.3725 0.83333,0.83334 z m 0,3.33333 c 0,0.46083 -0.3725,0.83333 -0.83333,0.83333 h -15 c -0.46,0 -0.83334,-0.3725 -0.83334,-0.83333 0,-0.46083 0.37334,-0.83333 0.83334,-0.83333 h 15 c 0.46083,0 0.83333,0.3725 0.83333,0.83333 z"
       fill="#c1694f"
       style="stroke-width:1.66667" />
  </g>
</svg>
