<?xml version="1.0" encoding="UTF-8" standalone="no"?>
<svg viewBox="0 0 30 30">
  <path d="M 27.532223,22.100842 C 24.329368,19.923934 15.040004,24.534446 15,24.554448 14.960829,24.534446 5.6714656,19.923934 2.467777,22.100842 -0.01749859,23.790196 3.3515e-6,28.72241 3.3515e-6,28.72241 H 29.999997 c 0,0 0.0175,-4.932214 -2.467774,-6.621568 z" style="fill:#a0041e;" />
  <path d="m 26.669627,22.88843 c -1.796032,-0.904267 -3.333703,0 -3.333703,0 L 15.001667,22.055004 6.6674094,22.88843 c 0,0 -1.5376706,-0.904267 -3.333703,0 -3.32953592,1.676019 -1.6668515,5.83398 -1.6668515,5.83398 H 28.336479 c 0,0 1.662684,-4.157961 -1.666852,-5.83398 z" style="fill:#55acee;" />
  <path d="m 20.048893,28.72241 c -1.009278,-0.99511 -2.888653,-1.666852 -5.047226,-1.666852 -2.158573,0 -4.037948,0.671742 -5.0472265,1.666852 z" style="fill:#dd2e44;" />
  <path d="m 11.367931,22.502554 c 1.453494,1.056783 2.372763,1.636014 3.633736,1.636014 1.26014,0 2.179408,-0.580064 3.632903,-1.636014 v -3.53956 h -7.267473 v 3.53956 z" style="fill:#d4ab88;" />
  <path d="m 25.380318,21.221578 c -1.627681,-0.221691 -2.995332,0.455884 -2.995332,0.455884 0,0 -0.704245,-0.495055 -1.537671,-0.511723 -1.224302,-0.025 -2.035226,0.779253 -2.511945,1.462662 -0.599233,0.859262 -2.500277,1.093454 -3.333703,1.093454 -0.833426,0 -2.73447,-0.234192 -3.333703,-1.093454 -0.47672,-0.683409 -1.287643,-1.486832 -2.5119454,-1.462662 -0.8334257,0.01667 -1.5376705,0.511723 -1.5376705,0.511723 0,0 -1.3676516,-0.677575 -2.9953321,-0.455884 -1.0876206,0.147517 -1.9643845,0.636738 -2.3719297,1.040116 2.3585949,-1.404323 3.9646063,-0.190855 5.0547272,0.535892 1.0901209,0.726748 1.8618731,2.591121 1.8618731,2.591121 1.6668514,-0.833426 5.8339804,-0.833426 5.8339804,-0.833426 0,0 4.167129,0 5.83398,0.833426 0,0 0.771752,-1.864373 1.861873,-2.591121 1.090121,-0.726747 2.695299,-1.940215 5.054727,-0.535892 -0.407545,-0.403378 -1.284309,-0.892599 -2.371929,-1.040116 z" style="fill:#dd2e44;" />
  <path d="m 11.361263,19.97144 c 0.306701,1.689354 2.270252,1.849371 3.63707,1.849371 1.365985,0 3.337037,-0.159184 3.636237,-1.849371 v -2.516113 h -7.27414 v 2.516113 z" style="fill:#cc9b7a;" />
  <path d="m 9.5377276,12.000556 c 0,1.2068 -0.6117345,2.185242 -1.3659848,2.185242 -0.7542503,0 -1.3659848,-0.978442 -1.3659848,-2.185242 0,-1.206801 0.6117345,-2.186076 1.3659848,-2.186076 0.7542503,-8.334e-4 1.3659848,0.978442 1.3659848,2.186076 m 13.6590144,0 c 0,1.2068 -0.610901,2.185242 -1.365985,2.185242 -0.75425,0 -1.365984,-0.978442 -1.365984,-2.185242 0,-1.206801 0.610901,-2.186076 1.365984,-2.186076 0.755084,-8.334e-4 1.365985,0.978442 1.365985,2.186076" style="fill:#d4ab88;" />
  <path d="m 15.001667,4.5530632 c -4.167129,0 -6.6674061,1.6668515 -6.6674061,4.1671288 0,2.500277 0,7.500832 1.6668511,10.001109 1.666852,2.500277 3.333703,2.500277 5.000555,2.500277 1.666851,0 3.333703,0 5.000554,-2.500277 1.666852,-2.500277 1.666852,-7.500832 1.666852,-10.001109 0,-2.5002773 -2.500277,-4.1671288 -6.667406,-4.1671288 z" style="fill:#d4ab88;" />
  <path d="m 15.685909,1.3177045 c 5.003889,0.4083786 6.964106,3.5387257 6.964106,6.5432256 0,3.0036659 -0.588399,4.2062999 -1.176797,3.0036659 -0.588399,-1.2009661 -1.130126,-2.8069775 -1.130126,-2.8069775 0,0 -3.577063,0.4042115 -4.75386,-0.7975884 0,0 1.765196,3.6053999 -1.765196,0 0,0 0.588399,2.4035998 -2.941993,-0.6000666 0,0 -1.7651954,1.2018 -2.3535939,4.2054665 -0.1633515,0.834259 -1.1767972,0 -1.1767972,-3.0036665 8.334e-4,-2.2310808 0.1491832,-5.5439481 4.0904531,-5.1422369 0.856762,-1.3659848 2.515279,-1.5426711 4.243804,-1.4018221 z" style="fill:#963b22;" />
  <path d="m 20.835647,8.720192 c -2.500277,0 -4.167129,0.8334257 -5.83398,0.8334257 -1.666852,0 -3.333703,-0.8334257 -5.8339804,-0.8334257 -2.5002772,0 -0.8334257,4.767195 0,5.600621 0.8334254,0.833426 4.1671284,-0.833426 5.8339804,-0.833426 1.666851,0 5.000554,1.666852 5.83398,0.833426 0.833426,-0.833426 2.500277,-5.600621 0,-5.600621 z" style="fill:#226699;" />
  <path d="m 11.667964,12.887321 c -0.458384,0 -0.833426,-0.375042 -0.833426,-0.833426 v -0.833426 c 0,-0.458384 0.375042,-0.833426 0.833426,-0.833426 0.458384,0 0.833426,0.375042 0.833426,0.833426 v 0.833426 c 0,0.458384 -0.375042,0.833426 -0.833426,0.833426 m 6.667406,0 c -0.458384,0 -0.833426,-0.375042 -0.833426,-0.833426 v -0.833426 c 0,-0.458384 0.375042,-0.833426 0.833426,-0.833426 0.458384,0 0.833426,0.375042 0.833426,0.833426 v 0.833426 c 0,0.458384 -0.375042,0.833426 -0.833426,0.833426" style="fill:#88c9f9;" />
  <path d="m 15.626736,15.179242 h -1.250138 c -0.344205,0 -0.62507,-0.280865 -0.62507,-0.62507 0,-0.344205 0.280865,-0.625069 0.62507,-0.625069 h 1.250138 c 0.344205,0 0.625069,0.280864 0.625069,0.625069 0,0.344205 -0.280864,0.62507 -0.625069,0.62507 m -0.625069,2.91699 c -1.71519,0 -2.995332,-0.420047 -3.048672,-0.437549 -0.218357,-0.07334 -0.33587,-0.308367 -0.263362,-0.526725 0.07167,-0.218357 0.305034,-0.339204 0.526725,-0.264196 0.01167,0.0033 1.212634,0.395044 2.785309,0.395044 1.572674,0 2.773641,-0.39171 2.786142,-0.395877 0.214191,-0.07251 0.453384,0.04584 0.526725,0.264196 0.07251,0.218357 -0.04584,0.453383 -0.263362,0.526725 -0.05417,0.01834 -1.334315,0.438382 -3.049505,0.438382 z" style="fill:#c1694f;" />
</svg>
