<?xml version="1.0" encoding="UTF-8" standalone="no"?>
<svg
   viewBox="0 0 30 30">
  <path
     d="M 30.000251,28.731382 V 27.05789 c 0,-2.77292 -2.247554,-5.020273 -5.020223,-5.020273 H 11.592724 c -2.7720163,0 -5.0202229,2.247353 -5.0202229,5.020273 v 1.673492 z"
     fill="#292f33"
     style="stroke-width:2.51011" />
  <path
     d="m 14.102836,22.037617 h 8.307641 v 6.693765 h -8.307641 z"
     fill="#e1e8ed"
     style="stroke-width:2.51011" />
  <path
     d="m 14.638669,22.122986 c 1.459204,1.060949 2.382925,1.642391 3.648021,1.642391 1.265096,0 2.187989,-0.582296 3.647192,-1.642391 v -3.18867 h -7.296066 v 3.18867 z"
     fill="#f7dece"
     style="stroke-width:2.51011" />
  <path
     d="m 14.631917,20.34279 c 1.017424,1.149631 2.279182,1.460884 3.651384,1.460884 1.37135,0 2.632254,-0.312082 3.650531,-1.460884 v -2.920917 h -7.302743 v 2.920917 z"
     fill="#eec2ad"
     style="stroke-width:2.51011" />
  <path
     d="M 21.294883,1.5531734 C 19.684245,1.0319111 15.893951,1.1741466 14.945982,2.405783 12.48271,2.4534752 9.5927427,4.6799441 9.2137159,7.6167747 c -0.374835,2.9075373 0.4610322,4.2571493 0.7580537,6.4434563 0.3371834,2.476627 1.7294664,3.268994 2.8422744,3.600329 1.601451,2.116024 3.304161,2.02566 6.163178,2.02566 5.582488,0 8.241575,-3.735046 8.476521,-10.0797802 0.142323,-3.8362789 -2.109247,-6.7429881 -6.15886,-8.0532664 z"
     fill="#6d6e71"
     style="stroke-width:2.51011" />
  <path
     d="M 24.488724,9.8773812 C 23.948222,9.129368 23.257087,8.5269412 21.74098,8.31441 c 0.568967,0.2602233 1.113661,1.160525 1.184773,1.6583555 0.07114,0.4978305 0.142248,0.9003015 -0.307891,0.4024465 C 20.814749,8.382183 18.851013,9.1670196 16.905677,7.9496155 15.546878,7.099516 15.13271,6.1582242 15.13271,6.1582242 c 0,0 -0.165668,1.2550558 -2.226469,2.5343844 -0.597407,0.3706681 -1.310279,1.1964948 -1.70522,2.4164094 -0.284471,0.876857 -0.195788,1.65833 -0.195788,2.993709 0,3.899057 3.213796,7.177263 7.177262,7.177263 3.963466,0 7.177313,-3.307499 7.177313,-7.177263 -0.001,-2.424767 -0.255278,-3.372736 -0.871084,-4.2253458 z"
     fill="#f7dece"
     style="stroke-width:2.51011" />
  <path
     d="m 18.977573,16.097262 h -1.594774 c -0.220037,0 -0.399108,-0.178218 -0.399108,-0.399108 0,-0.22089 0.178218,-0.399107 0.399108,-0.399107 h 1.594774 c 0.220036,0 0.399108,0.178217 0.399108,0.399107 0,0.22089 -0.178218,0.399108 -0.399108,0.399108 z"
     fill="#c1694f"
     style="stroke-width:2.51011" />
  <path
     d="m 14.990286,13.305842 c -0.440098,0 -0.797362,-0.357264 -0.797362,-0.797362 v -0.797387 c 0,-0.440098 0.357264,-0.797387 0.797362,-0.797387 0.440123,0 0.797387,0.357289 0.797387,0.797387 v 0.797387 c 0,0.440098 -0.357264,0.797362 -0.797387,0.797362 z m 6.379875,0 c -0.440098,0 -0.797387,-0.357264 -0.797387,-0.797362 v -0.797387 c 0,-0.440098 0.357289,-0.797387 0.797387,-0.797387 0.440098,0 0.797387,0.357289 0.797387,0.797387 v 0.797387 c 0,0.440098 -0.357289,0.797362 -0.797387,0.797362 z"
     fill="#662113"
     style="stroke-width:2.51011" />
  <path
     d="m 18.285234,19.426749 c -2.304282,0 -3.012134,-0.589876 -3.130109,-0.709533 -0.214188,-0.214188 -0.214188,-0.561411 0,-0.775624 0.207511,-0.207486 0.540527,-0.21336 0.754715,-0.01923 0.0435,0.03095 0.603255,0.407467 2.375394,0.407467 1.840765,0 2.372909,-0.40581 2.377929,-0.409977 0.214188,-0.213359 0.549715,-0.203319 0.763902,0.01255 0.214188,0.214187 0.202491,0.571452 -0.01172,0.784811 -0.117975,0.118829 -0.825826,0.709533 -3.130109,0.709533 z"
     fill="#c1694f"
     style="stroke-width:2.51011" />
  <path
     d="m 18.287167,24.44637 c 0,0 2.828896,2.086907 3.42462,2.324364 0.130526,0.05271 -0.306233,-3.058822 -0.306233,-3.058822 H 15.16878 c 0,0 -0.437613,3.163493 -0.193279,3.032967 0.533801,-0.286905 3.311666,-2.298509 3.311666,-2.298509 z"
     fill="#99aab5"
     style="stroke-width:2.51011" />
  <path
     d="m 14.346844,20.887308 c 0.473583,0.473583 3.940047,2.830628 3.940047,2.830628 0,0 -1.778841,1.039186 -3.41709,2.956911 -0.164839,0.192275 -1.290198,-3.869814 -1.324511,-4.776792 -0.01004,-0.253522 0.574816,-1.237485 0.801554,-1.010747 z m 7.896811,0 c -0.473558,0.473583 -3.940022,2.830628 -3.940022,2.830628 0,0 1.778816,1.039186 3.41709,2.956911 0.163986,0.192275 1.290198,-3.869814 1.324511,-4.776792 0.01004,-0.253522 -0.574816,-1.237485 -0.801579,-1.010747 z"
     fill="#f5f8fa"
     style="stroke-width:2.51011" />
  <path
     d="m 22.98843,22.037617 c 0,0 -1.290197,4.570963 -4.702292,6.200779 -3.41207,-1.629816 -4.702268,-6.200779 -4.702268,-6.200779 h -1.154651 v 6.693765 h 11.713863 v -6.693765 z"
     fill="#292f33"
     style="stroke-width:2.51011" />
  <path
     d="m 9.9882108,26.506419 c 0.2100212,0 0.3355262,2.224712 0.3355262,2.224712 H 9.5238402 c 0,0 0.1614754,-2.224712 0.4643706,-2.224712 z m 2.5101112,0 c 0.210021,0 0.335527,2.224712 0.335527,2.224712 h -0.799897 c 0,0 0.161475,-2.224712 0.46437,-2.224712 z m 14.095206,0 c -0.210097,0 -0.335602,2.224712 -0.335602,2.224712 h 0.799972 c -0.001,0 -0.162404,-2.224712 -0.46437,-2.224712 z m -2.510212,0 c -0.209996,0 -0.335502,2.224712 -0.335502,2.224712 h 0.799872 c -8.28e-4,0 -0.162303,-2.224712 -0.46437,-2.224712 z"
     fill="#66757f"
     style="stroke-width:2.51011" />
  <path
     d="M 6.4494555,18.411008 C 6.8410329,19.448512 6.5983804,20.501102 5.906443,20.763811 5.215334,21.024034 4.3367949,20.394824 3.9443641,19.35732 3.5527867,18.320644 3.7954392,17.267225 4.4873765,17.005345 c 0.6911342,-0.261051 1.5696732,0.368158 1.962079,1.405663 z"
     fill="#c1694f"
     style="stroke-width:2.51011" />
  <path
     d="M 7.486483,28.732386 4.5755819,21.0281 4.7847495,20.949458 C 5.7034503,20.602235 6.1703311,19.568069 5.8239357,18.648514 5.4767119,17.730667 4.4417176,17.262933 3.5230168,17.610182 L 1.853785,18.241048 c -0.91870082,0.345567 -1.38641996,1.380561 -1.03918618,2.300091 0.34639538,0.9187 1.38223308,1.385581 2.30009808,1.038357 l 0.2091676,-0.07864 2.7318549,7.231531 z"
     fill="#662113"
     style="stroke-width:2.51011" />
  <path
     d="m 2.6922702,19.8303 c 0.3915774,1.037504 0.148925,2.090095 -0.5430325,2.352803 C 1.4581212,22.444155 0.57958209,21.81497 0.18716882,20.776612 -0.2044096,19.739936 0.03823461,18.686517 0.73018879,18.424638 1.4221437,18.163586 2.3006828,18.792796 2.6922702,19.8303 Z"
     fill="#c1694f"
     style="stroke-width:2.51011" />
  <path
     d="M 9.3486846,28.731382 8.9587889,27.402529 C 8.6550654,26.365853 7.558975,25.76694 6.5231273,26.070663 l -1.050055,0.30774 C 4.4648357,26.674596 3.8774696,27.72056 4.1259707,28.731382 Z"
     fill="#f7dece"
     style="stroke-width:2.51011" />
</svg>
