<?xml version="1.0" encoding="utf-8"?>
<svg version="1.1" xmlns="http://www.w3.org/2000/svg" xmlns:xlink="http://www.w3.org/1999/xlink" x="0px" y="0px"
	 viewBox="0 0 30 30" style="enable-background:new 0 0 30 30;" xml:space="preserve">
<style type="text/css">
	.st0{fill:#91C9ED;}
	.st1{fill:#2A2F33;}
	.st2{fill:#FFD983;}
	.st3{fill:#65ABDE;}
	.st4{fill:#418AC2;}
	.st5{fill:#C26A50;}
</style>
<path class="st0" d="M29.38,21.02c0,1.93-1.56,1.75-3.49,1.75H4.08c-1.93,0-3.49,0.18-3.49-1.75L2.33,8.81
	C2.59,7.28,3.2,7.06,4.08,7.06h21.81c0.87,0,1.56,0.18,1.75,1.75L29.38,21.02z"/>
<path class="st1" d="M24.14,13.61c0,0.72-0.59,1.31-1.31,1.31H7.13c-0.72,0-1.31-0.59-1.31-1.31c0-0.72,0.59-1.31,1.31-1.31h15.71
	C23.56,12.3,24.14,12.89,24.14,13.61z"/>
<path class="st2" d="M22.18,14.21V1.99c0-0.96-0.78-1.75-1.75-1.75H9.09c-0.96,0-1.75,0.78-1.75,1.75v12.22H22.18z"/>
<path class="st3" d="M29.38,21.03c0-0.96-0.78-1.75-1.75-1.75H2.33c-0.96,0-1.75,0.78-1.75,1.75v6.98c0,0.96,0.78,1.75,1.75,1.75
	h25.3c0.96,0,1.75-0.78,1.75-1.75V21.03z"/>
<path class="st4" d="M11.06,19.28v5.24c0,0.96,0.78,1.75,1.75,1.75h4.36c0.96,0,1.75-0.78,1.75-1.75v-5.24H11.06z"/>
<path class="st3" d="M18.91,19.28v-0.87c0-0.96-0.78-1.75-1.75-1.75H12.8c-0.96,0-1.75,0.78-1.75,1.75v0.87H18.91z M16.29,23.21
	c0,0.72-0.59,1.31-1.31,1.31c-0.72,0-1.31-0.59-1.31-1.31v-0.87c0-0.72,0.59-1.31,1.31-1.31c0.72,0,1.31,0.59,1.31,1.31V23.21z"/>
<path class="st5" d="M20.22,3.57c0,0.24-0.2,0.44-0.44,0.44h-6.54c-0.24,0-0.44-0.2-0.44-0.44c0-0.24,0.2-0.44,0.44-0.44h6.54
	C20.02,3.14,20.22,3.33,20.22,3.57z M20.22,7.06c0,0.24-0.2,0.44-0.44,0.44h-6.54c-0.24,0-0.44-0.2-0.44-0.44
	c0-0.24,0.2-0.44,0.44-0.44h6.54C20.02,6.63,20.22,6.82,20.22,7.06z M20.22,10.56c0,0.24-0.2,0.44-0.44,0.44h-6.54
	c-0.24,0-0.44-0.2-0.44-0.44c0-0.24,0.2-0.44,0.44-0.44h6.54C20.02,10.12,20.22,10.31,20.22,10.56z"/>
<path class="st5" d="M10.62,4.45c0.48,0,0.87-0.39,0.87-0.87c0-0.48-0.39-0.87-0.87-0.87c-0.48,0-0.87,0.39-0.87,0.87
	C9.75,4.06,10.14,4.45,10.62,4.45z"/>
<path class="st5" d="M10.62,7.94c0.48,0,0.87-0.39,0.87-0.87c0-0.48-0.39-0.87-0.87-0.87c-0.48,0-0.87,0.39-0.87,0.87
	C9.75,7.55,10.14,7.94,10.62,7.94z"/>
<path class="st5" d="M10.62,11.43c0.48,0,0.87-0.39,0.87-0.87c0-0.48-0.39-0.87-0.87-0.87c-0.48,0-0.87,0.39-0.87,0.87
	C9.75,11.04,10.14,11.43,10.62,11.43z"/>
</svg>
