<?xml version="1.0" encoding="UTF-8" standalone="no"?><svg viewBox="0 0 30 30"><path d="m 29.663159,14.39302 c -2.154046,-3.137632 -6.607297,1.479967 -14.734606,2.418504 -3.009156,0.34705 -5.7204839,2.859825 -9.2160109,2.620394 -1.4332494,-0.09844 -3.4346264,-4.222163 -4.9329477,-3.56477 -0.7708513,0.338707 -1.12457527,1.469122 -0.33203335,2.318393 L 9.2472791,28.68547 c 0,0 0.4471605,0.51557 1.9538239,0.158509 0.371244,0.109287 5.952407,-2.12735 9.179304,-6.604794 0.77252,-1.072018 1.693537,-1.96467 2.64709,-2.710494 3.095919,-2.289195 6.461303,-3.086742 6.461303,-3.086742 0.430475,-0.355392 0.53142,-0.73331 0.508061,-1.061172 0.02836,-0.547271 -0.333702,-0.987757 -0.333702,-0.987757 z" style="fill:#5c913b;stroke-width:0.83425462" /><path d="M 9.5359312,9.3824862 C 6.3799459,13.762323 0.85300881,15.837114 0.85300881,15.837114 c -1.03113875,0.873465 -0.1601769,1.902935 -0.1601769,1.902935 L 9.400782,28.050602 c 0,0 0.4354809,0.514736 1.902101,0.157675 0,0 5.526937,-2.07062 8.682088,-6.450457 3.252759,-4.513318 9.118403,-5.938225 9.118403,-5.938225 1.030305,-0.873465 0.160177,-1.904603 0.160177,-1.904603 L 20.555601,3.606107 c 0,0 -0.435481,-0.5155694 -1.902101,-0.1601769 0,0 -5.86481,1.4215699 -9.1175688,5.9365561 z" style="fill:#a7d28b;stroke-width:0.83425462" /><path d="m 22.904028,12.490919 a 4.5884004,4.5884004 0 0 1 -4.5884,4.5884 4.5884004,4.5884004 0 0 1 -4.5884,-4.5884 4.5884004,4.5884004 0 0 1 4.5884,-4.5884003 4.5884004,4.5884004 0 0 1 4.5884,4.5884003 z" style="fill:#77b255;stroke-width:0.83425462" /><path d="M 19.226562 4.2089844 C 18.97639 4.2103661 18.674491 4.2434482 18.310547 4.328125 C 18.258824 4.3448101 13.051536 6.0614144 10.033203 10.0625 C 7.1800521 13.844176 2.0899515 15.937011 2.0390625 15.957031 L 1.9863281 15.988281 C 1.6576318 16.254409 1.4745115 16.566748 1.4453125 16.917969 C 1.3969257 17.496942 1.7955309 17.953183 1.8105469 17.970703 L 9.6601562 27.132812 C 9.6968636 27.174525 9.9661935 27.449219 10.701172 27.449219 C 10.962294 27.449219 11.280875 27.414036 11.667969 27.322266 C 11.718859 27.298073 16.815318 24.792817 19.734375 20.921875 C 22.66678 17.035917 27.728407 15.778135 27.779297 15.765625 L 27.861328 15.724609 C 28.190024 15.458482 28.373144 15.145309 28.402344 14.794922 C 28.450731 14.215115 28.053242 13.757207 28.039062 13.742188 L 20.292969 4.5292969 C 20.254801 4.4867498 19.977079 4.2048392 19.226562 4.2089844 z M 19.162109 4.625 C 19.764955 4.6069331 19.975288 4.8027344 19.976562 4.8027344 L 27.722656 14.017578 C 27.725159 14.020915 28.021368 14.365183 27.986328 14.765625 C 27.96714 14.985034 27.849169 15.188677 27.634766 15.373047 C 27.099174 15.514036 22.269677 16.871845 19.402344 20.671875 C 16.543353 24.46106 11.53795 26.922441 11.53125 26.931641 C 10.352448 27.205281 9.9754437 26.859375 9.9746094 26.859375 L 2.125 17.695312 C 2.1224972 17.691976 1.8279581 17.35023 1.8613281 16.953125 C 1.8805159 16.72871 2.0029822 16.517785 2.2265625 16.330078 C 2.6595406 16.148211 7.5590862 14.036063 10.367188 10.314453 C 13.304598 6.4209871 18.387665 4.7421488 18.421875 4.7304688 C 18.716784 4.6620598 18.961161 4.6310223 19.162109 4.625 z M 6.640625 16.460938 C 6.4801353 16.447277 6.3142871 16.495215 6.1816406 16.607422 C 5.9163476 16.832671 5.8830074 17.226895 6.1074219 17.492188 L 6.4785156 17.933594 C 5.9137252 18.682754 5.722387 19.678711 6.390625 20.46875 C 7.6386699 21.945381 10.422861 19.489528 11.298828 20.527344 C 11.602497 20.887742 11.517945 21.576305 10.878906 22.115234 C 9.9211818 22.925295 9.0536595 22.546304 8.6640625 22.875 C 8.4738525 23.034343 8.4398546 23.337026 8.6425781 23.578125 C 8.9654347 23.95938 9.9938293 23.877399 10.982422 23.261719 C 10.984122 23.263419 10.982422 23.265878 10.982422 23.267578 L 11.390625 23.748047 C 11.61504 24.01334 12.012051 24.045015 12.277344 23.822266 C 12.543471 23.597017 12.575976 23.20084 12.351562 22.935547 L 11.945312 22.455078 C 11.941112 22.450078 11.934688 22.446456 11.929688 22.441406 C 12.596257 21.625505 12.821044 20.550757 12.041016 19.628906 C 10.742081 18.09054 7.9931838 20.584776 7.2089844 19.65625 C 6.8293986 19.206587 7.0733813 18.623589 7.5722656 18.203125 C 8.4106915 17.494008 9.0149454 17.907125 9.3945312 17.585938 C 9.6639955 17.359021 9.6504113 17.081669 9.4902344 16.890625 C 9.1181568 16.450973 8.166884 16.680284 7.4277344 17.107422 L 7.0683594 16.681641 C 6.9561521 16.548994 6.8011147 16.474598 6.640625 16.460938 z " style="fill:#5c913b;stroke-width:0.83425462" /><path d="m 17.711627,19.303442 -0.005,4.955473 0.414625,0.49221 c 0.808393,-0.737481 1.585084,-1.56673 2.256659,-2.499427 0.696602,-0.966066 1.505829,-1.792813 2.359272,-2.491084 l -0.402945,-0.479696 z" style="fill:#ffac33;stroke-width:0.83425462" /><path d="M 22.318381,19.263398 11.885192,6.9055841 C 11.03759,7.603021 10.223357,8.4164193 9.5309257,9.3783149 8.8543452,10.317686 8.0668088,11.144432 7.2492392,11.873571 l 1.2196803,1.444094 -8.342e-4,8.35e-4 9.2393707,10.940415 c 0.817569,-0.729973 1.595929,-1.565062 2.273343,-2.505267 0.692432,-0.961061 1.50583,-1.773625 2.352599,-2.471062 l -0.01585,-0.01919 z" style="fill:#ffe8b6;stroke-width:0.83425462" /><path d="M 4.3398438 1.0507812 C 3.7566085 1.1079016 3.2217537 1.2819646 2.765625 1.578125 C 2.723078 1.604821 2.6784317 1.6281691 2.6367188 1.6582031 C 2.5916688 1.6907391 2.551194 1.7305866 2.5078125 1.765625 C 2.4460775 1.81568 2.3809481 1.8584516 2.3242188 1.9160156 C 2.3167088 1.9235256 2.3124806 1.9327791 2.3066406 1.9394531 C 2.2974606 1.9477931 2.2845676 1.9556668 2.2753906 1.9648438 L 2.28125 1.96875 C 1.4469954 2.8547284 1.4352949 4.2243586 2.2753906 5.0644531 C 3.1154851 5.9045475 4.4870685 5.8948002 5.3730469 5.0605469 L 5.3828125 5.0703125 C 5.3652935 5.0861635 5.34481 5.0985494 5.328125 5.1152344 C 4.4446493 5.99871 4.425305 7.4068924 5.28125 8.2636719 C 6.1371953 9.1204514 7.5462119 9.0983196 8.4296875 8.2148438 C 8.4463725 8.1981587 8.4579244 8.1796284 8.4746094 8.1621094 L 8.4824219 8.171875 C 7.6481673 9.0578535 7.6375857 10.427483 8.4785156 11.267578 C 9.31861 12.107672 10.68824 12.098755 11.574219 11.263672 L 11.578125 11.267578 C 11.587325 11.258378 11.596299 11.248291 11.605469 11.238281 L 11.628906 11.21875 C 11.686466 11.16202 11.730076 11.096891 11.779297 11.035156 C 11.814337 10.991776 11.852226 10.9513 11.884766 10.90625 C 11.914796 10.86454 11.940107 10.821843 11.966797 10.779297 C 13.151441 8.9547777 12.374387 5.8607148 10.029297 3.515625 C 8.2698536 1.7561819 6.0895495 0.87942014 4.3398438 1.0507812 z M 19.773438 17.8125 C 19.190241 17.869816 18.655139 18.043475 18.199219 18.339844 C 18.155839 18.365704 18.113977 18.389892 18.072266 18.419922 C 18.028046 18.452462 17.985074 18.491191 17.943359 18.525391 C 17.881629 18.576281 17.81733 18.62017 17.759766 18.677734 C 17.752266 18.685234 17.746074 18.693662 17.740234 18.701172 C 17.731034 18.710372 17.720947 18.716552 17.710938 18.726562 L 17.714844 18.730469 C 16.880589 19.616447 16.871671 20.986077 17.710938 21.826172 C 18.551866 22.6671 19.921781 22.656515 20.808594 21.822266 L 20.818359 21.832031 C 20.800839 21.848711 20.780352 21.860263 20.763672 21.876953 C 19.880196 22.760428 19.859731 24.168612 20.714844 25.025391 C 21.570789 25.880502 22.982592 25.860038 23.865234 24.976562 C 23.881914 24.959882 23.891513 24.941348 23.908203 24.923828 L 23.917969 24.933594 C 23.083714 25.819572 23.073162 27.190322 23.914062 28.03125 C 24.754157 28.870511 26.123787 28.85964 27.009766 28.025391 L 27.013672 28.03125 C 27.021972 28.01957 27.029893 28.008057 27.039062 27.998047 C 27.046563 27.991347 27.05499 27.986309 27.0625 27.980469 C 27.11923 27.923739 27.162836 27.859444 27.212891 27.796875 C 27.247931 27.753495 27.287777 27.710236 27.320312 27.666016 C 27.349512 27.624306 27.373691 27.581608 27.400391 27.539062 C 28.585033 25.714547 27.807981 22.621315 25.462891 20.275391 C 23.703448 18.515948 21.523026 17.640552 19.773438 17.8125 z " style="fill:#e1e8ed;stroke-width:0.83425462" /><path d="M 1.7050781 3.0664062 C 1.5524095 3.77302 1.7381306 4.5283121 2.2753906 5.0664062 C 3.0312253 5.822241 4.2108043 5.8838665 5.0859375 5.2832031 C 5.4521752 4.6575121 5.5566406 4.0629919 5.5566406 3.8769531 C 3.7162748 5.249302 2.0721501 3.8831415 1.7050781 3.0664062 z M 4.8046875 5.9355469 C 4.5060244 6.7280888 4.6577772 7.6413179 5.2792969 8.2636719 C 6.1168885 9.1004293 7.4803748 9.0926559 8.3671875 8.2675781 C 8.6149611 7.9180254 8.8072191 7.5821013 8.8964844 7.3535156 C 7.7235223 8.4280355 5.4829366 7.6399292 4.8046875 5.9355469 z M 7.9707031 9.0546875 C 7.724598 9.819699 7.8845263 10.675542 8.4785156 11.269531 C 9.31861 12.109626 10.688241 12.100709 11.574219 11.265625 L 11.578125 11.269531 C 11.587325 11.260331 11.595176 11.248291 11.603516 11.238281 L 11.626953 11.220703 C 11.684513 11.163973 11.730076 11.098844 11.779297 11.037109 C 11.814337 10.993729 11.852226 10.953252 11.884766 10.908203 C 11.914796 10.866493 11.938154 10.823797 11.964844 10.78125 C 12.019074 10.69782 12.047871 10.598197 12.09375 10.509766 C 9.9847545 11.453301 8.4120238 9.8530692 7.9707031 9.0546875 z M 17.142578 19.863281 C 16.98991 20.569061 17.175635 21.323234 17.712891 21.861328 C 18.468726 22.616328 19.648304 22.67712 20.523438 22.078125 C 20.889675 21.452434 20.996094 20.857914 20.996094 20.671875 C 19.154894 22.045058 17.510484 20.680008 17.142578 19.863281 z M 20.240234 22.730469 C 19.941571 23.523011 20.094443 24.43624 20.716797 25.058594 C 21.55272 25.894517 22.913968 25.888702 23.800781 25.064453 C 24.049389 24.7149 24.243884 24.377023 24.333984 24.148438 C 23.161856 25.222957 20.919317 24.434851 20.240234 22.730469 z M 23.408203 25.847656 C 23.162097 26.612668 23.322025 27.469629 23.916016 28.064453 C 24.755276 28.904547 26.124906 28.89563 27.011719 28.060547 L 27.017578 28.0625 L 27.041016 28.033203 C 27.049316 28.026503 27.057773 28.022295 27.064453 28.015625 C 27.122013 27.958895 27.165623 27.893766 27.214844 27.832031 C 27.250714 27.787821 27.289732 27.746225 27.322266 27.701172 C 27.352296 27.660292 27.375654 27.616766 27.402344 27.574219 C 27.456574 27.490799 27.487323 27.393119 27.533203 27.304688 C 25.424207 28.24823 23.849523 26.646038 23.408203 25.847656 z " style="fill:#ccd6dd;stroke-width:0.83425462" /></svg>
