<?xml version="1.0" encoding="UTF-8" standalone="no"?>
<svg viewBox="0 0 30 30">
  <path d="m 24.057536,3.2000781 h 1.671645 v 0.8374976 h -1.671645 z" style="fill:#66757f;" />
  <path d="M 1.600039,9.9000586 V 26.65001 C 1.600039,28.500042 3.0999972,30 4.9500293,30 H 25.049971 c 1.850032,0 3.34999,-1.499958 3.34999,-3.34999 V 9.9000586 Z" style="fill:#ccd6dd;" />
  <path d="M 25.049971,3.2000781 H 4.9500293 c -1.8500321,0 -3.3499903,1.4999582 -3.3499903,3.3499903 V 10.737556 H 28.399961 V 6.5500684 c 0,-1.8500321 -1.499958,-3.3499903 -3.34999,-3.3499903 z" style="fill:#dd2e44;" />
  <path d="m 7.3251724,7.1622791 c -0.5879233,0 -1.0644594,-0.5577734 -1.0644594,-1.2470339 0,-0.688423 0.4765361,-1.2470338 1.0644594,-1.2470338 0.5870857,0 1.0636219,0.5586108 1.0636219,1.2470338 0,0.688423 -0.4765362,1.2470339 -1.0636219,1.2470339 z m 5.0249856,0 c -0.587924,0 -1.06446,-0.5577734 -1.06446,-1.2470339 0,-0.688423 0.476536,-1.2470338 1.06446,-1.2470338 0.587086,0 1.063622,0.5586108 1.063622,1.2470338 0,0.688423 -0.476536,1.2470339 -1.063622,1.2470339 z m 5.024985,0 c -0.587923,0 -1.064459,-0.5577734 -1.064459,-1.2470339 0,-0.688423 0.476536,-1.2470338 1.064459,-1.2470338 0.587086,0 1.064459,0.5586108 1.064459,1.2470338 -8.37e-4,0.688423 -0.477373,1.2470339 -1.064459,1.2470339 z m 5.024985,0 c -0.587923,0 -1.064459,-0.5577734 -1.064459,-1.2470339 0,-0.688423 0.476536,-1.2470338 1.064459,-1.2470338 0.587086,0 1.06446,0.5586108 1.06446,1.2470338 -8.38e-4,0.688423 -0.477374,1.2470339 -1.06446,1.2470339 z" style="fill:#292f33;" />
  <path d="M 22.80129,-4.676e-8 C 21.731805,-4.676e-8 20.805533,0.671673 20.293822,1.6498701 19.786299,0.69261044 18.855839,-4.676e-8 17.776304,-4.676e-8 16.70682,-4.676e-8 15.780548,0.671673 15.268837,1.6498701 14.761313,0.69261044 13.830853,-4.676e-8 12.751319,-4.676e-8 11.681835,-4.676e-8 10.755562,0.671673 10.243851,1.6498701 9.7363278,0.69261044 8.805868,-4.676e-8 7.7263337,-4.676e-8 6.1066134,-4.676e-8 4.7950922,1.523408 4.7950922,3.3541777 c 0,1.5527205 0.875185,2.8232043 2.1515313,3.2880154 C 7.5822841,6.8725049 7.9717205,6.2678317 7.9172831,5.7829206 7.8712208,5.3809218 7.604059,5.118785 7.3067474,4.9303481 6.9005611,4.6732363 6.4692499,4.0861505 6.4692499,3.3583652 c 0,-0.9245973 0.5619608,-1.7545574 1.2562463,-1.7545574 0.6942855,0 1.2562463,0.7579353 1.2562463,1.5954328 h 0.8508976 c -0.00251,0.051925 -0.0134,0.1013372 -0.0134,0.1540996 0,1.5527205 0.8751849,2.8232043 2.1515309,3.2880154 0.635661,0.2303118 1.025097,-0.3743614 0.97066,-0.8592725 C 12.895369,5.3809218 12.628207,5.118785 12.330895,4.9303481 11.924709,4.6732363 11.493398,4.0861505 11.493398,3.3583652 c 0,-0.9245973 0.561961,-1.7545574 1.256246,-1.7545574 0.694286,0 1.257921,0.7587728 1.257921,1.5962703 h 0.850898 c -0.0025,0.051925 -0.0134,0.1013372 -0.0134,0.1540996 0,1.5527205 0.875185,2.8232043 2.151531,3.2880154 0.635661,0.2303118 1.025097,-0.3743614 0.97066,-0.8592725 C 17.921191,5.3817593 17.65403,5.1196225 17.356718,4.9311856 16.950532,4.6740738 16.519221,4.086988 16.519221,3.3592027 c 0,-0.9245973 0.56196,-1.7545574 1.256246,-1.7545574 0.694285,0 1.257084,0.7579353 1.257084,1.5954328 h 0.850897 c -0.0025,0.051925 -0.0134,0.1013372 -0.0134,0.1540996 0,1.5527205 0.875185,2.8232043 2.151532,3.2880154 0.63566,0.2303118 1.025097,-0.3743614 0.970659,-0.8592725 C 22.946177,5.3817593 22.679015,5.1196225 22.381703,4.9311856 21.975517,4.6740738 21.544206,4.086988 21.544206,3.3592027 c 0,-0.9245973 0.561961,-1.7545574 1.256246,-1.7545574 0.694286,0 1.257084,0.7579353 1.257084,1.5954328 h 1.671645 C 25.711594,1.525083 24.409285,-4.676e-8 22.80129,-4.676e-8 Z" style="fill:#66757f;" />
  <path d="m 9.1375171,12.412551 h 3.3499899 v 3.349991 H 9.1375171 Z m 4.1874879,0 h 3.34999 v 3.349991 h -3.34999 z m 4.187488,0 h 3.34999 v 3.349991 h -3.34999 z m 4.187487,0 h 3.349991 v 3.349991 H 21.69998 Z M 4.9500293,16.600039 h 3.3499902 v 3.34999 H 4.9500293 Z m 4.1874878,0 h 3.3499899 v 3.34999 H 9.1375171 Z m 4.1874879,0 h 3.34999 v 3.34999 h -3.34999 z m 4.187488,0 h 3.34999 v 3.34999 h -3.34999 z m 4.187487,0 h 3.349991 v 3.34999 H 21.69998 Z M 4.9500293,20.787527 h 3.3499902 v 3.34999 H 4.9500293 Z m 4.1874878,0 h 3.3499899 v 3.34999 H 9.1375171 Z m 4.1874879,0 h 3.34999 v 3.34999 h -3.34999 z m 4.187488,0 h 3.34999 v 3.34999 h -3.34999 z m 4.187487,0 h 3.349991 v 3.34999 H 21.69998 Z M 4.9500293,24.975015 h 3.3499902 v 3.34999 H 4.9500293 Z m 4.1874878,0 h 3.3499899 v 3.34999 H 9.1375171 Z m 4.1874879,0 h 3.34999 v 3.34999 h -3.34999 z" style="fill:#ffffff;" />
</svg>
