<?xml version="1.0" encoding="UTF-8" standalone="no"?><svg viewBox="0 0 30 30"><path style="fill:#fdd888;stroke-width:0.83333331" d="m 26.581666,19.948333 c -0.498332,-5.515 -3.248332,-8.281666 -3.248332,-8.281666 L 18.333334,5 h -6.666667 l -5.0000005,6.666667 c 0,0 -1.1825,1.194166 -2.1391667,3.5625 -1.6575,0.55 -2.8608333,2.095 -2.8608333,3.9375 0,1.206666 0.5208333,2.285 1.3408333,3.045833 -0.3133333,0.585 -0.5075,1.243333 -0.5075,1.954167 0,1.631666 0.9466667,3.03 2.3125,3.713333 1.0691667,1.601667 2.4975,2.12 3.5208334,2.12 H 21.666666 c 1.149167,0 2.810833,-0.649167 3.898333,-2.758333 1.609167,-0.575834 2.768335,-2.1 2.768335,-3.908334 0,-1.398333 -0.695,-2.628333 -1.751668,-3.385 z M 15,5 C 15.458334,5 15.881667,4.868333 16.25,4.653333 16.619166,4.868333 17.042499,5 17.5,5 c 1.380834,0 3.333334,-1.9533333 3.333334,-3.3333333 0,0 0,-1.6666667 -1.666668,-1.6666667 C 18.509999,0 18.333334,0.8333333 17.5,0.8333333 16.666666,0.8333333 16.666666,0 15,0 13.333334,0 13.333334,0.8333333 12.5,0.8333333 11.666667,0.8333333 11.490833,0 10.833334,0 9.1666665,0 9.1666665,1.6666667 9.1666665,1.6666667 9.1666665,3.0466667 11.12,5 12.5,5 12.957499,5 13.380834,4.868333 13.75,4.653333 14.119167,4.868333 14.5425,5 15,5 Z" /><path style="fill:#bf6952;stroke-width:0.83333331" d="m 20,5 c 0,0.46 -0.3725,0.833333 -0.833333,0.833333 H 10.833334 C 10.373334,5.833333 10,5.46 10,5 10,4.54 10.373334,4.166667 10.833334,4.166667 h 8.333333 C 19.6275,4.166667 20,4.54 20,5 Z" /><path style="fill:#67757f;stroke-width:0.83333331" d="m 19.959166,20.451667 c 0,-3.730834 -7.150833,-3.4875 -7.150833,-5.738334 0,-1.09 1.084167,-1.6225 2.3425,-1.6225 2.115,0 2.491667,1.3075 3.449167,1.3075 0.6775,0 1.004166,-0.410833 1.004166,-0.871666 0,-1.07 -1.686666,-1.88 -3.304166,-2.16 v -1.033334 c 0,-0.644166 -0.541667,-1.166666 -1.211667,-1.166666 -0.670833,0 -1.213333,0.5225 -1.213333,1.166666 V 11.4025 c -1.763334,0.385833 -3.280834,1.5625 -3.280834,3.48 0,3.5825 7.149167,3.4375 7.149167,5.954167 0,0.8725 -0.981667,1.744166 -2.5925,1.744166 -2.4175,0 -3.2225,-1.574166 -4.204167,-1.574166 -0.478332,0 -0.905832,0.386666 -0.905832,0.97 0,0.9275 1.615,2.0425 3.835832,2.353333 l -8.33e-4,0.0083 v 1.165 c 0,0.643334 0.543333,1.166667 1.213333,1.166667 0.67,0 1.2125,-0.523333 1.2125,-1.166667 v -1.165 c 0,-0.01417 -0.0067,-0.025 -0.0075,-0.0375 1.998334,-0.358333 3.665,-1.61 3.665,-3.849166 z" /></svg>
