<?xml version="1.0" encoding="UTF-8" standalone="no"?><svg viewBox="0 0 30 30"><path d="M 30,15 A 15,15 0 0 1 15,30 15,15 0 0 1 0,15 15,15 0 0 1 15,0 15,15 0 0 1 30,15 Z" style="fill:#88c9f9;stroke-width:0.83333331" /><path d="m 2.3433333,21.145833 c -0.051667,-0.833333 -0.051667,-0.989166 -0.051667,-1.979166 0,-0.99 0.4683333,-0.833334 0.9375,-1.301667 C 3.6983333,17.396667 3.5941667,17.344167 4.375,16.830833 5.1558333,16.3175 4.74,15.73 4.6875,15.4175 4.635,15.105 4.1666666,15.365 3.385,15.468333 2.6033333,15.571667 2.865,15.208333 2.3958333,15 c -0.4691666,-0.208333 -0.6766666,-0.520833 -0.99,-1.458333 -0.3133333,-0.9375 -0.365,-1.198334 -0.26,-1.979167 0.105,-0.780833 0.4691667,-0.0525 0.5208334,0.780833 0.051667,0.833334 0.7816666,0.520834 0.7816666,1.041667 0,0.520833 1.0416667,1.093333 1.3016667,1.25 0.26,0.156667 0.99,-0.781667 1.25,-1.041667 0.26,-0.26 0.5733333,-0.625 0.6766666,-0.833333 C 5.78,12.551667 7.0833333,12.395 7.3433333,12.395 c 0.26,0 0.885,0.781667 0.885,1.145833 0,0.364167 0.3125,1.354167 0.5733333,1.926667 C 9.0625,16.04 9.635,16.144167 10.155833,16.560833 10.676667,16.9775 10.9375,16.6125 10.9375,16.6125 c 0,0 -0.208333,-0.885 -0.208333,-1.615 0,-0.73 0.625,-1.354167 0.625,-1.354167 0,0 0.99,0.729167 1.041666,0.9375 0.05167,0.208334 0.833334,0.9375 0.885,1.301667 0.05167,0.364167 0.468334,0.833333 1.235834,0.9375 0.7675,0.104167 0.2225,-0.885 0.4825,-1.5625 0.26,-0.6775 0.625,-0.781667 1.093333,-0.885 0.468333,-0.103333 0.833333,-0.520833 1.145833,-0.9375 0.3125,-0.416667 0.885,-0.99 0.833334,-1.458333 C 18.02,11.508333 17.863333,11.195 17.655,10.6225 17.446667,10.05 18.28,9.8408333 18.645,9.1641666 c 0.365,-0.6766666 0,0 0.833333,-0.2083333 C 20.311667,8.7475 19.946667,8.7475 20.103333,8.435 20.26,8.1225 20.363333,7.81 20.2075,7.2366666 c -0.155833,-0.5733333 -0.729167,0 -1.301667,0 -0.5725,0 0.209167,-0.7783333 0.260834,-1.4033333 0.05167,-0.625 0.781666,-0.4683333 1.301666,-0.5208333 0.52,-0.0525 0.676667,0.6766666 0.833334,0.8333333 0.156666,0.1566667 1.770833,-1.0416667 2.1875,-1.615 C 23.905833,3.9575 23.125,4.115 23.333333,3.8733333 23.541667,3.6316667 22.083333,3.5825 21.51,3.49 20.936667,3.3975 19.479167,3.3333333 18.906667,2.98 18.334167,2.6266667 16.146667,2.893333 15.573333,3.1775 15,3.4616667 14.635833,3.1533333 14.375,2.7608333 14.114167,2.3683333 13.020833,2.565 12.708333,2.3441667 12.395833,2.1233333 12.083333,2.7083333 11.666667,2.865 11.25,3.0216667 11.093333,3.0733333 10.573333,2.7608333 10.053333,2.4483333 10.729167,2.0833333 10,1.8233333 9.5116666,1.6491667 8.9266666,1.7508333 8.0166666,1.7308333 3.2516667,4.2433333 0,9.2391666 0,15 c 0,2.85 0.80916666,5.504167 2.1891667,7.7725 0.2566666,-0.431667 0.1925,-1.014167 0.1541666,-1.626667 z M 14.426667,20.156667 c 0.365,0.05167 1.406666,0 0.573333,-0.676667 -0.833333,-0.676667 -1.301667,-0.156667 -1.198333,-0.9375 0.103333,-0.780833 -0.520834,-0.781667 -0.520834,-0.781667 0,0.573334 -0.416666,1.198334 0,1.770834 0.416667,0.5725 0.781667,0.5725 1.145834,0.625 z" style="fill:#5c913b;stroke-width:0.83333331" /><path d="M 19.74,11.458333 C 18.906667,10.781667 19.531667,10.99 19.635833,10.208333 19.74,9.4266666 19.115,9.4266666 19.115,9.4266666 19.115,10 18.698333,10.625 19.115,11.1975 c 0.416667,0.5725 -0.833333,1.041667 -0.468333,1.093333 0.365,0.05167 1.926666,-0.155833 1.093333,-0.8325 z m -3.233333,8.125 c 0.516666,0.573334 0.316666,0 0.993333,-0.26 0.676667,-0.26 -0.573333,-0.833333 -0.99,-1.145833 -0.416667,-0.3125 -0.830833,-0.324167 -1.195,0.365 -0.413333,0.780833 0.675,0.4675 1.191667,1.040833 z m 6.0975,1.041667 c -0.26,-0.3125 -0.833334,-0.468333 -1.458334,-0.454167 -0.625,0.015 -0.573333,-0.691666 -1.198333,-0.64 -0.625,0.05167 -1.071667,-0.42 -1.354167,-0.565833 -0.614166,-0.316667 -0.208333,0.409167 0,1.205 0.208334,0.795833 0.99,0.193333 1.718334,0.61 0.728333,0.416667 0.781666,-0.156667 1.458333,0.05167 0.676667,0.208333 0.9375,0.676666 1.586667,0.625 C 24.005833,21.405 22.865,20.9375 22.604167,20.625 Z M 21.25,22.916667 c -0.26,-0.520834 -1.021667,-0.99 -1.334167,-1.254167 -0.3125,-0.264167 -0.801666,-0.353333 -1.218333,-0.2 -0.416667,0.153333 -0.676667,0 -0.885,-0.4125 -0.208333,-0.4125 -0.573333,-0.268333 -0.885,-0.216667 -0.311667,0.05167 -1.5625,0.573334 -2.291667,0.9375 -0.729166,0.364167 -1.060833,0.680834 -1.539166,1.145834 -0.748334,0.728333 -0.335834,0.26 0,0.729166 0.335833,0.468334 -0.368334,1.926667 -0.42,2.76 -0.05167,0.833334 1.335,-0.26 1.855833,-0.365 0.520833,-0.105 0.3675,-0.416666 0.784167,-0.729166 0.416666,-0.3125 0.6875,-0.385834 1.145,0.03083 0.4575,0.416667 1.056666,0.8025 1.056666,1.270833 0,0.468334 1.649167,1.25 2.274167,0.9375 0.625,-0.3125 0.99,-0.9375 1.5625,-1.458333 0.5725,-0.520833 0.365,-1.51 0.520833,-2.135 C 22.031667,23.3325 21.51,23.4375 21.25,22.916667 Z" style="fill:#5c913b;stroke-width:0.83333331" /></svg>
