<?xml version="1.0" encoding="UTF-8" standalone="no"?><svg viewBox="0 0 30 30"><path d="m 19.243411,11.714707 c -0.919005,0.610689 -1.738636,1.32415 -2.446152,2.057146 C 16.68939,10.166326 15.823045,5.5033475 11.045403,3.2202717 10.100067,-1.9225943 -0.92375815,0.69003259 0.06234714,1.1894554 2.0277628,2.1832049 3.0733232,4.7125947 4.3380181,6.0435396 c 2.2533483,2.3714091 4.758956,2.5174988 6.0058149,0.660801 2.945575,1.9144541 3.139229,5.5454624 3.049197,9.4270304 -0.01019,0.428926 -0.01954,0.828125 -0.01954,1.190801 v 11.89102 c 0,0.937692 3.397435,0.937692 3.397435,0 v -9.75913 c 0.460352,-0.810288 1.802339,-2.977002 3.762658,-4.496504 1.347083,1.183156 3.518043,0.805192 5.489405,-1.269791 1.264694,-1.330945 1.947579,-3.8594857 3.912994,-4.8540845 C 30.973053,8.3087789 19.063347,5.4413444 19.243411,11.714707 Z" style="fill:#77b255;stroke-width:0.84935856" /></svg>
