<svg width="12" height="12" viewBox="0 0 12 12" fill="none" xmlns="http://www.w3.org/2000/svg">
<path d="M9.33342 7C9.33342 7.73633 8.33342 12 6.33342 12H3.66675C1.66675 12 0.666748 7.73633 0.666748 7V1.33333C0.666748 0.597 1.26375 0 2.00008 0H8.00008C8.73641 0 9.33342 0.597 9.33342 1.33333V7Z" fill="#DA2F47"/>
<path d="M4.81368 3.05701C5.52635 3.83801 5.71868 4.89335 5.24368 5.41401C4.76968 5.93435 3.80635 5.72335 3.09435 4.94235C2.38201 4.16135 2.18935 3.10601 2.66435 2.58535C3.13901 2.06501 4.10201 2.27635 4.81368 3.05701Z" fill="#F5F8FA"/>
<path d="M5.31145 4.23549C5.51445 4.49582 5.51445 4.91816 5.31145 5.17849C5.10911 5.43882 4.78045 5.43882 4.57778 5.17849C4.37511 4.91816 4.37511 4.49616 4.57778 4.23582C4.78045 3.97516 5.10911 3.97516 5.31145 4.23549Z" fill="#292F33"/>
<path d="M7.24241 3.09046C6.63374 3.87113 6.46974 4.9268 6.87574 5.44746C7.28074 5.96813 8.10241 5.75713 8.71041 4.97613C9.31841 4.19513 9.48241 3.1398 9.07708 2.61913C8.67208 2.09846 7.85041 2.30946 7.24241 3.09046Z" fill="#F5F8FA"/>
<path d="M7.42525 5.40682C7.71189 5.40682 7.94425 5.10834 7.94425 4.74015C7.94425 4.37196 7.71189 4.07349 7.42525 4.07349C7.13861 4.07349 6.90625 4.37196 6.90625 4.74015C6.90625 5.10834 7.13861 5.40682 7.42525 5.40682Z" fill="#292F33"/>
<path d="M6.96385 3.66671C6.82052 3.66671 6.67652 3.62071 6.55485 3.52604C6.26452 3.30004 6.21219 2.88104 6.43819 2.59037L7.99485 0.590373C8.22119 0.299707 8.63952 0.247373 8.93052 0.473707C9.22085 0.699707 9.27319 1.11871 9.04719 1.40937L7.49052 3.40937C7.35852 3.57837 7.16219 3.66671 6.96385 3.66671ZM5.40685 3.66671C5.20819 3.66671 5.01185 3.57837 4.88019 3.40971L3.32285 1.40971C3.09652 1.11904 3.14885 0.700373 3.43919 0.47404C3.72985 0.247707 4.14885 0.299707 4.37485 0.590373L5.93219 2.59037C6.15852 2.88104 6.10619 3.29971 5.81585 3.52604C5.69419 3.62071 5.54985 3.66671 5.40685 3.66671Z" fill="#292F33"/>
<path d="M7.99996 10.3337C7.72996 10.3337 7.4763 10.1684 7.37563 9.90075C7.34096 9.81441 6.98663 9.00008 5.99996 9.00008C5.0133 9.00008 4.65896 9.81441 4.62163 9.90741C4.48596 10.2467 4.10063 10.4164 3.76063 10.2851C3.41996 10.1531 3.24763 9.77508 3.37596 9.43275C3.40263 9.36041 4.0603 7.66675 5.99996 7.66675C7.93963 7.66675 8.5973 9.36041 8.6243 9.43275C8.75363 9.77741 8.57863 10.1617 8.23396 10.2911C8.15696 10.3197 8.07763 10.3337 7.99996 10.3337Z" fill="#FDD888"/>
<path d="M6.18493 7.33338C6.18493 7.33338 7.67893 7.14905 8.53493 8.66672C9.47459 10.3334 9.47459 7.00005 9.23959 6.66672C9.00493 6.33338 8.75593 7.12872 8.29959 6.96672C7.35926 6.63338 6.18493 7.33338 6.18493 7.33338ZM6.18493 7.33338C6.18493 7.33338 4.22226 7.14905 3.09726 8.66672C1.86293 10.3334 1.86293 7.00005 2.17126 6.66672C2.47993 6.33338 2.80693 7.24172 3.40659 7.07972C4.64126 6.74638 6.18493 7.33338 6.18493 7.33338Z" fill="#292F33"/>
<path d="M10.7539 5C10.7239 5 10.6959 5.00633 10.6666 5.00967V5H6.05123C5.54756 5 5.13989 5.44767 5.13989 6C5.13989 6.55233 5.54789 7 6.05123 7H10.6666V6.99033C10.6959 6.99333 10.7239 7 10.7539 7C11.2579 7 11.6666 6.55233 11.6666 6C11.6666 5.448 11.2579 5 10.7539 5Z" fill="#E75A70"/>
</svg>
