<?xml version="1.0" encoding="UTF-8" standalone="no"?>
<svg viewBox="0 0 30 30">
  <path
     d="m 26.7031,28.226415 c 0,0.914892 -0.746999,1.657249 -1.66769,1.657249 H 5.0220099 c -0.9206164,0 -1.6677665,-0.742357 -1.6677665,-1.657249 V 5.8512074 c 0,-0.9148919 0.7471501,-1.657397 1.6677665,-1.657397 H 25.03541 c 0.920691,0 1.66769,0.7425051 1.66769,1.657397 z"
     fill="#c1694f"
     id="path88"
     style="stroke-width:2.49388" />
  <path
     d="m 24.201526,26.568918 c 0,0.458193 -0.372749,0.828625 -0.833884,0.828625 H 6.6898017 c -0.4603083,0 -0.8338835,-0.370432 -0.8338835,-0.828625 V 7.5086304 c 0,-0.4574463 0.3735752,-0.8286991 0.8338835,-0.8286991 H 23.367642 c 0.461135,0 0.833884,0.3712528 0.833884,0.8286991 z"
     fill="#ffffff"
     id="path90"
     style="stroke-width:2.49388" />
  <path
     d="m 20.866768,2.536339 h -3.335557 c 0,-1.3731665 -1.119925,-2.48612054 -2.501677,-2.48612054 -1.381748,0 -2.501674,1.11295404 -2.501674,2.48612054 H 9.1923019 c -0.9206162,0 -1.6677914,0.7425295 -1.6677914,1.657422 V 8.3372782 H 22.53456 V 4.193761 c 0,-0.9148925 -0.747175,-1.657422 -1.667792,-1.657422 z"
     fill="#ccd6dd"
     id="path92"
     style="stroke-width:2.49388" />
  <path
     d="m 15.028711,4.1937112 c 0.921091,0 1.667791,-0.7420573 1.667791,-1.6574219 0,-0.9153648 -0.7467,-1.65741464 -1.667791,-1.65741464 -0.921094,0 -1.667768,0.74204984 -1.667768,1.65741464 0,0.9153646 0.746674,1.6574219 1.667768,1.6574219 z"
     fill="#292f33"
     id="path94"
     style="stroke-width:2.49388" />
  <path
     d="m 16.697327,11.652074 c 0,0.457445 -0.37275,0.828696 -0.833909,0.828696 H 8.3583937 c -0.4603082,0 -0.8338832,-0.371251 -0.8338832,-0.828696 0,-0.457447 0.373575,-0.828725 0.8338832,-0.828725 h 7.5050243 c 0.461159,0 0.833909,0.371278 0.833909,0.828725 z m 5.837233,3.314817 c 0,0.457446 -0.372748,0.828699 -0.833883,0.828699 H 8.3583937 c -0.4603082,0 -0.8338832,-0.371253 -0.8338832,-0.828699 0,-0.457446 0.373575,-0.828698 0.8338832,-0.828698 H 21.700677 c 0.461135,0 0.833883,0.371252 0.833883,0.828698 z m 0,3.314819 c 0,0.458293 -0.372748,0.828724 -0.833883,0.828724 H 8.3583937 c -0.4603082,0 -0.8338832,-0.370431 -0.8338832,-0.828724 0,-0.458266 0.373575,-0.828699 0.8338832,-0.828699 H 21.700677 c 0.461135,0 0.833883,0.370433 0.833883,0.828699 z m 0,3.314844 c 0,0.458266 -0.372748,0.828698 -0.833883,0.828698 H 8.3583937 c -0.4603082,0 -0.8338832,-0.370432 -0.8338832,-0.828698 0,-0.458292 0.373575,-0.828723 0.8338832,-0.828723 H 21.700677 c 0.461135,0 0.833883,0.370431 0.833883,0.828723 z m 0,3.314819 c 0,0.458241 -0.372748,0.828675 -0.833883,0.828675 h -7.505025 c -0.460308,0 -0.833909,-0.370434 -0.833909,-0.828675 0,-0.458266 0.373601,-0.828699 0.833909,-0.828699 h 7.505025 c 0.461135,0 0.833883,0.370433 0.833883,0.828699 z"
     fill="#99aab5"
     id="path96"
     style="stroke-width:2.49388" />
</svg>
