<?xml version="1.0" encoding="UTF-8"?><svg viewBox="0 0 30 30"><path style="fill:#ffac33;stroke-width:0.83333331" d="M 27.44811,13.0425 C 27.326443,12.716667 27.014776,12.5 26.666443,12.5 h -10.0625 L 22.40811,1.215 C 22.59061,0.86 22.496443,0.4258333 22.182276,0.1791667 22.03061,0.0591667 21.84811,0 21.666443,0 21.472276,0 21.27811,0.0683333 21.122276,0.2025 L 14.999776,5.49 2.7889428,16.035833 c -0.2633333,0.2275 -0.3583333,0.595 -0.2366667,0.920834 C 2.6739428,17.2825 2.9847761,17.5 3.3331095,17.5 H 13.39561 L 7.5914428,28.785 c -0.1825,0.355 -0.088333,0.789167 0.2258333,1.035833 C 7.9689428,29.940833 8.1514428,30 8.3331095,30 8.5272761,30 8.7214428,29.931667 8.8772761,29.7975 L 14.999776,24.51 27.21061,13.964167 c 0.264166,-0.2275 0.358333,-0.595 0.2375,-0.921667 z" /></svg>
