<svg width="120" height="120" viewBox="0 0 120 120" fill="none" xmlns="http://www.w3.org/2000/svg">
<rect width="120" height="120" fill="#E5E5E5"/>
<rect width="1440" height="900" transform="translate(-718 -256)" fill="white"/>
<rect x="-718" y="-256" width="1440" height="900" fill="#F4F6FA"/>
<rect x="-718" y="-256" width="1440" height="900" fill="url(#paint0_linear)" fill-opacity="0.1"/>
<path d="M60 120C93.1371 120 120 93.1371 120 60C120 26.8629 93.1371 0 60 0C26.8629 0 0 26.8629 0 60C0 93.1371 26.8629 120 60 120Z" fill="#C8D2DC"/>
<path d="M84.0374 33.072V97.1806H35.9624V33.072H41.5559V32.9775H78.4439V33.072H84.0374Z" fill="#00284B"/>
<path d="M78.4437 32.9775H41.5557V33.072H78.4437V32.9775Z" fill="#788CA0"/>
<path d="M78.4437 32.9775H41.5557V86.0565H78.4437V32.9775Z" fill="white"/>
<path d="M66.4109 25.2928C66.4109 23.5925 65.7355 21.9619 64.5332 20.7596C63.3309 19.5573 61.7002 18.8818 59.9999 18.8818C58.2996 18.8818 56.6689 19.5573 55.4666 20.7596C54.2643 21.9619 53.5889 23.5925 53.5889 25.2928H35.9624V33.0718H41.5499V32.9773H78.4499V33.0718H84.0434V25.2928H66.4109ZM62.0729 25.2928C62.0525 25.829 61.8252 26.3364 61.4386 26.7085C61.0521 27.0806 60.5364 27.2885 59.9999 27.2885C59.4634 27.2885 58.9477 27.0806 58.5612 26.7085C58.1746 26.3364 57.9473 25.829 57.9269 25.2928C57.9269 25.2733 57.9269 25.2523 57.9269 25.2313C57.9269 24.6811 58.1455 24.1535 58.5345 23.7644C58.9236 23.3754 59.4512 23.1568 60.0014 23.1568C60.5516 23.1568 61.0792 23.3754 61.4683 23.7644C61.8573 24.1535 62.0759 24.6811 62.0759 25.2313C62.0744 25.2523 62.0744 25.2733 62.0729 25.2928Z" fill="#788CA0"/>
<path d="M78.4437 83.5098H41.5557V86.0583H78.4437V83.5098Z" fill="#C8D2DC"/>
<path d="M60 46.1221C57.3504 46.1221 54.7602 46.9078 52.5572 48.3799C50.3541 49.852 48.637 51.9443 47.6231 54.3923C46.6092 56.8403 46.344 59.5339 46.861 62.1327C47.3781 64.7314 48.6541 67.1184 50.5278 68.9919C52.4015 70.8653 54.7887 72.1411 57.3874 72.6578C59.9862 73.1746 62.6798 72.9091 65.1277 71.8949C67.5756 70.8807 69.6677 69.1634 71.1396 66.9602C72.6114 64.7569 73.3968 62.1667 73.3965 59.5171C73.3922 55.9656 71.9793 52.5608 69.4679 50.0497C66.9565 47.5385 63.5515 46.126 60 46.1221ZM60 70.4686C57.8343 70.4686 55.7172 69.8264 53.9165 68.6232C52.1158 67.42 50.7123 65.7098 49.8835 63.709C49.0548 61.7081 48.8379 59.5064 49.2604 57.3823C49.6829 55.2582 50.7258 53.3071 52.2572 51.7758C53.7886 50.2444 55.7397 49.2015 57.8638 48.779C59.9879 48.3565 62.1896 48.5733 64.1904 49.4021C66.1913 50.2309 67.9014 51.6344 69.1046 53.4351C70.3078 55.2358 70.95 57.3529 70.95 59.5186C70.9465 62.4216 69.7917 65.2047 67.7389 67.2574C65.6862 69.3102 62.9031 70.465 60 70.4686Z" fill="#C8D2DC"/>
<path d="M66.2371 58.3167V60.7167H61.2002V65.7537H58.8002V60.7167H53.7632V58.3167H58.8002V53.2812H61.2002V58.3167H66.2371Z" fill="#C8D2DC"/>
<defs>
<linearGradient id="paint0_linear" x1="722" y1="644" x2="722" y2="-256" gradientUnits="userSpaceOnUse">
<stop stop-color="#92D8DC"/>
<stop offset="1" stop-color="#F6B9B9"/>
</linearGradient>
</defs>
</svg>
