<?xml version="1.0" encoding="utf-8"?>
<!-- Generator: Adobe Illustrator 21.0.0, SVG Export Plug-In . SVG Version: 6.00 Build 0)  -->
<svg version="1.1" id="Warstwa_1" xmlns="http://www.w3.org/2000/svg" xmlns:xlink="http://www.w3.org/1999/xlink" x="0px" y="0px"
	 viewBox="0 0 30 30" style="enable-background:new 0 0 30 30;" xml:space="preserve">
<path d="M22.5,10.5v9h-15v-9H22.5 M22.7,10H7.2C7.1,10,7,10.1,7,10.2v9.6C7,19.9,7.1,20,7.2,20h15.4c0.2,0,0.3-0.1,0.3-0.2v-9.6
	C23,10.1,22.8,10,22.7,10L22.7,10z M15.1,15.2l5-2c0.1-0.1,0.2-0.2,0.1-0.3c-0.1-0.1-0.2-0.2-0.3-0.1l-4.9,2l-4.9-2
	c-0.1-0.1-0.3,0-0.3,0.1s0,0.3,0.1,0.3l5,2C14.9,15.2,15,15.3,15.1,15.2C15,15.3,15.1,15.2,15.1,15.2z"/>
</svg>
