<svg viewBox="0 0 30 30" version="1.1"><path d="m 27.18807,5.79993 v 18.3998 H 2.812991 V 5.79993 H 27.18807 M 27.537525,4.999993 H 2.464315 C 2.206967,4.999993 2,5.155331 2,5.344308 v 19.312896 c 0,0.187464 0.206967,0.342803 0.464315,0.342803 h 25.07321 C 27.791169,25.000007 28,24.844668 28,24.657204 V 5.344308 C 28,5.156465 27.791181,4.999993 27.537525,4.999993 Z m -12.318694,10.371629 8.125047,-3.199711 c 0.50898,-0.195023 0.203713,-0.946431 -0.301568,-0.742148 L 15.068043,14.569455 7.093775,11.429839 C 6.588845,11.2265 6.284058,11.976434 6.792207,12.171987 l 8.125048,3.199786 c 0.09691,0.03779 0.204653,0.03779 0.301568,0 z" /></svg>
