<?xml version="1.0" encoding="UTF-8" standalone="no"?>
<svg
   xmlns:dc="http://purl.org/dc/elements/1.1/"
   xmlns:cc="http://creativecommons.org/ns#"
   xmlns:rdf="http://www.w3.org/1999/02/22-rdf-syntax-ns#"
   xmlns:svg="http://www.w3.org/2000/svg"
   xmlns="http://www.w3.org/2000/svg"
   width="30"
   height="30"
   viewBox="0 0 7.9374998 7.9375002"
   version="1.1"
   id="svg8">
  <defs
     id="defs2" />
  <metadata
     id="metadata5">
    <rdf:RDF>
      <cc:Work
         rdf:about="">
        <dc:format>image/svg+xml</dc:format>
        <dc:type
           rdf:resource="http://purl.org/dc/dcmitype/StillImage" />
        <dc:title></dc:title>
      </cc:Work>
    </rdf:RDF>
  </metadata>
  <g
     id="layer1"
     transform="translate(0,-289.06246)">
    <path
       id="path891"
       d="m 7.19351,290.59702 v 4.86828 H 0.744271 v -4.86828 H 7.19351 m 0.09246,-0.21165 H 0.652017 c -0.06809,0 -0.12285,0.0411 -0.12285,0.0911 v 5.10987 c 0,0.0496 0.05476,0.0907 0.12285,0.0907 H 7.28597 c 0.06711,0 0.122363,-0.0411 0.122363,-0.0907 v -5.10987 c 0,-0.0497 -0.05525,-0.0911 -0.122363,-0.0911 z m -3.259321,2.74416 2.149752,-0.84659 c 0.1346674,-0.0516 0.053899,-0.25041 -0.07979,-0.19636 l -2.109858,0.83071 -2.109858,-0.83069 c -0.1335961,-0.0538 -0.2142378,0.14462 -0.07979,0.19636 l 2.149752,0.84661 c 0.025641,0.01 0.054148,0.01 0.07979,0 z"
       style="stroke-width:0.26458332" />
  </g>
</svg>
