<svg
  xmlns="http://www.w3.org/2000/svg"
  viewBox="0 0 30 30"
>
  <rect
    x="7"
    y="7"
    width="16"
    height="16"
    rx="1.5"
    ry="1.5"
    fill="none"
    isolation="isolate"
    opacity=".65"
    stroke="#76748b"
  />
  <path
    d="M15,19.25c.28,0,.5-.22,.5-.5v-3.22h3c.28,0,.5-.22,.5-.5v-.06c0-.28-.22-.5-.5-.5h-3v-3.22c0-.28-.22-.5-.5-.5s-.5,.22-.5,.5v3.22h-3c-.28,0-.5,.22-.5,.5v.06c0,.28,.22,.5,.5,.5h3v3.22c0,.28,.22,.5,.5,.5Z"
    fill="#76748b"
    fill-rule="evenodd"
  />
</svg>
