<?xml version="1.0" encoding="utf-8"?>
<!-- Generator: Adobe Illustrator 16.0.0, SVG Export Plug-In . SVG Version: 6.00 Build 0)  -->
<!DOCTYPE svg PUBLIC "-//W3C//DTD SVG 1.1//EN" "http://www.w3.org/Graphics/SVG/1.1/DTD/svg11.dtd">
<svg version="1.1" id="Warstwa_1" xmlns="http://www.w3.org/2000/svg" xmlns:xlink="http://www.w3.org/1999/xlink" x="0px" y="0px"
	 width="30px" height="30px" viewBox="0 0 30 30" style="enable-background:new 0 0 30 30;" xml:space="preserve">
<path d="M21.716,10.201L21.716,10.201L21.716,10.201L21.716,10.201l-4.768-4.767l0,0h-9.21c-0.159,0-0.318,0.159-0.318,0.318v18.271
	c0,0.157,0.159,0.476,0.477,0.476h13.501c0.159,0,0.477-0.158,0.477-0.476V11.789L21.716,10.201L21.716,10.201L21.716,10.201z
	 M16.948,7.658l2.542,2.543h-2.542V7.658z M20.127,22.911H9.009V7.023h6.355v3.178v1.588l0,0h4.763V22.911z"/>
</svg>
