<?xml version="1.0" encoding="utf-8"?>
<!-- Generator: Adobe Illustrator 21.0.0, SVG Export Plug-In . SVG Version: 6.00 Build 0)  -->
<svg version="1.1" id="Warstwa_1" xmlns="http://www.w3.org/2000/svg" xmlns:xlink="http://www.w3.org/1999/xlink" x="0px" y="0px"
	 width="30px" height="30px" viewBox="0 0 30 30" style="enable-background:new 0 0 30 30;" xml:space="preserve">
<path d="M19,11L19,11L19,11L19,11l-3-3l0,0h-5.8C10.1,8,10,8.1,10,8.2v11.5c0,0.1,0.1,0.3,0.3,0.3h8.5c0.1,0,0.3-0.1,0.3-0.3V12
	L19,11L19,11L19,11z M16,9.4l1.6,1.6H16V9.4z M18,19h-7V9h4v2v1v0h3V19z"/>
</svg>
