<?xml version="1.0" encoding="utf-8"?>
<!-- Generator: Adobe Illustrator 16.0.0, SVG Export Plug-In . SVG Version: 6.00 Build 0)  -->
<!DOCTYPE svg PUBLIC "-//W3C//DTD SVG 1.1//EN" "http://www.w3.org/Graphics/SVG/1.1/DTD/svg11.dtd">
<svg version="1.1" id="Warstwa_1" xmlns="http://www.w3.org/2000/svg" xmlns:xlink="http://www.w3.org/1999/xlink" x="0px" y="0px"
	 width="30px" height="30px" viewBox="0 0 30 30" style="enable-background:new 0 0 30 30;" xml:space="preserve">
<path d="M22.581,9.617L22.581,9.617L22.581,9.617L22.581,9.617l-5.351-5.35l0,0H6.893c-0.179,0-0.357,0.179-0.357,0.357v20.508
	c0,0.177,0.179,0.534,0.535,0.534h15.154c0.179,0,0.535-0.178,0.535-0.534V11.4L22.581,9.617L22.581,9.617L22.581,9.617z
	 M17.23,6.763l2.853,2.854H17.23V6.763z M20.798,23.884H8.318V6.05h7.133v3.567V11.4l0,0h5.346V23.884z"/>
</svg>
