<?xml version="1.0" encoding="UTF-8" standalone="no"?>
<svg viewBox="0 0 30 30">
  <ellipse
     cx="14.987954"
     cy="15.04359"
     fill="#eef2f5"
     id="circle100"
     rx="14.478868"
     ry="14.461721"
     style="stroke-width:1.1131" />
  <path
     class="st0"
     d="m 14.987951,20.383303 c 2.338893,0 4.232286,-1.891148 4.232286,-4.227272 v -3.337319 c 0,-2.336126 -1.893393,-4.2272738 -4.232286,-4.2272738 -2.338893,0 -4.232283,1.8911478 -4.232283,4.2272738 v 3.337319 c 0,2.336124 1.89339,4.227272 4.232283,4.227272 z m -3.675403,-7.564591 c 0,-2.002394 1.670638,-3.6710541 3.675403,-3.6710541 2.004767,0 3.675405,1.6686601 3.675405,3.6710541 v 3.337319 c 0,2.002391 -1.670638,3.67105 -3.675405,3.67105 -2.004765,0 -3.675403,-1.668659 -3.675403,-3.67105 z M 14.987951,0.58186965 c -8.0190634,0 -14.47886501,6.45215245 -14.47886501,14.46172035 0,4.449761 2.00476611,8.343301 5.12329101,11.013157 0.111376,0.111244 0.2227516,0.222487 0.4455035,0.333733 2.4502697,2.002392 5.5687955,3.114831 8.9100705,3.114831 3.341279,0 6.459803,-1.112439 8.910072,-3.114831 0.111375,-0.111246 0.334129,-0.222489 0.445504,-0.333733 3.118525,-2.669856 5.12329,-6.563396 5.12329,-11.013157 0,-8.0095679 -6.459801,-14.46172035 -14.478866,-14.46172035 z m 0,28.36722235 c -3.2299,0 -6.2370491,-1.11244 -8.5759428,-3.003588 2.2275178,-2.22488 5.2346678,-3.671053 8.5759428,-3.671053 3.341279,0 6.348427,1.446173 8.575945,3.671053 -2.338896,1.891148 -5.346043,3.003588 -8.575945,3.003588 z m 9.021447,-3.33732 c -2.227517,-2.336125 -5.457418,-3.782297 -9.021447,-3.782297 -3.564027,0 -6.6825527,1.446172 -9.0214464,3.782297 C 2.9593557,23.053159 1.0659654,19.270863 1.0659654,15.04359 c 0,-7.675836 6.23705,-13.9055003 13.9219856,-13.9055003 7.684937,0 13.921987,6.2296643 13.921987,13.9055003 0,4.227273 -1.89339,8.009569 -4.90054,10.568182 z"
     id="path102"
     style="stroke-width:1.1131" />
</svg>
