<?xml version="1.0" encoding="utf-8"?>
<!-- Generator: Adobe Illustrator 26.3.1, SVG Export Plug-In . SVG Version: 6.00 Build 0)  -->
<svg version="1.1" id="Layer_1" xmlns="http://www.w3.org/2000/svg" xmlns:xlink="http://www.w3.org/1999/xlink" x="0px" y="0px"
	 viewBox="0 0 30 30" style="enable-background:new 0 0 30 30;" xml:space="preserve">
<style type="text/css">
	.st0{fill:#EEEEEE;}
	.st1{fill:none;stroke:#000000;stroke-width:0.3;}
	.st2{fill:#005293;}
	.st3{fill:#D21034;}
</style>
<g>
	<g>
		<path class="st0" d="M15,15V4.2H3.4c-1.8,0-3.3,1.5-3.3,3.3V15H15z M15,15v10.8h11.6c1.8,0,3.3-1.5,3.3-3.3V15H15z"/>
	</g>
	<line class="st1" x1="0.1" y1="-49.8" x2="0.1" y2="-13.8"/>
	<line class="st1" x1="-53.9" y1="4.2" x2="-17.9" y2="4.2"/>
	<line class="st1" x1="-53.9" y1="25.8" x2="-17.9" y2="25.8"/>
	<line class="st1" x1="0.1" y1="79.8" x2="0.1" y2="43.8"/>
	<line class="st1" x1="29.9" y1="-49.8" x2="29.9" y2="-13.8"/>
	<line class="st1" x1="83.9" y1="4.2" x2="47.9" y2="4.2"/>
	<line class="st1" x1="83.9" y1="25.8" x2="47.9" y2="25.8"/>
	<line class="st1" x1="29.9" y1="79.8" x2="29.9" y2="43.8"/>
</g>
<path class="st2" d="M15,15v10.8H3.4c-1.8,0-3.3-1.5-3.3-3.3V15H15z"/>
<path class="st3" d="M15,15V4.2h11.6c1.8,0,3.3,1.5,3.3,3.3V15H15z"/>
<path class="st2" d="M8.1,8.8L7.5,7.1L7,8.8H5.2l1.5,1.1l-0.6,1.7l1.5-1.1L9,11.6L8.4,9.9l1.5-1.1H8.1z"/>
<path class="st3" d="M21.6,20.7L21,22.4l1.5-1.1l1.5,1.1l-0.6-1.7l1.5-1.1H23l-0.6-1.7l-0.6,1.7h-1.8L21.6,20.7z"/>
</svg>