<?xml version="1.0" encoding="utf-8"?>
<!-- Generator: Adobe Illustrator 21.0.0, SVG Export Plug-In . SVG Version: 6.00 Build 0)  -->
<svg version="1.1" id="Warstwa_1" xmlns="http://www.w3.org/2000/svg" xmlns:xlink="http://www.w3.org/1999/xlink" x="0px" y="0px"
	 viewBox="0 0 30 30" style="enable-background:new 0 0 30 30;" xml:space="preserve">
<path d="M15,2C7.8,2,2,7.8,2,15s5.8,13,13,13s13-5.8,13-13S22.2,2,15,2z M2.5,15c0-3.4,1.3-6.4,3.5-8.6L23.6,24
	c-2.2,2.2-5.3,3.5-8.6,3.5C8.1,27.5,2.5,21.9,2.5,15z M24,23.6L6.4,6c2.2-2.2,5.3-3.5,8.6-3.5c6.9,0,12.5,5.6,12.5,12.5
	C27.5,18.4,26.2,21.4,24,23.6z"/>
</svg>
