<?xml version="1.0" encoding="UTF-8" standalone="no"?>
<svg
   width="30"
   height="30"
   viewBox="0 0 30 30"
   fill="none"
   version="1.1"
   id="svg296"
   sodipodi:docname="gnosis-logo.svg"
   inkscape:version="1.2 (dc2aeda, 2022-05-15)"
   xmlns:inkscape="http://www.inkscape.org/namespaces/inkscape"
   xmlns:sodipodi="http://sodipodi.sourceforge.net/DTD/sodipodi-0.dtd"
   xmlns="http://www.w3.org/2000/svg"
   xmlns:svg="http://www.w3.org/2000/svg">
  <defs
     id="defs300" />
  <sodipodi:namedview
     id="namedview298"
     pagecolor="#ffffff"
     bordercolor="#000000"
     borderopacity="0.25"
     inkscape:showpageshadow="2"
     inkscape:pageopacity="0.0"
     inkscape:pagecheckerboard="0"
     inkscape:deskcolor="#d1d1d1"
     showgrid="false"
     inkscape:zoom="8.7047942"
     inkscape:cx="-8.4436229"
     inkscape:cy="15.106618"
     inkscape:window-width="1457"
     inkscape:window-height="729"
     inkscape:window-x="2"
     inkscape:window-y="38"
     inkscape:window-maximized="0"
     inkscape:current-layer="svg296" />
  <path
     d="M 14.983053,1.1331355e-6 C 12.020637,-0.00115271 9.1243435,0.87892014 6.6605814,2.5289084 4.1968187,4.1788977 2.2762393,6.5246942 1.1417481,9.2695934 0.00726763,12.014516 -0.29016196,15.035234 0.28708209,17.949657 0.8643261,20.864079 2.290315,23.54141 4.3846888,25.642926 c 2.0943738,2.101516 4.7630607,3.532825 7.6685212,4.112956 2.905415,0.58013 5.917153,0.282947 8.65424,-0.853862 2.737087,-1.13681 5.076565,-3.062256 6.722609,-5.532829 1.64593,-2.470574 2.52444,-5.375313 2.52444,-8.346675 C 29.954266,11.03939 28.376971,7.219428 25.569505,4.4023977 22.762039,1.5853672 18.95415,0.00185727 14.983053,1.1331355e-6 Z M 25.944664,15.842773 h -6.955267 c -0.20718,1.041016 -0.795801,1.966401 -1.64965,2.593671 -0.853966,0.627269 -1.911157,0.910801 -2.963229,0.794705 -1.052073,-0.116096 -2.022599,-0.62342 -2.720104,-1.421858 -0.697562,-0.798438 -1.0715,-1.830002 -1.048105,-2.891437 0.0234,-1.061317 0.442454,-2.07538 1.174553,-2.842081 0.732055,-0.766691 1.723869,-1.230445 2.780014,-1.299765 1.056144,-0.06933 2.099957,0.260803 2.925306,0.925223 0.825465,0.664491 1.372673,1.615079 1.533788,2.664379 h 6.916878 c 0.195314,0 0.382603,0.07783 0.520685,0.216323 0.138081,0.1385 0.215673,0.326353 0.215673,0.522259 0,0.195905 -0.07759,0.383759 -0.215673,0.522258 -0.138082,0.138498 -0.325371,0.216323 -0.520685,0.216323 z"
     fill="#000000"
     id="path294"
     style="stroke-width:0.116504" />
</svg>
