<svg width="258" height="259" viewBox="0 0 258 259" fill="none" xmlns="http://www.w3.org/2000/svg">
<path d="M128.999 0.839853C103.533 0.829964 78.6354 8.37261 57.456 22.5138C36.2766 36.655 19.7666 56.7596 10.0141 80.2847C0.261693 103.81 -2.29512 129.699 2.66708 154.677C7.62928 179.655 19.8876 202.601 37.8916 220.612C55.8956 238.623 78.8366 250.89 103.813 255.862C128.789 260.834 154.679 258.287 178.208 248.544C201.737 238.801 221.848 222.299 235.998 201.125C250.147 179.951 257.699 155.056 257.699 129.59C257.697 95.4527 244.138 62.7138 220.004 38.5705C195.87 14.4272 163.136 0.855761 128.999 0.839853V0.839853ZM223.229 136.62H163.439C161.658 145.542 156.598 153.473 149.258 158.849C141.917 164.225 132.829 166.655 123.785 165.66C114.741 164.665 106.398 160.317 100.402 153.474C94.4055 146.631 91.191 137.79 91.3921 128.693C91.5933 119.597 95.1956 110.906 101.489 104.335C107.782 97.7641 116.308 93.7895 125.387 93.1954C134.466 92.6012 143.439 95.4306 150.534 101.125C157.63 106.82 162.334 114.967 163.719 123.96H223.179C224.858 123.96 226.468 124.627 227.655 125.814C228.842 127.001 229.509 128.611 229.509 130.29C229.509 131.969 228.842 133.579 227.655 134.766C226.468 135.953 224.858 136.62 223.179 136.62H223.229Z" fill="black"/>
</svg>
