<svg version="1.1" viewBox="0 0 30 30"><path d="m 2,14.66542 h 8.368008 l -3.0543364,-3.137209 0.3542294,-0.36384 3.660962,3.760323 -0.35423,0.363841 L 7.667901,18.83563 7.3136716,18.471727 10.382257,15.180058 H 2 Z M 27.749498,11.601603 H 15.907172 a 1.6748241,1.7202661 0 0 1 0.375512,-1.080447 1.7416179,1.7888722 0 0 1 1.363079,-0.506559 H 27.707414 V 9.5000001 H 17.395262 v 0.019915 a 2.105667,2.1627988 0 0 0 -1.490285,0.6630369 2.2740342,2.3357342 0 0 0 -0.493187,1.685119 v 8.374631 A 0.25067202,0.25747335 0 0 0 15.662291,20.5 H 27.749498 A 0.25098264,0.2577924 0 0 0 28,20.242702 v -8.38381 a 0.25067202,0.25747335 0 0 0 -0.250502,-0.257289 z m -0.250502,8.38381 H 15.912793 V 12.1162 h 11.586203 z m -2.797602,-2.537816 a 1.2525084,1.286492 0 1 0 -1.252509,-1.286491 1.2525084,1.286492 0 0 0 1.252509,1.286491 z m 0,-2.058387 a 0.75150502,0.77189515 0 1 1 -0.751505,0.771896 0.75150502,0.77189515 0 0 1 0.751505,-0.771896 z" /></svg>
