<?xml version="1.0" encoding="UTF-8" standalone="no"?>
<svg
   width="30"
   height="30"
   viewBox="0 0 30 30"
   fill="none"
   version="1.1"
   id="svg278"
   sodipodi:docname="joystick.svg"
   inkscape:version="1.2 (dc2aeda, 2022-05-15)"
   xmlns:inkscape="http://www.inkscape.org/namespaces/inkscape"
   xmlns:sodipodi="http://sodipodi.sourceforge.net/DTD/sodipodi-0.dtd"
   xmlns="http://www.w3.org/2000/svg"
   xmlns:svg="http://www.w3.org/2000/svg">
  <defs
     id="defs282" />
  <sodipodi:namedview
     id="namedview280"
     pagecolor="#ffffff"
     bordercolor="#000000"
     borderopacity="0.25"
     inkscape:showpageshadow="2"
     inkscape:pageopacity="0.0"
     inkscape:pagecheckerboard="0"
     inkscape:deskcolor="#d1d1d1"
     showgrid="false"
     inkscape:zoom="13.111111"
     inkscape:cx="-0.11440678"
     inkscape:cy="8.0847458"
     inkscape:window-width="1309"
     inkscape:window-height="456"
     inkscape:window-x="0"
     inkscape:window-y="38"
     inkscape:window-maximized="0"
     inkscape:current-layer="svg278" />
  <path
     d="m 13.125,6.1764706 h 3.75 V 21.176471 h -3.75 z"
     fill="#99aab5"
     id="path264"
     style="stroke-width:1.81901" />
  <path
     d="m 7.4999998,19.852941 c 0,0.730589 -0.6299999,1.32353 -1.4062499,1.32353 h -2.8125 c -0.77625,0 -1.40625,-0.592941 -1.40625,-1.32353 0,-0.730589 0.63,-1.323529 1.40625,-1.323529 h 2.8125 c 0.77625,0 1.4062499,0.59294 1.4062499,1.323529 z"
     fill="#da2f47"
     id="path266"
     style="stroke-width:1.81901" />
  <path
     d="M 30,28.235294 C 30,29.209411 29.159999,30 28.124999,30 H 1.8749999 C 0.84000003,30 0,29.209411 0,28.235294 V 22.941176 C 0,21.967059 0.84000003,21.176471 1.8749999,21.176471 H 28.124999 c 1.035,0 1.875001,0.790588 1.875001,1.764705 z"
     fill="#31373d"
     id="path268"
     style="stroke-width:1.81901" />
  <path
     d="M 7.4999998,28.67647 C 7.4999998,29.407058 6.8709375,30 6.0937499,30 h -2.8125 c -0.7771874,0 -1.40625,-0.592942 -1.40625,-1.32353 0,-0.730588 0.6290626,-1.323529 1.40625,-1.323529 h 2.8125 c 0.7771876,0 1.4062499,0.592941 1.4062499,1.323529 z m 20.6249992,0 C 28.124999,29.407058 27.495,30 26.718749,30 H 23.90625 C 23.129999,30 22.5,29.407058 22.5,28.67647 c 0,-0.730588 0.629999,-1.323529 1.40625,-1.323529 h 2.812499 c 0.776251,0 1.40625,0.592941 1.40625,1.323529 z"
     fill="#31373d"
     id="path270"
     style="stroke-width:1.81901" />
  <path
     d="m 15,8.8235292 c 2.588813,0 4.6875,-1.9752175 4.6875,-4.4117646 C 19.6875,1.9752176 17.588813,0 15,0 c -2.588831,0 -4.687501,1.9752175 -4.687501,4.4117646 0,2.4365471 2.09867,4.4117646 4.687501,4.4117646 z"
     fill="#da2f47"
     id="path272"
     style="stroke-width:1.81901" />
  <path
     d="m 21.5625,21.176471 c 0,0.974117 -0.84,1.764705 -1.875,1.764705 h -9.375001 c -1.0349992,0 -1.8749992,-0.790588 -1.8749992,-1.764705 v -0.882354 c 0,-0.974116 3.6525012,-5.294118 4.6875002,-5.294118 h 3.75 c 1.035,0 4.6875,4.320002 4.6875,5.294118 z"
     fill="#31373d"
     id="path274"
     style="stroke-width:1.81901" />
  <path
     d="m 29.0625,22.941176 c 0,0.487941 -0.419063,0.882354 -0.937501,0.882354 H 1.8749999 c -0.5175,0 -0.93749997,-0.394413 -0.93749997,-0.882354 0,-0.48794 0.41999997,-0.882353 0.93749997,-0.882353 H 28.124999 c 0.518438,0 0.937501,0.394413 0.937501,0.882353 z"
     fill="#66757f"
     id="path276"
     style="stroke-width:1.81901" />
</svg>
