<svg viewBox="0 0 30 30" version="1.1">
  <g transform="translate(0,-1022.3622)">
    <path transform="translate(-268.625,441.4375)" d="m 283.625,581.92383 c -7.72902,0 -14,6.271 -14,14 0,7.729 6.27098,14 14,14 7.72903,0 14,-6.271 14,-14 0,-7.729 -6.27097,-14 -14,-14 z m 0,0.5 c 7.45881,0 13.5,6.0412 13.5,13.5 0,7.4588 -6.04119,13.5 -13.5,13.5 -7.4588,0 -13.5,-6.0412 -13.5,-13.5 0,-7.4588 6.0412,-13.5 13.5,-13.5 z m -0.24805,7.43555 0,0.004 0,10.17383 -2.17187,-2.19141 -0.34766,0.34766 c 0.91837,0.941 1.84566,1.87303 2.77539,2.80273 0.92022,-0.9392 1.83993,-1.87886 2.75977,-2.81836 l -0.35352,-0.34179 -2.16601,2.19922 0.004,-10.17578 -0.5,0 z m -5.75195,13.66796 0,0.5 12,0 0,-0.5 -12,0 z" />
  </g>
</svg>
