<svg version="1.1" xmlns="http://www.w3.org/2000/svg" xmlns:xlink="http://www.w3.org/1999/xlink" x="0px" y="0px"
	 viewBox="0 0 30 30" style="enable-background:new 0 0 30 30;" xml:space="preserve">
<path d="M25,12.9H23V8c0-4.3-3.5-7.7-7.7-7.7C11,0.3,7.5,3.7,7.5,8v4.9H5.4c-2,0-3.5,1.6-3.5,3.5v9.8c0,2,1.6,3.5,3.5,3.5H25
	c2,0,3.5-1.6,3.5-3.5v-9.8C28.6,14.4,27,12.9,25,12.9z M9,8c0-3.4,2.8-6.3,6.3-6.3c3.4,0,6.3,2.8,6.3,6.3v4.9H9V8z M27.1,26.2
	c0,1.1-0.9,2.1-2.1,2.1H5.4c-1.1,0-2.1-0.9-2.1-2.1v-9.8c0-1.1,0.9-2.1,2.1-2.1H25c1.1,0,2.1,0.9,2.1,2.1V26.2z"/>
</svg>
