<?xml version="1.0" encoding="utf-8"?>
<!-- Generator: Adobe Illustrator 16.0.0, SVG Export Plug-In . SVG Version: 6.00 Build 0)  -->
<!DOCTYPE svg PUBLIC "-//W3C//DTD SVG 1.1//EN" "http://www.w3.org/Graphics/SVG/1.1/DTD/svg11.dtd">
<svg version="1.1" id="Layer_1" xmlns="http://www.w3.org/2000/svg" xmlns:xlink="http://www.w3.org/1999/xlink" x="0px" y="0px"
	 width="30px" height="30px" viewBox="0 0 30 30" style="enable-background:new 0 0 30 30;" xml:space="preserve">
<g>
	<path style="fill:none;" d="M14.888,29.699c-5.056,0-10.111,0-15.166,0.004c-0.137,0-0.168-0.031-0.168-0.168
		c0.003-9.853,0.003-19.706,0-29.558c0-0.136,0.032-0.168,0.168-0.168c10.11,0.004,20.219,0.004,30.33,0
		c0.135,0,0.166,0.031,0.166,0.168c-0.003,9.853-0.003,19.706,0,29.558c0,0.137-0.031,0.168-0.166,0.168
		C24.996,29.699,19.941,29.699,14.888,29.699z M6.448,2.226c-0.001-0.029-0.023-0.035-0.045-0.04
		c-0.221-0.163-0.221-0.163-0.36,0.076C5.292,3.551,4.542,4.841,3.79,6.13C3.761,6.179,3.748,6.219,3.751,6.279
		C3.834,7.619,3.894,8.961,4,10.297c0.033,0.421-0.018,0.752-0.396,0.982c-0.095,0.057-0.072,0.111,0.007,0.175
		c0.213,0.173,0.417,0.356,0.63,0.531c0.075,0.061,0.078,0.101,0.007,0.167c-0.128,0.122-0.244,0.258-0.373,0.377
		c-0.079,0.072-0.073,0.118,0,0.188c0.138,0.129,0.268,0.268,0.399,0.404c0.097,0.1,0.262,0.196,0.272,0.305
		c0.011,0.128-0.168,0.22-0.274,0.318c-0.101,0.092-0.106,0.156-0.019,0.266c0.361,0.455,0.711,0.917,1.064,1.375
		C5.3,15.445,5.285,15.504,5.262,15.56c-0.368,0.882-0.732,1.766-1.106,2.646c-0.479,1.124-0.917,2.266-1.435,3.375
		c-0.032,0.07,0.014,0.084,0.052,0.112c0.005,0.036,0.007,0.073,0.017,0.107c0.497,1.903,0.999,3.805,1.491,5.71
		c0.038,0.146,0.103,0.125,0.203,0.094c1.983-0.615,3.965-1.23,5.951-1.845c0.598-0.184,1.2-0.361,1.799-0.542
		c0.175,0.066,0.349,0.139,0.525,0.202c0.623,0.224,1.217,0.524,1.867,0.678c1.521,0.362,3.036,0.739,4.557,1.092
		c0.235,0.055,0.456,0.157,0.729,0.107c0.942-0.177,1.894-0.311,2.841-0.458c0.101-0.016,0.171-0.058,0.221-0.16
		c0.269-0.554,0.547-1.103,0.822-1.653c0.023-0.048,0.055-0.097,0.052-0.154c0.114-0.033,0.034-0.153,0.093-0.212
		c0.165,0.047,0.333,0.086,0.493,0.139c0.092,0.029,0.124,0.008,0.151-0.085c0.479-1.634,0.961-3.266,1.444-4.897
		c0.121-0.115-0.014-0.214-0.028-0.315c-0.169-1.088-0.352-2.174-0.528-3.26c-0.067-0.421-0.129-0.841-0.191-1.263
		c0.231-0.29,0.463-0.578,0.697-0.869c0.082-0.104,0.23-0.211,0.229-0.315c-0.002-0.125-0.195-0.175-0.294-0.271
		c-0.006-0.003-0.01-0.008-0.015-0.011c-0.098-0.051-0.076-0.098-0.009-0.164c0.168-0.151,0.326-0.312,0.494-0.463
		c0.07-0.062,0.081-0.104-0.002-0.166c-0.126-0.095-0.241-0.205-0.365-0.305c-0.066-0.052-0.067-0.086,0-0.136
		c0.133-0.096,0.263-0.199,0.394-0.298c0.201-0.156,0.201-0.156,0.01-0.31c-0.053-0.043-0.102-0.091-0.157-0.126
		c-0.119-0.073-0.132-0.156-0.088-0.291c0.364-1.095,0.721-2.196,1.081-3.293c0.021-0.064,0.036-0.126,0.031-0.195
		c-0.043-0.78-0.081-1.559-0.124-2.338c-0.016-0.311-0.037-0.62-0.055-0.932c-0.004-0.078-0.009-0.147-0.108-0.067
		c-0.041,0.005-0.084,0.007-0.126,0.017c-1.727,0.398-3.452,0.796-5.179,1.196c-1.042,0.242-2.085,0.489-3.129,0.731
		c-0.358-0.026-0.716-0.052-1.073-0.081c-0.852-0.067-1.7-0.139-2.549-0.206c-0.895-0.07-1.787-0.135-2.679-0.202
		c-0.056-0.035-0.115-0.069-0.171-0.104c-1.411-0.893-2.822-1.791-4.237-2.683C7.407,2.812,6.969,2.504,6.498,2.25L6.491,2.249
		C6.484,2.226,6.47,2.218,6.447,2.224L6.448,2.226z"/>
	<path style="fill:#F1822E;" d="M2.771,21.692C2.734,21.664,2.688,21.65,2.72,21.58c0.517-1.109,0.956-2.251,1.435-3.375
		c0.375-0.88,0.738-1.764,1.105-2.646c0.023-0.056,0.039-0.115,0.058-0.172c0.34-0.148,0.7-0.244,1.052-0.357
		c1.502-0.484,3.003-0.966,4.504-1.449c0.014,0.181,0.024,0.361,0.043,0.542c0.056,0.57,0.112,1.139,0.181,1.708
		c0.02,0.166,0.008,0.339,0.07,0.5c0.037,0.048,0.073,0.097,0.11,0.145c-0.009,0.067,0.03,0.114,0.063,0.166
		c0.347,0.535,0.69,1.073,1.036,1.609c0.541,0.837,1.084,1.673,1.625,2.511c0.059,0.089,0.091,0.2,0.209,0.279
		c-0.018-0.08-0.031-0.131-0.038-0.186c-0.049-0.376-0.099-0.754-0.144-1.134c-0.041-0.335-0.077-0.672-0.114-1.008
		c1.038,0.229,2.074,0.459,3.11,0.688c0.321,0.229,0.598,0.514,0.897,0.771c0.364,0.312,0.716,0.641,1.077,0.958
		c0.499,0.443,1.002,0.884,1.505,1.324c0.038,0.033,0.074,0.113,0.128,0.076c0.063-0.044-0.013-0.093-0.035-0.137
		c-0.03-0.055-0.06-0.106-0.093-0.158c-0.774-1.18-1.553-2.356-2.327-3.536c-0.068-0.101-0.156-0.202-0.18-0.315
		c-0.061-0.303-0.208-0.568-0.312-0.856c-0.123-0.354-0.302-0.688-0.397-1.055c-0.026-0.044-0.07-0.033-0.109-0.035
		c-0.23-0.781-0.503-1.547-0.754-2.319c-0.375-1.145-0.747-2.29-1.119-3.433c-0.025-0.07-0.034-0.141-0.029-0.213
		c0.008-0.083-0.08-0.099-0.109-0.157c0.01-0.082-0.049-0.137-0.088-0.195c-0.62-0.931-1.245-1.858-1.861-2.792
		c-0.318-0.48-0.657-0.948-0.949-1.445c0.892,0.066,1.784,0.13,2.679,0.201c0.849,0.067,1.698,0.139,2.549,0.207
		c0.357,0.028,0.715,0.054,1.074,0.08c-0.018,1.38,0.082,2.757,0.076,4.138c0.017,0.051,0.074,0.081,0.07,0.142
		c-0.03,0.022-0.024,0.048-0.018,0.081c0.197,0.905,0.394,1.812,0.589,2.716c0.189,0.866,0.375,1.732,0.568,2.595
		c0.024,0.107,0.004,0.237,0.106,0.322c0.018,0.318,0.137,0.612,0.222,0.916c0.132,0.47,0.197,0.969,0.539,1.354
		c0.034,0.059,0.073,0.113,0.1,0.174c0.07,0.162,0.159,0.165,0.308,0.084c0.42-0.233,0.849-0.449,1.273-0.672
		c0.027,0.017,0.056,0.031,0.086,0.047c-0.027,0.268,0.045,0.531,0.036,0.8c-0.016,0.377,0.062,0.752,0.037,1.128
		c-0.001,0.029,0.001,0.062,0.045,0.062c0.006-0.005,0.013-0.007,0.014-0.013c0.345-1.182,0.692-2.362,1.028-3.548
		c0.043-0.154,0.146-0.307,0.086-0.48c0.005-0.084,0.072-0.136,0.104-0.204c0.038-0.086-0.005-0.093-0.068-0.092
		c-0.004-0.069-0.056-0.103-0.103-0.141c-0.271-0.224-0.539-0.45-0.808-0.676c-0.361-0.303-0.727-0.602-1.082-0.912
		c-0.217-0.191-0.461-0.351-0.646-0.58c0.568,0.183,1.136,0.365,1.704,0.552c0.814,0.269,1.629,0.54,2.443,0.81
		c0.062,0.421,0.124,0.842,0.192,1.261c0.175,1.087,0.358,2.173,0.528,3.26c0.016,0.103,0.147,0.202,0.025,0.316
		c-0.538,0.09-1.07,0.212-1.597,0.36c-0.516,0.049-1.027,0.131-1.539,0.214c-0.298,0.049-0.29,0.051-0.169,0.33
		c0.162,0.364,0.312,0.735,0.465,1.104c0.142,0.329,0.299,0.649,0.399,0.995c-0.082-0.049-0.167-0.095-0.25-0.145
		c-0.049-0.029-0.094-0.04-0.153-0.033c-0.5,0.062-1.002,0.122-1.504,0.173c-0.414,0.042-0.834,0.055-1.112,0.439
		c-0.015,0.019-0.037,0.029-0.057,0.045c-0.641,0.138-1.282,0.271-1.923,0.414c-0.996,0.223-1.992,0.45-2.987,0.675
		c-0.688,0.155-1.376,0.314-2.067,0.458c-0.434,0.092-0.86,0.221-1.301,0.281c0.014-0.04,0.021-0.083,0.04-0.12
		c0.386-0.799,0.774-1.598,1.161-2.398c0.186-0.383,0.374-0.764,0.549-1.153c0.041-0.092,0.147-0.195,0.1-0.281
		c-0.067-0.119-0.197-0.005-0.299-0.006c-0.479-0.007-0.957,0.036-1.436,0.066c-0.636,0.038-1.273,0.053-1.91,0.078
		c-0.182-0.003-0.364,0.023-0.545,0.03c-0.583,0.017-1.166,0.051-1.748,0.074c-0.595,0.021-1.19,0.047-1.785,0.072
		c-0.588,0.025-1.178,0.044-1.767,0.076c-0.517,0.026-1.035,0.026-1.552,0.038C2.941,21.607,2.845,21.614,2.771,21.692z"/>
	<path style="fill:#753D1B;" d="M15.165,10.318c0.029,0.057,0.117,0.074,0.109,0.157c-0.066-0.009-0.113,0.026-0.165,0.063
		c-0.966,0.69-1.932,1.376-2.896,2.068c-0.45,0.322-0.894,0.649-1.34,0.975c-1.501,0.482-3.002,0.965-4.504,1.449
		c-0.353,0.113-0.712,0.209-1.052,0.357c-0.354-0.458-0.703-0.92-1.064-1.375c-0.087-0.11-0.082-0.174,0.019-0.266
		c0.105-0.098,0.285-0.19,0.273-0.318c-0.009-0.109-0.175-0.204-0.271-0.305c-0.131-0.136-0.261-0.275-0.398-0.404
		c-0.074-0.07-0.081-0.116-0.001-0.188c0.129-0.12,0.245-0.256,0.373-0.377c0.071-0.067,0.068-0.107-0.007-0.167
		c-0.213-0.174-0.417-0.358-0.63-0.531c-0.078-0.064-0.102-0.118-0.007-0.175c0.377-0.23,0.427-0.562,0.395-0.982
		C3.893,8.96,3.833,7.618,3.75,6.279C3.748,6.219,3.761,6.179,3.79,6.13c0.752-1.29,1.502-2.579,2.253-3.868
		c0.139-0.238,0.138-0.238,0.36-0.076c0.005,0.025,0.02,0.04,0.045,0.04L6.447,2.224c0.002,0.028,0.017,0.039,0.044,0.025
		L6.497,2.25C6.479,2.337,6.559,2.364,6.603,2.404c0.769,0.713,1.54,1.423,2.309,2.134c0.813,0.751,1.628,1.504,2.441,2.258
		c0.929,0.862,1.854,1.728,2.785,2.589C14.475,9.701,14.822,10.008,15.165,10.318z"/>
	<path style="fill:#753D1B;" d="M25.279,14.979c-0.815-0.27-1.63-0.541-2.444-0.81c-0.567-0.187-1.136-0.369-1.703-0.552
		c-0.086-0.049-0.151-0.119-0.213-0.196c-0.382-0.482-0.759-0.966-1.142-1.449c-0.352-0.441-0.709-0.88-1.062-1.319
		c0.003-0.062-0.056-0.091-0.07-0.142c0.05-0.033,0.103-0.063,0.152-0.098c0.789-0.572,1.578-1.143,2.366-1.716
		c1.585-1.153,3.171-2.305,4.754-3.461C26.28,4.97,26.66,4.728,26.999,4.43c0.102-0.08,0.104-0.011,0.11,0.067
		c0.017,0.312,0.037,0.621,0.054,0.932c0.042,0.779,0.082,1.558,0.125,2.338c0.003,0.069-0.012,0.13-0.031,0.195
		c-0.361,1.097-0.718,2.198-1.082,3.293c-0.045,0.135-0.031,0.217,0.089,0.291c0.054,0.035,0.104,0.083,0.156,0.125
		c0.191,0.154,0.191,0.154-0.011,0.31c-0.13,0.099-0.261,0.201-0.393,0.298c-0.067,0.051-0.065,0.085,0,0.137
		c0.124,0.099,0.24,0.208,0.365,0.304c0.083,0.062,0.072,0.103,0.002,0.166c-0.167,0.152-0.325,0.312-0.493,0.464
		c-0.068,0.064-0.09,0.113,0.007,0.164c0.006,0.003,0.011,0.007,0.016,0.011c0.098,0.096,0.292,0.146,0.294,0.271
		c0.001,0.105-0.147,0.212-0.229,0.316C25.744,14.4,25.511,14.689,25.279,14.979z"/>
	<path style="fill:#E1752B;" d="M2.771,21.692c0.073-0.078,0.17-0.085,0.268-0.088c0.518-0.012,1.035-0.012,1.552-0.039
		c0.589-0.031,1.177-0.051,1.767-0.075c0.595-0.026,1.191-0.051,1.786-0.073c0.583-0.023,1.165-0.057,1.749-0.074
		c0.18-0.007,0.362-0.032,0.544-0.029c-0.007,0.058,0.018,0.106,0.04,0.156c0.211,0.458,0.422,0.913,0.632,1.372
		c0.198,0.43,0.385,0.866,0.595,1.288c0.169,0.342,0.3,0.701,0.499,1.027c0.01,0.021,0.02,0.042,0.03,0.06
		c-0.601,0.183-1.202,0.359-1.8,0.543c-1.984,0.613-3.968,1.229-5.951,1.844c-0.101,0.031-0.165,0.053-0.202-0.094
		c-0.493-1.904-0.994-3.807-1.491-5.709C2.777,21.766,2.777,21.729,2.771,21.692z"/>
	<path style="fill:#CCB7AA;" d="M12.231,25.127c0.44-0.06,0.866-0.191,1.3-0.281c0.69-0.143,1.379-0.305,2.066-0.458
		c0.997-0.225,1.993-0.453,2.988-0.675c0.642-0.143,1.282-0.275,1.924-0.415c0.046,0.098,0,0.191-0.016,0.282
		c-0.104,0.634-0.215,1.266-0.323,1.898c-0.003,0.009-0.01,0.018-0.016,0.025c0.015,0,0.028,0.002,0.043,0.003
		c0.255-0.071,0.486-0.209,0.753-0.247c0.656-0.093,1.313-0.192,1.972-0.279c0.309-0.039,0.61-0.116,0.925-0.108
		c0.003,0.058-0.028,0.105-0.052,0.154c-0.275,0.552-0.555,1.1-0.823,1.653c-0.05,0.101-0.119,0.144-0.22,0.16
		c-0.948,0.148-1.899,0.281-2.841,0.458c-0.275,0.05-0.495-0.053-0.729-0.108c-1.522-0.352-3.038-0.729-4.558-1.091
		c-0.65-0.153-1.244-0.456-1.867-0.678c-0.177-0.063-0.35-0.136-0.525-0.202c-0.01-0.02-0.02-0.041-0.03-0.061
		C12.212,25.146,12.222,25.138,12.231,25.127z"/>
	<path style="fill:#DF752B;" d="M27.001,4.43c-0.341,0.298-0.72,0.541-1.082,0.807c-1.584,1.155-3.17,2.308-4.755,3.461
		c-0.787,0.573-1.577,1.144-2.365,1.716c-0.049,0.035-0.104,0.064-0.153,0.097c0.007-1.38-0.093-2.758-0.076-4.137
		c1.043-0.243,2.087-0.489,3.129-0.731c1.727-0.4,3.451-0.798,5.179-1.196C26.917,4.437,26.96,4.435,27.001,4.43z"/>
	<path style="fill:#171716;" d="M23.846,24.872c-0.312-0.008-0.615,0.069-0.923,0.108c-0.658,0.087-1.315,0.187-1.972,0.279
		c-0.268,0.038-0.499,0.176-0.753,0.247c-0.009-0.011-0.019-0.02-0.027-0.028c0.108-0.633,0.219-1.266,0.322-1.898
		c0.017-0.092,0.061-0.185,0.017-0.282c0.018-0.015,0.042-0.026,0.055-0.045c0.277-0.386,0.699-0.396,1.112-0.438
		c0.503-0.052,1.005-0.111,1.504-0.173c0.06-0.007,0.104,0.004,0.154,0.032c0.083,0.05,0.167,0.097,0.251,0.145
		c0.128,0.082,0.254,0.166,0.383,0.241c0.137,0.082,0.201,0.225,0.291,0.343c0.052,0.066-0.026,0.159-0.048,0.236
		c-0.089,0.344-0.179,0.681-0.271,1.021C23.88,24.719,23.961,24.839,23.846,24.872z"/>
	<path style="fill:#E1752B;" d="M15.165,10.318c-0.343-0.311-0.69-0.618-1.028-0.933c-0.93-0.861-1.856-1.727-2.785-2.589
		C10.54,6.043,9.725,5.29,8.912,4.539c-0.769-0.711-1.54-1.421-2.309-2.134C6.559,2.364,6.479,2.337,6.497,2.25
		c0.472,0.254,0.91,0.562,1.361,0.847c1.415,0.892,2.826,1.79,4.239,2.687c0.055,0.035,0.114,0.069,0.171,0.104
		c0.292,0.497,0.631,0.965,0.948,1.446c0.617,0.933,1.242,1.86,1.862,2.792C15.116,10.182,15.174,10.237,15.165,10.318z"/>
	<path style="fill:#E1752B;" d="M23.94,24.66c0.091-0.341,0.183-0.678,0.271-1.021c0.021-0.077,0.1-0.169,0.048-0.236
		c-0.09-0.118-0.154-0.261-0.291-0.343c-0.129-0.077-0.255-0.16-0.383-0.241c-0.102-0.345-0.26-0.666-0.4-0.995
		c0.065-0.036,0.106-0.092,0.151-0.153c0.362-0.499,0.727-0.995,1.093-1.494c0.526-0.148,1.057-0.271,1.596-0.359
		c-0.481,1.632-0.964,3.264-1.441,4.896c-0.028,0.093-0.06,0.114-0.152,0.086C24.271,24.744,24.104,24.705,23.94,24.66z"/>
	<path style="fill:#E1752B;" d="M6.491,2.249C6.462,2.262,6.449,2.251,6.447,2.224C6.47,2.218,6.484,2.226,6.491,2.249z"/>
	<path style="fill:#E1752B;" d="M6.448,2.226c-0.026,0-0.04-0.015-0.045-0.04C6.426,2.191,6.447,2.196,6.448,2.226z"/>
	<path style="fill:#E1752B;" d="M10.875,13.581c0.446-0.326,0.891-0.652,1.34-0.975c0.963-0.691,1.929-1.377,2.896-2.068
		c0.051-0.037,0.098-0.072,0.165-0.063c-0.004,0.073,0.004,0.143,0.029,0.213c0.373,1.144,0.745,2.289,1.118,3.433
		c0.252,0.772,0.525,1.539,0.756,2.32c-0.585-0.017-1.168,0.016-1.753-0.03c-0.594-0.048-1.194-0.015-1.791-0.031
		c-0.821-0.024-1.643-0.039-2.465-0.047c-0.062-0.162-0.05-0.335-0.07-0.5c-0.069-0.569-0.124-1.139-0.181-1.708
		C10.899,13.942,10.888,13.762,10.875,13.581z"/>
	<path style="fill:#E1752B;" d="M18.716,10.654c0.353,0.439,0.71,0.878,1.062,1.319c0.383,0.482,0.76,0.966,1.142,1.449
		c0.062,0.076,0.127,0.147,0.213,0.196c0.184,0.23,0.43,0.389,0.646,0.58c0.355,0.312,0.721,0.609,1.082,0.913
		c0.269,0.226,0.537,0.452,0.808,0.675c0.048,0.039,0.1,0.071,0.102,0.141c-0.222,0.058-0.453,0.058-0.68,0.082
		c-0.493,0.054-0.982,0.118-1.474,0.175c-0.552,0.064-1.104,0.124-1.655,0.186c-0.102-0.086-0.081-0.214-0.105-0.321
		c-0.193-0.863-0.379-1.729-0.568-2.595c-0.196-0.904-0.392-1.811-0.59-2.716C18.69,10.701,18.686,10.677,18.716,10.654z"/>
	<path style="fill:#CA6125;" d="M11.168,16.333c0.823,0.008,1.644,0.022,2.465,0.047c0.597,0.018,1.197-0.017,1.791,0.031
		c0.585,0.046,1.168,0.014,1.753,0.03c0.038,0.002,0.082-0.009,0.108,0.035c-0.064,0.006-0.062,0.055-0.076,0.104
		c-0.07,0.241-0.038,0.494-0.061,0.739c-0.063,0.673-0.087,1.35-0.125,2.024c-0.346-0.506-0.692-1.012-1.029-1.523
		c-0.085-0.129-0.147-0.153-0.289-0.077c-0.599,0.319-1.208,0.625-1.813,0.937c-0.455-0.335-0.862-0.728-1.295-1.086
		c-0.444-0.368-0.866-0.76-1.32-1.117C11.242,16.43,11.205,16.382,11.168,16.333z"/>
	<path style="fill:#CA6125;" d="M12.231,25.127c-0.01,0.011-0.02,0.02-0.03,0.029c-0.199-0.326-0.33-0.686-0.499-1.027
		c-0.21-0.421-0.397-0.859-0.595-1.289c-0.209-0.458-0.42-0.913-0.631-1.371c-0.023-0.05-0.047-0.098-0.04-0.156
		c0.637-0.026,1.274-0.041,1.91-0.078c0.479-0.03,0.956-0.073,1.435-0.066c0.102,0.001,0.232-0.113,0.299,0.006
		c0.046,0.087-0.06,0.19-0.101,0.281c-0.175,0.389-0.363,0.77-0.549,1.153c-0.387,0.8-0.774,1.598-1.161,2.398
		C12.252,25.044,12.244,25.086,12.231,25.127z"/>
	<path style="fill:#CA6125;" d="M19.962,16.369c0.55-0.063,1.103-0.122,1.653-0.186c0.492-0.057,0.982-0.122,1.474-0.177
		c0.229-0.022,0.459-0.022,0.681-0.081c0.063-0.001,0.106,0.007,0.069,0.092c-0.033,0.068-0.1,0.122-0.105,0.204
		c-0.182,0.196-0.292,0.441-0.427,0.667c-0.277,0.459-0.584,0.899-0.818,1.384c-0.029-0.016-0.058-0.03-0.085-0.047
		c-0.01-0.019-0.013-0.052-0.029-0.06c-0.444-0.228-0.891-0.451-1.337-0.676c-0.104-0.055-0.109,0.022-0.122,0.091
		c-0.064,0.354-0.129,0.706-0.194,1.059c-0.343-0.387-0.407-0.885-0.539-1.354C20.099,16.981,19.979,16.688,19.962,16.369z"/>
	<path style="fill:#E1742E;" d="M17.024,19.344c0.038-0.675,0.062-1.352,0.125-2.024c0.022-0.245-0.01-0.498,0.061-0.739
		c0.014-0.049,0.012-0.098,0.076-0.104c0.096,0.366,0.274,0.701,0.398,1.055c0.102,0.287,0.249,0.554,0.311,0.856
		c0.022,0.113,0.112,0.214,0.18,0.314c0.775,1.181,1.553,2.357,2.328,3.537c0.032,0.051,0.062,0.104,0.092,0.157
		c0.023,0.045,0.099,0.094,0.035,0.138c-0.053,0.038-0.089-0.043-0.127-0.076c-0.504-0.44-1.006-0.881-1.506-1.324
		c-0.36-0.318-0.712-0.645-1.076-0.958c-0.3-0.258-0.575-0.542-0.898-0.771C17.024,19.384,17.024,19.364,17.024,19.344z"/>
	<path style="fill:#E1742E;" d="M11.277,16.477c0.454,0.356,0.876,0.749,1.32,1.117c0.433,0.358,0.841,0.751,1.295,1.086
		c0.007,0.012,0.015,0.023,0.022,0.036c0.038,0.337,0.074,0.673,0.114,1.009c0.045,0.379,0.094,0.758,0.144,1.134
		c0.007,0.054,0.021,0.104,0.038,0.184c-0.119-0.079-0.151-0.19-0.21-0.279c-0.541-0.837-1.084-1.673-1.625-2.51
		c-0.347-0.536-0.69-1.075-1.036-1.61C11.307,16.592,11.269,16.545,11.277,16.477z"/>
	<path style="fill:#263645;" d="M13.916,18.716c-0.007-0.013-0.015-0.024-0.022-0.036c0.605-0.312,1.215-0.617,1.815-0.937
		c0.14-0.076,0.203-0.052,0.289,0.077c0.337,0.512,0.683,1.018,1.027,1.523c0,0.021,0,0.04,0,0.061
		C15.988,19.174,14.954,18.945,13.916,18.716z"/>
	<path style="fill:#E1742E;" d="M22.488,18.272c0.234-0.484,0.541-0.925,0.818-1.384c0.135-0.226,0.245-0.471,0.427-0.667
		c0.06,0.175-0.043,0.327-0.086,0.481c-0.336,1.186-0.684,2.365-1.028,3.548c-0.001,0.005-0.008,0.008-0.013,0.013
		c-0.045,0-0.047-0.034-0.045-0.063c0.024-0.376-0.053-0.751-0.038-1.127C22.534,18.803,22.461,18.54,22.488,18.272z"/>
	<path style="fill:#CA6125;" d="M24.428,20.176c-0.364,0.499-0.729,0.995-1.093,1.494c-0.045,0.06-0.084,0.117-0.151,0.153
		c-0.152-0.367-0.304-0.738-0.464-1.104c-0.122-0.278-0.129-0.28,0.169-0.329C23.4,20.307,23.912,20.227,24.428,20.176z"/>
	<path style="fill:#263645;" d="M20.723,18.64c0.064-0.353,0.129-0.705,0.194-1.059c0.012-0.066,0.018-0.145,0.122-0.091
		c0.447,0.225,0.892,0.448,1.337,0.676c0.018,0.008,0.019,0.041,0.029,0.06c-0.425,0.223-0.854,0.438-1.273,0.671
		c-0.149,0.084-0.238,0.078-0.309-0.083C20.797,18.752,20.757,18.698,20.723,18.64z"/>
	<path style="fill:#171716;" d="M20.198,25.507c-0.015,0-0.028-0.001-0.043-0.001c0.005-0.01,0.011-0.019,0.016-0.027
		C20.178,25.487,20.189,25.497,20.198,25.507z"/>
</g>
</svg>
