<?xml version="1.0" encoding="utf-8"?>
<!-- Generator: Adobe Illustrator 16.0.0, SVG Export Plug-In . SVG Version: 6.00 Build 0)  -->
<!DOCTYPE svg PUBLIC "-//W3C//DTD SVG 1.1//EN" "http://www.w3.org/Graphics/SVG/1.1/DTD/svg11.dtd">
<svg version="1.1" id="Layer_1" xmlns="http://www.w3.org/2000/svg" xmlns:xlink="http://www.w3.org/1999/xlink" x="0px" y="0px"
	 width="30px" height="30px" viewBox="0 0 30 30" style="enable-background:new 0 0 30 30;" xml:space="preserve">
<g>
	<path style="fill:none;" d="M14.888,31.738c-5.746,0-11.491,0-17.235,0.005c-0.156,0-0.192-0.035-0.192-0.191
		c0.004-11.197,0.004-22.395,0-33.592c0-0.155,0.036-0.191,0.192-0.191c11.489,0.005,22.979,0.005,34.469,0
		c0.154,0,0.189,0.035,0.189,0.191c-0.004,11.197-0.004,22.395,0,33.592c0,0.156-0.035,0.191-0.189,0.191
		C26.376,31.738,20.632,31.738,14.888,31.738z M5.297,0.516c-0.002-0.033-0.027-0.04-0.052-0.045
		C4.994,0.286,4.994,0.286,4.836,0.557C3.983,2.022,3.131,3.488,2.275,4.953C2.243,5.008,2.228,5.054,2.232,5.122
		C2.326,6.645,2.394,8.17,2.514,9.689c0.038,0.479-0.02,0.855-0.449,1.116c-0.108,0.065-0.082,0.126,0.008,0.199
		c0.242,0.196,0.474,0.405,0.716,0.604c0.085,0.069,0.089,0.114,0.008,0.19c-0.146,0.138-0.277,0.293-0.424,0.429
		c-0.09,0.082-0.083,0.134,0.001,0.214c0.157,0.146,0.304,0.304,0.453,0.459c0.11,0.114,0.298,0.223,0.309,0.347
		c0.013,0.146-0.191,0.25-0.311,0.362c-0.114,0.104-0.121,0.177-0.021,0.302c0.411,0.517,0.808,1.042,1.209,1.562
		c-0.021,0.066-0.039,0.133-0.065,0.196c-0.418,1.002-0.832,2.007-1.257,3.007c-0.545,1.277-1.043,2.575-1.631,3.836
		c-0.036,0.079,0.015,0.096,0.059,0.127c0.006,0.041,0.008,0.083,0.019,0.122c0.565,2.163,1.135,4.324,1.695,6.489
		c0.043,0.166,0.116,0.143,0.23,0.107c2.254-0.7,4.507-1.398,6.763-2.096c0.68-0.209,1.364-0.411,2.045-0.617
		c0.199,0.076,0.396,0.158,0.597,0.23c0.708,0.254,1.383,0.597,2.122,0.771c1.728,0.412,3.45,0.839,5.18,1.24
		c0.267,0.062,0.517,0.18,0.828,0.123c1.071-0.202,2.152-0.353,3.229-0.521c0.115-0.018,0.194-0.066,0.25-0.183
		c0.306-0.628,0.622-1.252,0.935-1.878c0.027-0.055,0.062-0.109,0.059-0.175c0.13-0.038,0.038-0.175,0.106-0.241
		c0.187,0.052,0.377,0.097,0.559,0.157c0.105,0.033,0.142,0.009,0.173-0.097c0.543-1.856,1.092-3.71,1.641-5.565
		c0.137-0.131-0.015-0.243-0.032-0.359c-0.192-1.236-0.4-2.47-0.6-3.705c-0.077-0.477-0.147-0.955-0.218-1.434
		c0.263-0.329,0.527-0.657,0.792-0.988c0.094-0.118,0.262-0.24,0.261-0.359c-0.002-0.142-0.222-0.198-0.334-0.308
		c-0.006-0.004-0.011-0.009-0.017-0.012c-0.11-0.058-0.086-0.112-0.009-0.186c0.191-0.172,0.371-0.354,0.561-0.527
		c0.08-0.071,0.092-0.117-0.002-0.188c-0.143-0.108-0.274-0.233-0.415-0.346c-0.075-0.06-0.077-0.098,0-0.155
		c0.15-0.109,0.298-0.226,0.447-0.339c0.229-0.177,0.229-0.177,0.011-0.352c-0.059-0.049-0.115-0.103-0.178-0.143
		c-0.136-0.083-0.15-0.177-0.1-0.33c0.414-1.245,0.819-2.496,1.229-3.743c0.023-0.073,0.04-0.143,0.035-0.222
		c-0.049-0.886-0.093-1.771-0.141-2.657c-0.018-0.353-0.042-0.705-0.062-1.059c-0.005-0.088-0.01-0.167-0.124-0.076
		c-0.047,0.006-0.096,0.008-0.143,0.019c-1.962,0.453-3.923,0.905-5.885,1.36c-1.185,0.275-2.37,0.555-3.556,0.831
		c-0.407-0.03-0.814-0.059-1.221-0.091c-0.966-0.077-1.931-0.158-2.896-0.234c-1.017-0.08-2.031-0.153-3.045-0.229
		c-0.064-0.04-0.13-0.078-0.194-0.118C10.111,3.54,8.507,2.52,6.899,1.506C6.386,1.181,5.888,0.832,5.353,0.543L5.345,0.542
		c-0.007-0.026-0.024-0.035-0.05-0.029L5.297,0.516z"/>
	<path style="fill-rule:evenodd;clip-rule:evenodd;fill:#F1822E;" d="M1.118,22.639c-0.043-0.031-0.095-0.048-0.059-0.127
		c0.588-1.261,1.086-2.559,1.631-3.836c0.426-1,0.839-2.005,1.257-3.007c0.026-0.063,0.043-0.13,0.065-0.196
		c0.387-0.168,0.795-0.277,1.196-0.406c1.707-0.55,3.413-1.098,5.119-1.646c0.016,0.205,0.028,0.41,0.049,0.616
		c0.064,0.648,0.127,1.295,0.206,1.942c0.022,0.188,0.009,0.385,0.079,0.568c0.042,0.055,0.083,0.11,0.125,0.164
		c-0.01,0.077,0.034,0.13,0.072,0.189c0.394,0.608,0.784,1.22,1.177,1.829c0.615,0.951,1.232,1.901,1.847,2.853
		c0.066,0.102,0.103,0.228,0.238,0.318c-0.02-0.091-0.035-0.149-0.043-0.21c-0.056-0.428-0.112-0.858-0.163-1.289
		c-0.046-0.382-0.087-0.764-0.13-1.146c1.18,0.261,2.356,0.522,3.534,0.783c0.366,0.261,0.68,0.583,1.021,0.876
		c0.414,0.356,0.813,0.728,1.223,1.089c0.568,0.504,1.139,1.005,1.711,1.505c0.043,0.038,0.084,0.129,0.145,0.087
		c0.072-0.05-0.013-0.106-0.04-0.156c-0.034-0.062-0.067-0.121-0.104-0.179c-0.882-1.341-1.766-2.679-2.646-4.02
		c-0.077-0.114-0.178-0.229-0.204-0.358c-0.069-0.344-0.237-0.646-0.353-0.973c-0.141-0.402-0.345-0.782-0.453-1.199
		c-0.03-0.05-0.08-0.037-0.124-0.04c-0.262-0.888-0.572-1.758-0.858-2.636c-0.425-1.301-0.848-2.602-1.271-3.901
		c-0.028-0.08-0.038-0.16-0.033-0.243c0.009-0.094-0.091-0.112-0.124-0.178c0.011-0.093-0.055-0.156-0.1-0.222
		c-0.705-1.058-1.415-2.112-2.116-3.172c-0.361-0.546-0.746-1.078-1.078-1.643c1.014,0.075,2.028,0.148,3.045,0.229
		c0.965,0.076,1.93,0.157,2.896,0.234c0.406,0.032,0.813,0.061,1.221,0.091c-0.02,1.568,0.094,3.133,0.087,4.702
		c0.018,0.058,0.084,0.092,0.08,0.162c-0.034,0.025-0.028,0.054-0.02,0.092c0.225,1.029,0.447,2.059,0.67,3.087
		c0.215,0.984,0.425,1.968,0.645,2.949c0.029,0.122,0.005,0.269,0.121,0.366c0.02,0.362,0.155,0.696,0.252,1.041
		c0.149,0.534,0.224,1.101,0.613,1.54c0.038,0.066,0.083,0.128,0.113,0.197c0.08,0.184,0.181,0.188,0.35,0.095
		c0.477-0.265,0.964-0.51,1.447-0.763c0.031,0.019,0.063,0.035,0.097,0.053c-0.031,0.304,0.052,0.604,0.041,0.909
		c-0.017,0.429,0.07,0.854,0.043,1.282c-0.002,0.033,0.001,0.071,0.051,0.071c0.006-0.005,0.014-0.008,0.015-0.014
		c0.392-1.344,0.787-2.685,1.169-4.032c0.049-0.176,0.165-0.349,0.097-0.547c0.006-0.095,0.083-0.154,0.12-0.232
		c0.043-0.097-0.006-0.105-0.079-0.104c-0.003-0.079-0.062-0.116-0.116-0.16c-0.307-0.254-0.612-0.511-0.918-0.768
		c-0.41-0.345-0.825-0.684-1.229-1.037c-0.246-0.217-0.525-0.398-0.734-0.659c0.645,0.208,1.291,0.415,1.936,0.627
		c0.927,0.305,1.852,0.613,2.778,0.92c0.07,0.479,0.141,0.957,0.218,1.434c0.199,1.235,0.407,2.469,0.6,3.705
		c0.018,0.116,0.169,0.229,0.03,0.359c-0.612,0.102-1.217,0.24-1.814,0.409c-0.587,0.056-1.169,0.149-1.751,0.243
		c-0.338,0.056-0.329,0.058-0.191,0.375c0.183,0.415,0.354,0.836,0.528,1.254c0.161,0.374,0.34,0.739,0.455,1.131
		c-0.095-0.055-0.191-0.108-0.285-0.164c-0.056-0.033-0.106-0.045-0.175-0.037c-0.568,0.07-1.138,0.138-1.709,0.196
		c-0.47,0.048-0.948,0.061-1.264,0.499c-0.016,0.021-0.042,0.034-0.064,0.051c-0.729,0.157-1.457,0.309-2.186,0.471
		c-1.131,0.253-2.263,0.512-3.395,0.767c-0.781,0.176-1.564,0.358-2.349,0.521c-0.493,0.103-0.977,0.251-1.478,0.319
		c0.015-0.046,0.024-0.094,0.045-0.136c0.439-0.909,0.88-1.816,1.319-2.726c0.211-0.436,0.425-0.869,0.624-1.311
		c0.046-0.104,0.167-0.221,0.114-0.319c-0.076-0.136-0.224-0.006-0.34-0.007c-0.544-0.008-1.087,0.041-1.631,0.075
		c-0.723,0.043-1.447,0.06-2.171,0.089c-0.207-0.003-0.414,0.026-0.619,0.034c-0.663,0.02-1.325,0.058-1.987,0.084
		c-0.676,0.025-1.353,0.054-2.029,0.083c-0.669,0.028-1.339,0.05-2.008,0.086c-0.587,0.031-1.176,0.031-1.764,0.044
		C1.311,22.542,1.201,22.55,1.118,22.639z"/>
	<path style="fill-rule:evenodd;clip-rule:evenodd;fill:#753D1B;" d="M15.203,9.713c0.033,0.065,0.133,0.084,0.124,0.178
		c-0.075-0.01-0.129,0.03-0.187,0.072c-1.098,0.784-2.196,1.564-3.291,2.35c-0.511,0.366-1.016,0.738-1.523,1.108
		c-1.706,0.548-3.412,1.096-5.119,1.646c-0.401,0.129-0.809,0.238-1.196,0.406c-0.401-0.52-0.798-1.045-1.209-1.562
		c-0.1-0.125-0.093-0.197,0.021-0.302c0.12-0.112,0.324-0.216,0.311-0.362c-0.011-0.124-0.199-0.232-0.309-0.347
		c-0.149-0.155-0.296-0.312-0.453-0.459c-0.084-0.08-0.091-0.132-0.001-0.214c0.147-0.136,0.278-0.291,0.424-0.429
		c0.081-0.076,0.077-0.121-0.008-0.19c-0.242-0.198-0.474-0.407-0.716-0.604c-0.089-0.073-0.116-0.134-0.008-0.199
		c0.429-0.261,0.486-0.638,0.449-1.116c-0.12-1.52-0.188-3.045-0.282-4.567C2.228,5.054,2.243,5.008,2.275,4.953
		c0.855-1.465,1.708-2.931,2.561-4.396c0.158-0.271,0.157-0.271,0.409-0.086c0.006,0.028,0.022,0.045,0.052,0.045L5.295,0.513
		c0.003,0.032,0.019,0.044,0.05,0.029c0,0,0.007,0.001,0.007,0.001c-0.02,0.099,0.07,0.13,0.12,0.176
		c0.873,0.81,1.75,1.617,2.624,2.425C9.021,3.998,9.947,4.854,10.87,5.71c1.056,0.98,2.107,1.964,3.165,2.943
		C14.419,9.011,14.813,9.36,15.203,9.713z"/>
	<path style="fill-rule:evenodd;clip-rule:evenodd;fill:#753D1B;" d="M26.698,15.009c-0.927-0.307-1.852-0.615-2.778-0.92
		c-0.645-0.212-1.291-0.419-1.936-0.627c-0.098-0.056-0.172-0.136-0.242-0.223c-0.433-0.548-0.862-1.098-1.297-1.646
		c-0.4-0.501-0.806-1-1.207-1.499c0.004-0.07-0.062-0.104-0.08-0.162c0.057-0.037,0.118-0.071,0.174-0.111
		c0.896-0.65,1.793-1.299,2.689-1.95c1.801-1.311,3.604-2.62,5.403-3.934c0.412-0.302,0.844-0.578,1.229-0.917
		c0.114-0.091,0.119-0.012,0.124,0.076c0.02,0.354,0.044,0.706,0.062,1.059c0.048,0.886,0.092,1.771,0.141,2.657
		c0.005,0.079-0.012,0.148-0.035,0.222c-0.41,1.247-0.815,2.498-1.229,3.743c-0.051,0.153-0.036,0.247,0.1,0.33
		c0.062,0.04,0.119,0.094,0.178,0.143c0.218,0.175,0.218,0.175-0.011,0.352c-0.149,0.113-0.297,0.229-0.447,0.339
		c-0.077,0.058-0.075,0.096,0,0.155c0.141,0.112,0.272,0.237,0.415,0.346c0.094,0.07,0.082,0.116,0.002,0.188
		c-0.189,0.173-0.369,0.355-0.561,0.527c-0.077,0.073-0.102,0.128,0.009,0.186c0.006,0.003,0.011,0.008,0.017,0.012
		c0.112,0.109,0.332,0.166,0.334,0.308c0.001,0.119-0.167,0.241-0.261,0.359C27.226,14.352,26.961,14.68,26.698,15.009z"/>
	<path style="fill-rule:evenodd;clip-rule:evenodd;fill:#E1752B;" d="M1.118,22.639c0.083-0.089,0.193-0.097,0.305-0.1
		c0.588-0.013,1.176-0.013,1.764-0.044c0.669-0.036,1.338-0.058,2.008-0.086c0.676-0.029,1.353-0.058,2.029-0.083
		c0.663-0.026,1.324-0.064,1.987-0.084c0.205-0.008,0.412-0.037,0.619-0.034c-0.008,0.065,0.02,0.121,0.045,0.178
		c0.24,0.52,0.479,1.038,0.718,1.559c0.225,0.488,0.438,0.984,0.676,1.464c0.192,0.389,0.341,0.797,0.567,1.168
		c0.011,0.022,0.023,0.047,0.034,0.068c-0.682,0.206-1.366,0.408-2.046,0.617c-2.255,0.697-4.509,1.396-6.763,2.096
		c-0.114,0.035-0.187,0.059-0.23-0.107c-0.56-2.165-1.129-4.326-1.695-6.489C1.125,22.722,1.124,22.68,1.118,22.639z"/>
	<path style="fill-rule:evenodd;clip-rule:evenodd;fill:#CCB7AA;" d="M11.869,26.542c0.5-0.068,0.984-0.217,1.478-0.319
		c0.785-0.163,1.567-0.346,2.349-0.521c1.132-0.255,2.264-0.514,3.395-0.767c0.729-0.162,1.457-0.313,2.187-0.471
		c0.051,0.11,0,0.217-0.018,0.32c-0.119,0.721-0.244,1.439-0.367,2.157c-0.005,0.011-0.012,0.021-0.018,0.03
		c0.016,0,0.032,0.002,0.049,0.003c0.289-0.082,0.553-0.237,0.856-0.28c0.746-0.106,1.492-0.22,2.24-0.318
		c0.35-0.045,0.694-0.132,1.05-0.123c0.004,0.065-0.031,0.12-0.059,0.175c-0.312,0.626-0.629,1.25-0.935,1.878
		c-0.056,0.116-0.135,0.165-0.25,0.183c-1.077,0.169-2.158,0.319-3.229,0.521c-0.312,0.057-0.562-0.061-0.828-0.123
		c-1.73-0.401-3.452-0.828-5.18-1.24c-0.739-0.175-1.414-0.518-2.122-0.771c-0.201-0.072-0.398-0.154-0.597-0.23
		c-0.011-0.021-0.022-0.046-0.034-0.068C11.847,26.565,11.858,26.554,11.869,26.542z"/>
	<path style="fill-rule:evenodd;clip-rule:evenodd;fill:#DF752B;" d="M28.654,3.021c-0.386,0.339-0.817,0.615-1.229,0.917
		c-1.8,1.313-3.603,2.623-5.403,3.934c-0.896,0.651-1.793,1.3-2.689,1.95c-0.056,0.04-0.117,0.074-0.174,0.111
		c0.007-1.569-0.106-3.134-0.087-4.702c1.186-0.276,2.371-0.556,3.556-0.831c1.962-0.455,3.923-0.907,5.885-1.36
		C28.559,3.028,28.607,3.026,28.654,3.021z"/>
	<path style="fill-rule:evenodd;clip-rule:evenodd;fill:#171716;" d="M25.069,26.253c-0.355-0.009-0.7,0.078-1.05,0.123
		c-0.748,0.099-1.494,0.212-2.24,0.318c-0.304,0.043-0.567,0.198-0.856,0.28c-0.01-0.012-0.021-0.022-0.031-0.033
		c0.123-0.718,0.248-1.437,0.367-2.157c0.018-0.104,0.068-0.21,0.018-0.32c0.021-0.017,0.048-0.03,0.063-0.051
		c0.315-0.438,0.794-0.451,1.264-0.499c0.571-0.059,1.141-0.126,1.709-0.196c0.068-0.008,0.119,0.004,0.175,0.037
		c0.094,0.056,0.19,0.109,0.285,0.164c0.146,0.093,0.289,0.188,0.436,0.275c0.155,0.092,0.229,0.254,0.33,0.388
		c0.059,0.076-0.03,0.181-0.055,0.27c-0.1,0.389-0.203,0.773-0.308,1.16C25.107,26.078,25.199,26.215,25.069,26.253z"/>
	<path style="fill-rule:evenodd;clip-rule:evenodd;fill:#E1752B;" d="M15.203,9.713c-0.39-0.353-0.784-0.702-1.168-1.06
		C12.978,7.674,11.926,6.69,10.87,5.71C9.947,4.854,9.021,3.998,8.096,3.144c-0.874-0.808-1.75-1.615-2.624-2.425
		c-0.05-0.046-0.14-0.077-0.12-0.176c0.536,0.289,1.034,0.638,1.547,0.963c1.608,1.014,3.211,2.034,4.817,3.053
		c0.063,0.04,0.129,0.078,0.194,0.118c0.332,0.564,0.717,1.097,1.078,1.643c0.701,1.06,1.411,2.114,2.116,3.172
		C15.148,9.557,15.214,9.62,15.203,9.713z"/>
	<path style="fill-rule:evenodd;clip-rule:evenodd;fill:#E1752B;" d="M25.176,26.012c0.104-0.387,0.208-0.771,0.308-1.16
		c0.024-0.089,0.113-0.193,0.055-0.27c-0.101-0.134-0.175-0.296-0.33-0.388c-0.146-0.088-0.29-0.183-0.436-0.275
		c-0.115-0.392-0.294-0.757-0.455-1.131c0.075-0.041,0.121-0.105,0.172-0.175c0.413-0.567,0.827-1.131,1.242-1.697
		c0.598-0.169,1.202-0.308,1.814-0.409c-0.547,1.855-1.096,3.709-1.639,5.565c-0.031,0.105-0.067,0.13-0.173,0.097
		C25.553,26.108,25.362,26.063,25.176,26.012z"/>
	<path style="fill-rule:evenodd;clip-rule:evenodd;fill:#E1752B;" d="M5.345,0.542c-0.032,0.015-0.047,0.003-0.05-0.029
		C5.321,0.507,5.338,0.516,5.345,0.542z"/>
	<path style="fill-rule:evenodd;clip-rule:evenodd;fill:#E1752B;" d="M5.297,0.516c-0.03,0-0.046-0.017-0.052-0.045
		C5.271,0.476,5.295,0.482,5.297,0.516z"/>
	<path style="fill-rule:evenodd;clip-rule:evenodd;fill:#E1752B;" d="M10.327,13.421c0.507-0.37,1.013-0.742,1.523-1.108
		c1.095-0.785,2.192-1.565,3.291-2.35c0.058-0.042,0.111-0.082,0.187-0.072c-0.005,0.083,0.005,0.163,0.033,0.243
		c0.424,1.3,0.847,2.601,1.271,3.901c0.286,0.878,0.597,1.748,0.858,2.636c-0.664-0.019-1.327,0.019-1.992-0.034
		c-0.675-0.054-1.357-0.017-2.035-0.036c-0.933-0.027-1.867-0.045-2.802-0.053c-0.07-0.184-0.057-0.38-0.079-0.568
		c-0.079-0.647-0.141-1.294-0.206-1.942C10.355,13.831,10.343,13.626,10.327,13.421z"/>
	<path style="fill-rule:evenodd;clip-rule:evenodd;fill:#E1752B;" d="M19.238,10.095c0.401,0.499,0.807,0.998,1.207,1.499
		c0.435,0.548,0.864,1.098,1.297,1.646c0.07,0.087,0.145,0.167,0.242,0.223c0.209,0.261,0.488,0.442,0.734,0.659
		c0.404,0.354,0.819,0.692,1.229,1.037c0.306,0.257,0.611,0.514,0.918,0.768c0.055,0.044,0.113,0.081,0.116,0.16
		c-0.253,0.066-0.515,0.065-0.773,0.092c-0.559,0.062-1.116,0.136-1.675,0.2c-0.627,0.072-1.254,0.14-1.88,0.211
		c-0.116-0.098-0.092-0.244-0.121-0.366c-0.22-0.981-0.43-1.965-0.645-2.949c-0.223-1.028-0.445-2.058-0.67-3.087
		C19.21,10.148,19.204,10.12,19.238,10.095z"/>
	<path style="fill-rule:evenodd;clip-rule:evenodd;fill:#CA6125;" d="M10.661,16.548c0.935,0.008,1.869,0.025,2.802,0.053
		c0.678,0.02,1.36-0.018,2.035,0.036c0.665,0.053,1.328,0.016,1.992,0.034c0.044,0.003,0.094-0.01,0.124,0.04
		c-0.074,0.007-0.071,0.063-0.087,0.118c-0.08,0.274-0.043,0.562-0.069,0.84c-0.071,0.765-0.098,1.534-0.142,2.301
		c-0.392-0.576-0.786-1.15-1.169-1.732c-0.097-0.146-0.169-0.173-0.328-0.087c-0.682,0.362-1.374,0.711-2.062,1.064
		c-0.517-0.38-0.979-0.826-1.472-1.235c-0.504-0.418-0.984-0.863-1.5-1.268C10.744,16.658,10.702,16.603,10.661,16.548z"/>
	<path style="fill-rule:evenodd;clip-rule:evenodd;fill:#CA6125;" d="M11.869,26.542c-0.011,0.012-0.022,0.023-0.034,0.034
		c-0.226-0.371-0.375-0.779-0.567-1.168c-0.238-0.479-0.451-0.976-0.676-1.464c-0.238-0.521-0.478-1.039-0.718-1.559
		c-0.026-0.057-0.053-0.112-0.045-0.178c0.724-0.029,1.448-0.046,2.171-0.089c0.544-0.034,1.086-0.083,1.631-0.075
		c0.116,0.001,0.264-0.129,0.34,0.007c0.053,0.099-0.067,0.216-0.114,0.319c-0.199,0.441-0.412,0.875-0.624,1.311
		c-0.439,0.909-0.88,1.816-1.319,2.726C11.893,26.448,11.884,26.496,11.869,26.542z"/>
	<path style="fill-rule:evenodd;clip-rule:evenodd;fill:#CA6125;" d="M20.654,16.589c0.626-0.071,1.253-0.139,1.88-0.211
		c0.559-0.064,1.116-0.139,1.675-0.2c0.259-0.026,0.521-0.025,0.773-0.092c0.073-0.002,0.122,0.007,0.079,0.104
		c-0.037,0.078-0.114,0.138-0.12,0.232c-0.207,0.223-0.331,0.502-0.485,0.758c-0.315,0.521-0.664,1.022-0.93,1.572
		c-0.033-0.018-0.065-0.034-0.097-0.053c-0.011-0.021-0.014-0.059-0.032-0.067c-0.506-0.259-1.013-0.513-1.52-0.769
		c-0.119-0.061-0.125,0.026-0.139,0.104c-0.073,0.401-0.146,0.803-0.22,1.203c-0.39-0.439-0.464-1.006-0.613-1.54
		C20.81,17.285,20.674,16.951,20.654,16.589z"/>
	<path style="fill-rule:evenodd;clip-rule:evenodd;fill:#E1742E;" d="M17.316,19.97c0.044-0.767,0.07-1.536,0.142-2.301
		c0.026-0.278-0.011-0.565,0.069-0.84c0.016-0.055,0.013-0.111,0.087-0.118c0.108,0.417,0.312,0.797,0.453,1.199
		c0.115,0.326,0.283,0.629,0.353,0.973c0.026,0.129,0.127,0.244,0.204,0.358c0.881,1.341,1.765,2.679,2.646,4.02
		c0.037,0.058,0.07,0.117,0.104,0.179c0.027,0.05,0.112,0.106,0.04,0.156c-0.061,0.042-0.102-0.049-0.145-0.087
		c-0.572-0.5-1.143-1.001-1.711-1.505c-0.409-0.361-0.809-0.732-1.223-1.089c-0.341-0.293-0.654-0.615-1.021-0.876
		C17.316,20.016,17.316,19.993,17.316,19.97z"/>
	<path style="fill-rule:evenodd;clip-rule:evenodd;fill:#E1742E;" d="M10.785,16.712c0.516,0.404,0.996,0.85,1.5,1.268
		c0.493,0.409,0.956,0.855,1.472,1.235c0.008,0.014,0.017,0.027,0.025,0.041c0.043,0.383,0.084,0.765,0.13,1.146
		c0.051,0.431,0.107,0.861,0.163,1.289c0.008,0.061,0.023,0.119,0.043,0.21c-0.135-0.091-0.171-0.217-0.238-0.318
		c-0.615-0.951-1.232-1.901-1.847-2.853c-0.394-0.609-0.784-1.221-1.177-1.829C10.819,16.842,10.775,16.789,10.785,16.712z"/>
	<path style="fill-rule:evenodd;clip-rule:evenodd;fill:#263645;" d="M13.783,19.256c-0.008-0.014-0.017-0.027-0.025-0.041
		c0.688-0.354,1.38-0.702,2.062-1.064c0.159-0.086,0.231-0.059,0.328,0.087c0.383,0.582,0.777,1.156,1.169,1.732
		c0,0.023,0,0.046,0,0.069C16.139,19.778,14.963,19.517,13.783,19.256z"/>
	<path style="fill-rule:evenodd;clip-rule:evenodd;fill:#E1742E;" d="M23.526,18.752c0.266-0.55,0.614-1.051,0.93-1.572
		c0.154-0.256,0.278-0.535,0.485-0.758c0.068,0.198-0.048,0.371-0.097,0.547c-0.382,1.348-0.777,2.688-1.169,4.032
		c-0.001,0.006-0.009,0.009-0.015,0.014c-0.05,0-0.053-0.038-0.051-0.071c0.027-0.428-0.06-0.854-0.043-1.282
		C23.578,19.356,23.495,19.056,23.526,18.752z"/>
	<path style="fill-rule:evenodd;clip-rule:evenodd;fill:#CA6125;" d="M25.731,20.916c-0.415,0.566-0.829,1.13-1.242,1.697
		c-0.051,0.069-0.097,0.134-0.172,0.175c-0.175-0.418-0.346-0.839-0.528-1.254c-0.138-0.317-0.146-0.319,0.191-0.375
		C24.562,21.065,25.145,20.972,25.731,20.916z"/>
	<path style="fill-rule:evenodd;clip-rule:evenodd;fill:#263645;" d="M21.52,19.17c0.073-0.4,0.146-0.802,0.22-1.203
		c0.014-0.077,0.02-0.164,0.139-0.104c0.507,0.256,1.014,0.51,1.52,0.769c0.019,0.009,0.021,0.046,0.032,0.067
		c-0.483,0.253-0.971,0.498-1.447,0.763c-0.169,0.094-0.27,0.089-0.35-0.095C21.603,19.298,21.558,19.236,21.52,19.17z"/>
	<path style="fill-rule:evenodd;clip-rule:evenodd;fill:#171716;" d="M20.923,26.975c-0.017-0.001-0.033-0.003-0.049-0.003
		c0.006-0.01,0.013-0.02,0.018-0.03C20.901,26.952,20.913,26.963,20.923,26.975z"/>
</g>
</svg>
