<svg width="120" height="120" viewBox="0 0 120 120" fill="none" xmlns="http://www.w3.org/2000/svg">
<path d="M60 120C93.1371 120 120 93.1371 120 60C120 26.8629 93.1371 0 60 0C26.8629 0 0 26.8629 0 60C0 93.1371 26.8629 120 60 120Z" fill="#C8D2DC"/>
<path d="M84.0379 33.072V97.1805H35.9629V33.072H41.5564V32.9775H78.4444V33.072H84.0379Z" fill="#00284B"/>
<path d="M78.4437 32.9775H41.5557V86.0565H78.4437V32.9775Z" fill="white"/>
<path d="M78.4437 83.5098H41.5557V86.0583H78.4437V83.5098Z" fill="#C8D2DC"/>
<path d="M78.4447 32.9775H41.5566V33.072H78.4447V32.9775Z" fill="#788CA0"/>
<path d="M66.4114 25.2933C66.4114 23.593 65.7359 21.9624 64.5336 20.7601C63.3314 19.5578 61.7007 18.8823 60.0004 18.8823C58.3001 18.8823 56.6694 19.5578 55.4671 20.7601C54.2648 21.9624 53.5894 23.593 53.5894 25.2933H35.9629V33.0723H41.5504V32.9778H78.4504V33.0723H84.0439V25.2933H66.4114ZM62.0734 25.2933C62.053 25.8295 61.8257 26.3369 61.4391 26.709C61.0526 27.0811 60.5369 27.289 60.0004 27.289C59.4639 27.289 58.9482 27.0811 58.5616 26.709C58.1751 26.3369 57.9478 25.8295 57.9274 25.2933C57.9274 25.2738 57.9274 25.2528 57.9274 25.2318C57.9274 24.6816 58.146 24.154 58.535 23.7649C58.924 23.3759 59.4517 23.1573 60.0019 23.1573C60.5521 23.1573 61.0797 23.3759 61.4688 23.7649C61.8578 24.154 62.0764 24.6816 62.0764 25.2318C62.0749 25.2528 62.0749 25.2738 62.0734 25.2933Z" fill="#788CA0"/>
<path d="M54.5172 46.2153H50.7012V52.8918H54.5172V46.2153Z" fill="#C8D2DC"/>
<path d="M69.2994 46.2153H65.4834V52.8918H69.2994V46.2153Z" fill="#C8D2DC"/>
<path d="M54.5172 66.5527H50.7012V70.3687H54.5172V66.5527Z" fill="#C8D2DC"/>
<path d="M69.2994 66.5527H65.4834V70.3687H69.2994V66.5527Z" fill="#C8D2DC"/>
<path d="M65.4821 62.7363H54.5156V66.5523H65.4821V62.7363Z" fill="#C8D2DC"/>
</svg>
