<?xml version="1.0" encoding="utf-8"?>
<!-- Generator: Adobe Illustrator 21.0.0, SVG Export Plug-In . SVG Version: 6.00 Build 0)  -->
<svg version="1.1" id="Warstwa_2" xmlns="http://www.w3.org/2000/svg" xmlns:xlink="http://www.w3.org/1999/xlink" x="0px" y="0px"
	 viewBox="0 0 30 30" style="enable-background:new 0 0 30 30;" xml:space="preserve">
<style type="text/css">
	.st0{fill:#231F20;}
</style>
<path class="st0" d="M15,17.7c2.1,0,3.8-1.7,3.8-3.8v-3c0-2.1-1.7-3.8-3.8-3.8c-2.1,0-3.8,1.7-3.8,3.8v3C11.2,16,12.9,17.7,15,17.7z
	 M11.7,10.9c0-1.8,1.5-3.3,3.3-3.3s3.3,1.5,3.3,3.3v3c0,1.8-1.5,3.3-3.3,3.3s-3.3-1.5-3.3-3.3V10.9z M23.4,22.8
	c-0.1,0.1-0.3,0.2-0.4,0.3c-0.1-0.1-0.2-0.3-0.3-0.4c-2-2-4.7-3.3-7.7-3.3s-5.7,1.3-7.7,3.3C7.2,22.9,7.1,23,7,23.1
	c-0.1-0.1-0.3-0.2-0.4-0.3c0.1-0.1,0.2-0.3,0.3-0.4C9,20.3,11.8,19,15,19s6,1.3,8.1,3.4C23.2,22.5,23.3,22.7,23.4,22.8z"/>
</svg>
