<?xml version="1.0" encoding="utf-8"?>
<!-- Generator: Adobe Illustrator 21.0.0, SVG Export Plug-In . SVG Version: 6.00 Build 0)  -->
<svg version="1.1" id="Warstwa_1" xmlns="http://www.w3.org/2000/svg" xmlns:xlink="http://www.w3.org/1999/xlink" x="0px" y="0px"
	 width="30px" height="30px" viewBox="0 0 30 30" style="enable-background:new 0 0 30 30;" xml:space="preserve">
<path d="M23.9,13c0.6,0,1,0.4,1,1v5c0,0.6-0.4,1-1,1h-8c-0.6,0-1-0.4-1-1v-5c0-0.6,0.4-1,1-1H23.9 M23.9,12h-8c-1.1,0-2,0.9-2,2v5
	c0,1.1,0.9,2,2,2h8c1.1,0,2-0.9,2-2v-5C25.9,12.9,25,12,23.9,12L23.9,12z M19.9,7c-1.1,0-2.1,0.5-2.8,1.2l0.7,0.7
	C18.3,8.3,19,8,19.9,8c1.7,0,3,1.3,3,3h1C23.9,8.8,22.1,7,19.9,7z M21.2,16c0-0.7-0.6-1.3-1.3-1.3c-0.7,0-1.3,0.6-1.3,1.3
	c0,0.5,0.3,1,0.8,1.2v0.6c0,0.3,0.2,0.5,0.5,0.5c0.3,0,0.5-0.2,0.5-0.5v-0.6C20.9,17,21.2,16.6,21.2,16z M13.2,10.2
	c0-0.1-0.2-0.1-0.4-0.1H3.4c-0.2,0-0.4,0.1-0.4,0.1V11c0,0.1,0.2,0.1,0.4,0.1h9.5c0.2,0,0.4-0.1,0.4-0.1V10.2z M10,14.3
	c0-0.1-0.1-0.1-0.3-0.1H3.3c-0.1,0-0.3,0.1-0.3,0.1v0.8c0,0.1,0.1,0.1,0.3,0.1h6.5c0.1,0,0.3-0.1,0.3-0.1V14.3z"/>
</svg>
