<?xml version="1.0" encoding="utf-8"?>
<!-- Generator: Adobe Illustrator 16.0.0, SVG Export Plug-In . SVG Version: 6.00 Build 0)  -->
<!DOCTYPE svg PUBLIC "-//W3C//DTD SVG 1.1//EN" "http://www.w3.org/Graphics/SVG/1.1/DTD/svg11.dtd">
<svg version="1.1" id="Warstwa_1" xmlns="http://www.w3.org/2000/svg" xmlns:xlink="http://www.w3.org/1999/xlink" x="0px" y="0px"
	 width="30px" height="30px" viewBox="0 0 30 30" style="enable-background:new 0 0 30 30;" xml:space="preserve">
<path d="M27.174,11.847c0.771,0,1.288,0.515,1.288,1.289v6.44c0,0.772-0.517,1.29-1.288,1.29H16.868
	c-0.773,0-1.288-0.518-1.288-1.29v-6.44c0-0.773,0.515-1.289,1.288-1.289H27.174 M27.174,10.56H16.868
	c-1.418,0-2.577,1.159-2.577,2.576v6.44c0,1.417,1.159,2.576,2.577,2.576h10.306c1.416,0,2.576-1.159,2.576-2.576v-6.44
	C29.75,11.718,28.59,10.56,27.174,10.56L27.174,10.56z M22.02,4.118c-1.417,0-2.705,0.644-3.605,1.546l0.9,0.902
	c0.646-0.773,1.547-1.159,2.705-1.159c2.19,0,3.865,1.673,3.865,3.863h1.289C27.174,6.437,24.854,4.118,22.02,4.118z M23.694,15.712
	c0-0.902-0.772-1.674-1.675-1.674c-0.899,0-1.676,0.772-1.676,1.674c0,0.645,0.389,1.288,1.033,1.546v0.772
	c0,0.387,0.256,0.645,0.643,0.645s0.645-0.258,0.645-0.645v-0.772C23.31,17,23.694,16.485,23.694,15.712z M13.39,8.241
	c0-0.13-0.257-0.13-0.515-0.13H0.765c-0.256,0-0.515,0.13-0.515,0.13V9.27c0,0.13,0.258,0.13,0.515,0.13h12.238
	c0.258,0,0.515-0.13,0.515-0.13V8.241H13.39z M9.267,13.521c0-0.128-0.129-0.128-0.386-0.128H0.636
	c-0.128,0-0.386,0.128-0.386,0.128v1.031c0,0.128,0.129,0.128,0.386,0.128h8.373c0.129,0,0.387-0.128,0.387-0.128v-1.031H9.267z"/>
</svg>
