<svg width="9" height="9" viewBox="0 0 9 9"  xmlns="http://www.w3.org/2000/svg">
<path  clip-rule="evenodd" d="M4.5 8.75C4.77614 8.75 5 8.52614 5 8.25L5 5.03125L8 5.03125C8.27614 5.03125 8.5 4.80739 8.5 4.53125L8.5 4.46875C8.5 4.19261 8.27614 3.96875 8 3.96875L5 3.96875L5 0.749999C5 0.473857 4.77614 0.25 4.5 0.25C4.22386 0.25 4 0.473857 4 0.749999L4 3.96875L1 3.96875C0.723858 3.96875 0.5 4.19261 0.5 4.46875L0.5 4.53125C0.5 4.80739 0.723858 5.03125 1 5.03125L4 5.03125L4 8.25C4 8.52614 4.22386 8.75 4.5 8.75Z"/>
</svg>
