<svg width="17" height="17" viewBox="0 0 17 17" fill="none" xmlns="http://www.w3.org/2000/svg">
<rect opacity="0.65" x="0.5" y="0.5" width="16" height="16" rx="1.5" stroke="#76748B"/>
<path fill-rule="evenodd" clip-rule="evenodd" d="M8.5 12.75C8.77614 12.75 9 12.5261 9 12.25L9 9.03125L12 9.03125C12.2761 9.03125 12.5 8.80739 12.5 8.53125L12.5 8.46875C12.5 8.19261 12.2761 7.96875 12 7.96875L9 7.96875L9 4.75C9 4.47386 8.77614 4.25 8.5 4.25C8.22386 4.25 8 4.47386 8 4.75L8 7.96875L5 7.96875C4.72386 7.96875 4.5 8.19261 4.5 8.46875L4.5 8.53125C4.5 8.80739 4.72386 9.03125 5 9.03125L8 9.03125L8 12.25C8 12.5261 8.22386 12.75 8.5 12.75Z" fill="#76748B"/>
</svg>
