<svg width="16" height="16" viewBox="0 0 16 16" fill="none" xmlns="http://www.w3.org/2000/svg">
<circle cx="8" cy="8" r="7.5" stroke="#4C5DFF"/>
<path fill-rule="evenodd" clip-rule="evenodd" d="M8.2853 3.42871C8.1275 3.42871 7.99958 3.55663 7.99958 3.71443V7.71443H3.99958C3.84179 7.71443 3.71387 7.84234 3.71387 8.00014C3.71387 8.15794 3.84179 8.28585 3.99958 8.28585H7.99958V12.2859C7.99958 12.4437 8.1275 12.5716 8.2853 12.5716C8.44309 12.5716 8.57101 12.4437 8.57101 12.2859V8.28585H12.571C12.7288 8.28585 12.8567 8.15794 12.8567 8.00014C12.8567 7.84234 12.7288 7.71443 12.571 7.71443H8.57101V3.71443C8.57101 3.55663 8.44309 3.42871 8.2853 3.42871Z" fill="#4C5DFF"/>
</svg>
