<svg width="16" height="16" viewBox="0 0 16 16" fill="none" xmlns="http://www.w3.org/2000/svg">
<g clip-path="url(#clip0)">
<path fill-rule="evenodd" clip-rule="evenodd" d="M7.99999 0C6.41774 0 4.871 0.469185 3.55541 1.34824C2.23981 2.22729 1.21443 3.47673 0.608933 4.93854C0.00343233 6.40035 -0.154949 8.00888 0.153733 9.56073C0.462415 11.1126 1.22431 12.538 2.34313 13.6569C3.46195 14.7757 4.88741 15.5376 6.43926 15.8463C7.9911 16.155 9.59964 15.9965 11.0614 15.391C12.5233 14.7855 13.7727 13.7601 14.6517 12.4445C15.5308 11.129 16 9.58225 16 8C16 5.87827 15.1571 3.84343 13.6568 2.34314C12.1566 0.842849 10.1217 0 7.99999 0ZM7.71098 12.125C7.49451 12.1274 7.28221 12.0654 7.10106 11.9468C6.91991 11.8283 6.77808 11.6586 6.69359 11.4593C6.6091 11.2599 6.58574 11.04 6.62651 10.8274C6.66728 10.6148 6.77036 10.4191 6.92259 10.2652C7.07482 10.1113 7.26934 10.0061 7.48149 9.96295C7.69364 9.91984 7.91382 9.94075 8.11406 10.023C8.3143 10.1053 8.48554 10.2452 8.60606 10.4251C8.72659 10.6049 8.79099 10.8165 8.791 11.033C8.7985 11.1773 8.77575 11.3217 8.72429 11.4568C8.67283 11.5918 8.59376 11.7147 8.49211 11.8175C8.39047 11.9202 8.26852 12.0007 8.13402 12.0536C7.99952 12.1066 7.85541 12.1309 7.71098 12.125ZM9.38701 7.651C9.22276 7.86094 9.10363 8.10252 9.03703 8.36063C8.97044 8.61873 8.95781 8.8878 8.99999 9.151V9H6.955L6.94298 8.871C6.93246 8.54183 6.9898 8.21402 7.11144 7.90796C7.23307 7.6019 7.41641 7.32416 7.65001 7.09201C8.00909 6.77418 8.25478 6.34798 8.34996 5.87799C8.34877 5.77078 8.32382 5.66519 8.27684 5.56882C8.22986 5.47244 8.16202 5.38769 8.07829 5.32071C7.99457 5.25373 7.89705 5.2062 7.79271 5.18152C7.68837 5.15684 7.57982 5.15564 7.47496 5.17801C7.05221 5.18906 6.64088 5.31752 6.28697 5.54901L5.87999 4.24899C6.49498 3.92054 7.18283 3.75238 7.87999 3.76001C9.46199 3.76001 10.307 4.63599 10.307 5.63199C10.2801 6.40033 9.94918 7.12656 9.38701 7.651Z" fill="#BCBCC4"/>
</g>
<defs>
<clipPath id="clip0">
<rect width="16" height="16" fill="white"/>
</clipPath>
</defs>
</svg>
