<svg viewBox="0 0 16 16" fill="none" xmlns="http://www.w3.org/2000/svg">
<path fill-rule="evenodd" clip-rule="evenodd" d="M7.99999 0C6.41774 0 4.871 0.496784 3.55541 1.42754C2.23981 2.3583 1.21443 3.68124 0.608933 5.22904C0.00343233 6.77684 -0.154949 8.47999 0.153733 10.1231C0.462415 11.7663 1.22431 13.2756 2.34313 14.4602C3.46195 15.6448 4.88741 16.4516 6.43926 16.7784C7.9911 17.1053 9.59964 16.9375 11.0614 16.2964C12.5233 15.6553 13.7727 14.5696 14.6517 13.1766C15.5308 11.7836 16 10.1459 16 8.47059C16 6.22405 15.1571 4.06952 13.6568 2.48097C12.1566 0.892428 10.1217 0 7.99999 0ZM7.71098 12.8382C7.49451 12.8408 7.28221 12.7751 7.10106 12.6496C6.91991 12.5241 6.77808 12.3444 6.69359 12.1333C6.6091 11.9223 6.58574 11.6894 6.62651 11.4643C6.66728 11.2392 6.77036 11.032 6.92259 10.869C7.07482 10.7061 7.26934 10.5947 7.48149 10.549C7.69364 10.5034 7.91382 10.5255 8.11406 10.6126C8.3143 10.6998 8.48554 10.8479 8.60606 11.0383C8.72659 11.2287 8.79099 11.4528 8.791 11.682C8.7985 11.8348 8.77575 11.9877 8.72429 12.1307C8.67283 12.2737 8.59376 12.4038 8.49211 12.5126C8.39047 12.6214 8.26852 12.7066 8.13402 12.7627C7.99952 12.8188 7.85541 12.8445 7.71098 12.8382ZM9.38701 8.10106C9.22276 8.32335 9.10363 8.57914 9.03703 8.85243C8.97044 9.12571 8.95781 9.41061 8.99999 9.6893V9.52941H6.955L6.94298 9.39283C6.93246 9.04429 6.9898 8.69719 7.11144 8.37313C7.23307 8.04907 7.41641 7.755 7.65001 7.50919C8.00909 7.17266 8.25478 6.72139 8.34996 6.22376C8.34877 6.11024 8.32382 5.99844 8.27684 5.89639C8.22986 5.79435 8.16202 5.70461 8.07829 5.63369C7.99457 5.56277 7.89705 5.51245 7.79271 5.48631C7.68837 5.46018 7.57982 5.45891 7.47496 5.4826C7.05221 5.4943 6.64088 5.63031 6.28697 5.87542L5.87999 4.49893C6.49498 4.15116 7.18283 3.97311 7.87999 3.98119C9.46199 3.98119 10.307 4.90869 10.307 5.96328C10.2801 6.77682 9.94918 7.54577 9.38701 8.10106Z" fill="white"/>
</svg>
