<?xml version="1.0" encoding="UTF-8" standalone="no"?>
<svg viewBox="0 0 30 30" version="1.1">
  <path
     fill-rule="evenodd"
     clip-rule="evenodd"
     d="M 15.000231,0 C 12.033463,0 9.1332774,0.87871429 6.666505,2.5250407 4.199714,4.1713741 2.2770944,6.5113977 1.1417686,9.2491549 0.00643596,11.986912 -0.29053398,14.999453 0.2882544,17.905796 c 0.57878839,2.9065 2.0073653,5.576159 4.1051878,7.671486 2.0978224,2.095327 4.7706045,3.522399 7.6803718,4.100444 2.909748,0.578223 5.925811,0.281418 8.666656,-0.852563 2.741109,-1.133982 5.083773,-3.054375 6.731926,-5.51832 1.648339,-2.463946 2.528104,-5.360719 2.528104,-8.324017 0,-3.973692 -1.580464,-7.7846365 -4.393573,-10.5944726 C 22.794005,1.5785316 18.978503,0 15.000231,0 Z m -0.541903,22.708279 c -0.405887,0.0045 -0.803956,-0.111617 -1.143619,-0.333596 -0.339661,-0.221986 -0.605597,-0.53984 -0.764018,-0.913235 -0.158422,-0.373217 -0.202223,-0.785173 -0.125777,-1.18333 0.07645,-0.398158 0.269723,-0.764655 0.555159,-1.052971 0.285436,-0.288138 0.650166,-0.485183 1.047955,-0.566018 0.397787,-0.08066 0.810632,-0.04156 1.186088,0.112501 0.375457,0.154239 0.696537,0.416199 0.922516,0.75298 0.225997,0.336781 0.346749,0.73317 0.346768,1.138581 0.01406,0.270272 -0.02859,0.540723 -0.125088,0.793662 -0.09649,0.25294 -0.244748,0.483061 -0.435346,0.675508 -0.190577,0.192445 -0.419238,0.343147 -0.67143,0.442377 -0.252191,0.09924 -0.522402,0.144689 -0.793213,0.133548 z M 17.600937,14.3292 c -0.307974,0.393187 -0.531346,0.845631 -0.656223,1.329027 -0.124862,0.48338 -0.14854,0.987312 -0.06945,1.48026 v -0.282813 h -3.834419 l -0.02254,-0.241584 c -0.01973,-0.6165 0.08779,-1.230452 0.315868,-1.803651 0.22806,-0.5732 0.571827,-1.093353 1.009835,-1.528142 0.673287,-0.595256 1.133962,-1.393465 1.312428,-2.273676 -0.0022,-0.200795 -0.04901,-0.398547 -0.137102,-0.579054 -0.08809,-0.180489 -0.215291,-0.339221 -0.372287,-0.464665 -0.156978,-0.1254436 -0.339832,-0.2144499 -0.535472,-0.2606865 -0.19564,-0.046219 -0.399176,-0.048465 -0.595791,-0.00656 -0.79267,0.020695 -1.563926,0.2612702 -2.227519,0.6948215 l -0.7631,-2.4347424 c 1.153126,-0.6151375 2.442865,-0.9300734 3.750063,-0.9157814 2.966299,0 4.550719,1.6405672 4.550719,3.5059318 -0.05044,1.438994 -0.670924,2.799117 -1.72501,3.781317 z"
     fill="#ffffff"
     style="stroke-width:1.82114" />
</svg>
