<svg xmlns="http://www.w3.org/2000/svg" width="30px" height="30px" viewBox="0 0 30 30">
<defs>
    <style>
      .cls-1 {
        fill: #bcbcc4;
        fill-rule: evenodd;
      }
    </style>
  </defs>
  <path id="button-question" class="cls-1" d="M942,491a8,8,0,1,0,8,8A8,8,0,0,0,942,491Zm-0.289,12.125a1.092,1.092,0,1,1,1.08-1.092A1.04,1.04,0,0,1,941.711,503.125Zm1.676-4.474a1.937,1.937,0,0,0-.387,1.5V500h-2.045l-0.012-.129a2.4,2.4,0,0,1,.707-1.779,2.206,2.206,0,0,0,.7-1.214,0.724,0.724,0,0,0-.875-0.7,2.279,2.279,0,0,0-1.188.371l-0.407-1.3a4.149,4.149,0,0,1,2-.489c1.582,0,2.427.876,2.427,1.872A2.9,2.9,0,0,1,943.387,498.651Z" transform="translate(-934 -491)"/>
</svg>
