<svg width="18" height="18" viewBox="0 0 18 18" fill="none" xmlns="http://www.w3.org/2000/svg">
<path d="M15.747 2.00391L14.855 4.27491L13.963 2.00391H11.8895L10.9265 4.45541L9.96298 2.00391H8.03148L7.06848 4.45541L6.10498 2.00391H4.03098L3.13898 4.27491L2.24698 2.00391H1.06348L2.93098 16.0104H15.0625L16.9305 2.00391H15.747ZM12.926 2.84291L14.1555 6.05541L12.855 9.36591L11.6265 6.23891L12.926 2.84291ZM8.99698 3.02841L10.2255 6.23841L8.99698 9.36541L7.76848 6.23841L8.99698 3.02841ZM5.06798 2.84291L6.36748 6.23891L5.13898 9.36591L3.83848 6.05541L5.06798 2.84291ZM2.97598 8.30941L3.13898 7.88291L4.41348 11.2129L3.62698 13.2149L2.97598 8.30941ZM4.03098 16.0039L5.13898 13.1089L6.24698 16.0039H4.03098ZM5.86498 11.2129L7.06848 8.06891L8.27148 11.2129L7.06848 14.2759L5.86498 11.2129ZM7.88898 16.0039L8.99698 13.1089L10.105 16.0039H7.88898ZM9.72248 11.2129L10.9255 8.06891L12.1285 11.2129L10.9255 14.2759L9.72248 11.2129ZM11.747 16.0039L12.855 13.1089L13.963 16.0039H11.747ZM14.443 13.4079L13.5805 11.2129L14.855 7.88341L15.0605 8.42041L14.443 13.4079Z" fill="#9AAAB4"/>
<path d="M16 17C16 16.448 15.552 16 15 16H3C2.448 16 2 16.448 2 17C2 17.552 2.448 18 3 18H15C15.552 18 16 17.552 16 17ZM18 1C18 0.4475 17.552 0 17 0H1C0.448 0 0 0.448 0 1C0 1.5525 0.448 2 1 2H17C17.552 2 18 1.5525 18 1Z" fill="#67757F"/>
</svg>
