<?xml version="1.0" encoding="utf-8"?>
<svg version="1.1" xmlns="http://www.w3.org/2000/svg" xmlns:xlink="http://www.w3.org/1999/xlink" x="0px" y="0px"
	 viewBox="0 0 30 30" style="enable-background:new 0 0 30 30;" xml:space="preserve">
<style type="text/css">
	.st0{fill:#010101;}
</style>
<path class="st0" d="M28.2,15H25c-1,0-1.8,0.8-1.8,1.7v4.5c0,0.9-0.8,1.7-1.8,1.7H8.5c-1,0-1.8,0.8-1.8,1.7v3.1
	c0,0.9,0.8,1.7,1.8,1.7h13.7c1,0,1.7-0.8,1.7-1.7v-2.5c0-0.9,0.8-1.6,1.8-1.6h2.5c1,0,1.8-0.8,1.8-1.7v-5.3C30,15.7,29.2,15,28.2,15
	z"/>
<path class="st0" d="M6.8,8.8c0-0.9,0.8-1.7,1.8-1.7h12.9c1,0,1.8-0.8,1.8-1.7V2.3c0-0.9-0.8-1.7-1.8-1.7H7.8C6.8,0.6,6,1.3,6,2.3
	v2.4c0,0.9-0.8,1.7-1.8,1.7H1.8C0.8,6.4,0,7.1,0,8.1v5.3C0,14.3,0.8,15,1.8,15H5c1,0,1.8-0.8,1.8-1.7L6.8,8.8z"/>
<path class="st0" d="M13.5,11.7h3.1c1,0,1.8,0.8,1.8,1.8v3c0,1-0.8,1.8-1.8,1.8h-3.1c-1,0-1.8-0.8-1.8-1.8v-3
	C11.6,12.5,12.5,11.7,13.5,11.7z"/>
</svg>
