<?xml version="1.0" encoding="utf-8"?>
<!-- Generator: Adobe Illustrator 21.0.0, SVG Export Plug-In . SVG Version: 6.00 Build 0)  -->
<svg version="1.1" id="Warstwa_3" xmlns="http://www.w3.org/2000/svg" xmlns:xlink="http://www.w3.org/1999/xlink" x="0px" y="0px"
	 viewBox="0 0 30 30" style="enable-background:new 0 0 30 30;" xml:space="preserve">
<style type="text/css">
	.st0{fill:#231F20;}
</style>
<path class="st0" d="M23.1,22.7l-3.4-3.4c1-1.1,1.7-2.6,1.7-4.2c0-3.4-2.8-6.3-6.3-6.3s-6.3,2.8-6.3,6.3s2.8,6.3,6.3,6.3
	c1.6,0,3.1-0.6,4.2-1.7l3.4,3.4c0,0,0.1,0.1,0.2,0.1s0.1,0,0.2-0.1C23.2,23,23.2,22.8,23.1,22.7z M9.4,15.1c0-3.2,2.6-5.8,5.8-5.8
	c3.2,0,5.8,2.6,5.8,5.8c0,3.2-2.6,5.8-5.8,5.8C11.9,20.9,9.4,18.3,9.4,15.1z"/>
</svg>
