<svg version="1.1" viewBox="0 0 30 30"><g transform="translate(0,-289.06249)"><path d="m 27.531531,302.15053 h -2.466349 c -0.27557,-1.41171 -0.826709,-2.72747 -1.612083,-3.86505 l 1.777425,-1.78176 c 0.17912,-0.17818 0.234234,-0.42489 0.110228,-0.54824 l -2.190779,-2.17923 c -0.124007,-0.12335 -0.372019,-0.0685 -0.55114,0.10965 l -1.777424,1.76805 c -1.171171,-0.79494 -2.507684,-1.35688 -3.954425,-1.63099 v -2.49447 c 0,-0.26041 -0.137785,-0.466 -0.316905,-0.466 H 13.44992 c -0.17912,0 -0.316905,0.20559 -0.316905,0.466 v 2.49447 c -1.419184,0.26041 -2.741918,0.80864 -3.8993111,1.58988 l -1.736089,-1.72694 c -0.1791203,-0.17818 -0.427133,-0.233 -0.5511394,-0.10965 l -2.1907789,2.19294 c -0.1240064,0.12335 -0.068893,0.35635 0.1102278,0.54823 l 1.7223105,1.71323 c -0.8129305,1.15129 -1.3778484,2.48076 -1.653418,3.91988 H 2.4684682 c -0.2617912,0 -0.4684684,0.13706 -0.4684684,0.31523 v 3.08382 c 0,0.17817 0.2066772,0.31523 0.4684684,0.31523 h 2.4525702 c 0.2617912,1.45282 0.826709,2.8097 1.6396396,3.9747 l -1.7912029,1.78176 c -0.1791203,0.17818 -0.2342343,0.42488 -0.1102279,0.54823 l 2.1907789,2.17923 c 0.1240064,0.12336 0.3720191,0.0685 0.5511394,-0.10964 l 1.7912029,-1.78176 c 1.1573926,0.79494 2.4939056,1.35688 3.9406466,1.61729 v 2.52187 c 0,0.26041 0.137785,0.466 0.316905,0.466 h 3.100159 c 0.17912,0 0.316905,-0.20559 0.316905,-0.466 v -2.52187 c 1.460519,-0.27412 2.810811,-0.83606 3.981982,-1.65841 l 1.736089,1.72694 c 0.17912,0.17817 0.427133,0.233 0.551139,0.10964 l 2.190779,-2.17923 c 0.124007,-0.12335 0.06889,-0.37006 -0.110228,-0.54823 l -1.749867,-1.74064 c 0.799152,-1.165 1.350291,-2.49447 1.612082,-3.93358 h 2.452571 c 0.261791,0 0.468468,-0.13706 0.468468,-0.31524 v -3.08381 c 0,-0.16447 -0.206677,-0.30153 -0.468468,-0.30153 z m -12.524642,9.36109 c -4.133546,0 -7.4954956,-3.34422 -7.4954956,-7.45598 0,-4.11176 3.3619496,-7.45598 7.4954956,-7.45598 4.133545,0 7.495495,3.34422 7.495495,7.45598 0,4.11176 -3.36195,7.45598 -7.495495,7.45598 z" style="stroke-width:0.99999994" /><path d="m 16.866984,304.06935 a 1.8600953,1.8502899 0 0 1 -1.860095,1.85029 1.8600953,1.8502899 0 0 1 -1.860096,-1.85029 1.8600953,1.8502899 0 0 1 1.860096,-1.85029 1.8600953,1.8502899 0 0 1 1.860095,1.85029 z" style="stroke-width:0.99999994" /></g></svg>
