<svg version="1.1" xmlns="http://www.w3.org/2000/svg" xmlns:xlink="http://www.w3.org/1999/xlink" x="0px" y="0px"
	 viewBox="0 0 30 30" style="enable-background:new 0 0 30 30;" xml:space="preserve">
<path d="M25.9,14.2c-0.5,0-0.8,0.4-0.8,0.8v10.9c0,0.5-0.2,1-0.6,1.3s-0.8,0.6-1.3,0.6H6.9c-0.5,0-1-0.2-1.3-0.6
	C5.2,26.9,5,26.4,5,25.9V15c0-0.5-0.4-0.8-0.8-0.8c-0.5,0-0.8,0.4-0.8,0.8v10.9c0,0.9,0.4,1.8,1,2.5c0.7,0.7,1.6,1,2.5,1h16.3
	c0.9,0,1.8-0.4,2.5-1c0.7-0.7,1-1.6,1-2.5V15C26.7,14.5,26.3,14.2,25.9,14.2z"/>
<path d="M10.1,7.4l4-4v15.7c0,0.5,0.4,0.8,0.8,0.8s0.8-0.4,0.8-0.8V3.4l4,4c0.2,0.2,0.4,0.2,0.6,0.2s0.4-0.1,0.6-0.2
	c0.3-0.3,0.3-0.8,0-1.2l-5.4-5.4c0,0,0,0,0,0c-0.1-0.1-0.2-0.1-0.2-0.2c-0.1,0-0.2-0.1-0.3-0.1c0,0,0,0,0,0c0,0,0,0,0,0
	c-0.1,0-0.2,0-0.3,0.1c-0.1,0-0.2,0.1-0.3,0.2L9,6.3C8.7,6.6,8.7,7.1,9,7.4C9.3,7.7,9.8,7.7,10.1,7.4z"/>
</svg>
