<?xml version="1.0" encoding="UTF-8" standalone="no"?>
<svg
   version="1.1"
   viewBox="0 0 30 30">
  <path
     id="rect868"
     d="M 15.028284,2.8592578e-5 C 14.877354,-0.00117141 14.72485,0.02440859 14.662669,0.07802859 8.8565955,5.3653205 3.7516635,5.1906331 3.6552635,5.1868695 c -9.185e-4,-3.67e-5 -0.034124,0 -0.034124,0 l -0.00487,0.00976 C 3.1739023,5.2181445 2.8216727,5.572595 2.8216677,6.0204787 c 0,0.017247 0.00876,0.031763 0.00976,0.048748 l -0.00976,0.00976 v 7.6242623 c 0,0 -0.5490329,9.063465 11.5728893,16.048001 0.0016,0.0016 0.0033,0.0032 0.0049,0.005 0.150674,0.150678 0.358951,0.243751 0.589856,0.243751 0.238723,0 0.447916,-0.103481 0.599608,-0.263242 C 27.703416,22.636735 27.176404,13.581355 27.176404,13.581355 V 6.0204653 5.9570923 l -0.01473,-0.014626 C 27.121894,5.5260194 26.787039,5.2020585 26.3623,5.1917413 l -0.005,-0.00487 c 0,0 -0.01448,-6.5e-6 -0.01473,0 -0.04158,0.00146 -5.103545,0.1689464 -10.963536,-5.10884071 -0.05071,-0.04882 -0.200073,-0.0768 -0.350986,-0.07799999743 z"
     style="fill:#ffffff;fill-opacity:1;stroke:none;stroke-width:4.99184418;stroke-linecap:round;stroke-miterlimit:4;stroke-dasharray:none" />
  <path
     id="rect868-6"
     d="m 15.021449,3.5001579 c -0.115711,-9.2e-4 -0.232631,0.018688 -0.280303,0.0598 -4.451301,4.0535702 -8.365062,3.9196434 -8.4389683,3.9167581 -7.046e-4,-2.76e-5 -0.026159,0 -0.026159,0 l -0.00376,0.00748 c -0.3391432,0.016502 -0.6091841,0.2882391 -0.609188,0.6316148 0,0.01323 0.00675,0.02435 0.00751,0.03737 l -0.00751,0.0075 v 5.8452372 c 0,0 -0.4209231,6.948621 8.8725053,12.303404 0.0012,0.0012 0.0025,0.0024 0.0037,0.0038 0.115515,0.115518 0.275195,0.186874 0.452221,0.186874 0.18302,0 0.3434,-0.07934 0.459697,-0.201819 9.287752,-5.443386 8.883711,-12.385809 8.883711,-12.385809 v -5.7966042 -0.04859 l -0.01127,-0.01127 C 24.293175,7.7366301 24.036456,7.4882611 23.710824,7.4803511 l -0.0038,-0.0038 c 0,0 -0.01104,-4.6e-6 -0.01127,0 -0.03187,0.00115 -3.912698,0.129525 -8.405334,-3.916758 -0.03888,-0.037433 -0.15339,-0.05888 -0.269089,-0.0598 z"
     style="fill:#fe5e7c;fill-opacity:1;stroke:none;stroke-width:3.82706118;stroke-linecap:round;stroke-miterlimit:4;stroke-dasharray:none" />
</svg>
