<svg version="1.1" viewBox="0 0 30 30">
  <g transform="translate(2,2)">
    <path transform="translate(-2,-2)" d="M 23,2.5 A 4.51,4.51 0 0 1 27.5,7 V 23 A 4.51,4.51 0 0 1 23,27.5 H 7 A 4.51,4.51 0 0 1 2.5,23 V 7 A 4.51,4.51 0 0 1 7,2.5 H 23 M 23,2 H 7 A 5,5 0 0 0 2,7 v 16 a 5,5 0 0 0 5,5 h 16 a 5,5 0 0 0 5,-5 V 7 A 5,5 0 0 0 23,2 Z" />
  </g>
  <g transform="translate(2,2)">
    <path transform="translate(-2,-2)" d="M 22,14.75 H 15.25 V 8 a 0.25,0.25 0 0 0 -0.5,0 v 6.75 H 8 a 0.25,0.25 0 0 0 0,0.5 h 6.75 V 22 a 0.25,0.25 0 0 0 0.5,0 V 15.25 H 22 a 0.25,0.25 0 0 0 0,-0.5 z" />
  </g>
</svg>
