<?xml version="1.0" encoding="utf-8"?>
<!-- Generator: Adobe Illustrator 21.0.0, SVG Export Plug-In . SVG Version: 6.00 Build 0)  -->
<svg version="1.1" id="Warstwa_1" xmlns="http://www.w3.org/2000/svg" xmlns:xlink="http://www.w3.org/1999/xlink" x="0px" y="0px"
	 viewBox="0 0 30 30" style="enable-background:new 0 0 30 30;" xml:space="preserve">
<path d="M15,2.5c6.9,0,12.5,5.6,12.5,12.5S21.9,27.5,15,27.5S2.5,21.9,2.5,15S8.1,2.5,15,2.5 M15,2C7.8,2,2,7.8,2,15s5.8,13,13,13
	c7.2,0,13-5.8,13-13S22.2,2,15,2L15,2z M16.4,8.8l3.1,1.8l1.8,3.2l-8.5,8.5l-4.9-4.9L16.4,8.8 M16.4,8.2c-0.1,0-0.1,0-0.2,0.1
	l-8.9,8.9c-0.1,0.1-0.1,0.3,0,0.4l5.3,5.3c0,0,0.1,0.1,0.2,0.1s0.1,0,0.2-0.1l8.9-8.9c0.1-0.1,0.1-0.3,0-0.4l-2-3.4l-3.3-1.9
	C16.5,8.2,16.4,8.2,16.4,8.2L16.4,8.2z M16.8,13.3c0.2,0.2,0.5,0.2,0.7,0c0.2-0.2,0.2-0.5,0-0.7c-0.2-0.2-0.5-0.2-0.7,0
	C16.6,12.8,16.6,13.1,16.8,13.3z"/>
</svg>
