<svg version="1.1" id="Layer_1" xmlns="http://www.w3.org/2000/svg" xmlns:xlink="http://www.w3.org/1999/xlink" x="0px" y="0px"
	 viewBox="0 0 30 30" style="enable-background:new 0 0 30 30;" xml:space="preserve">
<path d="M27.6,5.7h-6.2v-2c0-1-0.4-1.9-1.1-2.6C19.6,0.4,18.7,0,17.7,0H12c-1,0-1.9,0.4-2.6,1.1
	C8.7,1.8,8.4,2.7,8.4,3.7v2H2.1C1.7,5.7,1.3,6,1.3,6.5c0,0.5,0.4,0.8,0.8,0.8h2v19c0,1,0.4,1.9,1.1,2.6C5.9,29.6,6.8,30,7.8,30H22
	c1,0,1.9-0.4,2.6-1.1c0.7-0.7,1.1-1.6,1.1-2.6v-19h2c0.5,0,0.8-0.4,0.8-0.8C28.5,6,28.1,5.7,27.6,5.7z M23.9,26.3
	c0,0.5-0.2,1-0.6,1.4c-0.4,0.4-0.9,0.6-1.4,0.6H7.8c-0.5,0-1-0.2-1.4-0.6c-0.4-0.4-0.6-0.9-0.6-1.4v-19h18.1V26.3z M10.1,3.7
	c0-0.5,0.2-1,0.6-1.4C11,1.9,11.5,1.7,12,1.7h5.7c0.5,0,1,0.2,1.4,0.6c0.4,0.4,0.6,0.9,0.6,1.4v2h-9.6V3.7z"/>
<path d="M12,22.9c0.5,0,0.8-0.4,0.8-0.8v-8.5c0-0.5-0.4-0.8-0.8-0.8s-0.8,0.4-0.8,0.8v8.5C11.2,22.5,11.6,22.9,12,22.9z
	"/>
<path d="M17.7,22.9c0.5,0,0.8-0.4,0.8-0.8v-8.5c0-0.5-0.4-0.8-0.8-0.8s-0.8,0.4-0.8,0.8v8.5
	C16.9,22.5,17.2,22.9,17.7,22.9z"/>
</svg>
