<?xml version="1.0" encoding="UTF-8" standalone="no"?>
<svg
   width="30"
   height="30"
   viewBox="0 0 30 30"
   fill="none"
   version="1.1"
   id="svg253"
   sodipodi:docname="trash-can.svg"
   inkscape:version="1.2 (dc2aeda, 2022-05-15)"
   xmlns:inkscape="http://www.inkscape.org/namespaces/inkscape"
   xmlns:sodipodi="http://sodipodi.sourceforge.net/DTD/sodipodi-0.dtd"
   xmlns="http://www.w3.org/2000/svg"
   xmlns:svg="http://www.w3.org/2000/svg">
  <defs
     id="defs257" />
  <sodipodi:namedview
     id="namedview255"
     pagecolor="#ffffff"
     bordercolor="#000000"
     borderopacity="0.25"
     inkscape:showpageshadow="2"
     inkscape:pageopacity="0.0"
     inkscape:pagecheckerboard="0"
     inkscape:deskcolor="#d1d1d1"
     showgrid="false"
     inkscape:zoom="13.111111"
     inkscape:cx="0.64830508"
     inkscape:cy="16.779661"
     inkscape:window-width="1309"
     inkscape:window-height="456"
     inkscape:window-x="0"
     inkscape:window-y="38"
     inkscape:window-maximized="0"
     inkscape:current-layer="svg253" />
  <path
     d="M 27.76234,0 26.075823,4.8641737 24.389306,0 H 20.46891 L 18.648152,5.2507802 16.826411,0 H 13.174497 L 11.353739,5.2507802 9.532036,0 H 5.6106944 L 3.9241773,4.8641737 2.2376603,0 H 0 L 3.5309088,30 H 26.468146 L 30,0 Z m -5.333705,1.7970241 2.324633,6.8807389 -2.458874,7.090642 -2.322742,-6.69761 z m -7.428654,0.3973158 2.32278,6.8753841 -2.32278,6.69761 -2.322742,-6.69761 z M 7.571365,1.7970241 10.028348,9.070795 7.7056057,15.768405 5.2467319,8.677763 Z M 3.6159909,13.505525 3.9241773,12.59202 6.3338926,19.724406 4.8468458,24.012419 Z m 1.9947035,16.480553 2.0949113,-6.200697 2.0949113,6.200697 z m 3.4675696,-10.261672 2.275475,-6.733999 2.274529,6.733999 -2.274529,6.56053 z m 3.826806,10.261672 2.094911,-6.200697 2.094949,6.200697 z m 3.466624,-10.261672 2.274567,-6.733999 2.274529,6.733999 -2.274529,6.56053 z m 3.827789,10.261672 2.094911,-6.200697 2.094912,6.200697 z m 5.097365,-5.56028 -1.630741,-4.701392 2.409716,-7.131315 0.388541,1.150181 z"
     fill="#9aaab4"
     id="path249"
     style="stroke-width:2.01237" />
  <path
     d="m 26.666666,28.333333 c 0,-0.92 -0.746666,-1.666666 -1.666665,-1.666666 H 5.0000001 c -0.92,0 -1.6666666,0.746666 -1.6666666,1.666666 0,0.92 0.7466666,1.666667 1.6666666,1.666667 H 25.000001 C 25.92,30 26.666666,29.253333 26.666666,28.333333 Z M 30,1.6666667 C 30,0.74583333 29.253334,0 28.333334,0 H 1.6666666 C 0.74666667,0 0,0.74666667 0,1.6666667 0,2.5875 0.74666667,3.3333333 1.6666666,3.3333333 H 28.333334 C 29.253334,3.3333333 30,2.5875 30,1.6666667 Z"
     fill="#67757f"
     id="path251"
     style="stroke-width:1.66667" />
</svg>
