<?xml version="1.0" encoding="UTF-8" standalone="no"?><svg viewBox="0 0 30 30" version="1.1"><path d="M 28.17864,24.41084 16.38715,3.98731 c -0.61648,-1.0679 -2.15789,-1.0679 -2.77444,0 L 1.82121,24.41084 c -0.61655,1.06794 0.15421,2.40276 1.38721,2.40276 h 23.58306 c 1.23307,0 2.00371,-1.33482 1.38716,-2.40276 z M 17.7745,3.18639 c -1.23307,-2.13577 -4.31592,-2.13577 -5.54899,0 L 0.43398,23.60992 c -1.23311,2.13574 0.30841,4.80552 2.77444,4.80552 h 23.58306 c 2.46618,0 4.00762,-2.66978 2.77455,-4.80552 z" style="fill:#000000;fill-rule:evenodd;" /><path d="m 13.50867,9.85866 0.75318,9.56569 h 1.49137 l 0.73814,-9.56569 z m 0.13568,10.99677 0.0151,2.68139 h 2.68139 v -2.68139 z" style="fill:#000000;" /></svg>
