<?xml version="1.0" encoding="UTF-8" standalone="no"?>
<svg version="1.1" viewBox="0 0 30 30">
  <path d="m 10.471471,2.5710801 c -3.2851005,0 -5.9667971,2.6797435 -5.9667971,5.9648438 0,3.2851011 2.6817003,5.9648441 5.9667971,5.9648441 3.285097,0 5.964843,-2.679747 5.964843,-5.9648441 0,-3.2850967 -2.679743,-5.9648438 -5.964843,-5.9648438 z m 0,1.6113282 c 2.413751,0 4.353515,1.9397611 4.353515,4.3535156 0,2.4137551 -1.93976,4.3535161 -4.353515,4.3535161 -2.4137546,0 -4.3535159,-1.939765 -4.3535159,-4.3535161 0,-2.4137509 1.9397649,-4.3535156 4.3535159,-4.3535156 z m 14.820312,4.8261716 a 0.80622712,0.80622712 0 0 0 -0.794922,0.816406 V 12.88944 h -3.0625 a 0.80622712,0.80622712 0 1 0 0,1.611328 h 3.0625 v 3.064453 a 0.806641,0.806641 0 0 0 1.613282,0 v -3.064453 h 3.0625 a 0.80622712,0.80622712 0 1 0 0,-1.611328 h -3.0625 V 9.8249859 a 0.80622712,0.80622712 0 0 0 -0.81836,-0.816406 z M 5.9558458,18.047643 c -1.5818657,0 -3.0983047,0.629756 -4.2167969,1.748047 -1.11853997,1.11854 -1.74804689,2.636822 -1.74804689,4.21875 v 2.578125 a 0.8066406,0.8066406 0 0 0 1.61328119,0 V 24.01444 c 0,-1.154974 0.456838,-2.261526 1.2734376,-3.078125 0.816608,-0.816461 1.9233222,-1.275391 3.078125,-1.275391 h 9.0292972 c 1.154824,0 2.26149,0.458919 3.078125,1.275391 0.81658,0.81658 1.27539,1.923111 1.27539,3.078125 v 2.578125 a 0.80622712,0.80622712 0 1 0 1.611328,0 V 24.01444 c 0,-1.581889 -0.627533,-3.10019 -1.746093,-4.21875 -1.118504,-1.118281 -2.636869,-1.748047 -4.21875,-1.748047 z" />
</svg>
