<?xml version="1.0" encoding="utf-8"?>
<svg version="1.1" id="Warstwa_1" xmlns="http://www.w3.org/2000/svg" xmlns:xlink="http://www.w3.org/1999/xlink" x="0px" y="0px"
	 width="30px" height="30px" viewBox="0 0 30 30" style="enable-background:new 0 0 30 30;" xml:space="preserve">
<path d="M18,16c0.3,0,0.5,0.2,0.5,0.5c0,0.3-0.2,0.5-0.5,0.5s-0.5-0.2-0.5-0.5C17.5,16.2,17.8,16,18,16 M18,15
	c-0.8,0-1.5,0.7-1.5,1.5c0,0.8,0.7,1.5,1.5,1.5c0.8,0,1.5-0.7,1.5-1.5C19.5,15.7,18.9,15,18,15L18,15z M21.3,12h-8.8h-1h-2
	c0,0,0-0.1,0-0.1c0-0.6,0.4-1,1-1h1.7H21v-1H10.5c-0.7,0-1.4,0.4-1.7,1c-0.2,0.3-0.3,0.6-0.3,1c0,0.1,0,0.2,0,0.2c0,0,0,0,0,0v8.7
	c0,0.1,0.1,0.2,0.2,0.2h12.6c0.1,0,0.2-0.1,0.2-0.2v-8.7C21.5,12.1,21.4,12,21.3,12z M20.5,20.1H9.5v-6.4V13h2.7h8.4V20.1z"/>
</svg>
