<?xml version="1.0" encoding="utf-8"?>
<!-- Generator: Adobe Illustrator 16.0.0, SVG Export Plug-In . SVG Version: 6.00 Build 0)  -->
<!DOCTYPE svg PUBLIC "-//W3C//DTD SVG 1.1//EN" "http://www.w3.org/Graphics/SVG/1.1/DTD/svg11.dtd">
<svg version="1.1" id="Warstwa_1" xmlns="http://www.w3.org/2000/svg" xmlns:xlink="http://www.w3.org/1999/xlink" x="0px" y="0px"
	 width="30px" height="30px" viewBox="0 0 30 30" style="enable-background:new 0 0 30 30;" xml:space="preserve">
<path d="M20.406,15.992c0.541,0,0.902,0.361,0.902,0.9c0,0.542-0.361,0.902-0.902,0.902c-0.54,0-0.901-0.36-0.901-0.902
	C19.505,16.354,20.046,15.992,20.406,15.992 M20.406,14.191c-1.441,0-2.703,1.261-2.703,2.702c0,1.442,1.262,2.705,2.703,2.705
	s2.704-1.263,2.704-2.705C23.11,15.452,22.028,14.191,20.406,14.191L20.406,14.191z M26.353,8.785H10.495H8.693H5.088v-0.18
	c0-1.082,0.721-1.802,1.802-1.802h3.064h15.857V5H6.891c-1.262,0-2.522,0.72-3.064,1.802c-0.359,0.542-0.54,1.082-0.54,1.802
	c0,0.18,0,0.361,0,0.361l0,0v15.675c0,0.181,0.18,0.359,0.36,0.359h22.705c0.182,0,0.361-0.179,0.361-0.359V8.965
	C26.714,8.965,26.534,8.785,26.353,8.785z M24.911,23.377H5.088V11.849v-1.262h4.867H25.09v12.79H24.911z"/>
</svg>
