<?xml version="1.0" encoding="utf-8"?>
<!-- Generator: Adobe Illustrator 16.0.0, SVG Export Plug-In . SVG Version: 6.00 Build 0)  -->
<!DOCTYPE svg PUBLIC "-//W3C//DTD SVG 1.1//EN" "http://www.w3.org/Graphics/SVG/1.1/DTD/svg11.dtd">
<svg version="1.1" id="Warstwa_1" xmlns="http://www.w3.org/2000/svg" xmlns:xlink="http://www.w3.org/1999/xlink" x="0px" y="0px"
	 width="30px" height="30px" viewBox="0 0 30 30" style="enable-background:new 0 0 30 30;" xml:space="preserve">
<path d="M19.646,15.853c0.466,0,0.776,0.311,0.776,0.774c0,0.465-0.311,0.774-0.776,0.774c-0.463,0-0.773-0.31-0.773-0.774
	C18.872,16.163,19.336,15.853,19.646,15.853 M19.646,14.304c-1.238,0-2.322,1.084-2.322,2.323c0,1.239,1.084,2.324,2.322,2.324
	c1.239,0,2.324-1.085,2.324-2.324C21.97,15.388,21.04,14.304,19.646,14.304L19.646,14.304z M24.756,9.659H11.128H9.58H6.482V9.504
	c0-0.93,0.62-1.549,1.549-1.549h2.634h13.628V6.407H8.031c-1.084,0-2.167,0.619-2.633,1.548C5.089,8.42,4.934,8.885,4.934,9.504
	c0,0.155,0,0.31,0,0.31l0,0v13.47c0,0.156,0.155,0.311,0.31,0.311h19.512c0.156,0,0.312-0.154,0.312-0.311V9.814
	C25.067,9.814,24.912,9.659,24.756,9.659z M23.518,22.198H6.482v-9.906v-1.085h4.183h13.006v10.991H23.518z"/>
</svg>
