<?xml version="1.0" encoding="utf-8"?>
<!-- Generator: Adobe Illustrator 16.0.0, SVG Export Plug-In . SVG Version: 6.00 Build 0)  -->
<!DOCTYPE svg PUBLIC "-//W3C//DTD SVG 1.1//EN" "http://www.w3.org/Graphics/SVG/1.1/DTD/svg11.dtd">
<svg version="1.1" id="Warstwa_1" xmlns="http://www.w3.org/2000/svg" xmlns:xlink="http://www.w3.org/1999/xlink" x="0px" y="0px"
	 width="30px" height="30px" viewBox="0 0 30 30" style="enable-background:new 0 0 30 30;" xml:space="preserve">
<path d="M20.046,15.926c0.505,0,0.842,0.338,0.842,0.841c0,0.506-0.337,0.842-0.842,0.842c-0.504,0-0.841-0.336-0.841-0.842
	C19.205,16.264,19.71,15.926,20.046,15.926 M20.046,14.245c-1.346,0-2.522,1.177-2.522,2.522c0,1.346,1.177,2.524,2.522,2.524
	s2.524-1.179,2.524-2.524C22.57,15.422,21.56,14.245,20.046,14.245L20.046,14.245z M25.596,9.199H10.795H9.113H5.749V9.031
	c0-1.01,0.673-1.682,1.682-1.682h2.86h14.8V5.667H7.431c-1.178,0-2.354,0.672-2.86,1.682c-0.335,0.505-0.503,1.01-0.503,1.682
	c0,0.168,0,0.337,0,0.337l0,0v14.63c0,0.169,0.168,0.336,0.336,0.336h21.191c0.17,0,0.338-0.167,0.338-0.336V9.368
	C25.934,9.368,25.766,9.199,25.596,9.199z M24.251,22.818H5.749V12.059v-1.178h4.542h14.125v11.938H24.251z"/>
</svg>
