<?xml version="1.0" encoding="UTF-8" standalone="no"?>
<svg
   xmlns:dc="http://purl.org/dc/elements/1.1/"
   xmlns:cc="http://creativecommons.org/ns#"
   xmlns:rdf="http://www.w3.org/1999/02/22-rdf-syntax-ns#"
   xmlns:svg="http://www.w3.org/2000/svg"
   xmlns="http://www.w3.org/2000/svg"
   id="svg8"
   version="1.1"
   viewBox="0 0 7.9374998 7.9375002"
   height="30"
   width="30">
  <defs
     id="defs2" />
  <metadata
     id="metadata5">
    <rdf:RDF>
      <cc:Work
         rdf:about="">
        <dc:format>image/svg+xml</dc:format>
        <dc:type
           rdf:resource="http://purl.org/dc/dcmitype/StillImage" />
        <dc:title></dc:title>
      </cc:Work>
    </rdf:RDF>
  </metadata>
  <g
     transform="translate(0,-289.06246)"
     id="layer1">
    <path
       id="path1071"
       d="M 7.2716498,291.23295 H 0.80508161 a 0.91454615,0.91040223 0 0 1 0.20514319,-0.5718 0.95101925,0.94671009 0 0 1 0.7443043,-0.26804 h 5.4942276 v -0.27234 H 1.6177531 v 0.0102 a 1.1498101,1.1446001 0 0 0 -0.81378799,0.35086 1.2417478,1.2361213 0 0 0 -0.269291,0.89183 v 4.43203 a 0.13688071,0.13626048 0 0 0 0.1366879,0.13596 H 7.2716455 a 0.13705032,0.13642934 0 0 0 0.1366878,-0.13596 v -4.43645 a 0.13688071,0.13626048 0 0 0 -0.1366878,-0.13625 z m -0.1366879,4.4369 H 0.80827101 v -4.16456 H 7.1349604 Z m -1.5276318,-1.34307 a 0.68393852,0.68083953 0 1 0 -0.6839407,-0.68083 0.68457321,0.68147134 0 0 0 0.6839407,0.68083 z m 0,-1.08934 a 0.4103631,0.4085037 0 1 1 -0.4103685,0.40851 0.41115651,0.4092935 0 0 1 0.4103685,-0.40851 z"
       style="stroke-width:0.26458329" />
  </g>
</svg>
