<svg id="Layer_1" data-name="Layer 1" xmlns="http://www.w3.org/2000/svg" viewBox="0 0 957.31 481.44"><title>LogoBlue</title><path fill="#7cd6df" d="M465.5,266.41a25.69,25.69,0,1,0-25.69-25.69,25.69,25.69,0,0,0,25.69,25.69h0" transform="translate(0.01 0)"/><path fill="#7cd6df" d="M650.65,205.09a35.63,35.63,0,1,0,35.64,35.63,35.63,35.63,0,0,0-35.64-35.63h0" transform="translate(0.01 0)"/><path fill="#7cd6df" d="M465.5,95.27a36.07,36.07,0,1,0,36.07,36.07h0A36.07,36.07,0,0,0,465.5,95.27h0" transform="translate(0.01 0)"/><path fill="#7cd6df" d="M465.5,51.38a25.69,25.69,0,1,0-25.69-25.69v0A25.69,25.69,0,0,0,465.5,51.41h0" transform="translate(0.01 0)"/><path fill="#7cd6df" d="M465.5,430.06a25.69,25.69,0,1,0,25.69,25.69v0A25.69,25.69,0,0,0,465.5,430h0" transform="translate(0.01 0)"/><path fill="#7cd6df" d="M370.75,217.63a31.54,31.54,0,1,0-31.54-31.54,31.54,31.54,0,0,0,31.54,31.54h0" transform="translate(0.01 0)"/><path fill="#7cd6df" d="M370.75,91.72a11.81,11.81,0,1,0-11.81-11.81h0a11.81,11.81,0,0,0,11.81,11.81" transform="translate(0.01 0)"/><path fill="#7cd6df" d="M279.26,107.65a25.69,25.69,0,1,0,25.69,25.69,25.69,25.69,0,0,0-25.69-25.69h0" transform="translate(0.01 0)"/><path fill="#7cd6df" d="M279.26,321.25a25.69,25.69,0,1,0,25.69,25.69,25.69,25.69,0,0,0-25.69-25.69h0" transform="translate(0.01 0)"/><path fill="#7cd6df" d="M650.65,321.25a25.69,25.69,0,1,0,25.69,25.69,25.69,25.69,0,0,0-25.69-25.69h0" transform="translate(0.01 0)"/><path fill="#7cd6df" d="M289.23,240.72a10,10,0,1,0-10,10,10,10,0,0,0,10-10" transform="translate(0.01 0)"/><path d="M560.19,203.48a17.39,17.39,0,1,0-17.39-17.39,17.39,17.39,0,0,0,17.39,17.39h0" transform="translate(0.01 0)"/><path fill="#7cd6df" d="M650.65,154.72a21.4,21.4,0,1,0-21.4-21.4,21.4,21.4,0,0,0,21.4,21.4h0" transform="translate(0.01 0)"/><path fill="#7cd6df" d="M560.19,387.16a14.31,14.31,0,1,0,14.31,14.31h0a14.32,14.32,0,0,0-14.31-14.31" transform="translate(0.01 0)"/><path fill="#7cd6df" d="M465.5,324.55a25.56,25.56,0,1,0,25.56,25.56h0a25.58,25.58,0,0,0-25.56-25.56" transform="translate(0.01 0)"/><path fill="#7cd6df" d="M370.75,266.41a29.16,29.16,0,1,0,29.15,29.17h0a29.19,29.19,0,0,0-29.15-29.16" transform="translate(0.01 0)"/><path d="M200,275.5a32.32,32.32,0,1,0,32.49-32.15h0A32.34,32.34,0,0,0,200,275.5m89.19,0a56.72,56.72,0,1,1-56.71-56.87c31.18,0,56.71,25.69,56.71,56.87" transform="translate(0.01 0)"/><path d="M527.32,275.5a32.32,32.32,0,1,0,32.49-32.15h0a32.34,32.34,0,0,0-32.48,32.15m89.19,0a56.71,56.71,0,1,1-56.71-56.87c31.18,0,56.71,25.69,56.71,56.87" transform="translate(0.01 0)"/><polygon points="779.52 220.57 763.4 220.57 763.4 287.62 707.82 220.57 681.16 220.57 681.16 317.99 691.69 330.43 707.82 330.43 707.82 263.21 763.4 330.43 790.06 330.43 790.06 233.01 779.52 220.57"/><path d="M59.46,242.54c13.89,0,24.08,6.63,29.24,16.64h22.46V246.1c-9.86-16.48-28.28-27.47-51.71-27.47C25,218.63,0,244.15,0,274.69c0,32.47,25,57.68,59.46,57.68,23.26,0,41.83-12.12,51.69-28.6V290.91H88.48l-0.1-.06c-5.33,9.69-15.35,16.64-28.92,16.64-19.23,0-32.64-15.35-32.64-32.8,0-18.09,13.41-32.16,32.64-32.16" transform="translate(0.01 0)"/><polygon points="426.94 305.87 380.79 305.87 380.79 233.68 380.79 220.57 369.69 220.57 368.59 220.57 367.93 220.57 354.3 232.1 354.3 315.62 354.3 316.72 354.3 330.43 365.9 330.43 438.47 330.43 438.47 319.5 426.94 305.87"/><polygon points="883.06 318.2 893.69 330.74 909.87 330.74 909.87 330.74 909.87 288.99 944.38 238.99 944.38 238.99 957.31 220.26 926.28 220.26 907.35 249.18 896.71 265.43 895.21 263.18 866.65 220.26 835.95 220.26 848.87 239.12 848.87 239.12 883.06 288.99 883.06 318.2"/></svg>
