<?xml version="1.0" encoding="UTF-8" standalone="no"?>
<svg width="223" height="116" viewbox="0 0 223 116" fill="none"
    xmlns="http://www.w3.org/2000/svg">
    <path d=
"M184.15 87.96C184.15 87.96 180.89 99.4999 165.8 99.4999C150.71 99.4999 129.98 99.4999 129.98 99.4999L184.15 87.96Z"
fill="#F2ADBD"></path>
    <path d=
"M31.55 97.98C31.36 97.92 31.18 97.85 30.99 97.78C30.89 97.76 30.79 97.72 30.69 97.67C26.33 96.03 22.31 93.71 18.86 90.76C17.67 89.75 16.54 88.66 15.5 87.49C13.84 89.89 11.36 91.5 8.87 92.59C6.83 93.48 4.78 94.01 3.17 94.33C1.33 94.69 0 96.29 0 98.17V101.27H4.75999C6.52999 101.27 8.25 100.67 9.63 99.56L10 99.27V101.27C10.26 101.21 41.78 101.27 41.78 101.27L31.55 97.98Z"
fill="#F2ADBD"></path>
    <path d=
"M222.22 85.74V96.2C222.22 100.51 218.73 104 214.42 104H210.22V102L209.86 102.29C208.49 103.4 206.78 104 205.01 104H199.22V102L198.86 102.29C197.49 103.4 195.78 104 194.01 104H189.22V100.9C189.22 99.02 190.55 97.42 192.39 97.06C197.43 96.07 206.72 92.97 206.72 83.5V80.5C206.72 80.5 201.8 85.07 192.72 88.5C175.73 94.92 140.16 102.56 105.15 103.42C103.01 103.47 100.86 103.5 98.72 103.5L92.06 112.38C90.59 114.34 88.28 115.5 85.82 115.5H82.47V113.5L82.11 113.79C80.74 114.9 79.03 115.5 77.26 115.5H71.52V113.5L71.16 113.79C69.79 114.9 68.08 115.5 66.31 115.5H60.56V113.5L60.22 113.77C58.83 114.89 57.1 115.5 55.32 115.5H51.72V112.33C51.72 110.28 53.3 108.57 55.34 108.43C60.67 108.07 70.46 106.3 74.72 98.5C74.72 98.5 60.72 102.7 42.72 102.7C38.91 102.7 35.13 102.25 31.5 101.37C29.91 101 28.36 100.53 26.84 99.98L25.98 99.67C21.62 98.03 17.6 95.71 14.15 92.76C12.96 91.75 11.83 90.66 10.79 89.49C9.84002 88.45 8.97001 87.34 8.16001 86.17C7.67001 85.46 7.21 84.73 6.78 83.98C4.62 80.28 3.15 76.07 2.54 71.39C1 59.57 5.54 48.31 13.81 40.53C16.02 38.44 18.49 36.6 21.19 35.07C25.31 32.73 29.96 31.1 34.96 30.38C34.97 30.38 34.97 30.38 34.98 30.38C35.16 30.35 35.35 30.32 35.53 30.3C35.53 30.3 35.53 30.3 35.54 30.29C35.75 30.22 39.06 28.97 43.55 27.43C43.75 27.37 43.95 27.3 44.15 27.23C44.97 26.95 45.83 26.66 46.72 26.37C48.58 25.76 50.56 25.12 52.53 24.52C53.03 24.37 53.52 24.22 54.02 24.08C54.09 24.06 54.16 24.04 54.23 24.02C57.07 23.19 59.84 22.48 62.22 22C62.27 21.99 62.31 21.98 62.36 21.97C72.39 19.81 90.42 0 132.22 0C167.54 0 200.74 22.63 215.76 55.41C220.11 64.91 222.22 75.29 222.22 85.74Z"
fill="#F8D0D8"></path>
    <path d=
"M38.87 71.0599C39.6 72.3099 39.47 73.7299 38.74 74.7699C38.47 75.1599 37.89 75.1799 37.59 74.8099L37.5701 74.7899C37.3601 74.5299 37.37 74.1799 37.55 73.8999C37.87 73.4299 37.9701 72.8399 37.7901 72.2499C37.6101 71.6299 37.1 71.1399 36.47 70.9699C35.18 70.6299 34.02 71.5899 34.02 72.8299V73.7799H33.11C32.8 73.7799 32.55 73.5299 32.55 73.2199V72.8999C32.55 71.9699 31.92 71.1099 31 70.9299C29.77 70.6899 28.7 71.6299 28.7 72.8199C28.7 73.2099 28.81 73.5699 29.02 73.8799C29.21 74.1599 29.22 74.5199 29 74.7799L28.98 74.7999C28.68 75.1699 28.1 75.1499 27.83 74.7599C27.18 73.8299 27.02 72.5899 27.5 71.4499C27.93 70.4299 28.88 69.6899 29.96 69.4899C31.29 69.2399 32.5201 69.7799 33.2601 70.7199C34.0501 69.7199 35.3801 69.1699 36.8201 69.5499C37.7201 69.7699 38.43 70.2999 38.87 71.0599Z"
fill="#F5416E"></path>
    <path d=
"M16.62 68.12C16.62 68.7618 16.3651 69.3773 15.9112 69.8311C15.4574 70.285 14.8418 70.5399 14.2 70.5399C13.5582 70.5399 12.9427 70.285 12.4888 69.8311C12.035 69.3773 11.78 68.7618 11.78 68.12C11.78 67.4781 12.035 66.8626 12.4888 66.4088C12.9427 65.9549 13.5582 65.7 14.2 65.7C14.8418 65.7 15.4574 65.9549 15.9112 66.4088C16.3651 66.8626 16.62 67.4781 16.62 68.12Z"
fill="black"></path>
    <path d=
"M58.29 63.8399C58.29 64.4818 58.035 65.0973 57.5812 65.5511C57.1273 66.005 56.5118 66.2599 55.87 66.2599C55.2281 66.2599 54.6126 66.005 54.1588 65.5511C53.7049 65.0973 53.45 64.4818 53.45 63.8399C53.45 63.1981 53.7049 62.5826 54.1588 62.1287C54.6126 61.6749 55.2281 61.4199 55.87 61.4199C56.5118 61.4199 57.1273 61.6749 57.5812 62.1287C58.035 62.5826 58.29 63.1981 58.29 63.8399Z"
fill="black"></path>
    <path d=
"M40.6699 80.6299C41.0899 80.6299 41.41 80.9398 41.35 81.2798C40.91 83.6498 38.0799 85.5399 34.4899 85.8999C34.0799 85.9399 34.02 83.6599 33.6 83.6599C33.38 83.6599 32.82 85.9499 32.6 85.9398C28.72 85.7399 25.6099 83.7699 25.1399 81.2699C25.0799 80.9299 25.4 80.6199 25.82 80.6199H40.6699V80.6299Z"
fill="#F5416E"></path>
    <path d=
"M72.97 88.0101C74.43 87.0501 75.77 85.9001 76.92 84.6101C78.1 83.3501 79.11 81.9401 79.9 80.4401C80.71 78.9401 81.19 77.3201 81.77 75.7501C82.11 74.9701 82.32 74.1501 82.63 73.3401C82.92 72.5201 83.12 71.6801 83.51 70.8201L83.71 70.8301C84.12 72.6201 84.12 74.5201 83.69 76.3201C83.34 78.1601 82.29 79.7701 81.27 81.2801C80.24 82.8001 79 84.1601 77.62 85.3401C76.22 86.4901 74.72 87.5001 73.06 88.2001L72.97 88.0101Z"
fill="#F2ADBD"></path>
    <path d=
"M51.16 30.04C53.58 31.43 57.47 34.79 57.74 35.05C58.01 35.31 58 35.85 57.47 35.34C56.94 34.83 52.83 32.7 50.34 31.87C47.86 31 45.32 30.42 42.77 30.18C40.56 29.97 36.87 30.19 34.98 30.38C35.16 30.35 35.35 30.32 35.53 30.3C35.53 30.3 35.53 30.3 35.54 30.29C35.75 30.22 39.06 28.97 43.55 27.43C43.55 27.43 45.93 26.78 51.16 30.04Z"
fill="#F2ADBD"></path>
    <path d=
"M58.46 28.4C57.97 28.13 55.43 27.06 53.86 26.72C52.3 26.34 50.76 26.13 49.25 26.1C48.38 26.08 47.54 26.25 46.72 26.37C48.58 25.76 50.56 25.12 52.53 24.52C53.7 24.7 54.73 25 55.43 25.33C57.08 26.11 58.6 27.71 58.8 28.02C59 28.33 58.95 28.67 58.46 28.4Z"
fill="#F2ADBD"></path>
    <path d=
"M98.72 103.5C100.86 103.5 103.01 103.47 105.15 103.42L106.16 101.67L107.31 99.5599C107.71 98.8699 108.07 98.1499 108.43 97.4399C108.79 96.7299 109.16 96.03 109.48 95.3C110.14 93.85 110.73 92.3799 111.3 90.9099C112.35 87.9299 113.32 84.93 113.9 81.83L113.42 81.6899C112.1 84.4899 110.72 87.25 109.05 89.83C107.17 92.72 98.72 103.5 98.72 103.5Z"
fill="#F2ADBD"></path>
    <path d=
"M88.01 83.6698C89.29 81.4498 90.21 79.0298 90.85 76.5698C91.52 74.1098 91.94 71.5998 92.07 69.0698C92.12 68.4398 92.09 67.8098 92.1 67.1798C92.11 66.5498 92.1 65.9198 92.03 65.2898C91.99 64.6598 91.95 64.0298 91.94 63.4098C91.88 62.7798 91.84 62.1598 91.8 61.5298C91.79 60.8998 91.76 60.2698 91.67 59.6398C91.62 59.0098 91.55 58.3798 91.52 57.7398C91.41 56.4698 91.22 55.1998 91.2 53.8698L91.39 53.8098C91.97 54.9898 92.51 56.1998 92.9 57.4598C93.25 58.7298 93.63 59.9998 93.78 61.3198C94.27 63.9398 93.94 66.6198 93.66 69.2298C93.33 71.8498 92.68 74.4098 91.8 76.8798C90.87 79.3298 89.74 81.6998 88.17 83.7898L88.01 83.6698Z"
fill="#F2ADBD"></path>
    <path d=
"M89.5 91.92C92.57 89.49 94.87 86.23 96.58 82.77C98.31 79.3 99.35 75.54 99.88 71.72L100.17 68.84C100.21 67.88 100.18 66.91 100.19 65.95L100.21 64.51C100.21 64.03 100.14 63.55 100.12 63.07C100.06 62.11 100.03 61.14 100 60.18C100 59.21 99.82 58.26 99.75 57.29C99.67 56.32 99.57 55.36 99.5 54.38C99.19 52.46 98.94 50.52 98.76 48.53L98.95 48.48C99.66 50.33 100.31 52.21 100.88 54.12C101.29 56.06 101.74 58.02 101.99 60C102.13 62 102.37 64 102.17 66C102.09 67 102.05 68 101.94 69L101.47 71.97C100.72 75.9 99.44 79.75 97.47 83.23C95.47 86.67 92.9 89.83 89.61 92.08L89.5 91.92Z"
fill="#F2ADBD"></path>
    <path d=
"M160.09 75.7001C163.19 73.4201 165.99 71.0901 168.65 68.6501C171.3 66.2101 173.82 63.7001 176.15 61.0001C176.76 60.3601 177.29 59.6301 177.87 58.9501L178.74 57.9301C179.02 57.5901 179.27 57.2101 179.55 56.8601C180.1 56.1501 180.64 55.4401 181.21 54.7401C181.72 54.0001 182.24 53.2701 182.78 52.5301C183.91 51.1001 184.81 49.5201 185.93 48.0201C186.99 46.4901 187.94 44.8901 189.16 43.3401C189.08 44.3001 188.93 45.2501 188.77 46.2001C188.6 47.1501 188.46 48.1201 188.17 49.0301C187.59 50.8601 187.07 52.7401 186.2 54.4701C185.79 55.3501 185.38 56.2301 184.94 57.0901C184.46 57.9301 183.94 58.7501 183.43 59.5801C182.94 60.4201 182.35 61.2001 181.76 61.9801C181.15 62.7401 180.59 63.5401 179.93 64.2601C177.37 67.2101 174.32 69.7401 171 71.7701C167.65 73.7801 163.98 75.3401 160.09 75.7001Z"
fill="#F2ADBD"></path>
    <path d=
"M174.16 76.7599C176.44 75.1399 178.5 73.4299 180.44 71.6099C182.38 69.7899 184.2 67.8899 185.87 65.8499C186.31 65.3599 186.68 64.8099 187.09 64.2999C187.51 63.7899 187.91 63.2699 188.28 62.7199C188.66 62.1799 189.04 61.6399 189.44 61.1099L190.52 59.4299C191.29 58.3299 191.92 57.1499 192.65 55.9999C193.37 54.8399 193.96 53.6199 194.76 52.4399C194.6 53.8199 194.36 55.2099 194.01 56.5699C193.57 57.8899 193.23 59.2799 192.6 60.5399C192.31 61.1799 192.02 61.8299 191.71 62.4599C191.37 63.0799 191 63.6799 190.65 64.2999C190.3 64.9199 189.89 65.4999 189.48 66.0699C189.05 66.6299 188.66 67.2299 188.19 67.7699C186.39 69.9699 184.25 71.8899 181.9 73.4699C179.54 75.0099 176.95 76.2899 174.16 76.7599Z"
fill="#F2ADBD"></path>
    <path d=
"M191.67 71.27C192.71 70.07 193.64 68.98 194.53 67.88C195.42 66.79 196.26 65.71 197.06 64.59C197.84 63.46 198.66 62.35 199.42 61.15C199.85 60.57 200.18 59.94 200.63 59.34C201.06 58.73 201.43 58.08 201.97 57.46C202.18 59.04 202.02 60.63 201.57 62.13C201.16 63.65 200.4 65.06 199.49 66.36C198.57 67.65 197.4 68.76 196.09 69.64C194.78 70.5 193.29 71.17 191.67 71.27Z"
fill="#F2ADBD"></path>
    <path d=
"M40.61 95.68L38.7 95.6099C38 95.5799 37.34 95.2899 36.85 94.7799L34.7 92.5399C34.27 92.0799 34 91.4799 33.96 90.8499L33.64 85.7599L33.39 85.7699V91.6399C33.39 92.1699 33.57 92.6899 33.9 93.0999L35.92 95.68L34.01 95.6099C33.31 95.5799 32.65 95.2899 32.17 94.7799L30.01 92.5399C29.58 92.0799 29.31 91.4799 29.27 90.8499L28.67 81.2099C28.63 80.5799 29.02 79.9999 29.63 79.7999L30.52 79.5199C30.78 79.4399 31.05 79.4299 31.31 79.4999L33 79.9799C33.23 80.0399 33.44 80.1599 33.61 80.3299C33.78 80.0899 34.02 79.8999 34.32 79.7999L35.21 79.5199C35.47 79.4399 35.74 79.4299 36 79.4999L37.07 79.7999C37.67 79.9599 38.08 80.5099 38.08 81.1299V91.6399C38.08 92.1699 38.26 92.6899 38.59 93.0999L40.61 95.68Z"
fill="white"></path>
</svg>
